%TF.GenerationSoftware,KiCad,Pcbnew,10.0.0*%
%TF.CreationDate,2026-08-29T20:16:26+01:00*%
%TF.ProjectId,voltmeter,766f6c74-6d65-4746-9572-2e6b69636164,rev?*%
%TF.SameCoordinates,Original*%
%TF.FileFunction,Soldermask,Bot*%
%TF.FilePolarity,Negative*%
%FSLAX46Y46*%
G04 Gerber Fmt 4.6, Leading zero omitted, Abs format (unit mm)*
G04 Created by KiCad (PCBNEW 10.0.0) date 2026-08-29 20:16:26*
%MOMM*%
%LPD*%
G01*
G04 APERTURE LIST*
G04 Aperture macros list*
%AMRoundRect*
0 Rectangle with rounded corners*
0 $1 Rounding radius*
0 $2 $3 $4 $5 $6 $7 $8 $9 X,Y pos of 4 corners*
0 Add a 4 corners polygon primitive as box body*
4,1,4,$2,$3,$4,$5,$6,$7,$8,$9,$2,$3,0*
0 Add four circle primitives for the rounded corners*
1,1,$1+$1,$2,$3*
1,1,$1+$1,$4,$5*
1,1,$1+$1,$6,$7*
1,1,$1+$1,$8,$9*
0 Add four rect primitives between the rounded corners*
20,1,$1+$1,$2,$3,$4,$5,0*
20,1,$1+$1,$4,$5,$6,$7,0*
20,1,$1+$1,$6,$7,$8,$9,0*
20,1,$1+$1,$8,$9,$2,$3,0*%
G04 Aperture macros list end*
%ADD10C,10.160000*%
%ADD11R,2.000000X1.905000*%
%ADD12O,2.000000X1.905000*%
%ADD13C,1.600000*%
%ADD14R,1.700000X1.700000*%
%ADD15C,1.700000*%
%ADD16R,3.500000X3.500000*%
%ADD17RoundRect,0.750000X-1.000000X0.750000X-1.000000X-0.750000X1.000000X-0.750000X1.000000X0.750000X0*%
%ADD18RoundRect,0.875000X-0.875000X0.875000X-0.875000X-0.875000X0.875000X-0.875000X0.875000X0.875000X0*%
%ADD19R,1.800000X1.800000*%
%ADD20C,1.800000*%
%ADD21C,1.440000*%
%ADD22RoundRect,0.250000X-0.550000X-0.550000X0.550000X-0.550000X0.550000X0.550000X-0.550000X0.550000X0*%
%ADD23RoundRect,0.250000X0.550000X-0.550000X0.550000X0.550000X-0.550000X0.550000X-0.550000X-0.550000X0*%
%ADD24RoundRect,0.249999X0.850001X0.850001X-0.850001X0.850001X-0.850001X-0.850001X0.850001X-0.850001X0*%
%ADD25C,2.200000*%
%ADD26O,2.900000X1.700000*%
%ADD27RoundRect,0.250000X-0.550000X0.550000X-0.550000X-0.550000X0.550000X-0.550000X0.550000X0.550000X0*%
%ADD28C,1.500000*%
G04 APERTURE END LIST*
D10*
%TO.C,J3*%
X46830000Y-66010000D03*
%TD*%
D11*
%TO.C,U2*%
X94250000Y-67990000D03*
D12*
X94250000Y-70530000D03*
X94250000Y-73070000D03*
%TD*%
D13*
%TO.C,C3*%
X81570000Y-105100000D03*
X81570000Y-100100000D03*
%TD*%
%TO.C,R1*%
X65300000Y-81980000D03*
X65300000Y-92140000D03*
%TD*%
%TO.C,R5*%
X96920000Y-118475000D03*
X96920000Y-108315000D03*
%TD*%
D14*
%TO.C,LCD1*%
X43280000Y-97100000D03*
D15*
X43280000Y-99640000D03*
X43280000Y-102180000D03*
X43280000Y-104720000D03*
X43280000Y-107260000D03*
X43280000Y-109800000D03*
X43280000Y-112340000D03*
X43280000Y-114880000D03*
X43280000Y-117420000D03*
X43280000Y-119960000D03*
X43280000Y-122500000D03*
X43280000Y-125040000D03*
X43280000Y-127580000D03*
X43280000Y-130120000D03*
X43280000Y-132660000D03*
X43280000Y-135200000D03*
%TD*%
D16*
%TO.C,J2*%
X74837500Y-68570000D03*
D17*
X74837500Y-62570000D03*
D18*
X70137500Y-65570000D03*
%TD*%
D19*
%TO.C,LED1*%
X89650000Y-109230000D03*
D20*
X89650000Y-111770000D03*
%TD*%
D13*
%TO.C,R4*%
X60660000Y-76380000D03*
X70820000Y-76380000D03*
%TD*%
%TO.C,R2*%
X48390000Y-135240000D03*
X48390000Y-125080000D03*
%TD*%
D21*
%TO.C,RV1*%
X50580000Y-99290000D03*
X48040000Y-101830000D03*
X50580000Y-104370000D03*
%TD*%
D13*
%TO.C,C8*%
X81590000Y-96810000D03*
X81590000Y-91810000D03*
%TD*%
D22*
%TO.C,U1*%
X69760000Y-81920000D03*
D13*
X69760000Y-84460000D03*
X69760000Y-87000000D03*
X69760000Y-89540000D03*
X69760000Y-92080000D03*
X69760000Y-94620000D03*
X69760000Y-97160000D03*
X69760000Y-99700000D03*
X69760000Y-102240000D03*
X69760000Y-104780000D03*
X69760000Y-107320000D03*
X69760000Y-109860000D03*
X69760000Y-112400000D03*
X69760000Y-114940000D03*
X77380000Y-114940000D03*
X77380000Y-112400000D03*
X77380000Y-109860000D03*
X77380000Y-107320000D03*
X77380000Y-104780000D03*
X77380000Y-102240000D03*
X77380000Y-99700000D03*
X77380000Y-97160000D03*
X77380000Y-94620000D03*
X77380000Y-92080000D03*
X77380000Y-89540000D03*
X77380000Y-87000000D03*
X77380000Y-84460000D03*
X77380000Y-81920000D03*
%TD*%
D23*
%TO.C,D1*%
X42890000Y-88600000D03*
D13*
X42890000Y-80980000D03*
%TD*%
D24*
%TO.C,D4*%
X95970000Y-61380000D03*
D25*
X85810000Y-61380000D03*
%TD*%
D14*
%TO.C,J1*%
X89960000Y-97980000D03*
D15*
X92500000Y-97980000D03*
X89960000Y-100520000D03*
X92500000Y-100520000D03*
X89960000Y-103060000D03*
X92500000Y-103060000D03*
%TD*%
D13*
%TO.C,C5*%
X60370000Y-81930000D03*
X60370000Y-86930000D03*
%TD*%
D10*
%TO.C,J4*%
X59770000Y-65880000D03*
%TD*%
D20*
%TO.C,SW1*%
X91140000Y-82730000D03*
X91140000Y-91730000D03*
D26*
X84890000Y-84730000D03*
X97390000Y-84730000D03*
X84890000Y-89730000D03*
X97390000Y-89730000D03*
%TD*%
D27*
%TO.C,D2*%
X54340000Y-80900000D03*
D13*
X54340000Y-88520000D03*
%TD*%
%TO.C,C1*%
X63750000Y-96960000D03*
X58750000Y-96960000D03*
%TD*%
%TO.C,R3*%
X47290000Y-76470000D03*
X57450000Y-76470000D03*
%TD*%
%TO.C,C2*%
X63800000Y-114850000D03*
X58800000Y-114850000D03*
%TD*%
D28*
%TO.C,Y1*%
X64530000Y-103440000D03*
X64530000Y-108320000D03*
%TD*%
D13*
%TO.C,C7*%
X89900000Y-75700000D03*
X84900000Y-75700000D03*
%TD*%
D27*
%TO.C,C6*%
X86850000Y-68220000D03*
D13*
X86850000Y-70220000D03*
%TD*%
D27*
%TO.C,D3*%
X48560000Y-80860000D03*
D13*
X48560000Y-88480000D03*
%TD*%
M02*
