%TF.GenerationSoftware,KiCad,Pcbnew,10.0.0*%
%TF.CreationDate,2026-08-29T20:16:26+01:00*%
%TF.ProjectId,voltmeter,766f6c74-6d65-4746-9572-2e6b69636164,rev?*%
%TF.SameCoordinates,Original*%
%TF.FileFunction,Copper,L1,Top*%
%TF.FilePolarity,Positive*%
%FSLAX46Y46*%
G04 Gerber Fmt 4.6, Leading zero omitted, Abs format (unit mm)*
G04 Created by KiCad (PCBNEW 10.0.0) date 2026-08-29 20:16:26*
%MOMM*%
%LPD*%
G01*
G04 APERTURE LIST*
G04 Aperture macros list*
%AMRoundRect*
0 Rectangle with rounded corners*
0 $1 Rounding radius*
0 $2 $3 $4 $5 $6 $7 $8 $9 X,Y pos of 4 corners*
0 Add a 4 corners polygon primitive as box body*
4,1,4,$2,$3,$4,$5,$6,$7,$8,$9,$2,$3,0*
0 Add four circle primitives for the rounded corners*
1,1,$1+$1,$2,$3*
1,1,$1+$1,$4,$5*
1,1,$1+$1,$6,$7*
1,1,$1+$1,$8,$9*
0 Add four rect primitives between the rounded corners*
20,1,$1+$1,$2,$3,$4,$5,0*
20,1,$1+$1,$4,$5,$6,$7,0*
20,1,$1+$1,$6,$7,$8,$9,0*
20,1,$1+$1,$8,$9,$2,$3,0*%
G04 Aperture macros list end*
%TA.AperFunction,ComponentPad*%
%ADD10C,10.160000*%
%TD*%
%TA.AperFunction,ComponentPad*%
%ADD11R,2.000000X1.905000*%
%TD*%
%TA.AperFunction,ComponentPad*%
%ADD12O,2.000000X1.905000*%
%TD*%
%TA.AperFunction,ComponentPad*%
%ADD13C,1.600000*%
%TD*%
%TA.AperFunction,ComponentPad*%
%ADD14R,1.700000X1.700000*%
%TD*%
%TA.AperFunction,ComponentPad*%
%ADD15C,1.700000*%
%TD*%
%TA.AperFunction,ComponentPad*%
%ADD16R,3.500000X3.500000*%
%TD*%
%TA.AperFunction,ComponentPad*%
%ADD17RoundRect,0.750000X-1.000000X0.750000X-1.000000X-0.750000X1.000000X-0.750000X1.000000X0.750000X0*%
%TD*%
%TA.AperFunction,ComponentPad*%
%ADD18RoundRect,0.875000X-0.875000X0.875000X-0.875000X-0.875000X0.875000X-0.875000X0.875000X0.875000X0*%
%TD*%
%TA.AperFunction,ComponentPad*%
%ADD19R,1.800000X1.800000*%
%TD*%
%TA.AperFunction,ComponentPad*%
%ADD20C,1.800000*%
%TD*%
%TA.AperFunction,ComponentPad*%
%ADD21C,1.440000*%
%TD*%
%TA.AperFunction,ComponentPad*%
%ADD22RoundRect,0.250000X-0.550000X-0.550000X0.550000X-0.550000X0.550000X0.550000X-0.550000X0.550000X0*%
%TD*%
%TA.AperFunction,ComponentPad*%
%ADD23RoundRect,0.250000X0.550000X-0.550000X0.550000X0.550000X-0.550000X0.550000X-0.550000X-0.550000X0*%
%TD*%
%TA.AperFunction,ComponentPad*%
%ADD24RoundRect,0.249999X0.850001X0.850001X-0.850001X0.850001X-0.850001X-0.850001X0.850001X-0.850001X0*%
%TD*%
%TA.AperFunction,ComponentPad*%
%ADD25C,2.200000*%
%TD*%
%TA.AperFunction,ComponentPad*%
%ADD26O,2.900000X1.700000*%
%TD*%
%TA.AperFunction,ComponentPad*%
%ADD27RoundRect,0.250000X-0.550000X0.550000X-0.550000X-0.550000X0.550000X-0.550000X0.550000X0.550000X0*%
%TD*%
%TA.AperFunction,SMDPad,CuDef*%
%ADD28RoundRect,0.250000X-0.375000X-0.625000X0.375000X-0.625000X0.375000X0.625000X-0.375000X0.625000X0*%
%TD*%
%TA.AperFunction,ComponentPad*%
%ADD29C,1.500000*%
%TD*%
%TA.AperFunction,Conductor*%
%ADD30C,0.200000*%
%TD*%
G04 APERTURE END LIST*
D10*
%TO.P,J3,1,Pin_1_1*%
%TO.N,Net-(J3-Pin_1)*%
X46830000Y-66010000D03*
%TD*%
D11*
%TO.P,U2,1,IN_1*%
%TO.N,Net-(D4-K)*%
X94250000Y-67990000D03*
D12*
%TO.P,U2,2,GND_2*%
%TO.N,GND*%
X94250000Y-70530000D03*
%TO.P,U2,3,OUT_3*%
%TO.N,Net-(SW1-A)*%
X94250000Y-73070000D03*
%TD*%
D13*
%TO.P,C3,1*%
%TO.N,+5V*%
X81570000Y-105100000D03*
%TO.P,C3,2*%
%TO.N,GND*%
X81570000Y-100100000D03*
%TD*%
%TO.P,R1,1*%
%TO.N,Net-(J1-Pin_5)*%
X65300000Y-81980000D03*
%TO.P,R1,2*%
%TO.N,+5V*%
X65300000Y-92140000D03*
%TD*%
%TO.P,R5,1*%
%TO.N,GND*%
X96920000Y-118475000D03*
%TO.P,R5,2*%
%TO.N,Net-(LED1-K)*%
X96920000Y-108315000D03*
%TD*%
D14*
%TO.P,LCD1,1,VSS_1*%
%TO.N,GND*%
X43280000Y-97100000D03*
D15*
%TO.P,LCD1,2,VDD_2*%
%TO.N,+5V*%
X43280000Y-99640000D03*
%TO.P,LCD1,3,VO_3*%
%TO.N,Net-(LCD1-VO)*%
X43280000Y-102180000D03*
%TO.P,LCD1,4,RS_4*%
%TO.N,Net-(LCD1-RS)*%
X43280000Y-104720000D03*
%TO.P,LCD1,5,R/~{W}_5*%
%TO.N,GND*%
X43280000Y-107260000D03*
%TO.P,LCD1,6,E_6*%
%TO.N,Net-(LCD1-E)*%
X43280000Y-109800000D03*
%TO.P,LCD1,7,DB0_7*%
%TO.N,unconnected-(LCD1-DB0-Pad7)*%
X43280000Y-112340000D03*
%TO.P,LCD1,8,DB1_8*%
%TO.N,unconnected-(LCD1-DB1-Pad8)*%
X43280000Y-114880000D03*
%TO.P,LCD1,9,DB2_9*%
%TO.N,unconnected-(LCD1-DB2-Pad9)*%
X43280000Y-117420000D03*
%TO.P,LCD1,10,DB3_10*%
%TO.N,unconnected-(LCD1-DB3-Pad10)*%
X43280000Y-119960000D03*
%TO.P,LCD1,11,DB4_11*%
%TO.N,Net-(LCD1-DB4)*%
X43280000Y-122500000D03*
%TO.P,LCD1,12,DB5_12*%
%TO.N,Net-(LCD1-DB5)*%
X43280000Y-125040000D03*
%TO.P,LCD1,13,DB6_13*%
%TO.N,Net-(LCD1-DB6)*%
X43280000Y-127580000D03*
%TO.P,LCD1,14,DB7_14*%
%TO.N,Net-(LCD1-DB7)*%
X43280000Y-130120000D03*
%TO.P,LCD1,15,A/VEE_15*%
%TO.N,Net-(LCD1-A{slash}VEE)*%
X43280000Y-132660000D03*
%TO.P,LCD1,16,K_16*%
%TO.N,GND*%
X43280000Y-135200000D03*
%TD*%
D16*
%TO.P,J2,1*%
%TO.N,Net-(D4-A)*%
X74837500Y-68570000D03*
D17*
%TO.P,J2,2*%
%TO.N,GND*%
X74837500Y-62570000D03*
D18*
%TO.P,J2,3*%
%TO.N,N/C*%
X70137500Y-65570000D03*
%TD*%
D19*
%TO.P,LED1,1,K_1*%
%TO.N,Net-(LED1-K)*%
X89650000Y-109230000D03*
D20*
%TO.P,LED1,2,A_2*%
%TO.N,+5V*%
X89650000Y-111770000D03*
%TD*%
D13*
%TO.P,R4,1*%
%TO.N,Net-(D1-A)*%
X60660000Y-76380000D03*
%TO.P,R4,2*%
%TO.N,GND*%
X70820000Y-76380000D03*
%TD*%
%TO.P,R2,1*%
%TO.N,Net-(LCD1-A{slash}VEE)*%
X48390000Y-135240000D03*
%TO.P,R2,2*%
%TO.N,+5V*%
X48390000Y-125080000D03*
%TD*%
D21*
%TO.P,RV1,1,1_1*%
%TO.N,+5V*%
X50580000Y-99290000D03*
%TO.P,RV1,2,2_2*%
%TO.N,Net-(LCD1-VO)*%
X48040000Y-101830000D03*
%TO.P,RV1,3,3_3*%
%TO.N,GND*%
X50580000Y-104370000D03*
%TD*%
D13*
%TO.P,C8,1*%
%TO.N,Net-(U1-AREF)*%
X81590000Y-96810000D03*
%TO.P,C8,2*%
%TO.N,GND*%
X81590000Y-91810000D03*
%TD*%
D22*
%TO.P,U1,1,~{RESET}/PC6_1*%
%TO.N,Net-(J1-Pin_5)*%
X69760000Y-81920000D03*
D13*
%TO.P,U1,2,PD0_2*%
%TO.N,unconnected-(U1-PD0-Pad2)*%
X69760000Y-84460000D03*
%TO.P,U1,3,PD1_3*%
%TO.N,unconnected-(U1-PD1-Pad3)*%
X69760000Y-87000000D03*
%TO.P,U1,4,PD2_4*%
%TO.N,Net-(LCD1-RS)*%
X69760000Y-89540000D03*
%TO.P,U1,5,PD3_5*%
%TO.N,Net-(LCD1-E)*%
X69760000Y-92080000D03*
%TO.P,U1,6,PD4_6*%
%TO.N,Net-(LCD1-DB4)*%
X69760000Y-94620000D03*
%TO.P,U1,7,VCC_7*%
%TO.N,+5V*%
X69760000Y-97160000D03*
%TO.P,U1,8,GND_8*%
%TO.N,GND*%
X69760000Y-99700000D03*
%TO.P,U1,9,XTAL1/PB6_9*%
%TO.N,Net-(U1-XTAL1{slash}PB6)*%
X69760000Y-102240000D03*
%TO.P,U1,10,XTAL2/PB7_10*%
%TO.N,Net-(U1-XTAL2{slash}PB7)*%
X69760000Y-104780000D03*
%TO.P,U1,11,PD5_11*%
%TO.N,Net-(LCD1-DB5)*%
X69760000Y-107320000D03*
%TO.P,U1,12,PD6_12*%
%TO.N,Net-(LCD1-DB6)*%
X69760000Y-109860000D03*
%TO.P,U1,13,PD7_13*%
%TO.N,Net-(LCD1-DB7)*%
X69760000Y-112400000D03*
%TO.P,U1,14,PB0_14*%
%TO.N,unconnected-(U1-PB0-Pad14)*%
X69760000Y-114940000D03*
%TO.P,U1,15,PB1_15*%
%TO.N,unconnected-(U1-PB1-Pad15)*%
X77380000Y-114940000D03*
%TO.P,U1,16,PB2_16*%
%TO.N,unconnected-(U1-PB2-Pad16)*%
X77380000Y-112400000D03*
%TO.P,U1,17,PB3_17*%
%TO.N,Net-(J1-Pin_4)*%
X77380000Y-109860000D03*
%TO.P,U1,18,PB4_18*%
%TO.N,Net-(J1-Pin_1)*%
X77380000Y-107320000D03*
%TO.P,U1,19,PB5_19*%
%TO.N,Net-(J1-Pin_3)*%
X77380000Y-104780000D03*
%TO.P,U1,20,AVCC_20*%
%TO.N,+5V*%
X77380000Y-102240000D03*
%TO.P,U1,21,AREF_21*%
%TO.N,Net-(U1-AREF)*%
X77380000Y-99700000D03*
%TO.P,U1,22,GND_22*%
%TO.N,GND*%
X77380000Y-97160000D03*
%TO.P,U1,23,PC0_23*%
%TO.N,Net-(D1-A)*%
X77380000Y-94620000D03*
%TO.P,U1,24,PC1_24*%
%TO.N,unconnected-(U1-PC1-Pad24)*%
X77380000Y-92080000D03*
%TO.P,U1,25,PC2_25*%
%TO.N,unconnected-(U1-PC2-Pad25)*%
X77380000Y-89540000D03*
%TO.P,U1,26,PC3_26*%
%TO.N,unconnected-(U1-PC3-Pad26)*%
X77380000Y-87000000D03*
%TO.P,U1,27,PC4_27*%
%TO.N,unconnected-(U1-PC4-Pad27)*%
X77380000Y-84460000D03*
%TO.P,U1,28,PC5_28*%
%TO.N,unconnected-(U1-PC5-Pad28)*%
X77380000Y-81920000D03*
%TD*%
D23*
%TO.P,D1,1,K_1*%
%TO.N,+5V*%
X42890000Y-88600000D03*
D13*
%TO.P,D1,2,A_2*%
%TO.N,Net-(D1-A)*%
X42890000Y-80980000D03*
%TD*%
D24*
%TO.P,D4,1,K_1*%
%TO.N,Net-(D4-K)*%
X95970000Y-61380000D03*
D25*
%TO.P,D4,2,A_2*%
%TO.N,Net-(D4-A)*%
X85810000Y-61380000D03*
%TD*%
D14*
%TO.P,J1,1,Pin_1_1*%
%TO.N,Net-(J1-Pin_1)*%
X89960000Y-97980000D03*
D15*
%TO.P,J1,2,Pin_2_2*%
%TO.N,+5V*%
X92500000Y-97980000D03*
%TO.P,J1,3,Pin_3_3*%
%TO.N,Net-(J1-Pin_3)*%
X89960000Y-100520000D03*
%TO.P,J1,4,Pin_4_4*%
%TO.N,Net-(J1-Pin_4)*%
X92500000Y-100520000D03*
%TO.P,J1,5,Pin_5_5*%
%TO.N,Net-(J1-Pin_5)*%
X89960000Y-103060000D03*
%TO.P,J1,6,Pin_6_6*%
%TO.N,GND*%
X92500000Y-103060000D03*
%TD*%
D13*
%TO.P,C5,1*%
%TO.N,Net-(D1-A)*%
X60370000Y-81930000D03*
%TO.P,C5,2*%
%TO.N,GND*%
X60370000Y-86930000D03*
%TD*%
D10*
%TO.P,J4,1,Pin_1_1*%
%TO.N,GND*%
X59770000Y-65880000D03*
%TD*%
D26*
%TO.P,SW1,1,A_1*%
%TO.N,Net-(SW1-A)*%
X84890000Y-84730000D03*
X97390000Y-84730000D03*
%TO.P,SW1,2,B_2*%
%TO.N,+5V*%
X84890000Y-89730000D03*
X97390000Y-89730000D03*
%TD*%
D27*
%TO.P,D2,1,K_1*%
%TO.N,Net-(D1-A)*%
X54340000Y-80900000D03*
D13*
%TO.P,D2,2,A_2*%
%TO.N,GND*%
X54340000Y-88520000D03*
%TD*%
D28*
%TO.P,F1,1*%
%TO.N,Net-(J3-Pin_1)*%
X41400000Y-76270000D03*
%TO.P,F1,2*%
%TO.N,Net-(F1-Pad2)*%
X44200000Y-76270000D03*
%TD*%
D13*
%TO.P,C1,1*%
%TO.N,Net-(U1-XTAL1{slash}PB6)*%
X63750000Y-96960000D03*
%TO.P,C1,2*%
%TO.N,GND*%
X58750000Y-96960000D03*
%TD*%
%TO.P,R3,1*%
%TO.N,Net-(F1-Pad2)*%
X47290000Y-76470000D03*
%TO.P,R3,2*%
%TO.N,Net-(D1-A)*%
X57450000Y-76470000D03*
%TD*%
%TO.P,C2,1*%
%TO.N,Net-(U1-XTAL2{slash}PB7)*%
X63800000Y-114850000D03*
%TO.P,C2,2*%
%TO.N,GND*%
X58800000Y-114850000D03*
%TD*%
D29*
%TO.P,Y1,1,1_1*%
%TO.N,Net-(U1-XTAL1{slash}PB6)*%
X64530000Y-103440000D03*
%TO.P,Y1,2,2_2*%
%TO.N,Net-(U1-XTAL2{slash}PB7)*%
X64530000Y-108320000D03*
%TD*%
D13*
%TO.P,C7,1*%
%TO.N,+5V*%
X89900000Y-75700000D03*
%TO.P,C7,2*%
%TO.N,GND*%
X84900000Y-75700000D03*
%TD*%
D27*
%TO.P,C6,1*%
%TO.N,Net-(D4-K)*%
X86850000Y-68220000D03*
D13*
%TO.P,C6,2*%
%TO.N,GND*%
X86850000Y-70220000D03*
%TD*%
D27*
%TO.P,D3,1,K_1*%
%TO.N,Net-(D1-A)*%
X48560000Y-80860000D03*
D13*
%TO.P,D3,2,A_2*%
%TO.N,GND*%
X48560000Y-88480000D03*
%TD*%
%TO.N,Net-(J3-Pin_1)*%
D30*
X46830000Y-66010000D02*
X41400000Y-71440000D01*
X41400000Y-71440000D02*
X41400000Y-76270000D01*
%TO.N,Net-(D4-K)*%
X95970000Y-61380000D02*
X95970000Y-66270000D01*
X94250000Y-67990000D02*
X87080000Y-67990000D01*
X87080000Y-67990000D02*
X86850000Y-68220000D01*
X95970000Y-66270000D02*
X94250000Y-67990000D01*
%TO.N,GND*%
X63080000Y-62570000D02*
X59770000Y-65880000D01*
X43280000Y-107260000D02*
X43300000Y-107280000D01*
X42130000Y-108410000D02*
X43280000Y-107260000D01*
X69880000Y-99580000D02*
X69760000Y-99700000D01*
X84900000Y-75700000D02*
X84630000Y-75970000D01*
X71230000Y-75970000D02*
X70820000Y-76380000D01*
X42130000Y-106110000D02*
X43280000Y-107260000D01*
X70830000Y-76390000D02*
X70820000Y-76380000D01*
X60320000Y-65880000D02*
X59770000Y-65880000D01*
X87160000Y-70530000D02*
X86850000Y-70220000D01*
X58750000Y-88550000D02*
X58780000Y-88520000D01*
X54300000Y-88480000D02*
X54340000Y-88520000D01*
%TO.N,Net-(SW1-A)*%
X97390000Y-76210000D02*
X94250000Y-73070000D01*
X97390000Y-84730000D02*
X97390000Y-76210000D01*
%TO.N,+5V*%
X92500000Y-97930000D02*
X92500000Y-97980000D01*
X79255635Y-105100000D02*
X81570000Y-105100000D01*
X97800000Y-89820000D02*
X97750000Y-89820000D01*
X83320000Y-102215635D02*
X82245635Y-103290000D01*
X84890000Y-89730000D02*
X82950000Y-87790000D01*
X78430000Y-103290000D02*
X77380000Y-102240000D01*
X92910000Y-97520000D02*
X92500000Y-97930000D01*
X97390000Y-93090000D02*
X97390000Y-89730000D01*
X89900000Y-75700000D02*
X86600000Y-75700000D01*
X84670000Y-89730000D02*
X83320000Y-91080000D01*
X84890000Y-89730000D02*
X84890000Y-89390000D01*
X77380000Y-103230000D02*
X77830000Y-103680000D01*
X86600000Y-75700000D02*
X82950000Y-79350000D01*
X78407818Y-104252182D02*
X79255635Y-105100000D01*
X50230000Y-99640000D02*
X50580000Y-99290000D01*
X82950000Y-87790000D02*
X82950000Y-79350000D01*
X84890000Y-90370000D02*
X84890000Y-89730000D01*
X84890000Y-89730000D02*
X84670000Y-89730000D01*
X77830000Y-103680000D02*
X77835635Y-103680000D01*
X92500000Y-97980000D02*
X97390000Y-93090000D01*
X82245635Y-103290000D02*
X78430000Y-103290000D01*
X92500000Y-97980000D02*
X84890000Y-90370000D01*
X77835635Y-103680000D02*
X78407818Y-104252182D01*
X83320000Y-91080000D02*
X83320000Y-102215635D01*
X43280000Y-99640000D02*
X50230000Y-99640000D01*
X77380000Y-102240000D02*
X77380000Y-103230000D01*
%TO.N,Net-(J1-Pin_5)*%
X69760000Y-81920000D02*
X65360000Y-81920000D01*
X65360000Y-81920000D02*
X65300000Y-81980000D01*
%TO.N,Net-(LED1-K)*%
X90565000Y-108315000D02*
X89650000Y-109230000D01*
X96920000Y-108315000D02*
X90565000Y-108315000D01*
%TO.N,Net-(LCD1-VO)*%
X47690000Y-102180000D02*
X48040000Y-101830000D01*
X43280000Y-102180000D02*
X47690000Y-102180000D01*
%TO.N,Net-(LCD1-RS)*%
X57764314Y-105480000D02*
X68220000Y-95024314D01*
X49320000Y-105480000D02*
X57764314Y-105480000D01*
X68217183Y-92092818D02*
X68220000Y-92090001D01*
X68220000Y-95024314D02*
X68220000Y-92095635D01*
X43280000Y-104720000D02*
X48560000Y-104720000D01*
X68220000Y-92090001D02*
X68220000Y-91080000D01*
X68220000Y-91080000D02*
X69760000Y-89540000D01*
X68220000Y-92095635D02*
X68217183Y-92092818D01*
X48560000Y-104720000D02*
X49320000Y-105480000D01*
%TO.N,Net-(LCD1-E)*%
X43280000Y-109800000D02*
X54010000Y-109800000D01*
X68620000Y-93220000D02*
X69760000Y-92080000D01*
X68620000Y-95190000D02*
X68620000Y-93220000D01*
X54010000Y-109800000D02*
X68620000Y-95190000D01*
%TO.N,Net-(LCD1-DB4)*%
X45340000Y-119040000D02*
X69760000Y-94620000D01*
X45340000Y-120440000D02*
X45340000Y-119040000D01*
X43280000Y-122500000D02*
X45340000Y-120440000D01*
%TO.N,Net-(LCD1-DB5)*%
X45648628Y-125060000D02*
X47868629Y-122840000D01*
X43280000Y-125040000D02*
X43300000Y-125060000D01*
X68260000Y-108820000D02*
X69760000Y-107320000D01*
X47868629Y-122840000D02*
X58400000Y-122840000D01*
X43300000Y-125060000D02*
X45648628Y-125060000D01*
X68260000Y-112980000D02*
X68260000Y-108820000D01*
X58400000Y-122840000D02*
X68260000Y-112980000D01*
%TO.N,Net-(LCD1-DB6)*%
X68660000Y-113210000D02*
X58630000Y-123240000D01*
X44030000Y-127244314D02*
X44030000Y-127340000D01*
X58630000Y-123240000D02*
X48034314Y-123240000D01*
X69760000Y-109860000D02*
X68660000Y-110960000D01*
X68660000Y-110960000D02*
X68660000Y-113210000D01*
X48034314Y-123240000D02*
X44030000Y-127244314D01*
X43790000Y-127580000D02*
X43280000Y-127580000D01*
X44030000Y-127340000D02*
X43790000Y-127580000D01*
%TO.N,Net-(LCD1-DB7)*%
X58850000Y-123640000D02*
X69760000Y-112730000D01*
X44480000Y-128920000D02*
X44480000Y-127360000D01*
X44480000Y-127360000D02*
X48200000Y-123640000D01*
X43280000Y-130120000D02*
X44480000Y-128920000D01*
X69760000Y-112730000D02*
X69760000Y-112400000D01*
X48200000Y-123640000D02*
X58850000Y-123640000D01*
%TO.N,Net-(D4-A)*%
X78620000Y-68570000D02*
X85810000Y-61380000D01*
X74837500Y-68570000D02*
X78620000Y-68570000D01*
%TO.N,Net-(D1-A)*%
X70544744Y-80820000D02*
X75880000Y-86155256D01*
X57450000Y-79010000D02*
X57450000Y-78990000D01*
X57450000Y-78990000D02*
X57450000Y-76470000D01*
X61480000Y-80820000D02*
X70544744Y-80820000D01*
X57450000Y-76470000D02*
X60570000Y-76470000D01*
X55540000Y-80900000D02*
X57450000Y-78990000D01*
X54300000Y-80860000D02*
X54340000Y-80900000D01*
X60570000Y-76470000D02*
X60660000Y-76380000D01*
X43010000Y-80860000D02*
X48560000Y-80860000D01*
X54340000Y-80900000D02*
X55540000Y-80900000D01*
X48560000Y-80860000D02*
X54300000Y-80860000D01*
X60370000Y-81930000D02*
X57450000Y-79010000D01*
X60370000Y-81930000D02*
X61480000Y-80820000D01*
X42890000Y-80980000D02*
X43010000Y-80860000D01*
X75880000Y-93120000D02*
X77380000Y-94620000D01*
X75880000Y-86155256D02*
X75880000Y-93120000D01*
%TO.N,Net-(U1-AREF)*%
X77380000Y-99700000D02*
X78700000Y-99700000D01*
X78700000Y-99700000D02*
X81590000Y-96810000D01*
%TO.N,Net-(J1-Pin_4)*%
X91350000Y-101670000D02*
X92500000Y-100520000D01*
X91350000Y-103300000D02*
X91350000Y-101670000D01*
X79150000Y-107160000D02*
X84507008Y-107160000D01*
X77380000Y-108930000D02*
X79150000Y-107160000D01*
X87447007Y-104220000D02*
X90430000Y-104220000D01*
X77380000Y-109860000D02*
X77380000Y-108930000D01*
X90430000Y-104220000D02*
X91350000Y-103300000D01*
X84507008Y-107160000D02*
X87447007Y-104220000D01*
%TO.N,Net-(J1-Pin_1)*%
X89271321Y-101830000D02*
X90276346Y-101830000D01*
X91110000Y-100996346D02*
X91110000Y-99130000D01*
X77380000Y-107320000D02*
X77940000Y-106760000D01*
X91110000Y-99130000D02*
X89960000Y-97980000D01*
X84341322Y-106760000D02*
X89271321Y-101830000D01*
X90276346Y-101830000D02*
X91110000Y-100996346D01*
X77940000Y-106760000D02*
X84341322Y-106760000D01*
%TO.N,Net-(J1-Pin_3)*%
X89960000Y-100600000D02*
X89960000Y-100520000D01*
X78960000Y-106360000D02*
X84175636Y-106360000D01*
X89290000Y-101270000D02*
X89960000Y-100600000D01*
X89265636Y-101270000D02*
X89290000Y-101270000D01*
X77380000Y-104780000D02*
X78960000Y-106360000D01*
X84175636Y-106360000D02*
X89265636Y-101270000D01*
%TO.N,Net-(F1-Pad2)*%
X47090000Y-76270000D02*
X47290000Y-76470000D01*
X44200000Y-76270000D02*
X47090000Y-76270000D01*
%TD*%
%TA.AperFunction,Conductor*%
%TO.N,GND*%
G36*
X99192539Y-58890185D02*
G01*
X99238294Y-58942989D01*
X99249500Y-58994500D01*
X99249500Y-83784310D01*
X99229815Y-83851349D01*
X99177011Y-83897104D01*
X99107853Y-83907048D01*
X99044297Y-83878023D01*
X99025185Y-83857199D01*
X99020111Y-83850216D01*
X99020105Y-83850209D01*
X98869786Y-83699890D01*
X98697820Y-83574951D01*
X98508414Y-83478444D01*
X98508413Y-83478443D01*
X98508412Y-83478443D01*
X98306243Y-83412754D01*
X98306241Y-83412753D01*
X98306239Y-83412753D01*
X98095102Y-83379312D01*
X98031967Y-83349383D01*
X97995036Y-83290071D01*
X97990500Y-83256839D01*
X97990500Y-76299060D01*
X97990501Y-76299047D01*
X97990501Y-76130944D01*
X97990501Y-76130943D01*
X97949577Y-75978216D01*
X97949573Y-75978209D01*
X97870524Y-75841290D01*
X97870518Y-75841282D01*
X95700953Y-73671718D01*
X95667468Y-73610395D01*
X95670703Y-73545719D01*
X95714722Y-73410245D01*
X95750500Y-73184354D01*
X95750500Y-72955646D01*
X95714722Y-72729755D01*
X95714721Y-72729751D01*
X95714721Y-72729750D01*
X95644049Y-72512244D01*
X95540216Y-72308461D01*
X95405786Y-72123434D01*
X95244066Y-71961714D01*
X95159134Y-71900007D01*
X95116470Y-71844678D01*
X95110491Y-71775064D01*
X95143097Y-71713269D01*
X95159137Y-71699371D01*
X95243739Y-71637905D01*
X95405402Y-71476242D01*
X95539788Y-71291276D01*
X95643582Y-71087568D01*
X95714234Y-70870125D01*
X95714234Y-70870124D01*
X95744348Y-70680000D01*
X94779209Y-70680000D01*
X94800000Y-70602409D01*
X94800000Y-70457591D01*
X94779209Y-70380000D01*
X95744348Y-70380000D01*
X95714234Y-70189875D01*
X95714234Y-70189874D01*
X95643582Y-69972431D01*
X95539788Y-69768723D01*
X95406988Y-69585940D01*
X95383508Y-69520133D01*
X95399333Y-69452079D01*
X95449439Y-69403384D01*
X95463966Y-69396875D01*
X95492331Y-69386296D01*
X95607546Y-69300046D01*
X95693796Y-69184831D01*
X95744091Y-69049983D01*
X95750500Y-68990373D01*
X95750499Y-67390095D01*
X95770184Y-67323057D01*
X95786813Y-67302420D01*
X96328506Y-66760728D01*
X96328511Y-66760724D01*
X96338714Y-66750520D01*
X96338716Y-66750520D01*
X96450520Y-66638716D01*
X96529577Y-66501784D01*
X96570500Y-66349057D01*
X96570500Y-63104500D01*
X96590185Y-63037461D01*
X96642989Y-62991706D01*
X96694500Y-62980500D01*
X96870005Y-62980500D01*
X96870010Y-62980500D01*
X96972798Y-62969999D01*
X97139335Y-62914814D01*
X97288656Y-62822712D01*
X97412712Y-62698656D01*
X97504814Y-62549335D01*
X97559999Y-62382798D01*
X97570500Y-62280010D01*
X97570500Y-60479990D01*
X97559999Y-60377202D01*
X97504814Y-60210665D01*
X97412712Y-60061344D01*
X97288656Y-59937288D01*
X97139335Y-59845186D01*
X96972798Y-59790001D01*
X96972796Y-59790000D01*
X96870017Y-59779500D01*
X96870010Y-59779500D01*
X95069990Y-59779500D01*
X95069982Y-59779500D01*
X94967203Y-59790000D01*
X94967202Y-59790001D01*
X94884669Y-59817349D01*
X94800667Y-59845185D01*
X94800662Y-59845187D01*
X94651342Y-59937289D01*
X94527289Y-60061342D01*
X94435187Y-60210662D01*
X94435186Y-60210665D01*
X94380001Y-60377202D01*
X94380001Y-60377203D01*
X94380000Y-60377203D01*
X94369500Y-60479982D01*
X94369500Y-62280017D01*
X94380000Y-62382796D01*
X94435185Y-62549332D01*
X94435187Y-62549337D01*
X94437126Y-62552480D01*
X94527288Y-62698656D01*
X94651344Y-62822712D01*
X94800665Y-62914814D01*
X94967202Y-62969999D01*
X95069990Y-62980500D01*
X95245500Y-62980500D01*
X95312539Y-63000185D01*
X95358294Y-63052989D01*
X95369500Y-63104500D01*
X95369500Y-65969902D01*
X95349815Y-66036941D01*
X95333181Y-66057583D01*
X94890083Y-66500681D01*
X94828760Y-66534166D01*
X94802402Y-66537000D01*
X93202129Y-66537000D01*
X93202123Y-66537001D01*
X93142516Y-66543408D01*
X93007671Y-66593702D01*
X93007664Y-66593706D01*
X92892455Y-66679952D01*
X92892452Y-66679955D01*
X92806206Y-66795164D01*
X92806202Y-66795171D01*
X92755908Y-66930017D01*
X92749501Y-66989616D01*
X92749500Y-66989635D01*
X92749500Y-67265500D01*
X92729815Y-67332539D01*
X92677011Y-67378294D01*
X92625500Y-67389500D01*
X88177974Y-67389500D01*
X88110935Y-67369815D01*
X88072435Y-67330597D01*
X87992712Y-67201344D01*
X87868656Y-67077288D01*
X87726534Y-66989627D01*
X87719336Y-66985187D01*
X87719331Y-66985185D01*
X87717862Y-66984698D01*
X87552797Y-66930001D01*
X87552795Y-66930000D01*
X87450010Y-66919500D01*
X86249998Y-66919500D01*
X86249981Y-66919501D01*
X86147203Y-66930000D01*
X86147200Y-66930001D01*
X85980668Y-66985185D01*
X85980663Y-66985187D01*
X85831342Y-67077289D01*
X85707289Y-67201342D01*
X85615187Y-67350663D01*
X85615185Y-67350668D01*
X85591832Y-67421143D01*
X85560001Y-67517203D01*
X85560001Y-67517204D01*
X85560000Y-67517204D01*
X85549500Y-67619983D01*
X85549500Y-68820001D01*
X85549501Y-68820018D01*
X85560000Y-68922796D01*
X85560001Y-68922799D01*
X85615185Y-69089331D01*
X85615187Y-69089336D01*
X85707289Y-69238657D01*
X85776510Y-69307878D01*
X85809995Y-69369201D01*
X85805011Y-69438893D01*
X85789148Y-69468444D01*
X85738139Y-69538651D01*
X85645244Y-69720968D01*
X85582009Y-69915582D01*
X85550000Y-70117682D01*
X85550000Y-70322317D01*
X85582009Y-70524417D01*
X85645244Y-70719031D01*
X85738141Y-70901350D01*
X85738147Y-70901359D01*
X85830033Y-71027831D01*
X85830035Y-71027832D01*
X86479533Y-70378334D01*
X86529920Y-70465606D01*
X86604394Y-70540080D01*
X86691663Y-70590465D01*
X86042166Y-71239963D01*
X86168650Y-71331859D01*
X86350968Y-71424755D01*
X86545582Y-71487990D01*
X86747683Y-71520000D01*
X86952317Y-71520000D01*
X87154417Y-71487990D01*
X87349031Y-71424755D01*
X87531349Y-71331859D01*
X87657831Y-71239963D01*
X87657832Y-71239963D01*
X87008334Y-70590465D01*
X87095606Y-70540080D01*
X87170080Y-70465606D01*
X87220465Y-70378334D01*
X87869963Y-71027832D01*
X87869963Y-71027831D01*
X87961859Y-70901349D01*
X88054755Y-70719031D01*
X88117990Y-70524417D01*
X88150000Y-70322317D01*
X88150000Y-70117682D01*
X88117990Y-69915582D01*
X88054755Y-69720968D01*
X87961857Y-69538646D01*
X87910853Y-69468446D01*
X87887372Y-69402640D01*
X87903197Y-69334586D01*
X87923489Y-69307879D01*
X87936868Y-69294500D01*
X87992712Y-69238656D01*
X88084814Y-69089334D01*
X88139999Y-68922797D01*
X88150500Y-68820009D01*
X88150500Y-68714500D01*
X88170185Y-68647461D01*
X88222989Y-68601706D01*
X88274500Y-68590500D01*
X92625501Y-68590500D01*
X92692540Y-68610185D01*
X92738295Y-68662989D01*
X92749501Y-68714500D01*
X92749501Y-68990376D01*
X92755908Y-69049983D01*
X92806202Y-69184828D01*
X92806206Y-69184835D01*
X92892452Y-69300044D01*
X92892455Y-69300047D01*
X93007664Y-69386293D01*
X93007667Y-69386295D01*
X93007668Y-69386295D01*
X93007669Y-69386296D01*
X93036025Y-69396872D01*
X93091958Y-69438742D01*
X93116376Y-69504206D01*
X93101525Y-69572479D01*
X93093010Y-69585939D01*
X92960213Y-69768719D01*
X92856417Y-69972431D01*
X92785765Y-70189874D01*
X92785765Y-70189875D01*
X92755652Y-70380000D01*
X93720791Y-70380000D01*
X93700000Y-70457591D01*
X93700000Y-70602409D01*
X93720791Y-70680000D01*
X92755652Y-70680000D01*
X92785765Y-70870124D01*
X92785765Y-70870125D01*
X92856417Y-71087568D01*
X92960211Y-71291276D01*
X93094597Y-71476242D01*
X93256257Y-71637902D01*
X93256263Y-71637907D01*
X93340863Y-71699372D01*
X93383529Y-71754701D01*
X93389508Y-71824315D01*
X93356903Y-71886110D01*
X93340864Y-71900007D01*
X93255940Y-71961709D01*
X93255931Y-71961716D01*
X93094216Y-72123431D01*
X93094216Y-72123432D01*
X93094214Y-72123434D01*
X93036480Y-72202896D01*
X92959783Y-72308461D01*
X92855950Y-72512244D01*
X92785278Y-72729750D01*
X92785278Y-72729753D01*
X92749500Y-72955646D01*
X92749500Y-73184353D01*
X92785278Y-73410246D01*
X92785278Y-73410249D01*
X92855950Y-73627755D01*
X92959783Y-73831538D01*
X93094214Y-74016566D01*
X93255934Y-74178286D01*
X93440962Y-74312717D01*
X93612265Y-74400000D01*
X93644744Y-74416549D01*
X93862251Y-74487221D01*
X93862252Y-74487221D01*
X93862255Y-74487222D01*
X94088146Y-74523000D01*
X94088147Y-74523000D01*
X94411853Y-74523000D01*
X94411854Y-74523000D01*
X94637745Y-74487222D01*
X94701517Y-74466500D01*
X94771357Y-74464506D01*
X94827515Y-74496751D01*
X96753181Y-76422416D01*
X96786666Y-76483739D01*
X96789500Y-76510097D01*
X96789500Y-83256839D01*
X96769815Y-83323878D01*
X96717011Y-83369633D01*
X96684898Y-83379312D01*
X96473760Y-83412753D01*
X96473757Y-83412754D01*
X96303624Y-83468034D01*
X96271585Y-83478444D01*
X96082179Y-83574951D01*
X95910213Y-83699890D01*
X95759890Y-83850213D01*
X95634951Y-84022179D01*
X95538444Y-84211585D01*
X95472753Y-84413760D01*
X95439500Y-84623713D01*
X95439500Y-84836286D01*
X95472753Y-85046239D01*
X95538444Y-85248414D01*
X95634951Y-85437820D01*
X95759890Y-85609786D01*
X95910213Y-85760109D01*
X96082179Y-85885048D01*
X96082181Y-85885049D01*
X96082184Y-85885051D01*
X96271588Y-85981557D01*
X96473757Y-86047246D01*
X96683713Y-86080500D01*
X96683714Y-86080500D01*
X98096286Y-86080500D01*
X98096287Y-86080500D01*
X98306243Y-86047246D01*
X98508412Y-85981557D01*
X98697816Y-85885051D01*
X98759156Y-85840485D01*
X98869786Y-85760109D01*
X98869788Y-85760106D01*
X98869792Y-85760104D01*
X99020104Y-85609792D01*
X99025181Y-85602803D01*
X99080511Y-85560138D01*
X99150124Y-85554159D01*
X99211920Y-85586764D01*
X99246277Y-85647603D01*
X99249500Y-85675689D01*
X99249500Y-88784310D01*
X99229815Y-88851349D01*
X99177011Y-88897104D01*
X99107853Y-88907048D01*
X99044297Y-88878023D01*
X99025185Y-88857199D01*
X99020111Y-88850216D01*
X99020105Y-88850209D01*
X98869786Y-88699890D01*
X98697820Y-88574951D01*
X98508414Y-88478444D01*
X98508413Y-88478443D01*
X98508412Y-88478443D01*
X98306243Y-88412754D01*
X98306241Y-88412753D01*
X98306240Y-88412753D01*
X98144957Y-88387208D01*
X98096287Y-88379500D01*
X96683713Y-88379500D01*
X96635042Y-88387208D01*
X96473760Y-88412753D01*
X96271585Y-88478444D01*
X96082179Y-88574951D01*
X95910213Y-88699890D01*
X95759890Y-88850213D01*
X95634951Y-89022179D01*
X95538444Y-89211585D01*
X95472753Y-89413760D01*
X95463951Y-89469334D01*
X95439500Y-89623713D01*
X95439500Y-89836287D01*
X95472754Y-90046243D01*
X95529735Y-90221613D01*
X95538444Y-90248414D01*
X95634951Y-90437820D01*
X95759890Y-90609786D01*
X95910213Y-90760109D01*
X96082179Y-90885048D01*
X96082181Y-90885049D01*
X96082184Y-90885051D01*
X96271588Y-90981557D01*
X96473757Y-91047246D01*
X96683713Y-91080500D01*
X96683717Y-91080500D01*
X96684898Y-91080687D01*
X96748032Y-91110616D01*
X96784964Y-91169927D01*
X96789500Y-91203160D01*
X96789500Y-92789902D01*
X96769815Y-92856941D01*
X96753181Y-92877583D01*
X92984522Y-96646241D01*
X92923199Y-96679726D01*
X92858523Y-96676491D01*
X92816245Y-96662754D01*
X92672076Y-96639920D01*
X92606287Y-96629500D01*
X92393713Y-96629500D01*
X92365006Y-96634046D01*
X92183757Y-96662753D01*
X92141473Y-96676492D01*
X92071632Y-96678486D01*
X92015476Y-96646241D01*
X87008683Y-91639448D01*
X89989500Y-91639448D01*
X89989500Y-91820551D01*
X90017829Y-91999410D01*
X90073787Y-92171636D01*
X90073788Y-92171639D01*
X90156006Y-92332997D01*
X90262441Y-92479494D01*
X90262445Y-92479499D01*
X90390500Y-92607554D01*
X90390505Y-92607558D01*
X90434089Y-92639223D01*
X90537006Y-92713996D01*
X90630453Y-92761610D01*
X90698360Y-92796211D01*
X90698363Y-92796212D01*
X90776532Y-92821610D01*
X90870591Y-92852171D01*
X90953429Y-92865291D01*
X91049449Y-92880500D01*
X91049454Y-92880500D01*
X91230551Y-92880500D01*
X91317259Y-92866765D01*
X91409409Y-92852171D01*
X91581639Y-92796211D01*
X91742994Y-92713996D01*
X91889501Y-92607553D01*
X92017553Y-92479501D01*
X92123996Y-92332994D01*
X92206211Y-92171639D01*
X92262171Y-91999409D01*
X92283830Y-91862661D01*
X92290500Y-91820551D01*
X92290500Y-91639448D01*
X92266816Y-91489920D01*
X92262171Y-91460591D01*
X92214235Y-91313057D01*
X92206212Y-91288363D01*
X92206211Y-91288360D01*
X92177740Y-91232484D01*
X92123996Y-91127006D01*
X92092267Y-91083334D01*
X92017558Y-90980505D01*
X92017554Y-90980500D01*
X91889499Y-90852445D01*
X91889494Y-90852441D01*
X91742996Y-90746005D01*
X91581639Y-90663788D01*
X91581636Y-90663787D01*
X91409410Y-90607829D01*
X91230551Y-90579500D01*
X91230546Y-90579500D01*
X91049454Y-90579500D01*
X91049449Y-90579500D01*
X90870589Y-90607829D01*
X90698363Y-90663787D01*
X90698360Y-90663788D01*
X90537004Y-90746005D01*
X90390505Y-90852441D01*
X90390500Y-90852445D01*
X90262445Y-90980500D01*
X90262441Y-90980505D01*
X90156006Y-91127002D01*
X90073788Y-91288360D01*
X90073787Y-91288363D01*
X90017829Y-91460589D01*
X89989500Y-91639448D01*
X87008683Y-91639448D01*
X86333185Y-90963950D01*
X86299700Y-90902627D01*
X86304684Y-90832935D01*
X86346556Y-90777002D01*
X86347982Y-90775950D01*
X86369788Y-90760107D01*
X86369788Y-90760106D01*
X86369792Y-90760104D01*
X86520104Y-90609792D01*
X86520106Y-90609788D01*
X86520109Y-90609786D01*
X86645048Y-90437820D01*
X86645047Y-90437820D01*
X86645051Y-90437816D01*
X86741557Y-90248412D01*
X86807246Y-90046243D01*
X86840500Y-89836287D01*
X86840500Y-89623713D01*
X86807246Y-89413757D01*
X86741557Y-89211588D01*
X86645051Y-89022184D01*
X86645049Y-89022181D01*
X86645048Y-89022179D01*
X86520109Y-88850213D01*
X86369786Y-88699890D01*
X86197820Y-88574951D01*
X86008414Y-88478444D01*
X86008413Y-88478443D01*
X86008412Y-88478443D01*
X85806243Y-88412754D01*
X85806241Y-88412753D01*
X85806240Y-88412753D01*
X85644957Y-88387208D01*
X85596287Y-88379500D01*
X85596286Y-88379500D01*
X84440097Y-88379500D01*
X84373058Y-88359815D01*
X84352416Y-88343181D01*
X83586819Y-87577584D01*
X83553334Y-87516261D01*
X83550500Y-87489903D01*
X83550500Y-86071257D01*
X83570185Y-86004218D01*
X83622989Y-85958463D01*
X83692147Y-85948519D01*
X83730795Y-85960772D01*
X83771588Y-85981557D01*
X83973757Y-86047246D01*
X84183713Y-86080500D01*
X84183714Y-86080500D01*
X85596286Y-86080500D01*
X85596287Y-86080500D01*
X85806243Y-86047246D01*
X86008412Y-85981557D01*
X86197816Y-85885051D01*
X86259156Y-85840485D01*
X86369786Y-85760109D01*
X86369788Y-85760106D01*
X86369792Y-85760104D01*
X86520104Y-85609792D01*
X86520106Y-85609788D01*
X86520109Y-85609786D01*
X86645048Y-85437820D01*
X86645047Y-85437820D01*
X86645051Y-85437816D01*
X86741557Y-85248412D01*
X86807246Y-85046243D01*
X86840500Y-84836287D01*
X86840500Y-84623713D01*
X86807246Y-84413757D01*
X86741557Y-84211588D01*
X86645051Y-84022184D01*
X86645049Y-84022181D01*
X86645048Y-84022179D01*
X86520109Y-83850213D01*
X86369786Y-83699890D01*
X86197820Y-83574951D01*
X86008414Y-83478444D01*
X86008413Y-83478443D01*
X86008412Y-83478443D01*
X85806243Y-83412754D01*
X85806241Y-83412753D01*
X85806240Y-83412753D01*
X85644957Y-83387208D01*
X85596287Y-83379500D01*
X84183713Y-83379500D01*
X84135042Y-83387208D01*
X83973760Y-83412753D01*
X83973757Y-83412754D01*
X83803624Y-83468034D01*
X83771585Y-83478444D01*
X83730795Y-83499228D01*
X83662126Y-83512124D01*
X83597385Y-83485848D01*
X83557128Y-83428741D01*
X83550500Y-83388743D01*
X83550500Y-82639448D01*
X89989500Y-82639448D01*
X89989500Y-82820551D01*
X90017829Y-82999410D01*
X90073787Y-83171636D01*
X90073788Y-83171639D01*
X90117201Y-83256839D01*
X90151359Y-83323878D01*
X90156006Y-83332997D01*
X90262441Y-83479494D01*
X90262445Y-83479499D01*
X90390500Y-83607554D01*
X90390505Y-83607558D01*
X90517591Y-83699890D01*
X90537006Y-83713996D01*
X90642484Y-83767740D01*
X90698360Y-83796211D01*
X90698363Y-83796212D01*
X90784476Y-83824191D01*
X90870591Y-83852171D01*
X90953429Y-83865291D01*
X91049449Y-83880500D01*
X91049454Y-83880500D01*
X91230551Y-83880500D01*
X91317259Y-83866765D01*
X91409409Y-83852171D01*
X91581639Y-83796211D01*
X91742994Y-83713996D01*
X91889501Y-83607553D01*
X92017553Y-83479501D01*
X92123996Y-83332994D01*
X92206211Y-83171639D01*
X92262171Y-82999409D01*
X92276765Y-82907259D01*
X92290500Y-82820551D01*
X92290500Y-82639448D01*
X92274019Y-82535397D01*
X92262171Y-82460591D01*
X92206211Y-82288361D01*
X92206211Y-82288360D01*
X92161443Y-82200500D01*
X92123996Y-82127006D01*
X92091553Y-82082352D01*
X92017558Y-81980505D01*
X92017554Y-81980500D01*
X91889499Y-81852445D01*
X91889494Y-81852441D01*
X91742997Y-81746006D01*
X91742996Y-81746005D01*
X91742994Y-81746004D01*
X91691300Y-81719664D01*
X91581639Y-81663788D01*
X91581636Y-81663787D01*
X91409410Y-81607829D01*
X91230551Y-81579500D01*
X91230546Y-81579500D01*
X91049454Y-81579500D01*
X91049449Y-81579500D01*
X90870589Y-81607829D01*
X90698363Y-81663787D01*
X90698360Y-81663788D01*
X90537002Y-81746006D01*
X90390505Y-81852441D01*
X90390500Y-81852445D01*
X90262445Y-81980500D01*
X90262441Y-81980505D01*
X90156006Y-82127002D01*
X90073788Y-82288360D01*
X90073787Y-82288363D01*
X90017829Y-82460589D01*
X89989500Y-82639448D01*
X83550500Y-82639448D01*
X83550500Y-79650097D01*
X83570185Y-79583058D01*
X83586819Y-79562416D01*
X86812417Y-76336819D01*
X86873740Y-76303334D01*
X86900098Y-76300500D01*
X88670398Y-76300500D01*
X88737437Y-76320185D01*
X88780883Y-76368205D01*
X88787715Y-76381614D01*
X88908028Y-76547213D01*
X89052786Y-76691971D01*
X89166427Y-76774534D01*
X89218390Y-76812287D01*
X89332639Y-76870500D01*
X89400776Y-76905218D01*
X89400778Y-76905218D01*
X89400781Y-76905220D01*
X89459202Y-76924202D01*
X89595465Y-76968477D01*
X89680195Y-76981897D01*
X89797648Y-77000500D01*
X89797649Y-77000500D01*
X90002351Y-77000500D01*
X90002352Y-77000500D01*
X90204534Y-76968477D01*
X90399219Y-76905220D01*
X90581610Y-76812287D01*
X90674590Y-76744732D01*
X90747213Y-76691971D01*
X90747215Y-76691968D01*
X90747219Y-76691966D01*
X90891966Y-76547219D01*
X90891968Y-76547215D01*
X90891971Y-76547213D01*
X90956253Y-76458735D01*
X91012287Y-76381610D01*
X91105220Y-76199219D01*
X91168477Y-76004534D01*
X91200500Y-75802352D01*
X91200500Y-75597648D01*
X91181554Y-75478028D01*
X91168477Y-75395465D01*
X91137458Y-75300000D01*
X91105220Y-75200781D01*
X91105218Y-75200778D01*
X91105218Y-75200776D01*
X91059740Y-75111522D01*
X91012287Y-75018390D01*
X91004556Y-75007749D01*
X90891971Y-74852786D01*
X90747213Y-74708028D01*
X90581613Y-74587715D01*
X90581612Y-74587714D01*
X90581610Y-74587713D01*
X90524653Y-74558691D01*
X90399223Y-74494781D01*
X90204534Y-74431522D01*
X90029995Y-74403878D01*
X90002352Y-74399500D01*
X89797648Y-74399500D01*
X89773329Y-74403351D01*
X89595465Y-74431522D01*
X89400776Y-74494781D01*
X89218386Y-74587715D01*
X89052786Y-74708028D01*
X88908028Y-74852786D01*
X88787715Y-75018385D01*
X88780883Y-75031795D01*
X88732909Y-75082591D01*
X88670398Y-75099500D01*
X86686670Y-75099500D01*
X86686654Y-75099499D01*
X86679058Y-75099499D01*
X86520943Y-75099499D01*
X86419125Y-75126781D01*
X86368215Y-75140423D01*
X86253965Y-75206385D01*
X86186065Y-75222857D01*
X86120038Y-75200004D01*
X86081481Y-75155291D01*
X86011861Y-75018652D01*
X85919963Y-74892167D01*
X85919963Y-74892166D01*
X85270465Y-75541665D01*
X85220080Y-75454394D01*
X85145606Y-75379920D01*
X85058334Y-75329534D01*
X85707832Y-74680035D01*
X85707831Y-74680033D01*
X85581359Y-74588147D01*
X85581350Y-74588141D01*
X85399031Y-74495244D01*
X85204417Y-74432009D01*
X85002317Y-74400000D01*
X84797683Y-74400000D01*
X84595582Y-74432009D01*
X84400968Y-74495244D01*
X84218647Y-74588142D01*
X84092167Y-74680034D01*
X84092167Y-74680035D01*
X84741665Y-75329533D01*
X84654394Y-75379920D01*
X84579920Y-75454394D01*
X84529533Y-75541665D01*
X83880035Y-74892167D01*
X83880034Y-74892167D01*
X83788142Y-75018647D01*
X83695244Y-75200968D01*
X83632009Y-75395582D01*
X83600000Y-75597682D01*
X83600000Y-75802317D01*
X83632009Y-76004417D01*
X83695244Y-76199031D01*
X83788141Y-76381350D01*
X83788147Y-76381359D01*
X83880033Y-76507831D01*
X83880035Y-76507832D01*
X84529533Y-75858334D01*
X84579920Y-75945606D01*
X84654394Y-76020080D01*
X84741665Y-76070465D01*
X84092166Y-76719963D01*
X84218652Y-76811861D01*
X84344981Y-76876228D01*
X84395778Y-76924202D01*
X84412573Y-76992023D01*
X84390036Y-77058158D01*
X84376368Y-77074394D01*
X82581286Y-78869478D01*
X82469481Y-78981282D01*
X82469479Y-78981285D01*
X82419361Y-79068094D01*
X82419359Y-79068096D01*
X82390425Y-79118209D01*
X82390424Y-79118210D01*
X82390423Y-79118215D01*
X82349499Y-79270943D01*
X82349499Y-79270945D01*
X82349499Y-79439046D01*
X82349500Y-79439059D01*
X82349500Y-87703330D01*
X82349499Y-87703348D01*
X82349499Y-87869054D01*
X82349498Y-87869054D01*
X82390423Y-88021785D01*
X82419358Y-88071900D01*
X82419359Y-88071904D01*
X82419360Y-88071904D01*
X82462865Y-88147259D01*
X82469479Y-88158714D01*
X82469481Y-88158717D01*
X82588349Y-88277585D01*
X82588355Y-88277590D01*
X83143381Y-88832616D01*
X83176866Y-88893939D01*
X83171882Y-88963631D01*
X83156021Y-88993178D01*
X83134951Y-89022180D01*
X83038444Y-89211585D01*
X82972753Y-89413760D01*
X82963951Y-89469334D01*
X82939500Y-89623713D01*
X82939500Y-89836287D01*
X82972754Y-90046243D01*
X83029735Y-90221613D01*
X83038444Y-90248414D01*
X83086622Y-90342969D01*
X83099518Y-90411638D01*
X83073242Y-90476379D01*
X83063819Y-90486945D01*
X82951286Y-90599478D01*
X82839481Y-90711282D01*
X82839477Y-90711287D01*
X82822490Y-90740711D01*
X82822487Y-90740717D01*
X82819435Y-90746004D01*
X82760423Y-90848215D01*
X82740983Y-90920762D01*
X82736797Y-90930011D01*
X82720358Y-90949109D01*
X82707242Y-90970629D01*
X82697954Y-90975140D01*
X82691218Y-90982967D01*
X82667059Y-90990147D01*
X82644394Y-91001157D01*
X82627514Y-91001901D01*
X82624244Y-91002873D01*
X82621766Y-91002154D01*
X82614106Y-91002492D01*
X82609964Y-91002166D01*
X81960465Y-91651665D01*
X81910080Y-91564394D01*
X81835606Y-91489920D01*
X81748334Y-91439534D01*
X82397832Y-90790035D01*
X82397831Y-90790033D01*
X82271359Y-90698147D01*
X82271350Y-90698141D01*
X82089031Y-90605244D01*
X81894417Y-90542009D01*
X81692317Y-90510000D01*
X81487683Y-90510000D01*
X81285582Y-90542009D01*
X81090968Y-90605244D01*
X80908647Y-90698142D01*
X80782167Y-90790034D01*
X80782167Y-90790035D01*
X81431665Y-91439533D01*
X81344394Y-91489920D01*
X81269920Y-91564394D01*
X81219533Y-91651665D01*
X80570035Y-91002167D01*
X80570034Y-91002167D01*
X80478142Y-91128647D01*
X80385244Y-91310968D01*
X80322009Y-91505582D01*
X80290000Y-91707682D01*
X80290000Y-91912317D01*
X80322009Y-92114417D01*
X80385244Y-92309031D01*
X80478141Y-92491350D01*
X80478147Y-92491359D01*
X80570033Y-92617831D01*
X80570035Y-92617832D01*
X81219533Y-91968334D01*
X81269920Y-92055606D01*
X81344394Y-92130080D01*
X81431665Y-92180465D01*
X80782166Y-92829963D01*
X80908650Y-92921859D01*
X81090968Y-93014755D01*
X81285582Y-93077990D01*
X81487683Y-93110000D01*
X81692317Y-93110000D01*
X81894417Y-93077990D01*
X82089031Y-93014755D01*
X82271349Y-92921859D01*
X82397831Y-92829963D01*
X82397832Y-92829963D01*
X81748334Y-92180466D01*
X81835606Y-92130080D01*
X81910080Y-92055606D01*
X81960466Y-91968334D01*
X82618806Y-92626675D01*
X82654145Y-92634098D01*
X82703903Y-92683148D01*
X82719500Y-92743353D01*
X82719500Y-95800953D01*
X82699815Y-95867992D01*
X82647011Y-95913747D01*
X82577853Y-95923691D01*
X82514297Y-95894666D01*
X82507819Y-95888634D01*
X82437213Y-95818028D01*
X82271613Y-95697715D01*
X82271612Y-95697714D01*
X82271610Y-95697713D01*
X82196613Y-95659500D01*
X82089223Y-95604781D01*
X81894534Y-95541522D01*
X81719995Y-95513878D01*
X81692352Y-95509500D01*
X81487648Y-95509500D01*
X81463329Y-95513351D01*
X81285465Y-95541522D01*
X81090776Y-95604781D01*
X80908386Y-95697715D01*
X80742786Y-95818028D01*
X80598028Y-95962786D01*
X80477715Y-96128386D01*
X80384781Y-96310776D01*
X80321522Y-96505465D01*
X80294435Y-96676491D01*
X80289500Y-96707648D01*
X80289500Y-96912352D01*
X80293878Y-96939995D01*
X80321522Y-97114534D01*
X80326173Y-97128848D01*
X80328165Y-97198690D01*
X80295921Y-97254842D01*
X78611818Y-98938945D01*
X78550495Y-98972430D01*
X78480803Y-98967446D01*
X78424870Y-98925574D01*
X78423819Y-98924149D01*
X78371971Y-98852787D01*
X78371967Y-98852782D01*
X78227213Y-98708028D01*
X78061611Y-98587713D01*
X77968369Y-98540203D01*
X77917574Y-98492229D01*
X77900779Y-98424407D01*
X77923317Y-98358273D01*
X77968371Y-98319234D01*
X78061347Y-98271861D01*
X78187831Y-98179963D01*
X78187832Y-98179963D01*
X77538334Y-97530466D01*
X77625606Y-97480080D01*
X77700080Y-97405606D01*
X77750466Y-97318334D01*
X78399963Y-97967832D01*
X78399963Y-97967831D01*
X78491859Y-97841349D01*
X78584755Y-97659031D01*
X78647990Y-97464417D01*
X78680000Y-97262317D01*
X78680000Y-97057682D01*
X78647990Y-96855582D01*
X78584755Y-96660968D01*
X78491859Y-96478650D01*
X78399963Y-96352167D01*
X78399963Y-96352166D01*
X77750465Y-97001664D01*
X77700080Y-96914394D01*
X77625606Y-96839920D01*
X77538334Y-96789534D01*
X78187832Y-96140035D01*
X78187831Y-96140033D01*
X78061359Y-96048147D01*
X78061350Y-96048141D01*
X77968369Y-96000765D01*
X77917573Y-95952790D01*
X77900778Y-95884969D01*
X77923315Y-95818835D01*
X77968370Y-95779795D01*
X77968920Y-95779515D01*
X78061610Y-95732287D01*
X78117719Y-95691522D01*
X78227213Y-95611971D01*
X78227215Y-95611968D01*
X78227219Y-95611966D01*
X78371966Y-95467219D01*
X78371968Y-95467215D01*
X78371971Y-95467213D01*
X78424732Y-95394590D01*
X78492287Y-95301610D01*
X78585220Y-95119219D01*
X78648477Y-94924534D01*
X78680500Y-94722352D01*
X78680500Y-94517648D01*
X78648477Y-94315466D01*
X78585220Y-94120781D01*
X78585218Y-94120778D01*
X78585218Y-94120776D01*
X78551503Y-94054607D01*
X78492287Y-93938390D01*
X78484556Y-93927749D01*
X78371971Y-93772786D01*
X78227213Y-93628028D01*
X78061614Y-93507715D01*
X78024322Y-93488714D01*
X77968917Y-93460483D01*
X77918123Y-93412511D01*
X77901328Y-93344690D01*
X77923865Y-93278555D01*
X77968917Y-93239516D01*
X78061610Y-93192287D01*
X78144629Y-93131971D01*
X78227213Y-93071971D01*
X78227215Y-93071968D01*
X78227219Y-93071966D01*
X78371966Y-92927219D01*
X78371968Y-92927215D01*
X78371971Y-92927213D01*
X78492286Y-92761611D01*
X78510224Y-92726408D01*
X78585218Y-92579223D01*
X78585218Y-92579222D01*
X78585220Y-92579219D01*
X78648477Y-92384534D01*
X78680500Y-92182352D01*
X78680500Y-91977648D01*
X78648477Y-91775466D01*
X78585220Y-91580781D01*
X78492287Y-91398390D01*
X78478996Y-91380096D01*
X78371971Y-91232786D01*
X78227213Y-91088028D01*
X78061614Y-90967715D01*
X78054225Y-90963950D01*
X78022487Y-90947778D01*
X77968920Y-90920485D01*
X77918123Y-90872511D01*
X77901328Y-90804690D01*
X77923865Y-90738555D01*
X77968917Y-90699516D01*
X78061610Y-90652287D01*
X78129718Y-90602804D01*
X78227213Y-90531971D01*
X78227215Y-90531968D01*
X78227219Y-90531966D01*
X78371966Y-90387219D01*
X78371968Y-90387215D01*
X78371971Y-90387213D01*
X78424732Y-90314590D01*
X78492287Y-90221610D01*
X78585220Y-90039219D01*
X78648477Y-89844534D01*
X78680500Y-89642352D01*
X78680500Y-89437648D01*
X78663107Y-89327832D01*
X78648477Y-89235465D01*
X78585218Y-89040776D01*
X78545910Y-88963631D01*
X78492287Y-88858390D01*
X78473561Y-88832616D01*
X78371971Y-88692786D01*
X78227213Y-88548028D01*
X78061614Y-88427715D01*
X78032249Y-88412753D01*
X77968917Y-88380483D01*
X77918123Y-88332511D01*
X77901328Y-88264690D01*
X77923865Y-88198555D01*
X77968917Y-88159516D01*
X78061610Y-88112287D01*
X78117193Y-88071904D01*
X78227213Y-87991971D01*
X78227215Y-87991968D01*
X78227219Y-87991966D01*
X78371966Y-87847219D01*
X78371968Y-87847215D01*
X78371971Y-87847213D01*
X78424732Y-87774590D01*
X78492287Y-87681610D01*
X78585220Y-87499219D01*
X78648477Y-87304534D01*
X78680500Y-87102352D01*
X78680500Y-86897648D01*
X78648477Y-86695466D01*
X78644879Y-86684394D01*
X78585218Y-86500776D01*
X78517397Y-86367672D01*
X78492287Y-86318390D01*
X78484556Y-86307749D01*
X78371971Y-86152786D01*
X78227213Y-86008028D01*
X78061614Y-85887715D01*
X78011206Y-85862031D01*
X77968917Y-85840483D01*
X77918123Y-85792511D01*
X77901328Y-85724690D01*
X77923865Y-85658555D01*
X77968917Y-85619516D01*
X78061610Y-85572287D01*
X78086561Y-85554159D01*
X78227213Y-85451971D01*
X78227215Y-85451968D01*
X78227219Y-85451966D01*
X78371966Y-85307219D01*
X78371968Y-85307215D01*
X78371971Y-85307213D01*
X78432452Y-85223966D01*
X78492287Y-85141610D01*
X78585220Y-84959219D01*
X78648477Y-84764534D01*
X78680500Y-84562352D01*
X78680500Y-84357648D01*
X78648477Y-84155466D01*
X78585220Y-83960781D01*
X78585218Y-83960778D01*
X78585218Y-83960776D01*
X78544315Y-83880500D01*
X78492287Y-83778390D01*
X78484556Y-83767749D01*
X78371971Y-83612786D01*
X78227213Y-83468028D01*
X78061614Y-83347715D01*
X78014831Y-83323878D01*
X77968917Y-83300483D01*
X77918123Y-83252511D01*
X77901328Y-83184690D01*
X77923865Y-83118555D01*
X77968917Y-83079516D01*
X78061610Y-83032287D01*
X78144629Y-82971971D01*
X78227213Y-82911971D01*
X78227215Y-82911968D01*
X78227219Y-82911966D01*
X78371966Y-82767219D01*
X78371968Y-82767215D01*
X78371971Y-82767213D01*
X78424732Y-82694590D01*
X78492287Y-82601610D01*
X78585220Y-82419219D01*
X78648477Y-82224534D01*
X78680500Y-82022352D01*
X78680500Y-81817648D01*
X78656131Y-81663788D01*
X78648477Y-81615465D01*
X78604715Y-81480781D01*
X78585220Y-81420781D01*
X78585218Y-81420778D01*
X78585218Y-81420776D01*
X78551503Y-81354607D01*
X78492287Y-81238390D01*
X78484556Y-81227749D01*
X78371971Y-81072786D01*
X78227213Y-80928028D01*
X78061613Y-80807715D01*
X78061612Y-80807714D01*
X78061610Y-80807713D01*
X78004653Y-80778691D01*
X77879223Y-80714781D01*
X77684534Y-80651522D01*
X77509995Y-80623878D01*
X77482352Y-80619500D01*
X77277648Y-80619500D01*
X77253329Y-80623351D01*
X77075465Y-80651522D01*
X76880776Y-80714781D01*
X76698386Y-80807715D01*
X76532786Y-80928028D01*
X76388028Y-81072786D01*
X76267715Y-81238386D01*
X76174781Y-81420776D01*
X76111522Y-81615465D01*
X76079500Y-81817648D01*
X76079500Y-82022351D01*
X76111522Y-82224534D01*
X76174781Y-82419223D01*
X76226135Y-82520009D01*
X76263320Y-82592989D01*
X76267715Y-82601613D01*
X76388028Y-82767213D01*
X76532786Y-82911971D01*
X76615371Y-82971971D01*
X76698390Y-83032287D01*
X76789840Y-83078883D01*
X76791080Y-83079515D01*
X76841876Y-83127490D01*
X76858671Y-83195311D01*
X76836134Y-83261446D01*
X76791080Y-83300485D01*
X76698386Y-83347715D01*
X76532786Y-83468028D01*
X76388028Y-83612786D01*
X76267715Y-83778386D01*
X76174781Y-83960776D01*
X76111522Y-84155465D01*
X76079500Y-84357648D01*
X76079500Y-84562351D01*
X76111522Y-84764534D01*
X76174781Y-84959223D01*
X76267715Y-85141613D01*
X76388028Y-85307213D01*
X76532786Y-85451971D01*
X76673439Y-85554159D01*
X76698390Y-85572287D01*
X76771986Y-85609786D01*
X76791080Y-85619515D01*
X76841876Y-85667490D01*
X76858671Y-85735311D01*
X76836134Y-85801446D01*
X76799633Y-85835692D01*
X76795451Y-85838257D01*
X76698390Y-85887713D01*
X76609019Y-85952643D01*
X76604891Y-85955177D01*
X76575654Y-85963102D01*
X76547121Y-85973283D01*
X76542265Y-85972153D01*
X76537455Y-85973458D01*
X76508571Y-85964318D01*
X76479067Y-85957457D01*
X76475395Y-85953820D01*
X76470841Y-85952379D01*
X76456454Y-85935058D01*
X76432656Y-85911485D01*
X76360520Y-85786540D01*
X76248716Y-85674736D01*
X76248715Y-85674735D01*
X76244385Y-85670405D01*
X76244374Y-85670395D01*
X71032334Y-80458355D01*
X71032332Y-80458352D01*
X70913461Y-80339481D01*
X70913460Y-80339480D01*
X70826648Y-80289360D01*
X70826648Y-80289359D01*
X70826644Y-80289358D01*
X70776529Y-80260423D01*
X70623801Y-80219499D01*
X70465687Y-80219499D01*
X70458091Y-80219499D01*
X70458075Y-80219500D01*
X61559057Y-80219500D01*
X61400943Y-80219500D01*
X61248215Y-80260423D01*
X61248214Y-80260423D01*
X61248212Y-80260424D01*
X61248209Y-80260425D01*
X61198096Y-80289359D01*
X61198095Y-80289360D01*
X61154689Y-80314420D01*
X61111285Y-80339479D01*
X61111282Y-80339481D01*
X60999478Y-80451286D01*
X60814842Y-80635921D01*
X60753519Y-80669406D01*
X60688848Y-80666173D01*
X60674534Y-80661522D01*
X60499995Y-80633878D01*
X60472352Y-80629500D01*
X60267648Y-80629500D01*
X60227211Y-80635904D01*
X60065462Y-80661523D01*
X60065460Y-80661523D01*
X60051149Y-80666173D01*
X59981308Y-80668164D01*
X59925157Y-80635921D01*
X58086819Y-78797583D01*
X58053334Y-78736260D01*
X58050500Y-78709902D01*
X58050500Y-77699601D01*
X58070185Y-77632562D01*
X58118206Y-77589116D01*
X58131610Y-77582287D01*
X58297219Y-77461966D01*
X58441966Y-77317219D01*
X58441968Y-77317215D01*
X58441971Y-77317213D01*
X58562284Y-77151614D01*
X58562285Y-77151613D01*
X58562287Y-77151610D01*
X58569117Y-77138204D01*
X58617091Y-77087409D01*
X58679602Y-77070500D01*
X59490991Y-77070500D01*
X59558030Y-77090185D01*
X59591310Y-77121616D01*
X59668030Y-77227215D01*
X59812786Y-77371971D01*
X59936655Y-77461965D01*
X59978390Y-77492287D01*
X60094607Y-77551503D01*
X60160776Y-77585218D01*
X60160778Y-77585218D01*
X60160781Y-77585220D01*
X60265137Y-77619127D01*
X60355465Y-77648477D01*
X60456557Y-77664488D01*
X60557648Y-77680500D01*
X60557649Y-77680500D01*
X60762351Y-77680500D01*
X60762352Y-77680500D01*
X60964534Y-77648477D01*
X61159219Y-77585220D01*
X61341610Y-77492287D01*
X61449101Y-77414191D01*
X61507213Y-77371971D01*
X61507215Y-77371968D01*
X61507219Y-77371966D01*
X61651966Y-77227219D01*
X61651968Y-77227215D01*
X61651971Y-77227213D01*
X61751526Y-77090185D01*
X61772287Y-77061610D01*
X61865220Y-76879219D01*
X61928477Y-76684534D01*
X61960500Y-76482352D01*
X61960500Y-76277682D01*
X69520000Y-76277682D01*
X69520000Y-76482317D01*
X69552009Y-76684417D01*
X69615244Y-76879031D01*
X69708141Y-77061350D01*
X69708147Y-77061359D01*
X69800033Y-77187831D01*
X69800035Y-77187832D01*
X70449533Y-76538334D01*
X70499920Y-76625606D01*
X70574394Y-76700080D01*
X70661665Y-76750465D01*
X70012166Y-77399963D01*
X70138650Y-77491859D01*
X70320968Y-77584755D01*
X70515582Y-77647990D01*
X70717683Y-77680000D01*
X70922317Y-77680000D01*
X71124417Y-77647990D01*
X71319031Y-77584755D01*
X71501349Y-77491859D01*
X71627831Y-77399963D01*
X71627832Y-77399963D01*
X70978334Y-76750466D01*
X71065606Y-76700080D01*
X71140080Y-76625606D01*
X71190466Y-76538334D01*
X71839963Y-77187832D01*
X71839963Y-77187831D01*
X71931859Y-77061349D01*
X72024755Y-76879031D01*
X72087990Y-76684417D01*
X72120000Y-76482317D01*
X72120000Y-76277682D01*
X72087990Y-76075582D01*
X72024755Y-75880968D01*
X71931859Y-75698650D01*
X71907921Y-75665702D01*
X71839963Y-75572167D01*
X71839963Y-75572166D01*
X71190465Y-76221664D01*
X71140080Y-76134394D01*
X71065606Y-76059920D01*
X70978334Y-76009534D01*
X71627832Y-75360035D01*
X71627831Y-75360033D01*
X71501359Y-75268147D01*
X71501350Y-75268141D01*
X71319031Y-75175244D01*
X71124417Y-75112009D01*
X70922317Y-75080000D01*
X70717683Y-75080000D01*
X70515582Y-75112009D01*
X70320968Y-75175244D01*
X70138647Y-75268142D01*
X70012167Y-75360034D01*
X70012167Y-75360035D01*
X70661665Y-76009533D01*
X70574394Y-76059920D01*
X70499920Y-76134394D01*
X70449533Y-76221665D01*
X69800035Y-75572167D01*
X69800034Y-75572167D01*
X69708142Y-75698647D01*
X69615244Y-75880968D01*
X69552009Y-76075582D01*
X69520000Y-76277682D01*
X61960500Y-76277682D01*
X61960500Y-76277648D01*
X61952257Y-76225606D01*
X61928477Y-76075465D01*
X61886283Y-75945606D01*
X61865220Y-75880781D01*
X61865218Y-75880778D01*
X61865218Y-75880776D01*
X61825258Y-75802351D01*
X61772287Y-75698390D01*
X61764556Y-75687749D01*
X61651971Y-75532786D01*
X61507213Y-75388028D01*
X61341613Y-75267715D01*
X61341612Y-75267714D01*
X61341610Y-75267713D01*
X61284653Y-75238691D01*
X61159223Y-75174781D01*
X60964534Y-75111522D01*
X60781867Y-75082591D01*
X60762352Y-75079500D01*
X60557648Y-75079500D01*
X60538133Y-75082591D01*
X60355465Y-75111522D01*
X60160776Y-75174781D01*
X59978386Y-75267715D01*
X59812786Y-75388028D01*
X59668028Y-75532786D01*
X59547715Y-75698385D01*
X59521179Y-75750465D01*
X59495024Y-75801796D01*
X59447052Y-75852591D01*
X59384541Y-75869500D01*
X58679602Y-75869500D01*
X58612563Y-75849815D01*
X58569117Y-75801795D01*
X58562284Y-75788385D01*
X58441971Y-75622786D01*
X58297213Y-75478028D01*
X58131613Y-75357715D01*
X58131612Y-75357714D01*
X58131610Y-75357713D01*
X58068714Y-75325666D01*
X57949223Y-75264781D01*
X57754534Y-75201522D01*
X57579995Y-75173878D01*
X57552352Y-75169500D01*
X57347648Y-75169500D01*
X57323329Y-75173351D01*
X57145465Y-75201522D01*
X56950776Y-75264781D01*
X56768386Y-75357715D01*
X56602786Y-75478028D01*
X56458028Y-75622786D01*
X56337715Y-75788386D01*
X56244781Y-75970776D01*
X56181522Y-76165465D01*
X56149500Y-76367648D01*
X56149500Y-76572351D01*
X56181522Y-76774534D01*
X56244781Y-76969223D01*
X56337715Y-77151613D01*
X56458028Y-77317213D01*
X56458034Y-77317219D01*
X56602781Y-77461966D01*
X56768390Y-77582287D01*
X56781793Y-77589116D01*
X56832589Y-77637088D01*
X56849500Y-77699601D01*
X56849500Y-78689902D01*
X56829815Y-78756941D01*
X56813181Y-78777583D01*
X55680091Y-79910672D01*
X55618768Y-79944157D01*
X55549076Y-79939173D01*
X55493143Y-79897301D01*
X55486870Y-79888086D01*
X55482711Y-79881343D01*
X55358657Y-79757289D01*
X55358656Y-79757288D01*
X55209334Y-79665186D01*
X55042797Y-79610001D01*
X55042795Y-79610000D01*
X54940010Y-79599500D01*
X53739998Y-79599500D01*
X53739981Y-79599501D01*
X53637203Y-79610000D01*
X53637200Y-79610001D01*
X53470668Y-79665185D01*
X53470663Y-79665187D01*
X53321342Y-79757289D01*
X53197289Y-79881342D01*
X53105187Y-80030663D01*
X53105186Y-80030666D01*
X53061846Y-80161459D01*
X53057523Y-80174504D01*
X53017750Y-80231949D01*
X52953234Y-80258772D01*
X52939817Y-80259500D01*
X49972163Y-80259500D01*
X49905124Y-80239815D01*
X49859369Y-80187011D01*
X49850911Y-80161459D01*
X49850000Y-80157207D01*
X49808069Y-80030668D01*
X49794814Y-79990666D01*
X49702712Y-79841344D01*
X49578656Y-79717288D01*
X49485888Y-79660069D01*
X49429336Y-79625187D01*
X49429331Y-79625185D01*
X49427862Y-79624698D01*
X49262797Y-79570001D01*
X49262795Y-79570000D01*
X49160010Y-79559500D01*
X47959998Y-79559500D01*
X47959981Y-79559501D01*
X47857203Y-79570000D01*
X47857200Y-79570001D01*
X47690668Y-79625185D01*
X47690663Y-79625187D01*
X47541342Y-79717289D01*
X47417289Y-79841342D01*
X47325187Y-79990663D01*
X47325185Y-79990668D01*
X47270000Y-80157204D01*
X47269088Y-80161467D01*
X47235801Y-80222898D01*
X47174586Y-80256581D01*
X47147837Y-80259500D01*
X44037213Y-80259500D01*
X43970174Y-80239815D01*
X43936894Y-80208384D01*
X43881969Y-80132784D01*
X43737213Y-79988028D01*
X43571613Y-79867715D01*
X43571612Y-79867714D01*
X43571610Y-79867713D01*
X43514653Y-79838691D01*
X43389223Y-79774781D01*
X43194534Y-79711522D01*
X43019995Y-79683878D01*
X42992352Y-79679500D01*
X42787648Y-79679500D01*
X42763329Y-79683351D01*
X42585465Y-79711522D01*
X42390776Y-79774781D01*
X42208386Y-79867715D01*
X42042786Y-79988028D01*
X41898028Y-80132786D01*
X41777715Y-80298386D01*
X41684781Y-80480776D01*
X41621522Y-80675465D01*
X41589500Y-80877648D01*
X41589500Y-81082351D01*
X41621522Y-81284534D01*
X41684781Y-81479223D01*
X41727364Y-81562795D01*
X41754201Y-81615466D01*
X41777715Y-81661613D01*
X41898028Y-81827213D01*
X42042786Y-81971971D01*
X42197749Y-82084556D01*
X42208390Y-82092287D01*
X42291850Y-82134812D01*
X42390776Y-82185218D01*
X42390778Y-82185218D01*
X42390781Y-82185220D01*
X42495137Y-82219127D01*
X42585465Y-82248477D01*
X42686557Y-82264488D01*
X42787648Y-82280500D01*
X42787649Y-82280500D01*
X42992351Y-82280500D01*
X42992352Y-82280500D01*
X43194534Y-82248477D01*
X43389219Y-82185220D01*
X43571610Y-82092287D01*
X43667869Y-82022351D01*
X43737213Y-81971971D01*
X43737215Y-81971968D01*
X43737219Y-81971966D01*
X43881966Y-81827219D01*
X43881968Y-81827215D01*
X43881971Y-81827213D01*
X44002284Y-81661614D01*
X44002285Y-81661613D01*
X44002287Y-81661610D01*
X44070260Y-81528204D01*
X44118234Y-81477409D01*
X44180745Y-81460500D01*
X47147837Y-81460500D01*
X47214876Y-81480185D01*
X47260631Y-81532989D01*
X47269089Y-81558541D01*
X47269999Y-81562792D01*
X47307336Y-81675466D01*
X47325186Y-81729334D01*
X47417288Y-81878656D01*
X47541344Y-82002712D01*
X47690666Y-82094814D01*
X47857203Y-82149999D01*
X47959991Y-82160500D01*
X49160008Y-82160499D01*
X49262797Y-82149999D01*
X49429334Y-82094814D01*
X49578656Y-82002712D01*
X49702712Y-81878656D01*
X49794814Y-81729334D01*
X49849999Y-81562797D01*
X49850000Y-81562792D01*
X49850912Y-81558533D01*
X49884199Y-81497102D01*
X49945414Y-81463419D01*
X49972163Y-81460500D01*
X52923487Y-81460500D01*
X52990526Y-81480185D01*
X53036281Y-81532989D01*
X53046845Y-81571900D01*
X53050000Y-81602796D01*
X53050001Y-81602799D01*
X53074081Y-81675466D01*
X53105186Y-81769334D01*
X53197288Y-81918656D01*
X53321344Y-82042712D01*
X53470666Y-82134814D01*
X53637203Y-82189999D01*
X53739991Y-82200500D01*
X54940008Y-82200499D01*
X55042797Y-82189999D01*
X55209334Y-82134814D01*
X55358656Y-82042712D01*
X55482712Y-81918656D01*
X55574814Y-81769334D01*
X55629999Y-81602797D01*
X55632363Y-81579654D01*
X55658758Y-81514962D01*
X55705625Y-81478825D01*
X55714378Y-81474959D01*
X55771785Y-81459577D01*
X55839468Y-81420500D01*
X55908716Y-81380520D01*
X56020520Y-81268716D01*
X56020520Y-81268714D01*
X56030724Y-81258511D01*
X56030728Y-81258506D01*
X57352318Y-79936916D01*
X57413641Y-79903431D01*
X57483333Y-79908415D01*
X57527680Y-79936916D01*
X59075921Y-81485157D01*
X59109406Y-81546480D01*
X59106173Y-81611149D01*
X59101523Y-81625460D01*
X59101523Y-81625462D01*
X59069500Y-81827648D01*
X59069500Y-82032351D01*
X59101522Y-82234534D01*
X59164781Y-82429223D01*
X59190256Y-82479219D01*
X59252619Y-82601613D01*
X59257715Y-82611613D01*
X59378028Y-82777213D01*
X59522786Y-82921971D01*
X59629374Y-82999410D01*
X59688390Y-83042287D01*
X59804607Y-83101503D01*
X59870776Y-83135218D01*
X59870778Y-83135218D01*
X59870781Y-83135220D01*
X59975137Y-83169127D01*
X60065465Y-83198477D01*
X60138212Y-83209999D01*
X60267648Y-83230500D01*
X60267649Y-83230500D01*
X60472351Y-83230500D01*
X60472352Y-83230500D01*
X60674534Y-83198477D01*
X60869219Y-83135220D01*
X61051610Y-83042287D01*
X61144590Y-82974732D01*
X61217213Y-82921971D01*
X61217215Y-82921968D01*
X61217219Y-82921966D01*
X61361966Y-82777219D01*
X61361968Y-82777215D01*
X61361971Y-82777213D01*
X61462057Y-82639454D01*
X61482287Y-82611610D01*
X61575220Y-82429219D01*
X61638477Y-82234534D01*
X61670500Y-82032352D01*
X61670500Y-81827648D01*
X61638477Y-81625466D01*
X61633827Y-81611157D01*
X61631831Y-81541318D01*
X61664078Y-81485156D01*
X61670012Y-81479223D01*
X61692418Y-81456817D01*
X61753742Y-81423333D01*
X61780098Y-81420500D01*
X63943695Y-81420500D01*
X64010734Y-81440185D01*
X64056489Y-81492989D01*
X64066433Y-81562147D01*
X64061626Y-81582819D01*
X64031522Y-81675465D01*
X63999500Y-81877648D01*
X63999500Y-82082351D01*
X64031522Y-82284534D01*
X64094781Y-82479223D01*
X64187715Y-82661613D01*
X64308028Y-82827213D01*
X64452786Y-82971971D01*
X64535806Y-83032287D01*
X64618390Y-83092287D01*
X64683025Y-83125220D01*
X64800776Y-83185218D01*
X64800778Y-83185218D01*
X64800781Y-83185220D01*
X64877043Y-83209999D01*
X64995465Y-83248477D01*
X65077348Y-83261446D01*
X65197648Y-83280500D01*
X65197649Y-83280500D01*
X65402351Y-83280500D01*
X65402352Y-83280500D01*
X65604534Y-83248477D01*
X65799219Y-83185220D01*
X65981610Y-83092287D01*
X66074590Y-83024732D01*
X66147213Y-82971971D01*
X66147215Y-82971968D01*
X66147219Y-82971966D01*
X66291966Y-82827219D01*
X66291968Y-82827215D01*
X66291971Y-82827213D01*
X66344732Y-82754590D01*
X66412287Y-82661610D01*
X66449689Y-82588205D01*
X66497664Y-82537409D01*
X66560174Y-82520500D01*
X68347837Y-82520500D01*
X68414876Y-82540185D01*
X68460631Y-82592989D01*
X68469089Y-82618541D01*
X68469999Y-82622792D01*
X68525185Y-82789331D01*
X68525187Y-82789336D01*
X68560069Y-82845888D01*
X68617288Y-82938656D01*
X68741344Y-83062712D01*
X68890666Y-83154814D01*
X68972570Y-83181954D01*
X69030015Y-83221727D01*
X69056838Y-83286243D01*
X69044523Y-83355018D01*
X69006451Y-83399978D01*
X68912787Y-83468028D01*
X68912782Y-83468032D01*
X68768028Y-83612786D01*
X68647715Y-83778386D01*
X68554781Y-83960776D01*
X68491522Y-84155465D01*
X68459500Y-84357648D01*
X68459500Y-84562351D01*
X68491522Y-84764534D01*
X68554781Y-84959223D01*
X68647715Y-85141613D01*
X68768028Y-85307213D01*
X68912786Y-85451971D01*
X69053439Y-85554159D01*
X69078390Y-85572287D01*
X69151986Y-85609786D01*
X69171080Y-85619515D01*
X69221876Y-85667490D01*
X69238671Y-85735311D01*
X69216134Y-85801446D01*
X69171080Y-85840485D01*
X69078386Y-85887715D01*
X68912786Y-86008028D01*
X68768028Y-86152786D01*
X68647715Y-86318386D01*
X68554781Y-86500776D01*
X68491522Y-86695465D01*
X68459500Y-86897648D01*
X68459500Y-87102351D01*
X68491522Y-87304534D01*
X68554781Y-87499223D01*
X68647715Y-87681613D01*
X68768028Y-87847213D01*
X68912786Y-87991971D01*
X69022807Y-88071904D01*
X69078390Y-88112287D01*
X69169508Y-88158714D01*
X69171080Y-88159515D01*
X69221876Y-88207490D01*
X69238671Y-88275311D01*
X69216134Y-88341446D01*
X69171080Y-88380485D01*
X69078386Y-88427715D01*
X68912786Y-88548028D01*
X68768028Y-88692786D01*
X68647715Y-88858386D01*
X68554781Y-89040776D01*
X68491522Y-89235465D01*
X68459500Y-89437648D01*
X68459500Y-89642351D01*
X68491522Y-89844534D01*
X68496173Y-89858848D01*
X68498165Y-89928690D01*
X68465921Y-89984842D01*
X67854076Y-90596687D01*
X67854068Y-90596695D01*
X67851286Y-90599478D01*
X67851284Y-90599480D01*
X67739480Y-90711284D01*
X67719435Y-90746004D01*
X67660423Y-90848215D01*
X67619499Y-91000943D01*
X67619499Y-91000945D01*
X67619499Y-91169046D01*
X67619500Y-91169059D01*
X67619500Y-92003244D01*
X67616682Y-92013761D01*
X67616682Y-92171875D01*
X67619500Y-92182391D01*
X67619500Y-94724216D01*
X67599815Y-94791255D01*
X67583181Y-94811897D01*
X65262181Y-97132897D01*
X65200858Y-97166382D01*
X65131166Y-97161398D01*
X65075233Y-97119526D01*
X65050816Y-97054062D01*
X65050500Y-97045216D01*
X65050500Y-96857648D01*
X65018477Y-96655465D01*
X64969739Y-96505466D01*
X64955220Y-96460781D01*
X64955218Y-96460778D01*
X64955218Y-96460776D01*
X64899878Y-96352167D01*
X64862287Y-96278390D01*
X64806912Y-96202172D01*
X64741971Y-96112786D01*
X64597213Y-95968028D01*
X64431613Y-95847715D01*
X64431612Y-95847714D01*
X64431610Y-95847713D01*
X64373350Y-95818028D01*
X64249223Y-95754781D01*
X64054534Y-95691522D01*
X63879995Y-95663878D01*
X63852352Y-95659500D01*
X63647648Y-95659500D01*
X63623329Y-95663351D01*
X63445465Y-95691522D01*
X63250776Y-95754781D01*
X63068386Y-95847715D01*
X62902786Y-95968028D01*
X62758028Y-96112786D01*
X62637715Y-96278386D01*
X62544781Y-96460776D01*
X62481522Y-96655465D01*
X62449500Y-96857648D01*
X62449500Y-97062351D01*
X62481522Y-97264534D01*
X62544781Y-97459223D01*
X62608691Y-97584653D01*
X62637585Y-97641359D01*
X62637715Y-97641613D01*
X62758028Y-97807213D01*
X62902786Y-97951971D01*
X63047861Y-98057372D01*
X63068390Y-98072287D01*
X63184607Y-98131503D01*
X63250776Y-98165218D01*
X63250778Y-98165218D01*
X63250781Y-98165220D01*
X63333466Y-98192086D01*
X63445465Y-98228477D01*
X63546557Y-98244488D01*
X63647648Y-98260500D01*
X63647649Y-98260500D01*
X63835216Y-98260500D01*
X63902255Y-98280185D01*
X63948010Y-98332989D01*
X63957954Y-98402147D01*
X63928929Y-98465703D01*
X63922897Y-98472181D01*
X57551898Y-104843181D01*
X57490575Y-104876666D01*
X57464217Y-104879500D01*
X51867908Y-104879500D01*
X51800869Y-104859815D01*
X51755114Y-104807011D01*
X51745170Y-104737853D01*
X51749977Y-104717181D01*
X51769959Y-104655684D01*
X51800000Y-104466015D01*
X51800000Y-104273984D01*
X51769959Y-104084315D01*
X51710616Y-103901678D01*
X51623438Y-103730584D01*
X51542689Y-103619441D01*
X51542688Y-103619441D01*
X50950465Y-104211664D01*
X50900080Y-104124394D01*
X50825606Y-104049920D01*
X50738332Y-103999533D01*
X51330557Y-103407309D01*
X51219415Y-103326561D01*
X51048321Y-103239383D01*
X50865684Y-103180040D01*
X50676015Y-103150000D01*
X50483985Y-103150000D01*
X50294315Y-103180040D01*
X50111678Y-103239383D01*
X49940582Y-103326562D01*
X49940580Y-103326563D01*
X49829441Y-103407308D01*
X49829441Y-103407309D01*
X50421665Y-103999533D01*
X50334394Y-104049920D01*
X50259920Y-104124394D01*
X50209533Y-104211665D01*
X49617309Y-103619441D01*
X49617308Y-103619441D01*
X49536563Y-103730580D01*
X49536562Y-103730582D01*
X49449383Y-103901678D01*
X49390040Y-104084315D01*
X49360000Y-104273984D01*
X49360000Y-104371403D01*
X49340315Y-104438442D01*
X49287511Y-104484197D01*
X49218353Y-104494141D01*
X49154797Y-104465116D01*
X49148319Y-104459084D01*
X49047590Y-104358355D01*
X49047588Y-104358352D01*
X48928717Y-104239481D01*
X48928716Y-104239480D01*
X48824825Y-104179499D01*
X48824824Y-104179498D01*
X48791783Y-104160422D01*
X48735881Y-104145443D01*
X48639057Y-104119499D01*
X48480943Y-104119499D01*
X48473347Y-104119499D01*
X48473331Y-104119500D01*
X44565719Y-104119500D01*
X44498680Y-104099815D01*
X44455235Y-104051795D01*
X44435052Y-104012185D01*
X44435051Y-104012184D01*
X44310109Y-103840213D01*
X44159786Y-103689890D01*
X43987820Y-103564951D01*
X43987115Y-103564591D01*
X43979054Y-103560485D01*
X43928259Y-103512512D01*
X43911463Y-103444692D01*
X43933999Y-103378556D01*
X43979054Y-103339515D01*
X43987816Y-103335051D01*
X44012441Y-103317160D01*
X44159786Y-103210109D01*
X44159788Y-103210106D01*
X44159792Y-103210104D01*
X44310104Y-103059792D01*
X44310106Y-103059788D01*
X44310109Y-103059786D01*
X44381820Y-102961083D01*
X44435051Y-102887816D01*
X44435349Y-102887230D01*
X44455235Y-102848205D01*
X44503209Y-102797409D01*
X44565719Y-102780500D01*
X47231523Y-102780500D01*
X47298562Y-102800185D01*
X47304400Y-102804176D01*
X47400319Y-102873865D01*
X47557107Y-102953753D01*
X47571493Y-102961083D01*
X47662845Y-102990764D01*
X47754199Y-103020447D01*
X47943945Y-103050500D01*
X47943946Y-103050500D01*
X48136054Y-103050500D01*
X48136055Y-103050500D01*
X48325801Y-103020447D01*
X48508509Y-102961082D01*
X48679681Y-102873865D01*
X48835102Y-102760945D01*
X48970945Y-102625102D01*
X49083865Y-102469681D01*
X49171082Y-102298509D01*
X49230447Y-102115801D01*
X49260500Y-101926055D01*
X49260500Y-101733945D01*
X49230447Y-101544199D01*
X49183525Y-101399786D01*
X49171083Y-101361493D01*
X49139859Y-101300213D01*
X49083865Y-101190319D01*
X48970945Y-101034898D01*
X48835102Y-100899055D01*
X48679681Y-100786135D01*
X48670290Y-100781350D01*
X48508506Y-100698916D01*
X48325802Y-100639553D01*
X48230928Y-100624526D01*
X48136055Y-100609500D01*
X47943945Y-100609500D01*
X47880696Y-100619517D01*
X47754197Y-100639553D01*
X47571493Y-100698916D01*
X47400318Y-100786135D01*
X47331357Y-100836239D01*
X47244898Y-100899055D01*
X47244896Y-100899057D01*
X47244895Y-100899057D01*
X47109057Y-101034895D01*
X47109057Y-101034896D01*
X47109055Y-101034898D01*
X47078898Y-101076406D01*
X46996135Y-101190318D01*
X46908916Y-101361493D01*
X46865922Y-101493818D01*
X46826485Y-101551493D01*
X46762126Y-101578692D01*
X46747991Y-101579500D01*
X44565719Y-101579500D01*
X44498680Y-101559815D01*
X44455235Y-101511795D01*
X44435052Y-101472185D01*
X44435051Y-101472184D01*
X44310109Y-101300213D01*
X44159786Y-101149890D01*
X43987820Y-101024951D01*
X43987115Y-101024591D01*
X43979054Y-101020485D01*
X43928259Y-100972512D01*
X43911463Y-100904692D01*
X43933999Y-100838556D01*
X43979054Y-100799515D01*
X43987816Y-100795051D01*
X44009789Y-100779086D01*
X44159786Y-100670109D01*
X44159788Y-100670106D01*
X44159792Y-100670104D01*
X44310104Y-100519792D01*
X44310106Y-100519788D01*
X44310109Y-100519786D01*
X44381820Y-100421083D01*
X44435051Y-100347816D01*
X44436177Y-100345606D01*
X44455235Y-100308205D01*
X44503209Y-100257409D01*
X44565719Y-100240500D01*
X49771523Y-100240500D01*
X49838562Y-100260185D01*
X49844400Y-100264176D01*
X49940319Y-100333865D01*
X50111491Y-100421082D01*
X50111493Y-100421083D01*
X50202845Y-100450764D01*
X50294199Y-100480447D01*
X50483945Y-100510500D01*
X50483946Y-100510500D01*
X50676054Y-100510500D01*
X50676055Y-100510500D01*
X50865801Y-100480447D01*
X51048509Y-100421082D01*
X51219681Y-100333865D01*
X51375102Y-100220945D01*
X51510945Y-100085102D01*
X51623865Y-99929681D01*
X51711082Y-99758509D01*
X51770447Y-99575801D01*
X51800500Y-99386055D01*
X51800500Y-99193945D01*
X51770447Y-99004199D01*
X51734046Y-98892166D01*
X51711083Y-98821493D01*
X51679859Y-98760213D01*
X51623865Y-98650319D01*
X51510945Y-98494898D01*
X51375102Y-98359055D01*
X51219681Y-98246135D01*
X51048506Y-98158916D01*
X50865802Y-98099553D01*
X50770928Y-98084526D01*
X50676055Y-98069500D01*
X50483945Y-98069500D01*
X50420696Y-98079517D01*
X50294197Y-98099553D01*
X50111493Y-98158916D01*
X49940318Y-98246135D01*
X49893453Y-98280185D01*
X49784898Y-98359055D01*
X49784896Y-98359057D01*
X49784895Y-98359057D01*
X49649057Y-98494895D01*
X49649057Y-98494896D01*
X49649055Y-98494898D01*
X49644095Y-98501725D01*
X49536135Y-98650318D01*
X49448916Y-98821493D01*
X49405922Y-98953818D01*
X49366485Y-99011493D01*
X49302126Y-99038692D01*
X49287991Y-99039500D01*
X44565719Y-99039500D01*
X44498680Y-99019815D01*
X44455235Y-98971795D01*
X44435052Y-98932185D01*
X44435051Y-98932184D01*
X44310109Y-98760213D01*
X44196181Y-98646285D01*
X44162696Y-98584962D01*
X44167680Y-98515270D01*
X44209552Y-98459337D01*
X44240529Y-98442422D01*
X44372086Y-98393354D01*
X44372093Y-98393350D01*
X44487187Y-98307190D01*
X44487190Y-98307187D01*
X44573350Y-98192093D01*
X44573354Y-98192086D01*
X44623596Y-98057379D01*
X44623598Y-98057372D01*
X44629999Y-97997844D01*
X44630000Y-97997827D01*
X44630000Y-97250000D01*
X43757445Y-97250000D01*
X43780000Y-97165826D01*
X43780000Y-97034174D01*
X43757445Y-96950000D01*
X44630000Y-96950000D01*
X44630000Y-96857682D01*
X57450000Y-96857682D01*
X57450000Y-97062317D01*
X57482009Y-97264417D01*
X57545244Y-97459031D01*
X57638141Y-97641350D01*
X57638147Y-97641359D01*
X57730033Y-97767831D01*
X57730035Y-97767832D01*
X58379533Y-97118334D01*
X58429920Y-97205606D01*
X58504394Y-97280080D01*
X58591665Y-97330465D01*
X57942166Y-97979963D01*
X58068650Y-98071859D01*
X58250968Y-98164755D01*
X58445582Y-98227990D01*
X58647683Y-98260000D01*
X58852317Y-98260000D01*
X59054417Y-98227990D01*
X59249031Y-98164755D01*
X59431349Y-98071859D01*
X59557831Y-97979963D01*
X59557832Y-97979963D01*
X58908334Y-97330466D01*
X58995606Y-97280080D01*
X59070080Y-97205606D01*
X59120466Y-97118334D01*
X59769963Y-97767832D01*
X59769963Y-97767831D01*
X59861859Y-97641349D01*
X59954755Y-97459031D01*
X60017990Y-97264417D01*
X60050000Y-97062317D01*
X60050000Y-96857682D01*
X60017990Y-96655582D01*
X59954755Y-96460968D01*
X59861859Y-96278650D01*
X59769963Y-96152167D01*
X59769963Y-96152166D01*
X59120465Y-96801664D01*
X59070080Y-96714394D01*
X58995606Y-96639920D01*
X58908334Y-96589534D01*
X59557832Y-95940035D01*
X59557831Y-95940033D01*
X59431359Y-95848147D01*
X59431350Y-95848141D01*
X59249031Y-95755244D01*
X59054417Y-95692009D01*
X58852317Y-95660000D01*
X58647683Y-95660000D01*
X58445582Y-95692009D01*
X58250968Y-95755244D01*
X58068647Y-95848142D01*
X57942167Y-95940034D01*
X57942167Y-95940035D01*
X58591665Y-96589533D01*
X58504394Y-96639920D01*
X58429920Y-96714394D01*
X58379533Y-96801665D01*
X57730035Y-96152167D01*
X57730034Y-96152167D01*
X57638142Y-96278647D01*
X57545244Y-96460968D01*
X57482009Y-96655582D01*
X57450000Y-96857682D01*
X44630000Y-96857682D01*
X44630000Y-96202172D01*
X44629999Y-96202155D01*
X44623598Y-96142627D01*
X44623596Y-96142620D01*
X44581826Y-96030627D01*
X44573354Y-96007913D01*
X44573350Y-96007906D01*
X44487190Y-95892812D01*
X44487187Y-95892809D01*
X44372093Y-95806649D01*
X44372086Y-95806645D01*
X44237379Y-95756403D01*
X44237372Y-95756401D01*
X44177844Y-95750000D01*
X43430000Y-95750000D01*
X43430000Y-96622554D01*
X43345826Y-96600000D01*
X43214174Y-96600000D01*
X43130000Y-96622554D01*
X43130000Y-95750000D01*
X42382155Y-95750000D01*
X42322627Y-95756401D01*
X42322620Y-95756403D01*
X42187913Y-95806645D01*
X42187906Y-95806649D01*
X42072812Y-95892809D01*
X42072809Y-95892812D01*
X41986649Y-96007906D01*
X41986645Y-96007913D01*
X41936403Y-96142620D01*
X41936401Y-96142627D01*
X41930000Y-96202155D01*
X41930000Y-96950000D01*
X42802555Y-96950000D01*
X42780000Y-97034174D01*
X42780000Y-97165826D01*
X42802555Y-97250000D01*
X41930000Y-97250000D01*
X41930000Y-97997844D01*
X41936401Y-98057372D01*
X41936403Y-98057379D01*
X41986645Y-98192086D01*
X41986649Y-98192093D01*
X42072809Y-98307187D01*
X42072812Y-98307190D01*
X42187906Y-98393350D01*
X42187913Y-98393354D01*
X42319470Y-98442422D01*
X42375404Y-98484293D01*
X42399821Y-98549758D01*
X42384969Y-98618031D01*
X42363819Y-98646285D01*
X42249889Y-98760215D01*
X42124951Y-98932179D01*
X42028444Y-99121585D01*
X42028443Y-99121587D01*
X42028443Y-99121588D01*
X42007012Y-99187546D01*
X41962753Y-99323760D01*
X41929500Y-99533713D01*
X41929500Y-99746286D01*
X41946622Y-99854394D01*
X41962754Y-99956243D01*
X42026574Y-100152661D01*
X42028444Y-100158414D01*
X42124951Y-100347820D01*
X42249890Y-100519786D01*
X42400213Y-100670109D01*
X42572182Y-100795050D01*
X42580946Y-100799516D01*
X42631742Y-100847491D01*
X42648536Y-100915312D01*
X42625998Y-100981447D01*
X42580946Y-101020484D01*
X42572182Y-101024949D01*
X42400213Y-101149890D01*
X42249890Y-101300213D01*
X42124951Y-101472179D01*
X42028444Y-101661585D01*
X41962753Y-101863760D01*
X41929500Y-102073713D01*
X41929500Y-102286287D01*
X41962754Y-102496243D01*
X42025547Y-102689500D01*
X42028444Y-102698414D01*
X42124951Y-102887820D01*
X42249890Y-103059786D01*
X42400213Y-103210109D01*
X42572182Y-103335050D01*
X42580946Y-103339516D01*
X42631742Y-103387491D01*
X42648536Y-103455312D01*
X42625998Y-103521447D01*
X42580946Y-103560484D01*
X42572182Y-103564949D01*
X42400213Y-103689890D01*
X42249890Y-103840213D01*
X42124951Y-104012179D01*
X42028444Y-104201585D01*
X41962753Y-104403760D01*
X41946002Y-104509523D01*
X41929500Y-104613713D01*
X41929500Y-104826287D01*
X41962754Y-105036243D01*
X42016726Y-105202352D01*
X42028444Y-105238414D01*
X42124951Y-105427820D01*
X42249890Y-105599786D01*
X42400213Y-105750109D01*
X42572179Y-105875048D01*
X42572181Y-105875049D01*
X42572184Y-105875051D01*
X42581493Y-105879794D01*
X42632290Y-105927766D01*
X42649087Y-105995587D01*
X42626552Y-106061722D01*
X42581502Y-106100762D01*
X42572443Y-106105378D01*
X42436372Y-106204239D01*
X42436371Y-106204240D01*
X43048461Y-106816329D01*
X42972993Y-106859901D01*
X42879901Y-106952993D01*
X42836329Y-107028460D01*
X42224240Y-106416371D01*
X42224239Y-106416372D01*
X42125379Y-106552442D01*
X42028904Y-106741782D01*
X41963242Y-106943869D01*
X41963242Y-106943872D01*
X41930000Y-107153753D01*
X41930000Y-107366246D01*
X41963242Y-107576127D01*
X41963242Y-107576130D01*
X42028904Y-107778217D01*
X42125377Y-107967554D01*
X42224240Y-108103626D01*
X42224241Y-108103627D01*
X42836329Y-107491538D01*
X42879901Y-107567007D01*
X42972993Y-107660099D01*
X43048460Y-107703670D01*
X42436371Y-108315758D01*
X42572447Y-108414624D01*
X42581495Y-108419234D01*
X42632292Y-108467208D01*
X42649087Y-108535029D01*
X42626550Y-108601164D01*
X42581499Y-108640202D01*
X42572182Y-108644949D01*
X42400213Y-108769890D01*
X42249890Y-108920213D01*
X42124951Y-109092179D01*
X42028444Y-109281585D01*
X41962753Y-109483760D01*
X41953892Y-109539709D01*
X41929500Y-109693713D01*
X41929500Y-109906287D01*
X41962754Y-110116243D01*
X42002147Y-110237483D01*
X42028444Y-110318414D01*
X42124951Y-110507820D01*
X42249890Y-110679786D01*
X42400213Y-110830109D01*
X42572182Y-110955050D01*
X42580946Y-110959516D01*
X42631742Y-111007491D01*
X42648536Y-111075312D01*
X42625998Y-111141447D01*
X42580946Y-111180484D01*
X42572182Y-111184949D01*
X42400213Y-111309890D01*
X42249890Y-111460213D01*
X42124951Y-111632179D01*
X42028444Y-111821585D01*
X41962753Y-112023760D01*
X41929500Y-112233713D01*
X41929500Y-112446287D01*
X41962754Y-112656243D01*
X42021889Y-112838242D01*
X42028444Y-112858414D01*
X42124951Y-113047820D01*
X42249890Y-113219786D01*
X42400213Y-113370109D01*
X42572182Y-113495050D01*
X42580946Y-113499516D01*
X42631742Y-113547491D01*
X42648536Y-113615312D01*
X42625998Y-113681447D01*
X42580946Y-113720484D01*
X42572182Y-113724949D01*
X42400213Y-113849890D01*
X42249890Y-114000213D01*
X42124951Y-114172179D01*
X42028444Y-114361585D01*
X41962753Y-114563760D01*
X41929500Y-114773713D01*
X41929500Y-114986286D01*
X41946814Y-115095606D01*
X41962754Y-115196243D01*
X42012460Y-115349223D01*
X42028444Y-115398414D01*
X42124951Y-115587820D01*
X42249890Y-115759786D01*
X42400213Y-115910109D01*
X42572182Y-116035050D01*
X42580946Y-116039516D01*
X42631742Y-116087491D01*
X42648536Y-116155312D01*
X42625998Y-116221447D01*
X42580946Y-116260484D01*
X42572182Y-116264949D01*
X42400213Y-116389890D01*
X42249890Y-116540213D01*
X42124951Y-116712179D01*
X42028444Y-116901585D01*
X41962753Y-117103760D01*
X41929500Y-117313713D01*
X41929500Y-117526286D01*
X41962753Y-117736239D01*
X42028444Y-117938414D01*
X42124951Y-118127820D01*
X42249890Y-118299786D01*
X42400213Y-118450109D01*
X42572182Y-118575050D01*
X42580946Y-118579516D01*
X42631742Y-118627491D01*
X42648536Y-118695312D01*
X42625998Y-118761447D01*
X42580946Y-118800484D01*
X42572182Y-118804949D01*
X42400213Y-118929890D01*
X42249890Y-119080213D01*
X42124951Y-119252179D01*
X42028444Y-119441585D01*
X41962753Y-119643760D01*
X41957052Y-119679755D01*
X41929500Y-119853713D01*
X41929500Y-120066287D01*
X41962754Y-120276243D01*
X41990321Y-120361086D01*
X42028444Y-120478414D01*
X42124951Y-120667820D01*
X42249890Y-120839786D01*
X42400213Y-120990109D01*
X42572182Y-121115050D01*
X42580946Y-121119516D01*
X42631742Y-121167491D01*
X42648536Y-121235312D01*
X42625998Y-121301447D01*
X42580946Y-121340484D01*
X42572182Y-121344949D01*
X42400213Y-121469890D01*
X42249890Y-121620213D01*
X42124951Y-121792179D01*
X42028444Y-121981585D01*
X41962753Y-122183760D01*
X41929500Y-122393713D01*
X41929500Y-122606286D01*
X41962753Y-122816239D01*
X42028444Y-123018414D01*
X42124951Y-123207820D01*
X42249890Y-123379786D01*
X42400213Y-123530109D01*
X42572182Y-123655050D01*
X42580946Y-123659516D01*
X42631742Y-123707491D01*
X42648536Y-123775312D01*
X42625998Y-123841447D01*
X42580946Y-123880484D01*
X42572182Y-123884949D01*
X42400213Y-124009890D01*
X42249890Y-124160213D01*
X42124951Y-124332179D01*
X42028444Y-124521585D01*
X41962753Y-124723760D01*
X41954564Y-124775465D01*
X41929500Y-124933713D01*
X41929500Y-125146287D01*
X41962754Y-125356243D01*
X42016868Y-125522789D01*
X42028444Y-125558414D01*
X42124951Y-125747820D01*
X42249890Y-125919786D01*
X42400213Y-126070109D01*
X42572182Y-126195050D01*
X42580946Y-126199516D01*
X42631742Y-126247491D01*
X42648536Y-126315312D01*
X42625998Y-126381447D01*
X42580946Y-126420484D01*
X42572182Y-126424949D01*
X42400213Y-126549890D01*
X42249890Y-126700213D01*
X42124951Y-126872179D01*
X42028444Y-127061585D01*
X41962753Y-127263760D01*
X41929500Y-127473713D01*
X41929500Y-127686286D01*
X41962753Y-127896239D01*
X42028444Y-128098414D01*
X42124951Y-128287820D01*
X42249890Y-128459786D01*
X42400213Y-128610109D01*
X42572182Y-128735050D01*
X42580946Y-128739516D01*
X42631742Y-128787491D01*
X42648536Y-128855312D01*
X42625998Y-128921447D01*
X42580946Y-128960484D01*
X42572182Y-128964949D01*
X42400213Y-129089890D01*
X42249890Y-129240213D01*
X42124951Y-129412179D01*
X42028444Y-129601585D01*
X41962753Y-129803760D01*
X41929500Y-130013713D01*
X41929500Y-130226286D01*
X41962753Y-130436239D01*
X42028444Y-130638414D01*
X42124951Y-130827820D01*
X42249890Y-130999786D01*
X42400213Y-131150109D01*
X42572182Y-131275050D01*
X42580946Y-131279516D01*
X42631742Y-131327491D01*
X42648536Y-131395312D01*
X42625998Y-131461447D01*
X42580946Y-131500484D01*
X42572182Y-131504949D01*
X42400213Y-131629890D01*
X42249890Y-131780213D01*
X42124951Y-131952179D01*
X42028444Y-132141585D01*
X41962753Y-132343760D01*
X41929500Y-132553713D01*
X41929500Y-132766286D01*
X41962753Y-132976239D01*
X42028444Y-133178414D01*
X42124951Y-133367820D01*
X42249890Y-133539786D01*
X42400213Y-133690109D01*
X42572179Y-133815048D01*
X42572181Y-133815049D01*
X42572184Y-133815051D01*
X42581493Y-133819794D01*
X42632290Y-133867766D01*
X42649087Y-133935587D01*
X42626552Y-134001722D01*
X42581502Y-134040762D01*
X42572443Y-134045378D01*
X42436372Y-134144239D01*
X42436371Y-134144240D01*
X43048461Y-134756329D01*
X42972993Y-134799901D01*
X42879901Y-134892993D01*
X42836329Y-134968460D01*
X42224240Y-134356371D01*
X42224239Y-134356372D01*
X42125379Y-134492442D01*
X42028904Y-134681782D01*
X41963242Y-134883869D01*
X41963242Y-134883872D01*
X41930000Y-135093753D01*
X41930000Y-135306246D01*
X41963242Y-135516127D01*
X41963242Y-135516130D01*
X42028904Y-135718217D01*
X42125377Y-135907554D01*
X42224240Y-136043626D01*
X42224241Y-136043627D01*
X42836329Y-135431538D01*
X42879901Y-135507007D01*
X42972993Y-135600099D01*
X43048460Y-135643670D01*
X42436371Y-136255758D01*
X42572445Y-136354622D01*
X42761782Y-136451095D01*
X42963870Y-136516757D01*
X43173754Y-136550000D01*
X43386246Y-136550000D01*
X43596127Y-136516757D01*
X43596130Y-136516757D01*
X43798217Y-136451095D01*
X43987546Y-136354626D01*
X43987552Y-136354622D01*
X44123626Y-136255758D01*
X44123627Y-136255758D01*
X43511538Y-135643670D01*
X43587007Y-135600099D01*
X43680099Y-135507007D01*
X43723670Y-135431539D01*
X44335758Y-136043627D01*
X44335758Y-136043626D01*
X44434622Y-135907552D01*
X44434626Y-135907546D01*
X44531095Y-135718217D01*
X44596757Y-135516130D01*
X44596757Y-135516127D01*
X44630000Y-135306246D01*
X44630000Y-135137648D01*
X47089500Y-135137648D01*
X47089500Y-135342351D01*
X47121522Y-135544534D01*
X47184781Y-135739223D01*
X47277715Y-135921613D01*
X47398028Y-136087213D01*
X47542786Y-136231971D01*
X47697749Y-136344556D01*
X47708390Y-136352287D01*
X47824607Y-136411503D01*
X47890776Y-136445218D01*
X47890778Y-136445218D01*
X47890781Y-136445220D01*
X47995137Y-136479127D01*
X48085465Y-136508477D01*
X48137743Y-136516757D01*
X48287648Y-136540500D01*
X48287649Y-136540500D01*
X48492351Y-136540500D01*
X48492352Y-136540500D01*
X48694534Y-136508477D01*
X48889219Y-136445220D01*
X49071610Y-136352287D01*
X49204472Y-136255758D01*
X49237213Y-136231971D01*
X49237215Y-136231968D01*
X49237219Y-136231966D01*
X49381966Y-136087219D01*
X49381968Y-136087215D01*
X49381971Y-136087213D01*
X49434732Y-136014590D01*
X49502287Y-135921610D01*
X49595220Y-135739219D01*
X49658477Y-135544534D01*
X49690500Y-135342352D01*
X49690500Y-135137648D01*
X49658477Y-134935466D01*
X49595220Y-134740781D01*
X49595218Y-134740778D01*
X49595218Y-134740776D01*
X49561503Y-134674607D01*
X49502287Y-134558390D01*
X49454376Y-134492445D01*
X49381971Y-134392786D01*
X49237213Y-134248028D01*
X49071613Y-134127715D01*
X49071612Y-134127714D01*
X49071610Y-134127713D01*
X49014653Y-134098691D01*
X48889223Y-134034781D01*
X48694534Y-133971522D01*
X48519995Y-133943878D01*
X48492352Y-133939500D01*
X48287648Y-133939500D01*
X48263329Y-133943351D01*
X48085465Y-133971522D01*
X47890776Y-134034781D01*
X47708386Y-134127715D01*
X47542786Y-134248028D01*
X47398028Y-134392786D01*
X47277715Y-134558386D01*
X47184781Y-134740776D01*
X47121522Y-134935465D01*
X47089500Y-135137648D01*
X44630000Y-135137648D01*
X44630000Y-135093753D01*
X44596757Y-134883872D01*
X44596757Y-134883869D01*
X44531095Y-134681782D01*
X44434622Y-134492445D01*
X44335758Y-134356372D01*
X44335758Y-134356371D01*
X43723670Y-134968460D01*
X43680099Y-134892993D01*
X43587007Y-134799901D01*
X43511539Y-134756329D01*
X44123627Y-134144241D01*
X44123626Y-134144240D01*
X43987551Y-134045375D01*
X43978500Y-134040763D01*
X43927706Y-133992788D01*
X43910912Y-133924966D01*
X43933451Y-133858832D01*
X43978508Y-133819793D01*
X43987816Y-133815051D01*
X44067007Y-133757515D01*
X44159786Y-133690109D01*
X44159788Y-133690106D01*
X44159792Y-133690104D01*
X44310104Y-133539792D01*
X44310106Y-133539788D01*
X44310109Y-133539786D01*
X44435048Y-133367820D01*
X44435047Y-133367820D01*
X44435051Y-133367816D01*
X44531557Y-133178412D01*
X44597246Y-132976243D01*
X44630500Y-132766287D01*
X44630500Y-132553713D01*
X44597246Y-132343757D01*
X44531557Y-132141588D01*
X44435051Y-131952184D01*
X44435049Y-131952181D01*
X44435048Y-131952179D01*
X44310109Y-131780213D01*
X44159786Y-131629890D01*
X43987820Y-131504951D01*
X43987115Y-131504591D01*
X43979054Y-131500485D01*
X43928259Y-131452512D01*
X43911463Y-131384692D01*
X43933999Y-131318556D01*
X43979054Y-131279515D01*
X43987816Y-131275051D01*
X44009789Y-131259086D01*
X44159786Y-131150109D01*
X44159788Y-131150106D01*
X44159792Y-131150104D01*
X44310104Y-130999792D01*
X44310106Y-130999788D01*
X44310109Y-130999786D01*
X44435048Y-130827820D01*
X44435047Y-130827820D01*
X44435051Y-130827816D01*
X44531557Y-130638412D01*
X44597246Y-130436243D01*
X44630500Y-130226287D01*
X44630500Y-130013713D01*
X44597246Y-129803757D01*
X44583506Y-129761473D01*
X44581512Y-129691635D01*
X44613755Y-129635478D01*
X44838506Y-129410728D01*
X44838511Y-129410724D01*
X44848714Y-129400520D01*
X44848716Y-129400520D01*
X44960520Y-129288716D01*
X45036018Y-129157949D01*
X45039577Y-129151785D01*
X45080500Y-128999058D01*
X45080500Y-128840943D01*
X45080500Y-127660096D01*
X45100185Y-127593057D01*
X45116814Y-127572420D01*
X47038862Y-125650371D01*
X47100183Y-125616888D01*
X47169875Y-125621872D01*
X47225808Y-125663744D01*
X47237025Y-125681758D01*
X47277713Y-125761611D01*
X47398028Y-125927213D01*
X47542786Y-126071971D01*
X47697749Y-126184556D01*
X47708390Y-126192287D01*
X47816734Y-126247491D01*
X47890776Y-126285218D01*
X47890778Y-126285218D01*
X47890781Y-126285220D01*
X47967046Y-126310000D01*
X48085465Y-126348477D01*
X48186557Y-126364488D01*
X48287648Y-126380500D01*
X48287649Y-126380500D01*
X48492351Y-126380500D01*
X48492352Y-126380500D01*
X48694534Y-126348477D01*
X48889219Y-126285220D01*
X49071610Y-126192287D01*
X49164590Y-126124732D01*
X49237213Y-126071971D01*
X49237215Y-126071968D01*
X49237219Y-126071966D01*
X49381966Y-125927219D01*
X49381968Y-125927215D01*
X49381971Y-125927213D01*
X49434732Y-125854590D01*
X49502287Y-125761610D01*
X49595220Y-125579219D01*
X49658477Y-125384534D01*
X49690500Y-125182352D01*
X49690500Y-124977648D01*
X49658477Y-124775466D01*
X49595220Y-124580781D01*
X49595218Y-124580778D01*
X49595218Y-124580776D01*
X49513703Y-124420795D01*
X49500807Y-124352126D01*
X49527083Y-124287385D01*
X49584190Y-124247128D01*
X49624188Y-124240500D01*
X58763331Y-124240500D01*
X58763347Y-124240501D01*
X58770943Y-124240501D01*
X58929054Y-124240501D01*
X58929057Y-124240501D01*
X59081785Y-124199577D01*
X59131904Y-124170639D01*
X59218716Y-124120520D01*
X59330520Y-124008716D01*
X59330520Y-124008714D01*
X59340728Y-123998507D01*
X59340729Y-123998504D01*
X64966552Y-118372682D01*
X95620000Y-118372682D01*
X95620000Y-118577317D01*
X95652009Y-118779417D01*
X95715244Y-118974031D01*
X95808141Y-119156350D01*
X95808147Y-119156359D01*
X95900033Y-119282831D01*
X95900035Y-119282832D01*
X96549533Y-118633334D01*
X96599920Y-118720606D01*
X96674394Y-118795080D01*
X96761665Y-118845465D01*
X96112166Y-119494963D01*
X96238650Y-119586859D01*
X96420968Y-119679755D01*
X96615582Y-119742990D01*
X96817683Y-119775000D01*
X97022317Y-119775000D01*
X97224417Y-119742990D01*
X97419031Y-119679755D01*
X97601349Y-119586859D01*
X97727831Y-119494963D01*
X97727832Y-119494963D01*
X97078334Y-118845466D01*
X97165606Y-118795080D01*
X97240080Y-118720606D01*
X97290465Y-118633334D01*
X97939963Y-119282832D01*
X97939963Y-119282831D01*
X98031859Y-119156349D01*
X98124755Y-118974031D01*
X98187990Y-118779417D01*
X98220000Y-118577317D01*
X98220000Y-118372682D01*
X98187990Y-118170582D01*
X98124755Y-117975968D01*
X98031859Y-117793650D01*
X97939963Y-117667167D01*
X97939963Y-117667166D01*
X97290465Y-118316664D01*
X97240080Y-118229394D01*
X97165606Y-118154920D01*
X97078334Y-118104534D01*
X97727832Y-117455035D01*
X97727831Y-117455033D01*
X97601359Y-117363147D01*
X97601350Y-117363141D01*
X97419031Y-117270244D01*
X97224417Y-117207009D01*
X97022317Y-117175000D01*
X96817683Y-117175000D01*
X96615582Y-117207009D01*
X96420968Y-117270244D01*
X96238647Y-117363142D01*
X96112167Y-117455034D01*
X96112167Y-117455035D01*
X96761665Y-118104533D01*
X96674394Y-118154920D01*
X96599920Y-118229394D01*
X96549533Y-118316665D01*
X95900035Y-117667167D01*
X95900034Y-117667167D01*
X95808142Y-117793647D01*
X95715244Y-117975968D01*
X95652009Y-118170582D01*
X95620000Y-118372682D01*
X64966552Y-118372682D01*
X68265184Y-115074050D01*
X68326505Y-115040567D01*
X68396197Y-115045551D01*
X68452130Y-115087423D01*
X68475336Y-115142335D01*
X68491522Y-115244534D01*
X68554781Y-115439223D01*
X68647715Y-115621613D01*
X68768028Y-115787213D01*
X68912786Y-115931971D01*
X69030486Y-116017483D01*
X69078390Y-116052287D01*
X69147482Y-116087491D01*
X69260776Y-116145218D01*
X69260778Y-116145218D01*
X69260781Y-116145220D01*
X69332254Y-116168443D01*
X69455465Y-116208477D01*
X69537354Y-116221447D01*
X69657648Y-116240500D01*
X69657649Y-116240500D01*
X69862351Y-116240500D01*
X69862352Y-116240500D01*
X70064534Y-116208477D01*
X70259219Y-116145220D01*
X70441610Y-116052287D01*
X70534590Y-115984732D01*
X70607213Y-115931971D01*
X70607215Y-115931968D01*
X70607219Y-115931966D01*
X70751966Y-115787219D01*
X70751968Y-115787215D01*
X70751971Y-115787213D01*
X70845971Y-115657831D01*
X70872287Y-115621610D01*
X70965220Y-115439219D01*
X71028477Y-115244534D01*
X71060500Y-115042352D01*
X71060500Y-114837648D01*
X71046245Y-114747648D01*
X71028477Y-114635465D01*
X70965218Y-114440776D01*
X70924869Y-114361588D01*
X70872287Y-114258390D01*
X70864556Y-114247749D01*
X70751971Y-114092786D01*
X70607213Y-113948028D01*
X70441614Y-113827715D01*
X70435006Y-113824348D01*
X70348917Y-113780483D01*
X70298123Y-113732511D01*
X70281328Y-113664690D01*
X70303865Y-113598555D01*
X70348917Y-113559516D01*
X70441610Y-113512287D01*
X70465338Y-113495048D01*
X70607213Y-113391971D01*
X70607215Y-113391968D01*
X70607219Y-113391966D01*
X70751966Y-113247219D01*
X70751968Y-113247215D01*
X70751971Y-113247213D01*
X70807705Y-113170500D01*
X70872287Y-113081610D01*
X70965220Y-112899219D01*
X71028477Y-112704534D01*
X71060500Y-112502352D01*
X71060500Y-112297648D01*
X71028477Y-112095466D01*
X70965220Y-111900781D01*
X70965218Y-111900778D01*
X70965218Y-111900776D01*
X70924869Y-111821588D01*
X70872287Y-111718390D01*
X70864556Y-111707749D01*
X70751971Y-111552786D01*
X70607213Y-111408028D01*
X70441614Y-111287715D01*
X70435006Y-111284348D01*
X70348917Y-111240483D01*
X70298123Y-111192511D01*
X70281328Y-111124690D01*
X70303865Y-111058555D01*
X70348917Y-111019516D01*
X70441610Y-110972287D01*
X70465338Y-110955048D01*
X70607213Y-110851971D01*
X70607215Y-110851968D01*
X70607219Y-110851966D01*
X70751966Y-110707219D01*
X70751968Y-110707215D01*
X70751971Y-110707213D01*
X70807706Y-110630499D01*
X70872287Y-110541610D01*
X70965220Y-110359219D01*
X71028477Y-110164534D01*
X71060500Y-109962352D01*
X71060500Y-109757648D01*
X71028477Y-109555466D01*
X71023357Y-109539709D01*
X70965218Y-109360776D01*
X70924869Y-109281588D01*
X70872287Y-109178390D01*
X70840506Y-109134647D01*
X70751971Y-109012786D01*
X70607213Y-108868028D01*
X70441614Y-108747715D01*
X70428323Y-108740943D01*
X70348917Y-108700483D01*
X70298123Y-108652511D01*
X70281328Y-108584690D01*
X70303865Y-108518555D01*
X70348917Y-108479516D01*
X70441610Y-108432287D01*
X70465924Y-108414622D01*
X70607213Y-108311971D01*
X70607215Y-108311968D01*
X70607219Y-108311966D01*
X70751966Y-108167219D01*
X70751968Y-108167215D01*
X70751971Y-108167213D01*
X70804732Y-108094590D01*
X70872287Y-108001610D01*
X70965220Y-107819219D01*
X71028477Y-107624534D01*
X71060500Y-107422352D01*
X71060500Y-107217648D01*
X71058135Y-107202715D01*
X71028477Y-107015465D01*
X70965218Y-106820776D01*
X70924968Y-106741782D01*
X70872287Y-106638390D01*
X70809843Y-106552442D01*
X70751971Y-106472786D01*
X70607213Y-106328028D01*
X70441614Y-106207715D01*
X70434792Y-106204239D01*
X70348917Y-106160483D01*
X70298123Y-106112511D01*
X70281328Y-106044690D01*
X70303865Y-105978555D01*
X70348917Y-105939516D01*
X70441610Y-105892287D01*
X70507557Y-105844374D01*
X70607213Y-105771971D01*
X70607215Y-105771968D01*
X70607219Y-105771966D01*
X70751966Y-105627219D01*
X70751968Y-105627215D01*
X70751971Y-105627213D01*
X70804732Y-105554590D01*
X70872287Y-105461610D01*
X70965220Y-105279219D01*
X71028477Y-105084534D01*
X71060500Y-104882352D01*
X71060500Y-104677648D01*
X71048325Y-104600781D01*
X71028477Y-104475465D01*
X70977098Y-104317339D01*
X70965220Y-104280781D01*
X70965218Y-104280778D01*
X70965218Y-104280776D01*
X70924869Y-104201588D01*
X70872287Y-104098390D01*
X70830488Y-104040858D01*
X70751971Y-103932786D01*
X70607213Y-103788028D01*
X70441614Y-103667715D01*
X70423952Y-103658716D01*
X70348917Y-103620483D01*
X70298123Y-103572511D01*
X70281328Y-103504690D01*
X70303865Y-103438555D01*
X70348917Y-103399516D01*
X70441610Y-103352287D01*
X70578278Y-103252993D01*
X70607213Y-103231971D01*
X70607215Y-103231968D01*
X70607219Y-103231966D01*
X70751966Y-103087219D01*
X70751968Y-103087215D01*
X70751971Y-103087213D01*
X70804732Y-103014590D01*
X70872287Y-102921610D01*
X70965220Y-102739219D01*
X71028477Y-102544534D01*
X71060500Y-102342352D01*
X71060500Y-102137648D01*
X71028477Y-101935466D01*
X71017201Y-101900763D01*
X70984470Y-101800026D01*
X70965220Y-101740781D01*
X70965218Y-101740778D01*
X70965218Y-101740776D01*
X70924869Y-101661588D01*
X70872287Y-101558390D01*
X70838434Y-101511795D01*
X70751971Y-101392786D01*
X70607213Y-101248028D01*
X70441611Y-101127713D01*
X70348369Y-101080203D01*
X70297574Y-101032229D01*
X70280779Y-100964407D01*
X70303317Y-100898273D01*
X70348371Y-100859234D01*
X70441347Y-100811861D01*
X70567831Y-100719963D01*
X70567832Y-100719963D01*
X69918334Y-100070466D01*
X70005606Y-100020080D01*
X70080080Y-99945606D01*
X70130466Y-99858334D01*
X70779963Y-100507832D01*
X70779963Y-100507831D01*
X70871859Y-100381349D01*
X70964755Y-100199031D01*
X71027990Y-100004417D01*
X71060000Y-99802317D01*
X71060000Y-99597682D01*
X71027990Y-99395582D01*
X70964755Y-99200968D01*
X70871859Y-99018650D01*
X70779963Y-98892167D01*
X70779963Y-98892166D01*
X70130465Y-99541664D01*
X70080080Y-99454394D01*
X70005606Y-99379920D01*
X69918334Y-99329534D01*
X70567832Y-98680035D01*
X70567831Y-98680033D01*
X70441359Y-98588147D01*
X70441350Y-98588141D01*
X70348369Y-98540765D01*
X70297573Y-98492790D01*
X70280778Y-98424969D01*
X70303315Y-98358835D01*
X70348370Y-98319795D01*
X70373109Y-98307190D01*
X70441610Y-98272287D01*
X70502580Y-98227990D01*
X70607213Y-98151971D01*
X70607215Y-98151968D01*
X70607219Y-98151966D01*
X70751966Y-98007219D01*
X70751968Y-98007215D01*
X70751971Y-98007213D01*
X70813674Y-97922284D01*
X70872287Y-97841610D01*
X70965220Y-97659219D01*
X71028477Y-97464534D01*
X71060500Y-97262352D01*
X71060500Y-97057648D01*
X71052257Y-97005606D01*
X71028477Y-96855465D01*
X70971801Y-96681036D01*
X70965220Y-96660781D01*
X70965218Y-96660778D01*
X70965218Y-96660776D01*
X70908180Y-96548834D01*
X70872287Y-96478390D01*
X70828280Y-96417819D01*
X70751971Y-96312786D01*
X70607213Y-96168028D01*
X70441614Y-96047715D01*
X70408077Y-96030627D01*
X70348917Y-96000483D01*
X70298123Y-95952511D01*
X70281328Y-95884690D01*
X70303865Y-95818555D01*
X70348917Y-95779516D01*
X70441610Y-95732287D01*
X70489195Y-95697715D01*
X70607213Y-95611971D01*
X70607215Y-95611968D01*
X70607219Y-95611966D01*
X70751966Y-95467219D01*
X70751968Y-95467215D01*
X70751971Y-95467213D01*
X70804732Y-95394590D01*
X70872287Y-95301610D01*
X70965220Y-95119219D01*
X71028477Y-94924534D01*
X71060500Y-94722352D01*
X71060500Y-94517648D01*
X71028477Y-94315466D01*
X70965220Y-94120781D01*
X70965218Y-94120778D01*
X70965218Y-94120776D01*
X70931503Y-94054607D01*
X70872287Y-93938390D01*
X70864556Y-93927749D01*
X70751971Y-93772786D01*
X70607213Y-93628028D01*
X70441614Y-93507715D01*
X70404322Y-93488714D01*
X70348917Y-93460483D01*
X70298123Y-93412511D01*
X70281328Y-93344690D01*
X70303865Y-93278555D01*
X70348917Y-93239516D01*
X70441610Y-93192287D01*
X70524629Y-93131971D01*
X70607213Y-93071971D01*
X70607215Y-93071968D01*
X70607219Y-93071966D01*
X70751966Y-92927219D01*
X70751968Y-92927215D01*
X70751971Y-92927213D01*
X70822626Y-92829963D01*
X70872287Y-92761610D01*
X70965220Y-92579219D01*
X71028477Y-92384534D01*
X71060500Y-92182352D01*
X71060500Y-91977648D01*
X71028477Y-91775466D01*
X70965220Y-91580781D01*
X70965218Y-91580778D01*
X70965218Y-91580776D01*
X70903979Y-91460589D01*
X70872287Y-91398390D01*
X70858996Y-91380096D01*
X70751971Y-91232786D01*
X70607213Y-91088028D01*
X70441614Y-90967715D01*
X70434225Y-90963950D01*
X70348917Y-90920483D01*
X70298123Y-90872511D01*
X70281328Y-90804690D01*
X70303865Y-90738555D01*
X70348917Y-90699516D01*
X70441610Y-90652287D01*
X70509718Y-90602804D01*
X70607213Y-90531971D01*
X70607215Y-90531968D01*
X70607219Y-90531966D01*
X70751966Y-90387219D01*
X70751968Y-90387215D01*
X70751971Y-90387213D01*
X70804732Y-90314590D01*
X70872287Y-90221610D01*
X70965220Y-90039219D01*
X71028477Y-89844534D01*
X71060500Y-89642352D01*
X71060500Y-89437648D01*
X71043107Y-89327832D01*
X71028477Y-89235465D01*
X70965218Y-89040776D01*
X70925910Y-88963631D01*
X70872287Y-88858390D01*
X70853561Y-88832616D01*
X70751971Y-88692786D01*
X70607213Y-88548028D01*
X70441614Y-88427715D01*
X70412249Y-88412753D01*
X70348917Y-88380483D01*
X70298123Y-88332511D01*
X70281328Y-88264690D01*
X70303865Y-88198555D01*
X70348917Y-88159516D01*
X70441610Y-88112287D01*
X70497193Y-88071904D01*
X70607213Y-87991971D01*
X70607215Y-87991968D01*
X70607219Y-87991966D01*
X70751966Y-87847219D01*
X70751968Y-87847215D01*
X70751971Y-87847213D01*
X70804732Y-87774590D01*
X70872287Y-87681610D01*
X70965220Y-87499219D01*
X71028477Y-87304534D01*
X71060500Y-87102352D01*
X71060500Y-86897648D01*
X71028477Y-86695466D01*
X71024879Y-86684394D01*
X70965218Y-86500776D01*
X70897397Y-86367672D01*
X70872287Y-86318390D01*
X70864556Y-86307749D01*
X70751971Y-86152786D01*
X70607213Y-86008028D01*
X70441614Y-85887715D01*
X70391206Y-85862031D01*
X70348917Y-85840483D01*
X70298123Y-85792511D01*
X70281328Y-85724690D01*
X70303865Y-85658555D01*
X70348917Y-85619516D01*
X70441610Y-85572287D01*
X70466561Y-85554159D01*
X70607213Y-85451971D01*
X70607215Y-85451968D01*
X70607219Y-85451966D01*
X70751966Y-85307219D01*
X70751968Y-85307215D01*
X70751971Y-85307213D01*
X70812452Y-85223966D01*
X70872287Y-85141610D01*
X70965220Y-84959219D01*
X71028477Y-84764534D01*
X71060500Y-84562352D01*
X71060500Y-84357648D01*
X71028477Y-84155466D01*
X70965220Y-83960781D01*
X70965218Y-83960778D01*
X70965218Y-83960776D01*
X70924315Y-83880500D01*
X70872287Y-83778390D01*
X70864556Y-83767749D01*
X70751971Y-83612786D01*
X70607219Y-83468034D01*
X70531132Y-83412754D01*
X70513547Y-83399978D01*
X70470882Y-83344649D01*
X70464903Y-83275036D01*
X70497508Y-83213240D01*
X70547426Y-83181955D01*
X70629334Y-83154814D01*
X70778656Y-83062712D01*
X70902712Y-82938656D01*
X70994814Y-82789334D01*
X71049999Y-82622797D01*
X71060500Y-82520009D01*
X71060499Y-82484351D01*
X71080182Y-82417315D01*
X71132985Y-82371559D01*
X71202143Y-82361614D01*
X71265699Y-82390637D01*
X71272180Y-82396671D01*
X75243181Y-86367672D01*
X75276666Y-86428995D01*
X75279500Y-86455353D01*
X75279500Y-93033330D01*
X75279499Y-93033348D01*
X75279499Y-93199054D01*
X75279498Y-93199054D01*
X75320352Y-93351523D01*
X75320423Y-93351785D01*
X75337002Y-93380500D01*
X75382160Y-93458716D01*
X75399479Y-93488714D01*
X75399481Y-93488717D01*
X75518349Y-93607585D01*
X75518355Y-93607590D01*
X76085922Y-94175157D01*
X76119407Y-94236480D01*
X76116173Y-94301155D01*
X76111522Y-94315468D01*
X76079500Y-94517648D01*
X76079500Y-94722351D01*
X76111522Y-94924534D01*
X76174781Y-95119223D01*
X76267715Y-95301613D01*
X76388028Y-95467213D01*
X76532786Y-95611971D01*
X76698385Y-95732284D01*
X76698387Y-95732285D01*
X76698390Y-95732287D01*
X76791080Y-95779515D01*
X76791630Y-95779795D01*
X76842426Y-95827770D01*
X76859221Y-95895591D01*
X76836684Y-95961725D01*
X76791630Y-96000765D01*
X76698648Y-96048142D01*
X76572167Y-96140034D01*
X76572167Y-96140035D01*
X77221665Y-96789533D01*
X77134394Y-96839920D01*
X77059920Y-96914394D01*
X77009533Y-97001665D01*
X76360035Y-96352167D01*
X76360034Y-96352167D01*
X76268142Y-96478647D01*
X76175244Y-96660968D01*
X76112009Y-96855582D01*
X76080000Y-97057682D01*
X76080000Y-97262317D01*
X76112009Y-97464417D01*
X76175244Y-97659031D01*
X76268141Y-97841350D01*
X76268147Y-97841359D01*
X76360033Y-97967831D01*
X76360035Y-97967832D01*
X77009533Y-97318334D01*
X77059920Y-97405606D01*
X77134394Y-97480080D01*
X77221665Y-97530465D01*
X76572166Y-98179963D01*
X76698652Y-98271861D01*
X76791628Y-98319234D01*
X76842425Y-98367208D01*
X76859220Y-98435029D01*
X76836683Y-98501164D01*
X76791630Y-98540203D01*
X76698388Y-98587713D01*
X76532786Y-98708028D01*
X76388028Y-98852786D01*
X76267715Y-99018386D01*
X76174781Y-99200776D01*
X76111522Y-99395465D01*
X76082960Y-99575801D01*
X76079500Y-99597648D01*
X76079500Y-99802352D01*
X76081057Y-99812184D01*
X76111522Y-100004534D01*
X76174781Y-100199223D01*
X76207880Y-100264182D01*
X76267585Y-100381359D01*
X76267715Y-100381613D01*
X76388028Y-100547213D01*
X76532786Y-100691971D01*
X76674662Y-100795048D01*
X76698390Y-100812287D01*
X76767482Y-100847491D01*
X76791080Y-100859515D01*
X76841876Y-100907490D01*
X76858671Y-100975311D01*
X76836134Y-101041446D01*
X76791080Y-101080485D01*
X76698386Y-101127715D01*
X76532786Y-101248028D01*
X76388028Y-101392786D01*
X76267715Y-101558386D01*
X76174781Y-101740776D01*
X76111522Y-101935465D01*
X76079500Y-102137648D01*
X76079500Y-102342351D01*
X76111522Y-102544534D01*
X76174781Y-102739223D01*
X76207880Y-102804182D01*
X76267380Y-102920957D01*
X76267715Y-102921613D01*
X76388028Y-103087213D01*
X76532786Y-103231971D01*
X76674662Y-103335048D01*
X76698390Y-103352287D01*
X76750931Y-103379058D01*
X76756548Y-103381920D01*
X76807344Y-103429895D01*
X76815574Y-103446829D01*
X76818186Y-103453440D01*
X76820423Y-103461785D01*
X76823788Y-103467613D01*
X76827150Y-103476120D01*
X76829521Y-103502180D01*
X76835688Y-103527610D01*
X76832638Y-103536418D01*
X76833483Y-103545703D01*
X76821388Y-103568910D01*
X76812828Y-103593634D01*
X76804973Y-103600406D01*
X76801192Y-103607663D01*
X76787452Y-103615514D01*
X76768125Y-103632180D01*
X76698388Y-103667713D01*
X76532786Y-103788028D01*
X76388028Y-103932786D01*
X76267715Y-104098386D01*
X76174781Y-104280776D01*
X76111522Y-104475465D01*
X76079500Y-104677648D01*
X76079500Y-104882351D01*
X76111522Y-105084534D01*
X76174781Y-105279223D01*
X76267715Y-105461613D01*
X76388028Y-105627213D01*
X76532786Y-105771971D01*
X76638419Y-105848716D01*
X76698390Y-105892287D01*
X76789840Y-105938883D01*
X76791080Y-105939515D01*
X76841876Y-105987490D01*
X76858671Y-106055311D01*
X76836134Y-106121446D01*
X76791080Y-106160485D01*
X76698386Y-106207715D01*
X76532786Y-106328028D01*
X76388028Y-106472786D01*
X76267715Y-106638386D01*
X76174781Y-106820776D01*
X76111522Y-107015465D01*
X76079500Y-107217648D01*
X76079500Y-107422351D01*
X76111522Y-107624534D01*
X76174781Y-107819223D01*
X76238691Y-107944653D01*
X76250356Y-107967546D01*
X76267715Y-108001613D01*
X76388028Y-108167213D01*
X76532786Y-108311971D01*
X76698385Y-108432284D01*
X76698387Y-108432285D01*
X76698390Y-108432287D01*
X76791080Y-108479515D01*
X76841875Y-108527488D01*
X76858670Y-108595309D01*
X76836133Y-108661444D01*
X76791080Y-108700483D01*
X76698388Y-108747713D01*
X76532786Y-108868028D01*
X76388028Y-109012786D01*
X76267715Y-109178386D01*
X76174781Y-109360776D01*
X76111522Y-109555465D01*
X76079500Y-109757648D01*
X76079500Y-109962351D01*
X76111522Y-110164534D01*
X76174781Y-110359223D01*
X76230311Y-110468205D01*
X76240166Y-110487547D01*
X76267715Y-110541613D01*
X76388028Y-110707213D01*
X76532786Y-110851971D01*
X76674662Y-110955048D01*
X76698390Y-110972287D01*
X76767482Y-111007491D01*
X76791080Y-111019515D01*
X76841876Y-111067490D01*
X76858671Y-111135311D01*
X76836134Y-111201446D01*
X76791080Y-111240485D01*
X76698386Y-111287715D01*
X76532786Y-111408028D01*
X76388028Y-111552786D01*
X76267715Y-111718386D01*
X76174781Y-111900776D01*
X76111522Y-112095465D01*
X76079500Y-112297648D01*
X76079500Y-112502351D01*
X76111522Y-112704534D01*
X76174781Y-112899223D01*
X76209731Y-112967815D01*
X76260725Y-113067896D01*
X76267715Y-113081613D01*
X76388028Y-113247213D01*
X76532786Y-113391971D01*
X76674662Y-113495048D01*
X76698390Y-113512287D01*
X76767482Y-113547491D01*
X76791080Y-113559515D01*
X76841876Y-113607490D01*
X76858671Y-113675311D01*
X76836134Y-113741446D01*
X76791080Y-113780485D01*
X76698386Y-113827715D01*
X76532786Y-113948028D01*
X76388028Y-114092786D01*
X76267715Y-114258386D01*
X76174781Y-114440776D01*
X76111522Y-114635465D01*
X76079500Y-114837648D01*
X76079500Y-115042351D01*
X76111522Y-115244534D01*
X76174781Y-115439223D01*
X76267715Y-115621613D01*
X76388028Y-115787213D01*
X76532786Y-115931971D01*
X76650486Y-116017483D01*
X76698390Y-116052287D01*
X76767482Y-116087491D01*
X76880776Y-116145218D01*
X76880778Y-116145218D01*
X76880781Y-116145220D01*
X76952254Y-116168443D01*
X77075465Y-116208477D01*
X77157354Y-116221447D01*
X77277648Y-116240500D01*
X77277649Y-116240500D01*
X77482351Y-116240500D01*
X77482352Y-116240500D01*
X77684534Y-116208477D01*
X77879219Y-116145220D01*
X78061610Y-116052287D01*
X78154590Y-115984732D01*
X78227213Y-115931971D01*
X78227215Y-115931968D01*
X78227219Y-115931966D01*
X78371966Y-115787219D01*
X78371968Y-115787215D01*
X78371971Y-115787213D01*
X78465971Y-115657831D01*
X78492287Y-115621610D01*
X78585220Y-115439219D01*
X78648477Y-115244534D01*
X78680500Y-115042352D01*
X78680500Y-114837648D01*
X78666245Y-114747648D01*
X78648477Y-114635465D01*
X78585218Y-114440776D01*
X78544869Y-114361588D01*
X78492287Y-114258390D01*
X78484556Y-114247749D01*
X78371971Y-114092786D01*
X78227213Y-113948028D01*
X78061614Y-113827715D01*
X78055006Y-113824348D01*
X77968917Y-113780483D01*
X77918123Y-113732511D01*
X77901328Y-113664690D01*
X77923865Y-113598555D01*
X77968917Y-113559516D01*
X78061610Y-113512287D01*
X78085338Y-113495048D01*
X78227213Y-113391971D01*
X78227215Y-113391968D01*
X78227219Y-113391966D01*
X78371966Y-113247219D01*
X78371968Y-113247215D01*
X78371971Y-113247213D01*
X78427705Y-113170500D01*
X78492287Y-113081610D01*
X78585220Y-112899219D01*
X78648477Y-112704534D01*
X78680500Y-112502352D01*
X78680500Y-112297648D01*
X78648477Y-112095466D01*
X78585220Y-111900781D01*
X78585218Y-111900778D01*
X78585218Y-111900776D01*
X78544869Y-111821588D01*
X78492287Y-111718390D01*
X78484556Y-111707749D01*
X78371971Y-111552786D01*
X78227213Y-111408028D01*
X78061614Y-111287715D01*
X78055006Y-111284348D01*
X77968917Y-111240483D01*
X77918123Y-111192511D01*
X77901328Y-111124690D01*
X77923865Y-111058555D01*
X77968917Y-111019516D01*
X78061610Y-110972287D01*
X78085338Y-110955048D01*
X78227213Y-110851971D01*
X78227215Y-110851968D01*
X78227219Y-110851966D01*
X78371966Y-110707219D01*
X78371968Y-110707215D01*
X78371971Y-110707213D01*
X78427706Y-110630499D01*
X78492287Y-110541610D01*
X78585220Y-110359219D01*
X78648477Y-110164534D01*
X78680500Y-109962352D01*
X78680500Y-109757648D01*
X78648477Y-109555466D01*
X78643357Y-109539709D01*
X78585218Y-109360776D01*
X78544869Y-109281588D01*
X78492287Y-109178390D01*
X78460506Y-109134647D01*
X78371971Y-109012786D01*
X78346891Y-108987706D01*
X78313406Y-108926383D01*
X78318390Y-108856691D01*
X78346891Y-108812344D01*
X78877100Y-108282135D01*
X88249500Y-108282135D01*
X88249500Y-110177870D01*
X88249501Y-110177876D01*
X88255908Y-110237483D01*
X88306202Y-110372328D01*
X88306206Y-110372335D01*
X88392452Y-110487544D01*
X88392455Y-110487547D01*
X88507664Y-110573793D01*
X88507671Y-110573797D01*
X88587580Y-110603601D01*
X88643514Y-110645472D01*
X88667931Y-110710936D01*
X88653080Y-110779209D01*
X88631929Y-110807463D01*
X88581756Y-110857636D01*
X88581752Y-110857641D01*
X88452187Y-111035974D01*
X88352104Y-111232393D01*
X88352103Y-111232396D01*
X88283985Y-111442047D01*
X88283985Y-111442049D01*
X88249500Y-111659778D01*
X88249500Y-111880222D01*
X88252756Y-111900781D01*
X88283985Y-112097952D01*
X88352103Y-112307603D01*
X88352104Y-112307606D01*
X88420122Y-112441096D01*
X88451334Y-112502352D01*
X88452187Y-112504025D01*
X88581752Y-112682358D01*
X88581756Y-112682363D01*
X88737636Y-112838243D01*
X88737641Y-112838247D01*
X88893192Y-112951260D01*
X88915978Y-112967815D01*
X89044375Y-113033237D01*
X89112393Y-113067895D01*
X89112396Y-113067896D01*
X89154614Y-113081613D01*
X89322049Y-113136015D01*
X89539778Y-113170500D01*
X89539779Y-113170500D01*
X89760221Y-113170500D01*
X89760222Y-113170500D01*
X89977951Y-113136015D01*
X90187606Y-113067895D01*
X90384022Y-112967815D01*
X90562365Y-112838242D01*
X90718242Y-112682365D01*
X90847815Y-112504022D01*
X90947895Y-112307606D01*
X91016015Y-112097951D01*
X91050500Y-111880222D01*
X91050500Y-111659778D01*
X91016015Y-111442049D01*
X90947895Y-111232394D01*
X90947895Y-111232393D01*
X90880612Y-111100346D01*
X90847815Y-111035978D01*
X90827118Y-111007491D01*
X90718247Y-110857641D01*
X90718243Y-110857636D01*
X90668071Y-110807464D01*
X90634586Y-110746141D01*
X90639570Y-110676449D01*
X90681442Y-110620516D01*
X90712420Y-110603601D01*
X90792326Y-110573798D01*
X90792326Y-110573797D01*
X90792331Y-110573796D01*
X90907546Y-110487546D01*
X90993796Y-110372331D01*
X91044091Y-110237483D01*
X91050500Y-110177873D01*
X91050499Y-109039499D01*
X91070184Y-108972461D01*
X91122987Y-108926706D01*
X91174499Y-108915500D01*
X95690398Y-108915500D01*
X95757437Y-108935185D01*
X95800883Y-108983205D01*
X95807715Y-108996614D01*
X95928028Y-109162213D01*
X96072786Y-109306971D01*
X96186413Y-109389524D01*
X96238390Y-109427287D01*
X96349224Y-109483760D01*
X96420776Y-109520218D01*
X96420778Y-109520218D01*
X96420781Y-109520220D01*
X96480762Y-109539709D01*
X96615465Y-109583477D01*
X96716557Y-109599488D01*
X96817648Y-109615500D01*
X96817649Y-109615500D01*
X97022351Y-109615500D01*
X97022352Y-109615500D01*
X97224534Y-109583477D01*
X97419219Y-109520220D01*
X97601610Y-109427287D01*
X97694590Y-109359732D01*
X97767213Y-109306971D01*
X97767215Y-109306968D01*
X97767219Y-109306966D01*
X97911966Y-109162219D01*
X97911968Y-109162215D01*
X97911971Y-109162213D01*
X97964732Y-109089590D01*
X98032287Y-108996610D01*
X98125220Y-108814219D01*
X98188477Y-108619534D01*
X98220500Y-108417352D01*
X98220500Y-108212648D01*
X98213304Y-108167213D01*
X98188477Y-108010465D01*
X98131760Y-107835909D01*
X98125220Y-107815781D01*
X98125218Y-107815778D01*
X98125218Y-107815776D01*
X98079436Y-107725925D01*
X98032287Y-107633390D01*
X97990686Y-107576130D01*
X97911971Y-107467786D01*
X97767213Y-107323028D01*
X97601613Y-107202715D01*
X97601612Y-107202714D01*
X97601610Y-107202713D01*
X97544653Y-107173691D01*
X97419223Y-107109781D01*
X97224534Y-107046522D01*
X97049995Y-107018878D01*
X97022352Y-107014500D01*
X96817648Y-107014500D01*
X96793329Y-107018351D01*
X96615465Y-107046522D01*
X96420776Y-107109781D01*
X96238386Y-107202715D01*
X96072786Y-107323028D01*
X95928028Y-107467786D01*
X95807715Y-107633385D01*
X95800883Y-107646795D01*
X95752909Y-107697591D01*
X95690398Y-107714500D01*
X90485936Y-107714500D01*
X90466993Y-107719576D01*
X90466994Y-107719577D01*
X90333215Y-107755423D01*
X90233682Y-107812888D01*
X90171683Y-107829500D01*
X88702129Y-107829500D01*
X88702123Y-107829501D01*
X88642516Y-107835908D01*
X88507671Y-107886202D01*
X88507664Y-107886206D01*
X88392455Y-107972452D01*
X88392452Y-107972455D01*
X88306206Y-108087664D01*
X88306202Y-108087671D01*
X88255908Y-108222517D01*
X88249501Y-108282116D01*
X88249500Y-108282135D01*
X78877100Y-108282135D01*
X79362416Y-107796819D01*
X79423739Y-107763334D01*
X79450097Y-107760500D01*
X84420339Y-107760500D01*
X84420355Y-107760501D01*
X84427951Y-107760501D01*
X84586062Y-107760501D01*
X84586065Y-107760501D01*
X84738793Y-107719577D01*
X84834024Y-107664595D01*
X84875724Y-107640520D01*
X84987528Y-107528716D01*
X84987528Y-107528714D01*
X84997732Y-107518511D01*
X84997736Y-107518506D01*
X87659423Y-104856819D01*
X87720746Y-104823334D01*
X87747104Y-104820500D01*
X90343331Y-104820500D01*
X90343347Y-104820501D01*
X90350943Y-104820501D01*
X90509054Y-104820501D01*
X90509057Y-104820501D01*
X90661785Y-104779577D01*
X90711904Y-104750639D01*
X90798716Y-104700520D01*
X90910520Y-104588716D01*
X90910520Y-104588714D01*
X90920728Y-104578507D01*
X90920730Y-104578504D01*
X91446268Y-104052965D01*
X91507589Y-104019482D01*
X91577281Y-104024466D01*
X91633214Y-104066338D01*
X91650141Y-104111232D01*
X91792445Y-104214622D01*
X91981782Y-104311095D01*
X92183870Y-104376757D01*
X92393754Y-104410000D01*
X92606246Y-104410000D01*
X92816127Y-104376757D01*
X92816130Y-104376757D01*
X93018217Y-104311095D01*
X93207546Y-104214626D01*
X93207552Y-104214622D01*
X93343626Y-104115758D01*
X93343627Y-104115758D01*
X92731538Y-103503670D01*
X92807007Y-103460099D01*
X92900099Y-103367007D01*
X92943670Y-103291539D01*
X93555758Y-103903627D01*
X93555758Y-103903626D01*
X93654622Y-103767552D01*
X93654626Y-103767546D01*
X93751095Y-103578217D01*
X93816757Y-103376130D01*
X93816757Y-103376127D01*
X93850000Y-103166246D01*
X93850000Y-102953753D01*
X93816757Y-102743872D01*
X93816757Y-102743869D01*
X93751095Y-102541782D01*
X93654622Y-102352445D01*
X93555758Y-102216372D01*
X93555758Y-102216371D01*
X92943670Y-102828460D01*
X92900099Y-102752993D01*
X92807007Y-102659901D01*
X92731538Y-102616329D01*
X93343627Y-102004240D01*
X93207551Y-101905375D01*
X93198500Y-101900763D01*
X93147706Y-101852788D01*
X93130912Y-101784966D01*
X93153451Y-101718832D01*
X93198508Y-101679793D01*
X93207816Y-101675051D01*
X93340444Y-101578692D01*
X93379786Y-101550109D01*
X93379788Y-101550106D01*
X93379792Y-101550104D01*
X93530104Y-101399792D01*
X93530106Y-101399788D01*
X93530109Y-101399786D01*
X93655048Y-101227820D01*
X93655047Y-101227820D01*
X93655051Y-101227816D01*
X93751557Y-101038412D01*
X93817246Y-100836243D01*
X93850500Y-100626287D01*
X93850500Y-100413713D01*
X93817246Y-100203757D01*
X93751557Y-100001588D01*
X93655051Y-99812184D01*
X93655049Y-99812181D01*
X93655048Y-99812179D01*
X93530109Y-99640213D01*
X93379786Y-99489890D01*
X93207820Y-99364951D01*
X93207115Y-99364591D01*
X93199054Y-99360485D01*
X93148259Y-99312512D01*
X93131463Y-99244692D01*
X93153999Y-99178556D01*
X93199054Y-99139515D01*
X93207816Y-99135051D01*
X93283541Y-99080034D01*
X93379786Y-99010109D01*
X93379788Y-99010106D01*
X93379792Y-99010104D01*
X93530104Y-98859792D01*
X93530106Y-98859788D01*
X93530109Y-98859786D01*
X93655048Y-98687820D01*
X93655047Y-98687820D01*
X93655051Y-98687816D01*
X93751557Y-98498412D01*
X93817246Y-98296243D01*
X93850500Y-98086287D01*
X93850500Y-97873713D01*
X93817246Y-97663757D01*
X93803506Y-97621473D01*
X93801512Y-97551635D01*
X93833755Y-97495478D01*
X97748506Y-93580728D01*
X97748511Y-93580724D01*
X97758714Y-93570520D01*
X97758716Y-93570520D01*
X97870520Y-93458716D01*
X97932257Y-93351784D01*
X97934167Y-93348477D01*
X97949574Y-93321790D01*
X97949573Y-93321790D01*
X97949577Y-93321785D01*
X97990500Y-93169058D01*
X97990500Y-93010943D01*
X97990500Y-91203160D01*
X98010185Y-91136121D01*
X98062989Y-91090366D01*
X98095102Y-91080687D01*
X98096283Y-91080500D01*
X98096287Y-91080500D01*
X98306243Y-91047246D01*
X98508412Y-90981557D01*
X98697816Y-90885051D01*
X98769548Y-90832935D01*
X98869786Y-90760109D01*
X98869788Y-90760106D01*
X98869792Y-90760104D01*
X99020104Y-90609792D01*
X99025181Y-90602803D01*
X99080511Y-90560138D01*
X99150124Y-90554159D01*
X99211920Y-90586764D01*
X99246277Y-90647603D01*
X99249500Y-90675689D01*
X99249500Y-137745500D01*
X99229815Y-137812539D01*
X99177011Y-137858294D01*
X99125500Y-137869500D01*
X40374500Y-137869500D01*
X40307461Y-137849815D01*
X40261706Y-137797011D01*
X40250500Y-137745500D01*
X40250500Y-92037648D01*
X63999500Y-92037648D01*
X63999500Y-92242351D01*
X64031522Y-92444534D01*
X64094781Y-92639223D01*
X64187715Y-92821613D01*
X64308028Y-92987213D01*
X64452786Y-93131971D01*
X64600811Y-93239515D01*
X64618390Y-93252287D01*
X64734607Y-93311503D01*
X64800776Y-93345218D01*
X64800778Y-93345218D01*
X64800781Y-93345220D01*
X64905137Y-93379127D01*
X64995465Y-93408477D01*
X65096557Y-93424488D01*
X65197648Y-93440500D01*
X65197649Y-93440500D01*
X65402351Y-93440500D01*
X65402352Y-93440500D01*
X65604534Y-93408477D01*
X65799219Y-93345220D01*
X65981610Y-93252287D01*
X66096169Y-93169056D01*
X66147213Y-93131971D01*
X66147215Y-93131968D01*
X66147219Y-93131966D01*
X66291966Y-92987219D01*
X66291968Y-92987215D01*
X66291971Y-92987213D01*
X66369501Y-92880500D01*
X66412287Y-92821610D01*
X66505220Y-92639219D01*
X66568477Y-92444534D01*
X66600500Y-92242352D01*
X66600500Y-92037648D01*
X66568477Y-91835466D01*
X66560202Y-91809999D01*
X66505218Y-91640776D01*
X66466299Y-91564394D01*
X66412287Y-91458390D01*
X66355404Y-91380096D01*
X66291971Y-91292786D01*
X66147213Y-91148028D01*
X65981613Y-91027715D01*
X65981612Y-91027714D01*
X65981610Y-91027713D01*
X65907883Y-90990147D01*
X65799223Y-90934781D01*
X65604534Y-90871522D01*
X65429995Y-90843878D01*
X65402352Y-90839500D01*
X65197648Y-90839500D01*
X65173329Y-90843351D01*
X64995465Y-90871522D01*
X64800776Y-90934781D01*
X64618386Y-91027715D01*
X64452786Y-91148028D01*
X64308028Y-91292786D01*
X64187715Y-91458386D01*
X64094781Y-91640776D01*
X64031522Y-91835465D01*
X63999500Y-92037648D01*
X40250500Y-92037648D01*
X40250500Y-87999983D01*
X41589500Y-87999983D01*
X41589500Y-89200001D01*
X41589501Y-89200018D01*
X41600000Y-89302796D01*
X41600001Y-89302799D01*
X41644686Y-89437648D01*
X41655186Y-89469334D01*
X41747288Y-89618656D01*
X41871344Y-89742712D01*
X42020666Y-89834814D01*
X42187203Y-89889999D01*
X42289991Y-89900500D01*
X43490008Y-89900499D01*
X43592797Y-89889999D01*
X43759334Y-89834814D01*
X43908656Y-89742712D01*
X44032712Y-89618656D01*
X44124814Y-89469334D01*
X44179999Y-89302797D01*
X44190500Y-89200009D01*
X44190499Y-88377682D01*
X47260000Y-88377682D01*
X47260000Y-88582317D01*
X47292009Y-88784417D01*
X47355244Y-88979031D01*
X47448141Y-89161350D01*
X47448147Y-89161359D01*
X47540033Y-89287831D01*
X47540035Y-89287832D01*
X48189533Y-88638334D01*
X48239920Y-88725606D01*
X48314394Y-88800080D01*
X48401665Y-88850465D01*
X47752166Y-89499963D01*
X47878650Y-89591859D01*
X48060968Y-89684755D01*
X48255582Y-89747990D01*
X48457683Y-89780000D01*
X48662317Y-89780000D01*
X48864417Y-89747990D01*
X49059031Y-89684755D01*
X49241349Y-89591859D01*
X49367831Y-89499963D01*
X49367832Y-89499963D01*
X48718334Y-88850466D01*
X48805606Y-88800080D01*
X48880080Y-88725606D01*
X48930466Y-88638334D01*
X49579963Y-89287832D01*
X49579963Y-89287831D01*
X49671859Y-89161349D01*
X49764755Y-88979031D01*
X49827990Y-88784417D01*
X49860000Y-88582317D01*
X49860000Y-88417682D01*
X53040000Y-88417682D01*
X53040000Y-88622317D01*
X53072009Y-88824417D01*
X53135244Y-89019031D01*
X53228141Y-89201350D01*
X53228147Y-89201359D01*
X53320033Y-89327831D01*
X53320035Y-89327832D01*
X53969533Y-88678334D01*
X54019920Y-88765606D01*
X54094394Y-88840080D01*
X54181665Y-88890465D01*
X53532166Y-89539963D01*
X53658650Y-89631859D01*
X53840968Y-89724755D01*
X54035582Y-89787990D01*
X54237683Y-89820000D01*
X54442317Y-89820000D01*
X54644417Y-89787990D01*
X54839031Y-89724755D01*
X55021349Y-89631859D01*
X55147831Y-89539963D01*
X55147832Y-89539963D01*
X54498334Y-88890466D01*
X54585606Y-88840080D01*
X54660080Y-88765606D01*
X54710466Y-88678334D01*
X55359963Y-89327832D01*
X55359963Y-89327831D01*
X55451859Y-89201349D01*
X55544755Y-89019031D01*
X55607990Y-88824417D01*
X55640000Y-88622317D01*
X55640000Y-88417682D01*
X55607990Y-88215582D01*
X55544755Y-88020968D01*
X55513180Y-87958999D01*
X55451859Y-87838650D01*
X55359963Y-87712167D01*
X55359963Y-87712166D01*
X54710465Y-88361664D01*
X54660080Y-88274394D01*
X54585606Y-88199920D01*
X54498334Y-88149534D01*
X55147832Y-87500035D01*
X55147831Y-87500033D01*
X55021359Y-87408147D01*
X55021350Y-87408141D01*
X54839031Y-87315244D01*
X54644417Y-87252009D01*
X54442317Y-87220000D01*
X54237683Y-87220000D01*
X54035582Y-87252009D01*
X53840968Y-87315244D01*
X53658647Y-87408142D01*
X53532167Y-87500034D01*
X53532167Y-87500035D01*
X54181665Y-88149533D01*
X54094394Y-88199920D01*
X54019920Y-88274394D01*
X53969533Y-88361665D01*
X53320035Y-87712167D01*
X53320034Y-87712167D01*
X53228142Y-87838647D01*
X53135244Y-88020968D01*
X53072009Y-88215582D01*
X53040000Y-88417682D01*
X49860000Y-88417682D01*
X49860000Y-88377682D01*
X49827990Y-88175582D01*
X49764755Y-87980968D01*
X49671859Y-87798650D01*
X49579963Y-87672166D01*
X48930465Y-88321664D01*
X48880080Y-88234394D01*
X48805606Y-88159920D01*
X48718334Y-88109534D01*
X49367832Y-87460035D01*
X49367831Y-87460033D01*
X49241359Y-87368147D01*
X49241350Y-87368141D01*
X49059031Y-87275244D01*
X48864417Y-87212009D01*
X48662317Y-87180000D01*
X48457683Y-87180000D01*
X48255582Y-87212009D01*
X48060968Y-87275244D01*
X47878647Y-87368142D01*
X47752167Y-87460034D01*
X47752167Y-87460035D01*
X48401665Y-88109533D01*
X48314394Y-88159920D01*
X48239920Y-88234394D01*
X48189533Y-88321665D01*
X47540035Y-87672167D01*
X47540034Y-87672167D01*
X47448142Y-87798647D01*
X47355244Y-87980968D01*
X47292009Y-88175582D01*
X47260000Y-88377682D01*
X44190499Y-88377682D01*
X44190499Y-87999992D01*
X44185388Y-87949963D01*
X44179999Y-87897203D01*
X44179998Y-87897200D01*
X44160595Y-87838647D01*
X44124814Y-87730666D01*
X44032712Y-87581344D01*
X43908656Y-87457288D01*
X43764135Y-87368147D01*
X43759336Y-87365187D01*
X43759331Y-87365185D01*
X43757862Y-87364698D01*
X43592797Y-87310001D01*
X43592795Y-87310000D01*
X43490010Y-87299500D01*
X42289998Y-87299500D01*
X42289981Y-87299501D01*
X42187203Y-87310000D01*
X42187200Y-87310001D01*
X42020668Y-87365185D01*
X42020663Y-87365187D01*
X41871342Y-87457289D01*
X41747289Y-87581342D01*
X41655187Y-87730663D01*
X41655185Y-87730668D01*
X41652811Y-87737832D01*
X41600001Y-87897203D01*
X41600001Y-87897204D01*
X41600000Y-87897204D01*
X41589500Y-87999983D01*
X40250500Y-87999983D01*
X40250500Y-86827682D01*
X59070000Y-86827682D01*
X59070000Y-87032317D01*
X59102009Y-87234417D01*
X59165244Y-87429031D01*
X59258141Y-87611350D01*
X59258147Y-87611359D01*
X59350033Y-87737831D01*
X59350035Y-87737832D01*
X59999533Y-87088334D01*
X60049920Y-87175606D01*
X60124394Y-87250080D01*
X60211665Y-87300465D01*
X59562166Y-87949963D01*
X59688650Y-88041859D01*
X59870968Y-88134755D01*
X60065582Y-88197990D01*
X60267683Y-88230000D01*
X60472317Y-88230000D01*
X60674417Y-88197990D01*
X60869031Y-88134755D01*
X61051349Y-88041859D01*
X61177831Y-87949963D01*
X61177832Y-87949963D01*
X60528334Y-87300466D01*
X60615606Y-87250080D01*
X60690080Y-87175606D01*
X60740466Y-87088334D01*
X61389963Y-87737832D01*
X61389963Y-87737831D01*
X61481859Y-87611349D01*
X61574755Y-87429031D01*
X61637990Y-87234417D01*
X61670000Y-87032317D01*
X61670000Y-86827682D01*
X61637990Y-86625582D01*
X61574755Y-86430968D01*
X61481859Y-86248650D01*
X61389963Y-86122167D01*
X61389963Y-86122166D01*
X60740465Y-86771664D01*
X60690080Y-86684394D01*
X60615606Y-86609920D01*
X60528334Y-86559534D01*
X61177832Y-85910035D01*
X61177831Y-85910033D01*
X61051359Y-85818147D01*
X61051350Y-85818141D01*
X60869031Y-85725244D01*
X60674417Y-85662009D01*
X60472317Y-85630000D01*
X60267683Y-85630000D01*
X60065582Y-85662009D01*
X59870968Y-85725244D01*
X59688647Y-85818142D01*
X59562167Y-85910034D01*
X59562167Y-85910035D01*
X60211665Y-86559533D01*
X60124394Y-86609920D01*
X60049920Y-86684394D01*
X59999533Y-86771665D01*
X59350035Y-86122167D01*
X59350034Y-86122167D01*
X59258142Y-86248647D01*
X59165244Y-86430968D01*
X59102009Y-86625582D01*
X59070000Y-86827682D01*
X40250500Y-86827682D01*
X40250500Y-77481230D01*
X40270185Y-77414191D01*
X40322989Y-77368436D01*
X40392147Y-77358492D01*
X40455703Y-77387517D01*
X40462181Y-77393549D01*
X40556344Y-77487712D01*
X40705666Y-77579814D01*
X40872203Y-77634999D01*
X40974991Y-77645500D01*
X41825008Y-77645499D01*
X41825016Y-77645498D01*
X41825019Y-77645498D01*
X41881302Y-77639748D01*
X41927797Y-77634999D01*
X42094334Y-77579814D01*
X42243656Y-77487712D01*
X42367712Y-77363656D01*
X42459814Y-77214334D01*
X42514999Y-77047797D01*
X42525500Y-76945009D01*
X42525499Y-75594992D01*
X42525498Y-75594983D01*
X43074500Y-75594983D01*
X43074500Y-76945001D01*
X43074501Y-76945018D01*
X43085000Y-77047796D01*
X43085001Y-77047799D01*
X43131404Y-77187831D01*
X43140186Y-77214334D01*
X43232288Y-77363656D01*
X43356344Y-77487712D01*
X43505666Y-77579814D01*
X43672203Y-77634999D01*
X43774991Y-77645500D01*
X44625008Y-77645499D01*
X44625016Y-77645498D01*
X44625019Y-77645498D01*
X44681302Y-77639748D01*
X44727797Y-77634999D01*
X44894334Y-77579814D01*
X45043656Y-77487712D01*
X45167712Y-77363656D01*
X45259814Y-77214334D01*
X45314999Y-77047797D01*
X45320697Y-76992023D01*
X45321732Y-76981897D01*
X45348129Y-76917205D01*
X45405310Y-76877054D01*
X45445090Y-76870500D01*
X45962613Y-76870500D01*
X46029652Y-76890185D01*
X46075407Y-76942989D01*
X46080543Y-76956180D01*
X46084779Y-76969219D01*
X46177715Y-77151613D01*
X46298028Y-77317213D01*
X46442786Y-77461971D01*
X46597749Y-77574556D01*
X46608390Y-77582287D01*
X46689499Y-77623614D01*
X46790776Y-77675218D01*
X46790778Y-77675218D01*
X46790781Y-77675220D01*
X46865818Y-77699601D01*
X46985465Y-77738477D01*
X47086557Y-77754488D01*
X47187648Y-77770500D01*
X47187649Y-77770500D01*
X47392351Y-77770500D01*
X47392352Y-77770500D01*
X47594534Y-77738477D01*
X47789219Y-77675220D01*
X47971610Y-77582287D01*
X48064590Y-77514732D01*
X48137213Y-77461971D01*
X48137215Y-77461968D01*
X48137219Y-77461966D01*
X48281966Y-77317219D01*
X48281968Y-77317215D01*
X48281971Y-77317213D01*
X48356714Y-77214336D01*
X48402287Y-77151610D01*
X48495220Y-76969219D01*
X48558477Y-76774534D01*
X48590500Y-76572352D01*
X48590500Y-76367648D01*
X48584116Y-76327339D01*
X48558477Y-76165465D01*
X48498215Y-75980000D01*
X48495220Y-75970781D01*
X48495218Y-75970778D01*
X48495218Y-75970776D01*
X48449458Y-75880968D01*
X48402287Y-75788390D01*
X48376329Y-75752661D01*
X48281971Y-75622786D01*
X48137213Y-75478028D01*
X47971613Y-75357715D01*
X47971612Y-75357714D01*
X47971610Y-75357713D01*
X47908714Y-75325666D01*
X47789223Y-75264781D01*
X47594534Y-75201522D01*
X47419995Y-75173878D01*
X47392352Y-75169500D01*
X47187648Y-75169500D01*
X47163329Y-75173351D01*
X46985465Y-75201522D01*
X46790776Y-75264781D01*
X46608386Y-75357715D01*
X46442786Y-75478028D01*
X46298035Y-75622779D01*
X46295252Y-75626038D01*
X46236742Y-75664227D01*
X46200967Y-75669500D01*
X45445089Y-75669500D01*
X45378050Y-75649815D01*
X45332295Y-75597011D01*
X45321731Y-75558102D01*
X45319839Y-75539591D01*
X45314999Y-75492203D01*
X45259814Y-75325666D01*
X45167712Y-75176344D01*
X45043656Y-75052288D01*
X44894334Y-74960186D01*
X44727797Y-74905001D01*
X44727795Y-74905000D01*
X44625010Y-74894500D01*
X43774998Y-74894500D01*
X43774980Y-74894501D01*
X43672203Y-74905000D01*
X43672200Y-74905001D01*
X43505668Y-74960185D01*
X43505663Y-74960187D01*
X43356342Y-75052289D01*
X43232289Y-75176342D01*
X43140187Y-75325663D01*
X43140185Y-75325668D01*
X43117018Y-75395582D01*
X43085001Y-75492203D01*
X43085001Y-75492204D01*
X43085000Y-75492204D01*
X43074500Y-75594983D01*
X42525498Y-75594983D01*
X42523167Y-75572167D01*
X42514999Y-75492203D01*
X42514998Y-75492200D01*
X42459814Y-75325666D01*
X42367712Y-75176344D01*
X42243656Y-75052288D01*
X42094334Y-74960186D01*
X42094333Y-74960185D01*
X42094332Y-74960185D01*
X42085493Y-74957256D01*
X42028049Y-74917482D01*
X42001228Y-74852965D01*
X42000500Y-74839551D01*
X42000500Y-71740097D01*
X42020185Y-71673058D01*
X42036819Y-71652416D01*
X42617953Y-71071282D01*
X43251788Y-70437446D01*
X43313109Y-70403963D01*
X43382801Y-70408947D01*
X43412348Y-70424809D01*
X43727248Y-70653596D01*
X43727252Y-70653598D01*
X43727257Y-70653602D01*
X44101126Y-70882710D01*
X44101131Y-70882713D01*
X44101136Y-70882715D01*
X44101145Y-70882721D01*
X44491867Y-71081803D01*
X44897003Y-71249617D01*
X44897008Y-71249619D01*
X45003050Y-71284073D01*
X45314058Y-71385126D01*
X45740458Y-71487496D01*
X46173576Y-71556095D01*
X46610742Y-71590500D01*
X46610750Y-71590500D01*
X47049250Y-71590500D01*
X47049258Y-71590500D01*
X47486424Y-71556095D01*
X47919542Y-71487496D01*
X48345942Y-71385126D01*
X48762997Y-71249617D01*
X49168133Y-71081803D01*
X49558855Y-70882721D01*
X49932752Y-70653596D01*
X50287520Y-70395843D01*
X50312634Y-70374394D01*
X50330176Y-70359411D01*
X50620970Y-70111049D01*
X50931049Y-69800970D01*
X51155091Y-69538651D01*
X51215838Y-69467526D01*
X51215838Y-69467525D01*
X51215843Y-69467520D01*
X51473596Y-69112752D01*
X51702721Y-68738855D01*
X51901803Y-68348133D01*
X52069617Y-67942997D01*
X52205126Y-67525942D01*
X52307496Y-67099542D01*
X52376095Y-66666424D01*
X52410500Y-66229258D01*
X52410500Y-65790742D01*
X52400270Y-65660755D01*
X54190000Y-65660755D01*
X54190000Y-66099244D01*
X54224402Y-66536355D01*
X54224404Y-66536374D01*
X54292995Y-66969438D01*
X54395353Y-67395794D01*
X54395360Y-67395817D01*
X54530850Y-67812817D01*
X54698646Y-68217910D01*
X54698652Y-68217923D01*
X54897723Y-68608623D01*
X54897726Y-68608629D01*
X55126810Y-68982458D01*
X55126824Y-68982480D01*
X55384554Y-69337213D01*
X55384556Y-69337215D01*
X55669313Y-69670623D01*
X55669326Y-69670637D01*
X55718278Y-69719589D01*
X57507257Y-67930609D01*
X57719389Y-68142741D01*
X55930410Y-69931721D01*
X55979362Y-69980673D01*
X55979376Y-69980686D01*
X56312784Y-70265443D01*
X56312786Y-70265445D01*
X56667519Y-70523175D01*
X56667541Y-70523189D01*
X57041370Y-70752273D01*
X57041376Y-70752276D01*
X57432076Y-70951347D01*
X57432089Y-70951353D01*
X57837182Y-71119149D01*
X58254182Y-71254639D01*
X58254205Y-71254646D01*
X58680561Y-71357004D01*
X59113625Y-71425595D01*
X59113644Y-71425597D01*
X59550755Y-71459999D01*
X59550769Y-71460000D01*
X59989231Y-71460000D01*
X59989244Y-71459999D01*
X60426355Y-71425597D01*
X60426374Y-71425595D01*
X60859438Y-71357004D01*
X61285794Y-71254646D01*
X61285817Y-71254639D01*
X61702817Y-71119149D01*
X62107910Y-70951353D01*
X62107923Y-70951347D01*
X62498623Y-70752276D01*
X62498629Y-70752273D01*
X62872458Y-70523189D01*
X62872480Y-70523175D01*
X63227213Y-70265445D01*
X63227215Y-70265443D01*
X63560624Y-69980685D01*
X63560636Y-69980674D01*
X63609589Y-69931720D01*
X61820610Y-68142741D01*
X62032741Y-67930610D01*
X63821720Y-69719589D01*
X63821721Y-69719589D01*
X63870674Y-69670636D01*
X63870685Y-69670624D01*
X64155443Y-69337215D01*
X64155445Y-69337213D01*
X64413175Y-68982480D01*
X64413189Y-68982458D01*
X64642273Y-68608629D01*
X64642276Y-68608623D01*
X64841347Y-68217923D01*
X64841353Y-68217910D01*
X65009149Y-67812817D01*
X65144639Y-67395817D01*
X65144646Y-67395794D01*
X65247004Y-66969438D01*
X65315595Y-66536374D01*
X65315597Y-66536355D01*
X65349999Y-66099244D01*
X65350000Y-66099231D01*
X65350000Y-65660768D01*
X65349999Y-65660755D01*
X65315597Y-65223644D01*
X65315595Y-65223625D01*
X65247004Y-64790561D01*
X65208141Y-64628680D01*
X65201588Y-64601386D01*
X67887000Y-64601386D01*
X67887000Y-66538613D01*
X67887001Y-66538652D01*
X67889795Y-66591243D01*
X67889795Y-66591244D01*
X67924779Y-66772128D01*
X67934255Y-66821126D01*
X67971380Y-66919500D01*
X68016925Y-67040189D01*
X68135429Y-67242131D01*
X68135434Y-67242138D01*
X68286356Y-67421141D01*
X68286358Y-67421143D01*
X68465361Y-67572065D01*
X68465368Y-67572070D01*
X68667310Y-67690574D01*
X68886374Y-67773245D01*
X69116259Y-67817705D01*
X69168878Y-67820500D01*
X69168886Y-67820500D01*
X71106114Y-67820500D01*
X71106122Y-67820500D01*
X71158741Y-67817705D01*
X71388626Y-67773245D01*
X71607690Y-67690574D01*
X71809632Y-67572070D01*
X71864357Y-67525930D01*
X71988641Y-67421143D01*
X71988643Y-67421141D01*
X72139565Y-67242138D01*
X72139565Y-67242137D01*
X72139570Y-67242132D01*
X72258074Y-67040190D01*
X72340745Y-66821126D01*
X72341256Y-66818485D01*
X72341781Y-66817467D01*
X72342183Y-66816050D01*
X72342471Y-66816131D01*
X72373312Y-66756403D01*
X72433843Y-66721507D01*
X72503631Y-66724876D01*
X72560519Y-66765440D01*
X72586446Y-66830322D01*
X72587000Y-66842030D01*
X72587000Y-70367870D01*
X72587001Y-70367876D01*
X72593408Y-70427483D01*
X72643702Y-70562328D01*
X72643706Y-70562335D01*
X72729952Y-70677544D01*
X72729955Y-70677547D01*
X72845164Y-70763793D01*
X72845171Y-70763797D01*
X72980017Y-70814091D01*
X72980016Y-70814091D01*
X72986944Y-70814835D01*
X73039627Y-70820500D01*
X76635372Y-70820499D01*
X76694983Y-70814091D01*
X76829831Y-70763796D01*
X76945046Y-70677546D01*
X77031296Y-70562331D01*
X77081591Y-70427483D01*
X77088000Y-70367873D01*
X77088000Y-69294500D01*
X77107685Y-69227461D01*
X77160489Y-69181706D01*
X77212000Y-69170500D01*
X78533331Y-69170500D01*
X78533347Y-69170501D01*
X78540943Y-69170501D01*
X78699054Y-69170501D01*
X78699057Y-69170501D01*
X78851785Y-69129577D01*
X78901904Y-69100639D01*
X78988716Y-69050520D01*
X79100520Y-68938716D01*
X79100520Y-68938714D01*
X79110728Y-68928507D01*
X79110729Y-68928504D01*
X85127078Y-62912156D01*
X85188399Y-62878673D01*
X85253071Y-62881907D01*
X85398944Y-62929305D01*
X85435214Y-62941090D01*
X85559626Y-62960795D01*
X85684038Y-62980500D01*
X85684039Y-62980500D01*
X85935961Y-62980500D01*
X85935962Y-62980500D01*
X86184785Y-62941090D01*
X86424379Y-62863241D01*
X86648845Y-62748870D01*
X86852656Y-62600793D01*
X87030793Y-62422656D01*
X87178870Y-62218845D01*
X87293241Y-61994379D01*
X87371090Y-61754785D01*
X87410500Y-61505962D01*
X87410500Y-61254038D01*
X87371090Y-61005215D01*
X87293241Y-60765621D01*
X87293239Y-60765618D01*
X87293239Y-60765616D01*
X87226622Y-60634874D01*
X87178870Y-60541155D01*
X87159952Y-60515117D01*
X87030798Y-60337350D01*
X87030794Y-60337345D01*
X86852654Y-60159205D01*
X86852649Y-60159201D01*
X86648848Y-60011132D01*
X86648847Y-60011131D01*
X86648845Y-60011130D01*
X86578747Y-59975413D01*
X86424383Y-59896760D01*
X86184785Y-59818910D01*
X85935962Y-59779500D01*
X85684038Y-59779500D01*
X85617738Y-59790001D01*
X85435214Y-59818910D01*
X85195616Y-59896760D01*
X84971151Y-60011132D01*
X84767350Y-60159201D01*
X84767345Y-60159205D01*
X84589205Y-60337345D01*
X84589201Y-60337350D01*
X84441132Y-60541151D01*
X84326760Y-60765616D01*
X84248910Y-61005214D01*
X84209500Y-61254038D01*
X84209500Y-61505961D01*
X84248910Y-61754786D01*
X84248910Y-61754789D01*
X84308090Y-61936923D01*
X84310085Y-62006764D01*
X84277840Y-62062922D01*
X78407584Y-67933181D01*
X78346261Y-67966666D01*
X78319903Y-67969500D01*
X77211999Y-67969500D01*
X77144960Y-67949815D01*
X77099205Y-67897011D01*
X77087999Y-67845500D01*
X77087999Y-66772129D01*
X77087998Y-66772123D01*
X77086308Y-66756403D01*
X77081591Y-66712517D01*
X77069788Y-66680872D01*
X77031297Y-66577671D01*
X77031293Y-66577664D01*
X76945047Y-66462455D01*
X76945044Y-66462452D01*
X76829835Y-66376206D01*
X76829828Y-66376202D01*
X76694982Y-66325908D01*
X76694983Y-66325908D01*
X76635383Y-66319501D01*
X76635381Y-66319500D01*
X76635373Y-66319500D01*
X76635364Y-66319500D01*
X73039629Y-66319500D01*
X73039623Y-66319501D01*
X72980016Y-66325908D01*
X72845171Y-66376202D01*
X72845164Y-66376206D01*
X72729955Y-66462452D01*
X72729952Y-66462455D01*
X72643706Y-66577664D01*
X72643703Y-66577669D01*
X72626073Y-66624939D01*
X72584201Y-66680872D01*
X72518737Y-66705289D01*
X72450464Y-66690437D01*
X72401059Y-66641032D01*
X72386066Y-66575025D01*
X72387999Y-66538650D01*
X72388000Y-66538613D01*
X72388000Y-64601386D01*
X72387998Y-64601347D01*
X72386333Y-64569998D01*
X72385205Y-64548759D01*
X72340745Y-64318874D01*
X72258074Y-64099810D01*
X72139570Y-63897868D01*
X72139565Y-63897861D01*
X71988643Y-63718858D01*
X71988641Y-63718856D01*
X71809638Y-63567934D01*
X71809631Y-63567929D01*
X71607689Y-63449425D01*
X71517332Y-63415326D01*
X71388626Y-63366755D01*
X71388621Y-63366754D01*
X71158743Y-63322295D01*
X71106152Y-63319501D01*
X71106129Y-63319500D01*
X71106122Y-63319500D01*
X69168878Y-63319500D01*
X69168870Y-63319500D01*
X69168847Y-63319501D01*
X69116256Y-63322295D01*
X69116255Y-63322295D01*
X68886378Y-63366754D01*
X68886376Y-63366754D01*
X68886374Y-63366755D01*
X68812433Y-63394659D01*
X68667310Y-63449425D01*
X68465368Y-63567929D01*
X68465361Y-63567934D01*
X68286358Y-63718856D01*
X68286356Y-63718858D01*
X68135434Y-63897861D01*
X68135429Y-63897868D01*
X68016925Y-64099810D01*
X67962159Y-64244933D01*
X67934255Y-64318874D01*
X67934254Y-64318876D01*
X67934254Y-64318878D01*
X67889795Y-64548755D01*
X67889795Y-64548756D01*
X67887001Y-64601347D01*
X67887000Y-64601386D01*
X65201588Y-64601386D01*
X65144646Y-64364205D01*
X65144639Y-64364182D01*
X65009149Y-63947182D01*
X64841353Y-63542089D01*
X64841347Y-63542076D01*
X64642276Y-63151376D01*
X64642273Y-63151370D01*
X64413189Y-62777541D01*
X64413166Y-62777506D01*
X64387025Y-62741526D01*
X64387023Y-62741524D01*
X64155445Y-62422786D01*
X64155443Y-62422784D01*
X63870686Y-62089376D01*
X63870673Y-62089362D01*
X63821721Y-62040410D01*
X62032741Y-63829389D01*
X61820610Y-63617258D01*
X63609589Y-61828279D01*
X63609589Y-61828278D01*
X63560624Y-61779314D01*
X63560623Y-61779313D01*
X63533096Y-61755803D01*
X72587500Y-61755803D01*
X72587500Y-62420000D01*
X73360055Y-62420000D01*
X73337500Y-62504174D01*
X73337500Y-62635826D01*
X73360055Y-62720000D01*
X72587501Y-62720000D01*
X72587501Y-63384197D01*
X72597900Y-63516332D01*
X72652877Y-63734519D01*
X72745928Y-63939374D01*
X72745931Y-63939380D01*
X72874059Y-64124323D01*
X72874069Y-64124335D01*
X73033164Y-64283430D01*
X73033176Y-64283440D01*
X73218119Y-64411568D01*
X73218125Y-64411571D01*
X73422980Y-64504622D01*
X73641167Y-64559599D01*
X73773310Y-64569999D01*
X74687499Y-64569999D01*
X74687500Y-64569998D01*
X74687500Y-63070000D01*
X74987500Y-63070000D01*
X74987500Y-64569999D01*
X75901682Y-64569999D01*
X75901697Y-64569998D01*
X76033832Y-64559599D01*
X76252019Y-64504622D01*
X76456874Y-64411571D01*
X76456880Y-64411568D01*
X76641823Y-64283440D01*
X76641835Y-64283430D01*
X76800930Y-64124335D01*
X76800940Y-64124323D01*
X76929068Y-63939380D01*
X76929071Y-63939374D01*
X77022122Y-63734519D01*
X77077099Y-63516332D01*
X77087499Y-63384196D01*
X77087500Y-63384184D01*
X77087500Y-62720000D01*
X76314945Y-62720000D01*
X76337500Y-62635826D01*
X76337500Y-62504174D01*
X76314945Y-62420000D01*
X77087499Y-62420000D01*
X77087499Y-61755817D01*
X77087498Y-61755802D01*
X77077099Y-61623667D01*
X77022122Y-61405480D01*
X76929071Y-61200625D01*
X76929068Y-61200619D01*
X76800940Y-61015676D01*
X76800930Y-61015664D01*
X76641835Y-60856569D01*
X76641823Y-60856559D01*
X76456880Y-60728431D01*
X76456874Y-60728428D01*
X76252019Y-60635377D01*
X76033832Y-60580400D01*
X75901696Y-60570000D01*
X74987500Y-60570000D01*
X74987500Y-62070000D01*
X74687500Y-62070000D01*
X74687500Y-60570000D01*
X73773317Y-60570000D01*
X73773302Y-60570001D01*
X73641167Y-60580400D01*
X73422980Y-60635377D01*
X73218125Y-60728428D01*
X73218119Y-60728431D01*
X73033176Y-60856559D01*
X73033164Y-60856569D01*
X72874069Y-61015664D01*
X72874059Y-61015676D01*
X72745931Y-61200619D01*
X72745928Y-61200625D01*
X72652877Y-61405480D01*
X72597900Y-61623667D01*
X72587500Y-61755803D01*
X63533096Y-61755803D01*
X63227215Y-61494556D01*
X63227213Y-61494554D01*
X62872480Y-61236824D01*
X62872458Y-61236810D01*
X62498629Y-61007726D01*
X62498623Y-61007723D01*
X62107923Y-60808652D01*
X62107910Y-60808646D01*
X61702817Y-60640850D01*
X61285817Y-60505360D01*
X61285794Y-60505353D01*
X60859438Y-60402995D01*
X60426374Y-60334404D01*
X60426355Y-60334402D01*
X59989244Y-60300000D01*
X59550755Y-60300000D01*
X59113644Y-60334402D01*
X59113625Y-60334404D01*
X58680561Y-60402995D01*
X58254205Y-60505353D01*
X58254182Y-60505360D01*
X57837182Y-60640850D01*
X57432089Y-60808646D01*
X57432076Y-60808652D01*
X57041376Y-61007723D01*
X57041370Y-61007726D01*
X56667541Y-61236810D01*
X56667519Y-61236824D01*
X56312786Y-61494554D01*
X56312784Y-61494556D01*
X55979370Y-61779318D01*
X55930410Y-61828278D01*
X57719390Y-63617258D01*
X57507258Y-63829390D01*
X55718278Y-62040410D01*
X55669318Y-62089370D01*
X55384556Y-62422784D01*
X55384554Y-62422786D01*
X55126824Y-62777519D01*
X55126810Y-62777541D01*
X54897726Y-63151370D01*
X54897723Y-63151376D01*
X54698652Y-63542076D01*
X54698646Y-63542089D01*
X54530850Y-63947182D01*
X54395360Y-64364182D01*
X54395353Y-64364205D01*
X54292995Y-64790561D01*
X54224404Y-65223625D01*
X54224402Y-65223644D01*
X54190000Y-65660755D01*
X52400270Y-65660755D01*
X52376095Y-65353576D01*
X52307496Y-64920458D01*
X52205126Y-64494058D01*
X52081076Y-64112271D01*
X52069619Y-64077008D01*
X51995413Y-63897861D01*
X51901803Y-63671867D01*
X51702721Y-63281145D01*
X51702715Y-63281136D01*
X51702713Y-63281131D01*
X51702710Y-63281126D01*
X51473602Y-62907257D01*
X51473598Y-62907252D01*
X51473596Y-62907248D01*
X51215843Y-62552480D01*
X51215838Y-62552473D01*
X50931054Y-62219036D01*
X50931049Y-62219030D01*
X50620970Y-61908951D01*
X50532853Y-61833692D01*
X50287526Y-61624161D01*
X50287512Y-61624151D01*
X50124838Y-61505962D01*
X49932752Y-61366404D01*
X49932749Y-61366402D01*
X49932742Y-61366397D01*
X49558873Y-61137289D01*
X49558868Y-61137286D01*
X49558858Y-61137281D01*
X49558855Y-61137279D01*
X49168133Y-60938197D01*
X49168119Y-60938191D01*
X48762991Y-60770380D01*
X48466256Y-60673966D01*
X48345942Y-60634874D01*
X48345930Y-60634871D01*
X47919539Y-60532503D01*
X47486425Y-60463905D01*
X47049263Y-60429500D01*
X47049258Y-60429500D01*
X46610742Y-60429500D01*
X46610736Y-60429500D01*
X46173575Y-60463905D01*
X46173574Y-60463905D01*
X45740460Y-60532503D01*
X45314069Y-60634871D01*
X45314063Y-60634872D01*
X45314058Y-60634874D01*
X45314046Y-60634878D01*
X44897008Y-60770380D01*
X44491880Y-60938191D01*
X44491867Y-60938197D01*
X44101131Y-61137286D01*
X44101126Y-61137289D01*
X43727257Y-61366397D01*
X43727246Y-61366405D01*
X43372487Y-61624151D01*
X43372473Y-61624161D01*
X43039036Y-61908945D01*
X43039022Y-61908958D01*
X42728958Y-62219022D01*
X42728945Y-62219036D01*
X42444161Y-62552473D01*
X42444151Y-62552487D01*
X42186405Y-62907246D01*
X42186397Y-62907257D01*
X41957289Y-63281126D01*
X41957286Y-63281131D01*
X41758197Y-63671867D01*
X41758191Y-63671880D01*
X41590380Y-64077008D01*
X41454878Y-64494046D01*
X41454871Y-64494069D01*
X41352503Y-64920460D01*
X41283905Y-65353574D01*
X41283905Y-65353575D01*
X41249500Y-65790736D01*
X41249500Y-66229263D01*
X41283905Y-66666424D01*
X41283905Y-66666425D01*
X41352503Y-67099539D01*
X41429714Y-67421143D01*
X41454874Y-67525942D01*
X41469860Y-67572065D01*
X41590380Y-67942991D01*
X41704256Y-68217910D01*
X41758197Y-68348133D01*
X41938640Y-68702273D01*
X41957286Y-68738868D01*
X41957289Y-68738873D01*
X42186397Y-69112742D01*
X42186402Y-69112749D01*
X42186404Y-69112752D01*
X42347575Y-69334586D01*
X42415187Y-69427646D01*
X42438667Y-69493452D01*
X42422841Y-69561506D01*
X42402550Y-69588212D01*
X41031286Y-70959478D01*
X40919481Y-71071282D01*
X40919479Y-71071285D01*
X40869361Y-71158094D01*
X40869359Y-71158096D01*
X40840425Y-71208209D01*
X40840424Y-71208210D01*
X40827982Y-71254646D01*
X40799499Y-71360943D01*
X40799499Y-71360945D01*
X40799499Y-71529046D01*
X40799500Y-71529059D01*
X40799500Y-74839551D01*
X40779815Y-74906590D01*
X40727011Y-74952345D01*
X40714507Y-74957256D01*
X40705667Y-74960185D01*
X40556342Y-75052289D01*
X40462181Y-75146451D01*
X40400858Y-75179936D01*
X40331166Y-75174952D01*
X40275233Y-75133080D01*
X40250816Y-75067616D01*
X40250500Y-75058770D01*
X40250500Y-58994500D01*
X40270185Y-58927461D01*
X40322989Y-58881706D01*
X40374500Y-58870500D01*
X99125500Y-58870500D01*
X99192539Y-58890185D01*
G37*
%TD.AperFunction*%
%TA.AperFunction,Conductor*%
G36*
X68378834Y-96952914D02*
G01*
X68434767Y-96994786D01*
X68459184Y-97060250D01*
X68459500Y-97069096D01*
X68459500Y-97262351D01*
X68491522Y-97464534D01*
X68554781Y-97659223D01*
X68610121Y-97767831D01*
X68647585Y-97841359D01*
X68647715Y-97841613D01*
X68768028Y-98007213D01*
X68912786Y-98151971D01*
X69078385Y-98272284D01*
X69078387Y-98272285D01*
X69078390Y-98272287D01*
X69146891Y-98307190D01*
X69171630Y-98319795D01*
X69222426Y-98367770D01*
X69239221Y-98435591D01*
X69216684Y-98501725D01*
X69171630Y-98540765D01*
X69078648Y-98588142D01*
X68952167Y-98680034D01*
X68952167Y-98680035D01*
X69601665Y-99329533D01*
X69514394Y-99379920D01*
X69439920Y-99454394D01*
X69389533Y-99541665D01*
X68740035Y-98892167D01*
X68740034Y-98892167D01*
X68648142Y-99018647D01*
X68555244Y-99200968D01*
X68492009Y-99395582D01*
X68460000Y-99597682D01*
X68460000Y-99802317D01*
X68492009Y-100004417D01*
X68555244Y-100199031D01*
X68648141Y-100381350D01*
X68648147Y-100381359D01*
X68740033Y-100507831D01*
X68740035Y-100507832D01*
X69389533Y-99858334D01*
X69439920Y-99945606D01*
X69514394Y-100020080D01*
X69601665Y-100070465D01*
X68952166Y-100719963D01*
X69078652Y-100811861D01*
X69171628Y-100859234D01*
X69222425Y-100907208D01*
X69239220Y-100975029D01*
X69216683Y-101041164D01*
X69171630Y-101080203D01*
X69078388Y-101127713D01*
X68912786Y-101248028D01*
X68768028Y-101392786D01*
X68647715Y-101558386D01*
X68554781Y-101740776D01*
X68491522Y-101935465D01*
X68459500Y-102137648D01*
X68459500Y-102342351D01*
X68491522Y-102544534D01*
X68554781Y-102739223D01*
X68587880Y-102804182D01*
X68647380Y-102920957D01*
X68647715Y-102921613D01*
X68768028Y-103087213D01*
X68912786Y-103231971D01*
X69054662Y-103335048D01*
X69078390Y-103352287D01*
X69147482Y-103387491D01*
X69171080Y-103399515D01*
X69221876Y-103447490D01*
X69238671Y-103515311D01*
X69216134Y-103581446D01*
X69171080Y-103620485D01*
X69078386Y-103667715D01*
X68912786Y-103788028D01*
X68768028Y-103932786D01*
X68647715Y-104098386D01*
X68554781Y-104280776D01*
X68491522Y-104475465D01*
X68459500Y-104677648D01*
X68459500Y-104882351D01*
X68491522Y-105084534D01*
X68554781Y-105279223D01*
X68647715Y-105461613D01*
X68768028Y-105627213D01*
X68912786Y-105771971D01*
X69018419Y-105848716D01*
X69078390Y-105892287D01*
X69169840Y-105938883D01*
X69171080Y-105939515D01*
X69221876Y-105987490D01*
X69238671Y-106055311D01*
X69216134Y-106121446D01*
X69171080Y-106160485D01*
X69078386Y-106207715D01*
X68912786Y-106328028D01*
X68768028Y-106472786D01*
X68647715Y-106638386D01*
X68554781Y-106820776D01*
X68491522Y-107015465D01*
X68459500Y-107217648D01*
X68459500Y-107422351D01*
X68491522Y-107624534D01*
X68496173Y-107638848D01*
X68498165Y-107708690D01*
X68465921Y-107764842D01*
X67891286Y-108339478D01*
X67779481Y-108451282D01*
X67779479Y-108451285D01*
X67763181Y-108479515D01*
X67731131Y-108535029D01*
X67729361Y-108538094D01*
X67729359Y-108538096D01*
X67700425Y-108588209D01*
X67700424Y-108588210D01*
X67699347Y-108592230D01*
X67659499Y-108740943D01*
X67659499Y-108740945D01*
X67659499Y-108909046D01*
X67659500Y-108909059D01*
X67659500Y-112679901D01*
X67639815Y-112746940D01*
X67623181Y-112767582D01*
X65306762Y-115084000D01*
X65245439Y-115117485D01*
X65175747Y-115112501D01*
X65119814Y-115070629D01*
X65095397Y-115005165D01*
X65096607Y-114976926D01*
X65100500Y-114952352D01*
X65100500Y-114747648D01*
X65082732Y-114635465D01*
X65068477Y-114545465D01*
X65008730Y-114361585D01*
X65005220Y-114350781D01*
X65005218Y-114350778D01*
X65005218Y-114350776D01*
X64958142Y-114258386D01*
X64912287Y-114168390D01*
X64857358Y-114092786D01*
X64791971Y-114002786D01*
X64647213Y-113858028D01*
X64481613Y-113737715D01*
X64481612Y-113737714D01*
X64481610Y-113737713D01*
X64424653Y-113708691D01*
X64299223Y-113644781D01*
X64104534Y-113581522D01*
X63929995Y-113553878D01*
X63902352Y-113549500D01*
X63697648Y-113549500D01*
X63673329Y-113553351D01*
X63495465Y-113581522D01*
X63300776Y-113644781D01*
X63118386Y-113737715D01*
X62952786Y-113858028D01*
X62808028Y-114002786D01*
X62687715Y-114168386D01*
X62594781Y-114350776D01*
X62531522Y-114545465D01*
X62499500Y-114747648D01*
X62499500Y-114952351D01*
X62531522Y-115154534D01*
X62594781Y-115349223D01*
X62619846Y-115398414D01*
X62687585Y-115531359D01*
X62687715Y-115531613D01*
X62808028Y-115697213D01*
X62952786Y-115841971D01*
X63076656Y-115931966D01*
X63118390Y-115962287D01*
X63226718Y-116017483D01*
X63300776Y-116055218D01*
X63300778Y-116055218D01*
X63300781Y-116055220D01*
X63372602Y-116078556D01*
X63495465Y-116118477D01*
X63596557Y-116134488D01*
X63697648Y-116150500D01*
X63697649Y-116150500D01*
X63902349Y-116150500D01*
X63902352Y-116150500D01*
X63926922Y-116146608D01*
X63996213Y-116155562D01*
X64049665Y-116200557D01*
X64070306Y-116267308D01*
X64051582Y-116334622D01*
X64034000Y-116356762D01*
X58187584Y-122203181D01*
X58126261Y-122236666D01*
X58099903Y-122239500D01*
X47955299Y-122239500D01*
X47955283Y-122239499D01*
X47947687Y-122239499D01*
X47789572Y-122239499D01*
X47713208Y-122259961D01*
X47636843Y-122280423D01*
X47636838Y-122280426D01*
X47499919Y-122359475D01*
X47499911Y-122359481D01*
X45436212Y-124423181D01*
X45374889Y-124456666D01*
X45348531Y-124459500D01*
X44575909Y-124459500D01*
X44508870Y-124439815D01*
X44465424Y-124391795D01*
X44435048Y-124332179D01*
X44310109Y-124160213D01*
X44159786Y-124009890D01*
X43987820Y-123884951D01*
X43987115Y-123884591D01*
X43979054Y-123880485D01*
X43928259Y-123832512D01*
X43911463Y-123764692D01*
X43933999Y-123698556D01*
X43979054Y-123659515D01*
X43987816Y-123655051D01*
X44009789Y-123639086D01*
X44159786Y-123530109D01*
X44159788Y-123530106D01*
X44159792Y-123530104D01*
X44310104Y-123379792D01*
X44310106Y-123379788D01*
X44310109Y-123379786D01*
X44435048Y-123207820D01*
X44435047Y-123207820D01*
X44435051Y-123207816D01*
X44531557Y-123018412D01*
X44597246Y-122816243D01*
X44630500Y-122606287D01*
X44630500Y-122393713D01*
X44597246Y-122183757D01*
X44583506Y-122141473D01*
X44581512Y-122071635D01*
X44613755Y-122015478D01*
X45708713Y-120920521D01*
X45708716Y-120920520D01*
X45820520Y-120808716D01*
X45870639Y-120721904D01*
X45899577Y-120671785D01*
X45940501Y-120519057D01*
X45940501Y-120360943D01*
X45940501Y-120353348D01*
X45940500Y-120353330D01*
X45940500Y-119340096D01*
X45960185Y-119273057D01*
X45976814Y-119252420D01*
X50481552Y-114747682D01*
X57500000Y-114747682D01*
X57500000Y-114952317D01*
X57532009Y-115154417D01*
X57595244Y-115349031D01*
X57688141Y-115531350D01*
X57688147Y-115531359D01*
X57780033Y-115657831D01*
X57780035Y-115657832D01*
X58429533Y-115008334D01*
X58479920Y-115095606D01*
X58554394Y-115170080D01*
X58641665Y-115220465D01*
X57992166Y-115869963D01*
X58118650Y-115961859D01*
X58300968Y-116054755D01*
X58495582Y-116117990D01*
X58697683Y-116150000D01*
X58902317Y-116150000D01*
X59104417Y-116117990D01*
X59299031Y-116054755D01*
X59481349Y-115961859D01*
X59607831Y-115869963D01*
X59607832Y-115869963D01*
X58958334Y-115220466D01*
X59045606Y-115170080D01*
X59120080Y-115095606D01*
X59170466Y-115008334D01*
X59819963Y-115657832D01*
X59819963Y-115657831D01*
X59911859Y-115531349D01*
X60004755Y-115349031D01*
X60067990Y-115154417D01*
X60100000Y-114952317D01*
X60100000Y-114747682D01*
X60067990Y-114545582D01*
X60004755Y-114350968D01*
X59911859Y-114168650D01*
X59819963Y-114042167D01*
X59819963Y-114042166D01*
X59170465Y-114691664D01*
X59120080Y-114604394D01*
X59045606Y-114529920D01*
X58958334Y-114479534D01*
X59607832Y-113830035D01*
X59607831Y-113830033D01*
X59481359Y-113738147D01*
X59481350Y-113738141D01*
X59299031Y-113645244D01*
X59104417Y-113582009D01*
X58902317Y-113550000D01*
X58697683Y-113550000D01*
X58495582Y-113582009D01*
X58300968Y-113645244D01*
X58118647Y-113738142D01*
X57992167Y-113830034D01*
X57992167Y-113830035D01*
X58641665Y-114479533D01*
X58554394Y-114529920D01*
X58479920Y-114604394D01*
X58429533Y-114691665D01*
X57780035Y-114042167D01*
X57780034Y-114042167D01*
X57688142Y-114168647D01*
X57595244Y-114350968D01*
X57532009Y-114545582D01*
X57500000Y-114747682D01*
X50481552Y-114747682D01*
X57007656Y-108221577D01*
X63279500Y-108221577D01*
X63279500Y-108418422D01*
X63310290Y-108612826D01*
X63371117Y-108800029D01*
X63439983Y-108935185D01*
X63460476Y-108975405D01*
X63576172Y-109134646D01*
X63715354Y-109273828D01*
X63874595Y-109389524D01*
X63948704Y-109427284D01*
X64049970Y-109478882D01*
X64049972Y-109478882D01*
X64049975Y-109478884D01*
X64150317Y-109511487D01*
X64237173Y-109539709D01*
X64431578Y-109570500D01*
X64431583Y-109570500D01*
X64628422Y-109570500D01*
X64822826Y-109539709D01*
X65010025Y-109478884D01*
X65185405Y-109389524D01*
X65344646Y-109273828D01*
X65483828Y-109134646D01*
X65599524Y-108975405D01*
X65688884Y-108800025D01*
X65749709Y-108612826D01*
X65753324Y-108590000D01*
X65780500Y-108418422D01*
X65780500Y-108221577D01*
X65749709Y-108027173D01*
X65688882Y-107839970D01*
X65630773Y-107725925D01*
X65599524Y-107664595D01*
X65483828Y-107505354D01*
X65344646Y-107366172D01*
X65185405Y-107250476D01*
X65010029Y-107161117D01*
X64822826Y-107100290D01*
X64628422Y-107069500D01*
X64628417Y-107069500D01*
X64431583Y-107069500D01*
X64431578Y-107069500D01*
X64237173Y-107100290D01*
X64049970Y-107161117D01*
X63874594Y-107250476D01*
X63783741Y-107316485D01*
X63715354Y-107366172D01*
X63715352Y-107366174D01*
X63715351Y-107366174D01*
X63576174Y-107505351D01*
X63576174Y-107505352D01*
X63576172Y-107505354D01*
X63531378Y-107567007D01*
X63460476Y-107664594D01*
X63371117Y-107839970D01*
X63310290Y-108027173D01*
X63279500Y-108221577D01*
X57007656Y-108221577D01*
X61887656Y-103341577D01*
X63279500Y-103341577D01*
X63279500Y-103538422D01*
X63310290Y-103732826D01*
X63371117Y-103920029D01*
X63454825Y-104084315D01*
X63460476Y-104095405D01*
X63576172Y-104254646D01*
X63715354Y-104393828D01*
X63874595Y-104509524D01*
X63957455Y-104551743D01*
X64049970Y-104598882D01*
X64049972Y-104598882D01*
X64049975Y-104598884D01*
X64095614Y-104613713D01*
X64237173Y-104659709D01*
X64431578Y-104690500D01*
X64431583Y-104690500D01*
X64628422Y-104690500D01*
X64822826Y-104659709D01*
X65010025Y-104598884D01*
X65185405Y-104509524D01*
X65344646Y-104393828D01*
X65483828Y-104254646D01*
X65599524Y-104095405D01*
X65688884Y-103920025D01*
X65749709Y-103732826D01*
X65750065Y-103730580D01*
X65780500Y-103538422D01*
X65780500Y-103341577D01*
X65749709Y-103147173D01*
X65721315Y-103059786D01*
X65688884Y-102959975D01*
X65688882Y-102959972D01*
X65688882Y-102959970D01*
X65599523Y-102784594D01*
X65483828Y-102625354D01*
X65344646Y-102486172D01*
X65185405Y-102370476D01*
X65150017Y-102352445D01*
X65010029Y-102281117D01*
X64822826Y-102220290D01*
X64628422Y-102189500D01*
X64628417Y-102189500D01*
X64431583Y-102189500D01*
X64431578Y-102189500D01*
X64237173Y-102220290D01*
X64049970Y-102281117D01*
X63874594Y-102370476D01*
X63783741Y-102436485D01*
X63715354Y-102486172D01*
X63715352Y-102486174D01*
X63715351Y-102486174D01*
X63576174Y-102625351D01*
X63576174Y-102625352D01*
X63576172Y-102625354D01*
X63551072Y-102659901D01*
X63460476Y-102784594D01*
X63371117Y-102959970D01*
X63310290Y-103147173D01*
X63279500Y-103341577D01*
X61887656Y-103341577D01*
X68247819Y-96981414D01*
X68309142Y-96947930D01*
X68378834Y-96952914D01*
G37*
%TD.AperFunction*%
%TA.AperFunction,Conductor*%
G36*
X48326942Y-105340185D02*
G01*
X48347584Y-105356819D01*
X48835139Y-105844374D01*
X48835149Y-105844385D01*
X48839479Y-105848715D01*
X48839480Y-105848716D01*
X48951284Y-105960520D01*
X49020532Y-106000500D01*
X49088215Y-106039577D01*
X49240942Y-106080500D01*
X49240943Y-106080500D01*
X56580903Y-106080500D01*
X56647942Y-106100185D01*
X56693697Y-106152989D01*
X56703641Y-106222147D01*
X56674616Y-106285703D01*
X56668584Y-106292181D01*
X53797584Y-109163181D01*
X53736261Y-109196666D01*
X53709903Y-109199500D01*
X44565719Y-109199500D01*
X44498680Y-109179815D01*
X44455235Y-109131795D01*
X44435052Y-109092185D01*
X44435051Y-109092184D01*
X44310109Y-108920213D01*
X44159786Y-108769890D01*
X43987817Y-108644949D01*
X43978504Y-108640204D01*
X43927707Y-108592230D01*
X43910912Y-108524409D01*
X43933449Y-108458274D01*
X43978507Y-108419232D01*
X43987548Y-108414625D01*
X43987552Y-108414622D01*
X44123626Y-108315758D01*
X44123627Y-108315758D01*
X43511538Y-107703670D01*
X43587007Y-107660099D01*
X43680099Y-107567007D01*
X43723670Y-107491539D01*
X44335758Y-108103627D01*
X44335758Y-108103626D01*
X44434622Y-107967552D01*
X44434626Y-107967546D01*
X44531095Y-107778217D01*
X44596757Y-107576130D01*
X44596757Y-107576127D01*
X44630000Y-107366246D01*
X44630000Y-107153753D01*
X44596757Y-106943872D01*
X44596757Y-106943869D01*
X44531095Y-106741782D01*
X44434622Y-106552445D01*
X44335758Y-106416372D01*
X44335758Y-106416371D01*
X43723670Y-107028460D01*
X43680099Y-106952993D01*
X43587007Y-106859901D01*
X43511539Y-106816329D01*
X44123627Y-106204241D01*
X44123626Y-106204240D01*
X43987551Y-106105375D01*
X43978500Y-106100763D01*
X43927706Y-106052788D01*
X43910912Y-105984966D01*
X43933451Y-105918832D01*
X43978508Y-105879793D01*
X43987816Y-105875051D01*
X44067007Y-105817515D01*
X44159786Y-105750109D01*
X44159788Y-105750106D01*
X44159792Y-105750104D01*
X44310104Y-105599792D01*
X44310106Y-105599788D01*
X44310109Y-105599786D01*
X44410498Y-105461610D01*
X44435051Y-105427816D01*
X44446912Y-105404538D01*
X44455235Y-105388205D01*
X44503209Y-105337409D01*
X44565719Y-105320500D01*
X48259903Y-105320500D01*
X48326942Y-105340185D01*
G37*
%TD.AperFunction*%
%TA.AperFunction,Conductor*%
G36*
X92099901Y-103367007D02*
G01*
X92192993Y-103460099D01*
X92268460Y-103503670D01*
X92115736Y-103656394D01*
X92054413Y-103689879D01*
X91984721Y-103684895D01*
X91928788Y-103643023D01*
X91904371Y-103577559D01*
X91908280Y-103536620D01*
X91909574Y-103531787D01*
X91909577Y-103531784D01*
X91935199Y-103436159D01*
X91967291Y-103380575D01*
X92056328Y-103291537D01*
X92099901Y-103367007D01*
G37*
%TD.AperFunction*%
%TA.AperFunction,Conductor*%
G36*
X82638834Y-97702865D02*
G01*
X82694767Y-97744737D01*
X82719184Y-97810201D01*
X82719500Y-97819047D01*
X82719500Y-99168219D01*
X82699815Y-99235258D01*
X82647011Y-99281013D01*
X82591263Y-99290866D01*
X81940465Y-99941664D01*
X81890080Y-99854394D01*
X81815606Y-99779920D01*
X81728334Y-99729534D01*
X82377832Y-99080035D01*
X82377831Y-99080033D01*
X82251359Y-98988147D01*
X82251350Y-98988141D01*
X82069031Y-98895244D01*
X81874417Y-98832009D01*
X81672317Y-98800000D01*
X81467683Y-98800000D01*
X81265582Y-98832009D01*
X81070968Y-98895244D01*
X80888647Y-98988142D01*
X80762167Y-99080034D01*
X80762167Y-99080035D01*
X81411665Y-99729533D01*
X81324394Y-99779920D01*
X81249920Y-99854394D01*
X81199533Y-99941665D01*
X80550035Y-99292167D01*
X80550034Y-99292167D01*
X80458142Y-99418647D01*
X80365244Y-99600968D01*
X80302009Y-99795582D01*
X80270000Y-99997682D01*
X80270000Y-100202317D01*
X80302009Y-100404417D01*
X80365244Y-100599031D01*
X80458141Y-100781350D01*
X80458147Y-100781359D01*
X80550033Y-100907831D01*
X80550035Y-100907832D01*
X81199533Y-100258334D01*
X81249920Y-100345606D01*
X81324394Y-100420080D01*
X81411665Y-100470465D01*
X80762166Y-101119963D01*
X80888650Y-101211859D01*
X81070968Y-101304755D01*
X81265582Y-101367990D01*
X81467683Y-101400000D01*
X81672317Y-101400000D01*
X81874417Y-101367990D01*
X82069031Y-101304755D01*
X82251349Y-101211859D01*
X82377831Y-101119963D01*
X82377832Y-101119963D01*
X81728334Y-100470466D01*
X81815606Y-100420080D01*
X81890080Y-100345606D01*
X81940466Y-100258334D01*
X82591494Y-100909363D01*
X82654147Y-100922524D01*
X82703904Y-100971575D01*
X82719500Y-101031779D01*
X82719500Y-101915537D01*
X82699815Y-101982576D01*
X82683181Y-102003218D01*
X82033219Y-102653181D01*
X81971896Y-102686666D01*
X81945538Y-102689500D01*
X78770702Y-102689500D01*
X78703663Y-102669815D01*
X78657908Y-102617011D01*
X78647964Y-102547853D01*
X78648229Y-102546102D01*
X78670462Y-102405727D01*
X78680500Y-102342352D01*
X78680500Y-102137648D01*
X78648477Y-101935466D01*
X78637201Y-101900763D01*
X78604470Y-101800026D01*
X78585220Y-101740781D01*
X78585218Y-101740778D01*
X78585218Y-101740776D01*
X78544869Y-101661588D01*
X78492287Y-101558390D01*
X78458434Y-101511795D01*
X78371971Y-101392786D01*
X78227219Y-101248034D01*
X78227211Y-101248028D01*
X78061610Y-101127713D01*
X77965168Y-101078573D01*
X77961546Y-101076406D01*
X77940588Y-101053728D01*
X77918123Y-101032511D01*
X77917077Y-101028287D01*
X77914125Y-101025093D01*
X77908752Y-100994671D01*
X77901328Y-100964690D01*
X77902730Y-100960573D01*
X77901974Y-100956288D01*
X77913902Y-100927790D01*
X77923865Y-100898555D01*
X77927434Y-100895462D01*
X77928952Y-100891836D01*
X77941958Y-100882876D01*
X77968917Y-100859516D01*
X78061610Y-100812287D01*
X78085338Y-100795048D01*
X78227213Y-100691971D01*
X78227215Y-100691968D01*
X78227219Y-100691966D01*
X78371966Y-100547219D01*
X78371968Y-100547215D01*
X78371971Y-100547213D01*
X78492284Y-100381614D01*
X78492285Y-100381613D01*
X78492287Y-100381610D01*
X78499117Y-100368204D01*
X78547091Y-100317409D01*
X78609602Y-100300500D01*
X78613331Y-100300500D01*
X78613347Y-100300501D01*
X78620943Y-100300501D01*
X78779054Y-100300501D01*
X78779057Y-100300501D01*
X78931785Y-100259577D01*
X78998697Y-100220945D01*
X79068716Y-100180520D01*
X79180520Y-100068716D01*
X79180520Y-100068714D01*
X79190724Y-100058511D01*
X79190728Y-100058506D01*
X81145158Y-98104075D01*
X81206479Y-98070592D01*
X81271151Y-98073825D01*
X81285466Y-98078477D01*
X81487648Y-98110500D01*
X81487649Y-98110500D01*
X81692351Y-98110500D01*
X81692352Y-98110500D01*
X81894534Y-98078477D01*
X82089219Y-98015220D01*
X82271610Y-97922287D01*
X82413709Y-97819047D01*
X82437213Y-97801971D01*
X82437215Y-97801968D01*
X82437219Y-97801966D01*
X82507819Y-97731366D01*
X82569142Y-97697881D01*
X82638834Y-97702865D01*
G37*
%TD.AperFunction*%
%TD*%
M02*
