%TF.GenerationSoftware,KiCad,Pcbnew,10.0.0*%
%TF.CreationDate,2026-08-29T20:16:26+01:00*%
%TF.ProjectId,voltmeter,766f6c74-6d65-4746-9572-2e6b69636164,rev?*%
%TF.SameCoordinates,Original*%
%TF.FileFunction,Legend,Top*%
%TF.FilePolarity,Positive*%
%FSLAX46Y46*%
G04 Gerber Fmt 4.6, Leading zero omitted, Abs format (unit mm)*
G04 Created by KiCad (PCBNEW 10.0.0) date 2026-08-29 20:16:26*
%MOMM*%
%LPD*%
G01*
G04 APERTURE LIST*
%ADD10C,0.150000*%
%ADD11C,0.120000*%
G04 APERTURE END LIST*
D10*
X46496666Y-58964819D02*
X46496666Y-59679104D01*
X46496666Y-59679104D02*
X46449047Y-59821961D01*
X46449047Y-59821961D02*
X46353809Y-59917200D01*
X46353809Y-59917200D02*
X46210952Y-59964819D01*
X46210952Y-59964819D02*
X46115714Y-59964819D01*
X46877619Y-58964819D02*
X47496666Y-58964819D01*
X47496666Y-58964819D02*
X47163333Y-59345771D01*
X47163333Y-59345771D02*
X47306190Y-59345771D01*
X47306190Y-59345771D02*
X47401428Y-59393390D01*
X47401428Y-59393390D02*
X47449047Y-59441009D01*
X47449047Y-59441009D02*
X47496666Y-59536247D01*
X47496666Y-59536247D02*
X47496666Y-59774342D01*
X47496666Y-59774342D02*
X47449047Y-59869580D01*
X47449047Y-59869580D02*
X47401428Y-59917200D01*
X47401428Y-59917200D02*
X47306190Y-59964819D01*
X47306190Y-59964819D02*
X47020476Y-59964819D01*
X47020476Y-59964819D02*
X46925238Y-59917200D01*
X46925238Y-59917200D02*
X46877619Y-59869580D01*
X97804819Y-71291904D02*
X98614342Y-71291904D01*
X98614342Y-71291904D02*
X98709580Y-71244285D01*
X98709580Y-71244285D02*
X98757200Y-71196666D01*
X98757200Y-71196666D02*
X98804819Y-71101428D01*
X98804819Y-71101428D02*
X98804819Y-70910952D01*
X98804819Y-70910952D02*
X98757200Y-70815714D01*
X98757200Y-70815714D02*
X98709580Y-70768095D01*
X98709580Y-70768095D02*
X98614342Y-70720476D01*
X98614342Y-70720476D02*
X97804819Y-70720476D01*
X97900057Y-70291904D02*
X97852438Y-70244285D01*
X97852438Y-70244285D02*
X97804819Y-70149047D01*
X97804819Y-70149047D02*
X97804819Y-69910952D01*
X97804819Y-69910952D02*
X97852438Y-69815714D01*
X97852438Y-69815714D02*
X97900057Y-69768095D01*
X97900057Y-69768095D02*
X97995295Y-69720476D01*
X97995295Y-69720476D02*
X98090533Y-69720476D01*
X98090533Y-69720476D02*
X98233390Y-69768095D01*
X98233390Y-69768095D02*
X98804819Y-70339523D01*
X98804819Y-70339523D02*
X98804819Y-69720476D01*
X79429580Y-102766666D02*
X79477200Y-102814285D01*
X79477200Y-102814285D02*
X79524819Y-102957142D01*
X79524819Y-102957142D02*
X79524819Y-103052380D01*
X79524819Y-103052380D02*
X79477200Y-103195237D01*
X79477200Y-103195237D02*
X79381961Y-103290475D01*
X79381961Y-103290475D02*
X79286723Y-103338094D01*
X79286723Y-103338094D02*
X79096247Y-103385713D01*
X79096247Y-103385713D02*
X78953390Y-103385713D01*
X78953390Y-103385713D02*
X78762914Y-103338094D01*
X78762914Y-103338094D02*
X78667676Y-103290475D01*
X78667676Y-103290475D02*
X78572438Y-103195237D01*
X78572438Y-103195237D02*
X78524819Y-103052380D01*
X78524819Y-103052380D02*
X78524819Y-102957142D01*
X78524819Y-102957142D02*
X78572438Y-102814285D01*
X78572438Y-102814285D02*
X78620057Y-102766666D01*
X78524819Y-102433332D02*
X78524819Y-101814285D01*
X78524819Y-101814285D02*
X78905771Y-102147618D01*
X78905771Y-102147618D02*
X78905771Y-102004761D01*
X78905771Y-102004761D02*
X78953390Y-101909523D01*
X78953390Y-101909523D02*
X79001009Y-101861904D01*
X79001009Y-101861904D02*
X79096247Y-101814285D01*
X79096247Y-101814285D02*
X79334342Y-101814285D01*
X79334342Y-101814285D02*
X79429580Y-101861904D01*
X79429580Y-101861904D02*
X79477200Y-101909523D01*
X79477200Y-101909523D02*
X79524819Y-102004761D01*
X79524819Y-102004761D02*
X79524819Y-102290475D01*
X79524819Y-102290475D02*
X79477200Y-102385713D01*
X79477200Y-102385713D02*
X79429580Y-102433332D01*
X68124819Y-87226666D02*
X67648628Y-87559999D01*
X68124819Y-87798094D02*
X67124819Y-87798094D01*
X67124819Y-87798094D02*
X67124819Y-87417142D01*
X67124819Y-87417142D02*
X67172438Y-87321904D01*
X67172438Y-87321904D02*
X67220057Y-87274285D01*
X67220057Y-87274285D02*
X67315295Y-87226666D01*
X67315295Y-87226666D02*
X67458152Y-87226666D01*
X67458152Y-87226666D02*
X67553390Y-87274285D01*
X67553390Y-87274285D02*
X67601009Y-87321904D01*
X67601009Y-87321904D02*
X67648628Y-87417142D01*
X67648628Y-87417142D02*
X67648628Y-87798094D01*
X68124819Y-86274285D02*
X68124819Y-86845713D01*
X68124819Y-86559999D02*
X67124819Y-86559999D01*
X67124819Y-86559999D02*
X67267676Y-86655237D01*
X67267676Y-86655237D02*
X67362914Y-86750475D01*
X67362914Y-86750475D02*
X67410533Y-86845713D01*
X95004819Y-113561666D02*
X94528628Y-113894999D01*
X95004819Y-114133094D02*
X94004819Y-114133094D01*
X94004819Y-114133094D02*
X94004819Y-113752142D01*
X94004819Y-113752142D02*
X94052438Y-113656904D01*
X94052438Y-113656904D02*
X94100057Y-113609285D01*
X94100057Y-113609285D02*
X94195295Y-113561666D01*
X94195295Y-113561666D02*
X94338152Y-113561666D01*
X94338152Y-113561666D02*
X94433390Y-113609285D01*
X94433390Y-113609285D02*
X94481009Y-113656904D01*
X94481009Y-113656904D02*
X94528628Y-113752142D01*
X94528628Y-113752142D02*
X94528628Y-114133094D01*
X94004819Y-112656904D02*
X94004819Y-113133094D01*
X94004819Y-113133094D02*
X94481009Y-113180713D01*
X94481009Y-113180713D02*
X94433390Y-113133094D01*
X94433390Y-113133094D02*
X94385771Y-113037856D01*
X94385771Y-113037856D02*
X94385771Y-112799761D01*
X94385771Y-112799761D02*
X94433390Y-112704523D01*
X94433390Y-112704523D02*
X94481009Y-112656904D01*
X94481009Y-112656904D02*
X94576247Y-112609285D01*
X94576247Y-112609285D02*
X94814342Y-112609285D01*
X94814342Y-112609285D02*
X94909580Y-112656904D01*
X94909580Y-112656904D02*
X94957200Y-112704523D01*
X94957200Y-112704523D02*
X95004819Y-112799761D01*
X95004819Y-112799761D02*
X95004819Y-113037856D01*
X95004819Y-113037856D02*
X94957200Y-113133094D01*
X94957200Y-113133094D02*
X94909580Y-113180713D01*
X42113333Y-95174819D02*
X41637143Y-95174819D01*
X41637143Y-95174819D02*
X41637143Y-94174819D01*
X43018095Y-95079580D02*
X42970476Y-95127200D01*
X42970476Y-95127200D02*
X42827619Y-95174819D01*
X42827619Y-95174819D02*
X42732381Y-95174819D01*
X42732381Y-95174819D02*
X42589524Y-95127200D01*
X42589524Y-95127200D02*
X42494286Y-95031961D01*
X42494286Y-95031961D02*
X42446667Y-94936723D01*
X42446667Y-94936723D02*
X42399048Y-94746247D01*
X42399048Y-94746247D02*
X42399048Y-94603390D01*
X42399048Y-94603390D02*
X42446667Y-94412914D01*
X42446667Y-94412914D02*
X42494286Y-94317676D01*
X42494286Y-94317676D02*
X42589524Y-94222438D01*
X42589524Y-94222438D02*
X42732381Y-94174819D01*
X42732381Y-94174819D02*
X42827619Y-94174819D01*
X42827619Y-94174819D02*
X42970476Y-94222438D01*
X42970476Y-94222438D02*
X43018095Y-94270057D01*
X43446667Y-95174819D02*
X43446667Y-94174819D01*
X43446667Y-94174819D02*
X43684762Y-94174819D01*
X43684762Y-94174819D02*
X43827619Y-94222438D01*
X43827619Y-94222438D02*
X43922857Y-94317676D01*
X43922857Y-94317676D02*
X43970476Y-94412914D01*
X43970476Y-94412914D02*
X44018095Y-94603390D01*
X44018095Y-94603390D02*
X44018095Y-94746247D01*
X44018095Y-94746247D02*
X43970476Y-94936723D01*
X43970476Y-94936723D02*
X43922857Y-95031961D01*
X43922857Y-95031961D02*
X43827619Y-95127200D01*
X43827619Y-95127200D02*
X43684762Y-95174819D01*
X43684762Y-95174819D02*
X43446667Y-95174819D01*
X44970476Y-95174819D02*
X44399048Y-95174819D01*
X44684762Y-95174819D02*
X44684762Y-94174819D01*
X44684762Y-94174819D02*
X44589524Y-94317676D01*
X44589524Y-94317676D02*
X44494286Y-94412914D01*
X44494286Y-94412914D02*
X44399048Y-94460533D01*
X68542319Y-60453333D02*
X69256604Y-60453333D01*
X69256604Y-60453333D02*
X69399461Y-60500952D01*
X69399461Y-60500952D02*
X69494700Y-60596190D01*
X69494700Y-60596190D02*
X69542319Y-60739047D01*
X69542319Y-60739047D02*
X69542319Y-60834285D01*
X68637557Y-60024761D02*
X68589938Y-59977142D01*
X68589938Y-59977142D02*
X68542319Y-59881904D01*
X68542319Y-59881904D02*
X68542319Y-59643809D01*
X68542319Y-59643809D02*
X68589938Y-59548571D01*
X68589938Y-59548571D02*
X68637557Y-59500952D01*
X68637557Y-59500952D02*
X68732795Y-59453333D01*
X68732795Y-59453333D02*
X68828033Y-59453333D01*
X68828033Y-59453333D02*
X68970890Y-59500952D01*
X68970890Y-59500952D02*
X69542319Y-60072380D01*
X69542319Y-60072380D02*
X69542319Y-59453333D01*
X94064819Y-111619047D02*
X94064819Y-112095237D01*
X94064819Y-112095237D02*
X93064819Y-112095237D01*
X93541009Y-111285713D02*
X93541009Y-110952380D01*
X94064819Y-110809523D02*
X94064819Y-111285713D01*
X94064819Y-111285713D02*
X93064819Y-111285713D01*
X93064819Y-111285713D02*
X93064819Y-110809523D01*
X94064819Y-110380951D02*
X93064819Y-110380951D01*
X93064819Y-110380951D02*
X93064819Y-110142856D01*
X93064819Y-110142856D02*
X93112438Y-109999999D01*
X93112438Y-109999999D02*
X93207676Y-109904761D01*
X93207676Y-109904761D02*
X93302914Y-109857142D01*
X93302914Y-109857142D02*
X93493390Y-109809523D01*
X93493390Y-109809523D02*
X93636247Y-109809523D01*
X93636247Y-109809523D02*
X93826723Y-109857142D01*
X93826723Y-109857142D02*
X93921961Y-109904761D01*
X93921961Y-109904761D02*
X94017200Y-109999999D01*
X94017200Y-109999999D02*
X94064819Y-110142856D01*
X94064819Y-110142856D02*
X94064819Y-110380951D01*
X94064819Y-108857142D02*
X94064819Y-109428570D01*
X94064819Y-109142856D02*
X93064819Y-109142856D01*
X93064819Y-109142856D02*
X93207676Y-109238094D01*
X93207676Y-109238094D02*
X93302914Y-109333332D01*
X93302914Y-109333332D02*
X93350533Y-109428570D01*
X65573333Y-74464819D02*
X65240000Y-73988628D01*
X65001905Y-74464819D02*
X65001905Y-73464819D01*
X65001905Y-73464819D02*
X65382857Y-73464819D01*
X65382857Y-73464819D02*
X65478095Y-73512438D01*
X65478095Y-73512438D02*
X65525714Y-73560057D01*
X65525714Y-73560057D02*
X65573333Y-73655295D01*
X65573333Y-73655295D02*
X65573333Y-73798152D01*
X65573333Y-73798152D02*
X65525714Y-73893390D01*
X65525714Y-73893390D02*
X65478095Y-73941009D01*
X65478095Y-73941009D02*
X65382857Y-73988628D01*
X65382857Y-73988628D02*
X65001905Y-73988628D01*
X66430476Y-73798152D02*
X66430476Y-74464819D01*
X66192381Y-73417200D02*
X65954286Y-74131485D01*
X65954286Y-74131485D02*
X66573333Y-74131485D01*
X46474819Y-130326666D02*
X45998628Y-130659999D01*
X46474819Y-130898094D02*
X45474819Y-130898094D01*
X45474819Y-130898094D02*
X45474819Y-130517142D01*
X45474819Y-130517142D02*
X45522438Y-130421904D01*
X45522438Y-130421904D02*
X45570057Y-130374285D01*
X45570057Y-130374285D02*
X45665295Y-130326666D01*
X45665295Y-130326666D02*
X45808152Y-130326666D01*
X45808152Y-130326666D02*
X45903390Y-130374285D01*
X45903390Y-130374285D02*
X45951009Y-130421904D01*
X45951009Y-130421904D02*
X45998628Y-130517142D01*
X45998628Y-130517142D02*
X45998628Y-130898094D01*
X45570057Y-129945713D02*
X45522438Y-129898094D01*
X45522438Y-129898094D02*
X45474819Y-129802856D01*
X45474819Y-129802856D02*
X45474819Y-129564761D01*
X45474819Y-129564761D02*
X45522438Y-129469523D01*
X45522438Y-129469523D02*
X45570057Y-129421904D01*
X45570057Y-129421904D02*
X45665295Y-129374285D01*
X45665295Y-129374285D02*
X45760533Y-129374285D01*
X45760533Y-129374285D02*
X45903390Y-129421904D01*
X45903390Y-129421904D02*
X46474819Y-129993332D01*
X46474819Y-129993332D02*
X46474819Y-129374285D01*
X49999761Y-108299819D02*
X49666428Y-107823628D01*
X49428333Y-108299819D02*
X49428333Y-107299819D01*
X49428333Y-107299819D02*
X49809285Y-107299819D01*
X49809285Y-107299819D02*
X49904523Y-107347438D01*
X49904523Y-107347438D02*
X49952142Y-107395057D01*
X49952142Y-107395057D02*
X49999761Y-107490295D01*
X49999761Y-107490295D02*
X49999761Y-107633152D01*
X49999761Y-107633152D02*
X49952142Y-107728390D01*
X49952142Y-107728390D02*
X49904523Y-107776009D01*
X49904523Y-107776009D02*
X49809285Y-107823628D01*
X49809285Y-107823628D02*
X49428333Y-107823628D01*
X50285476Y-107299819D02*
X50618809Y-108299819D01*
X50618809Y-108299819D02*
X50952142Y-107299819D01*
X51809285Y-108299819D02*
X51237857Y-108299819D01*
X51523571Y-108299819D02*
X51523571Y-107299819D01*
X51523571Y-107299819D02*
X51428333Y-107442676D01*
X51428333Y-107442676D02*
X51333095Y-107537914D01*
X51333095Y-107537914D02*
X51237857Y-107585533D01*
X79449580Y-94476666D02*
X79497200Y-94524285D01*
X79497200Y-94524285D02*
X79544819Y-94667142D01*
X79544819Y-94667142D02*
X79544819Y-94762380D01*
X79544819Y-94762380D02*
X79497200Y-94905237D01*
X79497200Y-94905237D02*
X79401961Y-95000475D01*
X79401961Y-95000475D02*
X79306723Y-95048094D01*
X79306723Y-95048094D02*
X79116247Y-95095713D01*
X79116247Y-95095713D02*
X78973390Y-95095713D01*
X78973390Y-95095713D02*
X78782914Y-95048094D01*
X78782914Y-95048094D02*
X78687676Y-95000475D01*
X78687676Y-95000475D02*
X78592438Y-94905237D01*
X78592438Y-94905237D02*
X78544819Y-94762380D01*
X78544819Y-94762380D02*
X78544819Y-94667142D01*
X78544819Y-94667142D02*
X78592438Y-94524285D01*
X78592438Y-94524285D02*
X78640057Y-94476666D01*
X78973390Y-93905237D02*
X78925771Y-94000475D01*
X78925771Y-94000475D02*
X78878152Y-94048094D01*
X78878152Y-94048094D02*
X78782914Y-94095713D01*
X78782914Y-94095713D02*
X78735295Y-94095713D01*
X78735295Y-94095713D02*
X78640057Y-94048094D01*
X78640057Y-94048094D02*
X78592438Y-94000475D01*
X78592438Y-94000475D02*
X78544819Y-93905237D01*
X78544819Y-93905237D02*
X78544819Y-93714761D01*
X78544819Y-93714761D02*
X78592438Y-93619523D01*
X78592438Y-93619523D02*
X78640057Y-93571904D01*
X78640057Y-93571904D02*
X78735295Y-93524285D01*
X78735295Y-93524285D02*
X78782914Y-93524285D01*
X78782914Y-93524285D02*
X78878152Y-93571904D01*
X78878152Y-93571904D02*
X78925771Y-93619523D01*
X78925771Y-93619523D02*
X78973390Y-93714761D01*
X78973390Y-93714761D02*
X78973390Y-93905237D01*
X78973390Y-93905237D02*
X79021009Y-94000475D01*
X79021009Y-94000475D02*
X79068628Y-94048094D01*
X79068628Y-94048094D02*
X79163866Y-94095713D01*
X79163866Y-94095713D02*
X79354342Y-94095713D01*
X79354342Y-94095713D02*
X79449580Y-94048094D01*
X79449580Y-94048094D02*
X79497200Y-94000475D01*
X79497200Y-94000475D02*
X79544819Y-93905237D01*
X79544819Y-93905237D02*
X79544819Y-93714761D01*
X79544819Y-93714761D02*
X79497200Y-93619523D01*
X79497200Y-93619523D02*
X79449580Y-93571904D01*
X79449580Y-93571904D02*
X79354342Y-93524285D01*
X79354342Y-93524285D02*
X79163866Y-93524285D01*
X79163866Y-93524285D02*
X79068628Y-93571904D01*
X79068628Y-93571904D02*
X79021009Y-93619523D01*
X79021009Y-93619523D02*
X78973390Y-93714761D01*
X72808095Y-79044819D02*
X72808095Y-79854342D01*
X72808095Y-79854342D02*
X72855714Y-79949580D01*
X72855714Y-79949580D02*
X72903333Y-79997200D01*
X72903333Y-79997200D02*
X72998571Y-80044819D01*
X72998571Y-80044819D02*
X73189047Y-80044819D01*
X73189047Y-80044819D02*
X73284285Y-79997200D01*
X73284285Y-79997200D02*
X73331904Y-79949580D01*
X73331904Y-79949580D02*
X73379523Y-79854342D01*
X73379523Y-79854342D02*
X73379523Y-79044819D01*
X74379523Y-80044819D02*
X73808095Y-80044819D01*
X74093809Y-80044819D02*
X74093809Y-79044819D01*
X74093809Y-79044819D02*
X73998571Y-79187676D01*
X73998571Y-79187676D02*
X73903333Y-79282914D01*
X73903333Y-79282914D02*
X73808095Y-79330533D01*
X41224819Y-85528094D02*
X40224819Y-85528094D01*
X40224819Y-85528094D02*
X40224819Y-85289999D01*
X40224819Y-85289999D02*
X40272438Y-85147142D01*
X40272438Y-85147142D02*
X40367676Y-85051904D01*
X40367676Y-85051904D02*
X40462914Y-85004285D01*
X40462914Y-85004285D02*
X40653390Y-84956666D01*
X40653390Y-84956666D02*
X40796247Y-84956666D01*
X40796247Y-84956666D02*
X40986723Y-85004285D01*
X40986723Y-85004285D02*
X41081961Y-85051904D01*
X41081961Y-85051904D02*
X41177200Y-85147142D01*
X41177200Y-85147142D02*
X41224819Y-85289999D01*
X41224819Y-85289999D02*
X41224819Y-85528094D01*
X41224819Y-84004285D02*
X41224819Y-84575713D01*
X41224819Y-84289999D02*
X40224819Y-84289999D01*
X40224819Y-84289999D02*
X40367676Y-84385237D01*
X40367676Y-84385237D02*
X40462914Y-84480475D01*
X40462914Y-84480475D02*
X40510533Y-84575713D01*
X41544819Y-88861904D02*
X40544819Y-88861904D01*
X41544819Y-88290476D02*
X40973390Y-88719047D01*
X40544819Y-88290476D02*
X41116247Y-88861904D01*
X90151905Y-64304819D02*
X90151905Y-63304819D01*
X90151905Y-63304819D02*
X90390000Y-63304819D01*
X90390000Y-63304819D02*
X90532857Y-63352438D01*
X90532857Y-63352438D02*
X90628095Y-63447676D01*
X90628095Y-63447676D02*
X90675714Y-63542914D01*
X90675714Y-63542914D02*
X90723333Y-63733390D01*
X90723333Y-63733390D02*
X90723333Y-63876247D01*
X90723333Y-63876247D02*
X90675714Y-64066723D01*
X90675714Y-64066723D02*
X90628095Y-64161961D01*
X90628095Y-64161961D02*
X90532857Y-64257200D01*
X90532857Y-64257200D02*
X90390000Y-64304819D01*
X90390000Y-64304819D02*
X90151905Y-64304819D01*
X91580476Y-63638152D02*
X91580476Y-64304819D01*
X91342381Y-63257200D02*
X91104286Y-63971485D01*
X91104286Y-63971485D02*
X91723333Y-63971485D01*
X95708095Y-63934819D02*
X95708095Y-62934819D01*
X96279523Y-63934819D02*
X95850952Y-63363390D01*
X96279523Y-62934819D02*
X95708095Y-63506247D01*
X90896666Y-95054819D02*
X90896666Y-95769104D01*
X90896666Y-95769104D02*
X90849047Y-95911961D01*
X90849047Y-95911961D02*
X90753809Y-96007200D01*
X90753809Y-96007200D02*
X90610952Y-96054819D01*
X90610952Y-96054819D02*
X90515714Y-96054819D01*
X91896666Y-96054819D02*
X91325238Y-96054819D01*
X91610952Y-96054819D02*
X91610952Y-95054819D01*
X91610952Y-95054819D02*
X91515714Y-95197676D01*
X91515714Y-95197676D02*
X91420476Y-95292914D01*
X91420476Y-95292914D02*
X91325238Y-95340533D01*
X63229580Y-84596666D02*
X63277200Y-84644285D01*
X63277200Y-84644285D02*
X63324819Y-84787142D01*
X63324819Y-84787142D02*
X63324819Y-84882380D01*
X63324819Y-84882380D02*
X63277200Y-85025237D01*
X63277200Y-85025237D02*
X63181961Y-85120475D01*
X63181961Y-85120475D02*
X63086723Y-85168094D01*
X63086723Y-85168094D02*
X62896247Y-85215713D01*
X62896247Y-85215713D02*
X62753390Y-85215713D01*
X62753390Y-85215713D02*
X62562914Y-85168094D01*
X62562914Y-85168094D02*
X62467676Y-85120475D01*
X62467676Y-85120475D02*
X62372438Y-85025237D01*
X62372438Y-85025237D02*
X62324819Y-84882380D01*
X62324819Y-84882380D02*
X62324819Y-84787142D01*
X62324819Y-84787142D02*
X62372438Y-84644285D01*
X62372438Y-84644285D02*
X62420057Y-84596666D01*
X62324819Y-83691904D02*
X62324819Y-84168094D01*
X62324819Y-84168094D02*
X62801009Y-84215713D01*
X62801009Y-84215713D02*
X62753390Y-84168094D01*
X62753390Y-84168094D02*
X62705771Y-84072856D01*
X62705771Y-84072856D02*
X62705771Y-83834761D01*
X62705771Y-83834761D02*
X62753390Y-83739523D01*
X62753390Y-83739523D02*
X62801009Y-83691904D01*
X62801009Y-83691904D02*
X62896247Y-83644285D01*
X62896247Y-83644285D02*
X63134342Y-83644285D01*
X63134342Y-83644285D02*
X63229580Y-83691904D01*
X63229580Y-83691904D02*
X63277200Y-83739523D01*
X63277200Y-83739523D02*
X63324819Y-83834761D01*
X63324819Y-83834761D02*
X63324819Y-84072856D01*
X63324819Y-84072856D02*
X63277200Y-84168094D01*
X63277200Y-84168094D02*
X63229580Y-84215713D01*
X59416666Y-59044819D02*
X59416666Y-59759104D01*
X59416666Y-59759104D02*
X59369047Y-59901961D01*
X59369047Y-59901961D02*
X59273809Y-59997200D01*
X59273809Y-59997200D02*
X59130952Y-60044819D01*
X59130952Y-60044819D02*
X59035714Y-60044819D01*
X60321428Y-59378152D02*
X60321428Y-60044819D01*
X60083333Y-58997200D02*
X59845238Y-59711485D01*
X59845238Y-59711485D02*
X60464285Y-59711485D01*
X89806667Y-79337200D02*
X89949524Y-79384819D01*
X89949524Y-79384819D02*
X90187619Y-79384819D01*
X90187619Y-79384819D02*
X90282857Y-79337200D01*
X90282857Y-79337200D02*
X90330476Y-79289580D01*
X90330476Y-79289580D02*
X90378095Y-79194342D01*
X90378095Y-79194342D02*
X90378095Y-79099104D01*
X90378095Y-79099104D02*
X90330476Y-79003866D01*
X90330476Y-79003866D02*
X90282857Y-78956247D01*
X90282857Y-78956247D02*
X90187619Y-78908628D01*
X90187619Y-78908628D02*
X89997143Y-78861009D01*
X89997143Y-78861009D02*
X89901905Y-78813390D01*
X89901905Y-78813390D02*
X89854286Y-78765771D01*
X89854286Y-78765771D02*
X89806667Y-78670533D01*
X89806667Y-78670533D02*
X89806667Y-78575295D01*
X89806667Y-78575295D02*
X89854286Y-78480057D01*
X89854286Y-78480057D02*
X89901905Y-78432438D01*
X89901905Y-78432438D02*
X89997143Y-78384819D01*
X89997143Y-78384819D02*
X90235238Y-78384819D01*
X90235238Y-78384819D02*
X90378095Y-78432438D01*
X90711429Y-78384819D02*
X90949524Y-79384819D01*
X90949524Y-79384819D02*
X91140000Y-78670533D01*
X91140000Y-78670533D02*
X91330476Y-79384819D01*
X91330476Y-79384819D02*
X91568572Y-78384819D01*
X92473333Y-79384819D02*
X91901905Y-79384819D01*
X92187619Y-79384819D02*
X92187619Y-78384819D01*
X92187619Y-78384819D02*
X92092381Y-78527676D01*
X92092381Y-78527676D02*
X91997143Y-78622914D01*
X91997143Y-78622914D02*
X91901905Y-78670533D01*
X56914819Y-85448094D02*
X55914819Y-85448094D01*
X55914819Y-85448094D02*
X55914819Y-85209999D01*
X55914819Y-85209999D02*
X55962438Y-85067142D01*
X55962438Y-85067142D02*
X56057676Y-84971904D01*
X56057676Y-84971904D02*
X56152914Y-84924285D01*
X56152914Y-84924285D02*
X56343390Y-84876666D01*
X56343390Y-84876666D02*
X56486247Y-84876666D01*
X56486247Y-84876666D02*
X56676723Y-84924285D01*
X56676723Y-84924285D02*
X56771961Y-84971904D01*
X56771961Y-84971904D02*
X56867200Y-85067142D01*
X56867200Y-85067142D02*
X56914819Y-85209999D01*
X56914819Y-85209999D02*
X56914819Y-85448094D01*
X56010057Y-84495713D02*
X55962438Y-84448094D01*
X55962438Y-84448094D02*
X55914819Y-84352856D01*
X55914819Y-84352856D02*
X55914819Y-84114761D01*
X55914819Y-84114761D02*
X55962438Y-84019523D01*
X55962438Y-84019523D02*
X56010057Y-83971904D01*
X56010057Y-83971904D02*
X56105295Y-83924285D01*
X56105295Y-83924285D02*
X56200533Y-83924285D01*
X56200533Y-83924285D02*
X56343390Y-83971904D01*
X56343390Y-83971904D02*
X56914819Y-84543332D01*
X56914819Y-84543332D02*
X56914819Y-83924285D01*
X56594819Y-81161904D02*
X55594819Y-81161904D01*
X56594819Y-80590476D02*
X56023390Y-81019047D01*
X55594819Y-80590476D02*
X56166247Y-81161904D01*
X42466666Y-74371009D02*
X42133333Y-74371009D01*
X42133333Y-74894819D02*
X42133333Y-73894819D01*
X42133333Y-73894819D02*
X42609523Y-73894819D01*
X43514285Y-74894819D02*
X42942857Y-74894819D01*
X43228571Y-74894819D02*
X43228571Y-73894819D01*
X43228571Y-73894819D02*
X43133333Y-74037676D01*
X43133333Y-74037676D02*
X43038095Y-74132914D01*
X43038095Y-74132914D02*
X42942857Y-74180533D01*
X61083333Y-99819580D02*
X61035714Y-99867200D01*
X61035714Y-99867200D02*
X60892857Y-99914819D01*
X60892857Y-99914819D02*
X60797619Y-99914819D01*
X60797619Y-99914819D02*
X60654762Y-99867200D01*
X60654762Y-99867200D02*
X60559524Y-99771961D01*
X60559524Y-99771961D02*
X60511905Y-99676723D01*
X60511905Y-99676723D02*
X60464286Y-99486247D01*
X60464286Y-99486247D02*
X60464286Y-99343390D01*
X60464286Y-99343390D02*
X60511905Y-99152914D01*
X60511905Y-99152914D02*
X60559524Y-99057676D01*
X60559524Y-99057676D02*
X60654762Y-98962438D01*
X60654762Y-98962438D02*
X60797619Y-98914819D01*
X60797619Y-98914819D02*
X60892857Y-98914819D01*
X60892857Y-98914819D02*
X61035714Y-98962438D01*
X61035714Y-98962438D02*
X61083333Y-99010057D01*
X62035714Y-99914819D02*
X61464286Y-99914819D01*
X61750000Y-99914819D02*
X61750000Y-98914819D01*
X61750000Y-98914819D02*
X61654762Y-99057676D01*
X61654762Y-99057676D02*
X61559524Y-99152914D01*
X61559524Y-99152914D02*
X61464286Y-99200533D01*
X52203333Y-74554819D02*
X51870000Y-74078628D01*
X51631905Y-74554819D02*
X51631905Y-73554819D01*
X51631905Y-73554819D02*
X52012857Y-73554819D01*
X52012857Y-73554819D02*
X52108095Y-73602438D01*
X52108095Y-73602438D02*
X52155714Y-73650057D01*
X52155714Y-73650057D02*
X52203333Y-73745295D01*
X52203333Y-73745295D02*
X52203333Y-73888152D01*
X52203333Y-73888152D02*
X52155714Y-73983390D01*
X52155714Y-73983390D02*
X52108095Y-74031009D01*
X52108095Y-74031009D02*
X52012857Y-74078628D01*
X52012857Y-74078628D02*
X51631905Y-74078628D01*
X52536667Y-73554819D02*
X53155714Y-73554819D01*
X53155714Y-73554819D02*
X52822381Y-73935771D01*
X52822381Y-73935771D02*
X52965238Y-73935771D01*
X52965238Y-73935771D02*
X53060476Y-73983390D01*
X53060476Y-73983390D02*
X53108095Y-74031009D01*
X53108095Y-74031009D02*
X53155714Y-74126247D01*
X53155714Y-74126247D02*
X53155714Y-74364342D01*
X53155714Y-74364342D02*
X53108095Y-74459580D01*
X53108095Y-74459580D02*
X53060476Y-74507200D01*
X53060476Y-74507200D02*
X52965238Y-74554819D01*
X52965238Y-74554819D02*
X52679524Y-74554819D01*
X52679524Y-74554819D02*
X52584286Y-74507200D01*
X52584286Y-74507200D02*
X52536667Y-74459580D01*
X61133333Y-117709580D02*
X61085714Y-117757200D01*
X61085714Y-117757200D02*
X60942857Y-117804819D01*
X60942857Y-117804819D02*
X60847619Y-117804819D01*
X60847619Y-117804819D02*
X60704762Y-117757200D01*
X60704762Y-117757200D02*
X60609524Y-117661961D01*
X60609524Y-117661961D02*
X60561905Y-117566723D01*
X60561905Y-117566723D02*
X60514286Y-117376247D01*
X60514286Y-117376247D02*
X60514286Y-117233390D01*
X60514286Y-117233390D02*
X60561905Y-117042914D01*
X60561905Y-117042914D02*
X60609524Y-116947676D01*
X60609524Y-116947676D02*
X60704762Y-116852438D01*
X60704762Y-116852438D02*
X60847619Y-116804819D01*
X60847619Y-116804819D02*
X60942857Y-116804819D01*
X60942857Y-116804819D02*
X61085714Y-116852438D01*
X61085714Y-116852438D02*
X61133333Y-116900057D01*
X61514286Y-116900057D02*
X61561905Y-116852438D01*
X61561905Y-116852438D02*
X61657143Y-116804819D01*
X61657143Y-116804819D02*
X61895238Y-116804819D01*
X61895238Y-116804819D02*
X61990476Y-116852438D01*
X61990476Y-116852438D02*
X62038095Y-116900057D01*
X62038095Y-116900057D02*
X62085714Y-116995295D01*
X62085714Y-116995295D02*
X62085714Y-117090533D01*
X62085714Y-117090533D02*
X62038095Y-117233390D01*
X62038095Y-117233390D02*
X61466667Y-117804819D01*
X61466667Y-117804819D02*
X62085714Y-117804819D01*
X60788628Y-106726190D02*
X61264819Y-106726190D01*
X60264819Y-107059523D02*
X60788628Y-106726190D01*
X60788628Y-106726190D02*
X60264819Y-106392857D01*
X61264819Y-105535714D02*
X61264819Y-106107142D01*
X61264819Y-105821428D02*
X60264819Y-105821428D01*
X60264819Y-105821428D02*
X60407676Y-105916666D01*
X60407676Y-105916666D02*
X60502914Y-106011904D01*
X60502914Y-106011904D02*
X60550533Y-106107142D01*
X87233333Y-78559580D02*
X87185714Y-78607200D01*
X87185714Y-78607200D02*
X87042857Y-78654819D01*
X87042857Y-78654819D02*
X86947619Y-78654819D01*
X86947619Y-78654819D02*
X86804762Y-78607200D01*
X86804762Y-78607200D02*
X86709524Y-78511961D01*
X86709524Y-78511961D02*
X86661905Y-78416723D01*
X86661905Y-78416723D02*
X86614286Y-78226247D01*
X86614286Y-78226247D02*
X86614286Y-78083390D01*
X86614286Y-78083390D02*
X86661905Y-77892914D01*
X86661905Y-77892914D02*
X86709524Y-77797676D01*
X86709524Y-77797676D02*
X86804762Y-77702438D01*
X86804762Y-77702438D02*
X86947619Y-77654819D01*
X86947619Y-77654819D02*
X87042857Y-77654819D01*
X87042857Y-77654819D02*
X87185714Y-77702438D01*
X87185714Y-77702438D02*
X87233333Y-77750057D01*
X87566667Y-77654819D02*
X88233333Y-77654819D01*
X88233333Y-77654819D02*
X87804762Y-78654819D01*
X90959580Y-69386666D02*
X91007200Y-69434285D01*
X91007200Y-69434285D02*
X91054819Y-69577142D01*
X91054819Y-69577142D02*
X91054819Y-69672380D01*
X91054819Y-69672380D02*
X91007200Y-69815237D01*
X91007200Y-69815237D02*
X90911961Y-69910475D01*
X90911961Y-69910475D02*
X90816723Y-69958094D01*
X90816723Y-69958094D02*
X90626247Y-70005713D01*
X90626247Y-70005713D02*
X90483390Y-70005713D01*
X90483390Y-70005713D02*
X90292914Y-69958094D01*
X90292914Y-69958094D02*
X90197676Y-69910475D01*
X90197676Y-69910475D02*
X90102438Y-69815237D01*
X90102438Y-69815237D02*
X90054819Y-69672380D01*
X90054819Y-69672380D02*
X90054819Y-69577142D01*
X90054819Y-69577142D02*
X90102438Y-69434285D01*
X90102438Y-69434285D02*
X90150057Y-69386666D01*
X90054819Y-68529523D02*
X90054819Y-68719999D01*
X90054819Y-68719999D02*
X90102438Y-68815237D01*
X90102438Y-68815237D02*
X90150057Y-68862856D01*
X90150057Y-68862856D02*
X90292914Y-68958094D01*
X90292914Y-68958094D02*
X90483390Y-69005713D01*
X90483390Y-69005713D02*
X90864342Y-69005713D01*
X90864342Y-69005713D02*
X90959580Y-68958094D01*
X90959580Y-68958094D02*
X91007200Y-68910475D01*
X91007200Y-68910475D02*
X91054819Y-68815237D01*
X91054819Y-68815237D02*
X91054819Y-68624761D01*
X91054819Y-68624761D02*
X91007200Y-68529523D01*
X91007200Y-68529523D02*
X90959580Y-68481904D01*
X90959580Y-68481904D02*
X90864342Y-68434285D01*
X90864342Y-68434285D02*
X90626247Y-68434285D01*
X90626247Y-68434285D02*
X90531009Y-68481904D01*
X90531009Y-68481904D02*
X90483390Y-68529523D01*
X90483390Y-68529523D02*
X90435771Y-68624761D01*
X90435771Y-68624761D02*
X90435771Y-68815237D01*
X90435771Y-68815237D02*
X90483390Y-68910475D01*
X90483390Y-68910475D02*
X90531009Y-68958094D01*
X90531009Y-68958094D02*
X90626247Y-69005713D01*
X51134819Y-85408094D02*
X50134819Y-85408094D01*
X50134819Y-85408094D02*
X50134819Y-85169999D01*
X50134819Y-85169999D02*
X50182438Y-85027142D01*
X50182438Y-85027142D02*
X50277676Y-84931904D01*
X50277676Y-84931904D02*
X50372914Y-84884285D01*
X50372914Y-84884285D02*
X50563390Y-84836666D01*
X50563390Y-84836666D02*
X50706247Y-84836666D01*
X50706247Y-84836666D02*
X50896723Y-84884285D01*
X50896723Y-84884285D02*
X50991961Y-84931904D01*
X50991961Y-84931904D02*
X51087200Y-85027142D01*
X51087200Y-85027142D02*
X51134819Y-85169999D01*
X51134819Y-85169999D02*
X51134819Y-85408094D01*
X50134819Y-84503332D02*
X50134819Y-83884285D01*
X50134819Y-83884285D02*
X50515771Y-84217618D01*
X50515771Y-84217618D02*
X50515771Y-84074761D01*
X50515771Y-84074761D02*
X50563390Y-83979523D01*
X50563390Y-83979523D02*
X50611009Y-83931904D01*
X50611009Y-83931904D02*
X50706247Y-83884285D01*
X50706247Y-83884285D02*
X50944342Y-83884285D01*
X50944342Y-83884285D02*
X51039580Y-83931904D01*
X51039580Y-83931904D02*
X51087200Y-83979523D01*
X51087200Y-83979523D02*
X51134819Y-84074761D01*
X51134819Y-84074761D02*
X51134819Y-84360475D01*
X51134819Y-84360475D02*
X51087200Y-84455713D01*
X51087200Y-84455713D02*
X51039580Y-84503332D01*
X50814819Y-81121904D02*
X49814819Y-81121904D01*
X50814819Y-80550476D02*
X50243390Y-80979047D01*
X49814819Y-80550476D02*
X50386247Y-81121904D01*
%TO.C,J3*%
D11*
X52330000Y-66010000D02*
G75*
G02*
X41330000Y-66010000I-5500000J0D01*
G01*
X41330000Y-66010000D02*
G75*
G02*
X52330000Y-66010000I5500000J0D01*
G01*
%TO.C,U2*%
X92890000Y-65420000D02*
X97510000Y-65420000D01*
X92890000Y-75640000D02*
X92890000Y-65420000D01*
X96130000Y-65420000D02*
X96130000Y-75640000D01*
X97510000Y-65420000D02*
X97510000Y-75640000D01*
X97510000Y-68680000D02*
X96130000Y-68680000D01*
X97510000Y-72380000D02*
X96130000Y-72380000D01*
X97510000Y-75640000D02*
X92890000Y-75640000D01*
%TO.C,C3*%
X80200000Y-99980000D02*
X80537000Y-99980000D01*
X80200000Y-105220000D02*
X80200000Y-99980000D01*
X80537000Y-105220000D02*
X80200000Y-105220000D01*
X82603000Y-99980000D02*
X82940000Y-99980000D01*
X82940000Y-99980000D02*
X82940000Y-105220000D01*
X82940000Y-105220000D02*
X82603000Y-105220000D01*
%TO.C,R1*%
X65300000Y-83020000D02*
X65300000Y-83790000D01*
X65300000Y-91100000D02*
X65300000Y-90330000D01*
X63930000Y-83790000D02*
X66670000Y-83790000D01*
X66670000Y-90330000D01*
X63930000Y-90330000D01*
X63930000Y-83790000D01*
%TO.C,R5*%
X96920000Y-109355000D02*
X96920000Y-110125000D01*
X96920000Y-117435000D02*
X96920000Y-116665000D01*
X95550000Y-110125000D02*
X98290000Y-110125000D01*
X98290000Y-116665000D01*
X95550000Y-116665000D01*
X95550000Y-110125000D01*
%TO.C,LCD1*%
X41900000Y-95720000D02*
X43280000Y-95720000D01*
X41900000Y-97100000D02*
X41900000Y-95720000D01*
X41900000Y-98370000D02*
X41900000Y-136580000D01*
X41900000Y-98370000D02*
X44660000Y-98370000D01*
X41900000Y-136580000D02*
X44660000Y-136580000D01*
X44660000Y-98370000D02*
X44660000Y-136580000D01*
%TO.C,J2*%
X70237500Y-54770000D02*
X79437500Y-54770000D01*
X70237500Y-63570000D02*
X70237500Y-54770000D01*
X70237500Y-69470000D02*
X70237500Y-67570000D01*
X72937500Y-69470000D02*
X70237500Y-69470000D01*
X78587500Y-69670000D02*
X79637500Y-69670000D01*
X79437500Y-54770000D02*
X79437500Y-69470000D01*
X79437500Y-69470000D02*
X76837500Y-69470000D01*
X79637500Y-68620000D02*
X79637500Y-69670000D01*
%TO.C,LED1*%
X91195000Y-107940000D02*
X88105000Y-107940000D01*
X89650000Y-113490000D02*
G75*
G02*
X88105170Y-107940000I0J2990000D01*
G01*
X91194830Y-107940000D02*
G75*
G02*
X89650000Y-113490000I-1544830J-2560000D01*
G01*
X92150000Y-110500000D02*
G75*
G02*
X87150000Y-110500000I-2500000J0D01*
G01*
X87150000Y-110500000D02*
G75*
G02*
X92150000Y-110500000I2500000J0D01*
G01*
%TO.C,R4*%
X61700000Y-76380000D02*
X62470000Y-76380000D01*
X69780000Y-76380000D02*
X69010000Y-76380000D01*
X62470000Y-75010000D02*
X69010000Y-75010000D01*
X69010000Y-77750000D01*
X62470000Y-77750000D01*
X62470000Y-75010000D01*
%TO.C,R2*%
X48390000Y-126120000D02*
X48390000Y-126890000D01*
X48390000Y-134200000D02*
X48390000Y-133430000D01*
X47020000Y-126890000D02*
X49760000Y-126890000D01*
X49760000Y-133430000D01*
X47020000Y-133430000D01*
X47020000Y-126890000D01*
%TO.C,RV1*%
X45720000Y-96955000D02*
X55470000Y-96955000D01*
X45720000Y-106705000D02*
X45720000Y-96955000D01*
X55470000Y-96955000D02*
X55470000Y-106705000D01*
X55470000Y-106705000D02*
X45720000Y-106705000D01*
%TO.C,C8*%
X80220000Y-91690000D02*
X80557000Y-91690000D01*
X80220000Y-96930000D02*
X80220000Y-91690000D01*
X80557000Y-96930000D02*
X80220000Y-96930000D01*
X82623000Y-91690000D02*
X82960000Y-91690000D01*
X82960000Y-91690000D02*
X82960000Y-96930000D01*
X82960000Y-96930000D02*
X82623000Y-96930000D01*
%TO.C,U1*%
X70920000Y-80590000D02*
X70920000Y-116270000D01*
X70920000Y-116270000D02*
X76220000Y-116270000D01*
X72570000Y-80590000D02*
X70920000Y-80590000D01*
X76220000Y-80590000D02*
X74570000Y-80590000D01*
X76220000Y-116270000D02*
X76220000Y-80590000D01*
X74570000Y-80590000D02*
G75*
G02*
X72570000Y-80590000I-1000000J0D01*
G01*
%TO.C,D1*%
X41770000Y-86070000D02*
X44010000Y-86070000D01*
X41770000Y-86190000D02*
X44010000Y-86190000D01*
X41770000Y-86310000D02*
X44010000Y-86310000D01*
X42890000Y-82020000D02*
X42890000Y-82670000D01*
X42890000Y-87560000D02*
X42890000Y-86910000D01*
X41770000Y-82670000D02*
X44010000Y-82670000D01*
X44010000Y-86910000D01*
X41770000Y-86910000D01*
X41770000Y-82670000D01*
%TO.C,D4*%
X87150000Y-61380000D02*
X88170000Y-61380000D01*
X92590000Y-62850000D02*
X92590000Y-59910000D01*
X92710000Y-62850000D02*
X92710000Y-59910000D01*
X92830000Y-62850000D02*
X92830000Y-59910000D01*
X94630000Y-61380000D02*
X93610000Y-61380000D01*
X88170000Y-59910000D02*
X93610000Y-59910000D01*
X93610000Y-62850000D01*
X88170000Y-62850000D01*
X88170000Y-59910000D01*
%TO.C,J1*%
X88580000Y-96600000D02*
X89960000Y-96600000D01*
X88580000Y-97980000D02*
X88580000Y-96600000D01*
X88580000Y-99250000D02*
X88580000Y-104440000D01*
X88580000Y-99250000D02*
X91230000Y-99250000D01*
X88580000Y-104440000D02*
X93880000Y-104440000D01*
X91230000Y-96600000D02*
X93880000Y-96600000D01*
X91230000Y-99250000D02*
X91230000Y-96600000D01*
X93880000Y-96600000D02*
X93880000Y-104440000D01*
%TO.C,C5*%
X59000000Y-81810000D02*
X59337000Y-81810000D01*
X59000000Y-87050000D02*
X59000000Y-81810000D01*
X59337000Y-87050000D02*
X59000000Y-87050000D01*
X61403000Y-81810000D02*
X61740000Y-81810000D01*
X61740000Y-81810000D02*
X61740000Y-87050000D01*
X61740000Y-87050000D02*
X61403000Y-87050000D01*
%TO.C,J4*%
X65270000Y-65880000D02*
G75*
G02*
X54270000Y-65880000I-5500000J0D01*
G01*
X54270000Y-65880000D02*
G75*
G02*
X65270000Y-65880000I5500000J0D01*
G01*
%TO.C,SW1*%
X85030000Y-81120000D02*
X85030000Y-83630000D01*
X85030000Y-81120000D02*
X97250000Y-81120000D01*
X85030000Y-85930000D02*
X85030000Y-88530000D01*
X85030000Y-90830000D02*
X85030000Y-93340000D01*
X97250000Y-81120000D02*
X97250000Y-83630000D01*
X97250000Y-85930000D02*
X97250000Y-88530000D01*
X97250000Y-90830000D02*
X97250000Y-93340000D01*
X97250000Y-93340000D02*
X85030000Y-93340000D01*
%TO.C,D2*%
X54340000Y-81940000D02*
X54340000Y-82590000D01*
X54340000Y-87480000D02*
X54340000Y-86830000D01*
X55460000Y-83190000D02*
X53220000Y-83190000D01*
X55460000Y-83310000D02*
X53220000Y-83310000D01*
X55460000Y-83430000D02*
X53220000Y-83430000D01*
X53220000Y-82590000D02*
X55460000Y-82590000D01*
X55460000Y-86830000D01*
X53220000Y-86830000D01*
X53220000Y-82590000D01*
%TO.C,F1*%
X42197936Y-75360000D02*
X43402064Y-75360000D01*
X42197936Y-77180000D02*
X43402064Y-77180000D01*
%TO.C,C1*%
X58630000Y-95590000D02*
X63870000Y-95590000D01*
X58630000Y-95927000D02*
X58630000Y-95590000D01*
X58630000Y-98330000D02*
X58630000Y-97993000D01*
X63870000Y-95590000D02*
X63870000Y-95927000D01*
X63870000Y-97993000D02*
X63870000Y-98330000D01*
X63870000Y-98330000D02*
X58630000Y-98330000D01*
%TO.C,R3*%
X48330000Y-76470000D02*
X49100000Y-76470000D01*
X56410000Y-76470000D02*
X55640000Y-76470000D01*
X49100000Y-75100000D02*
X55640000Y-75100000D01*
X55640000Y-77840000D01*
X49100000Y-77840000D01*
X49100000Y-75100000D01*
%TO.C,C2*%
X58680000Y-113480000D02*
X63920000Y-113480000D01*
X58680000Y-113817000D02*
X58680000Y-113480000D01*
X58680000Y-116220000D02*
X58680000Y-115883000D01*
X63920000Y-113480000D02*
X63920000Y-113817000D01*
X63920000Y-115883000D02*
X63920000Y-116220000D01*
X63920000Y-116220000D02*
X58680000Y-116220000D01*
%TO.C,Y1*%
X62095000Y-109080000D02*
X62095000Y-102680000D01*
X66965000Y-102680000D02*
X66965000Y-109080000D01*
X62095000Y-102680000D02*
G75*
G02*
X66965000Y-102680000I2435000J0D01*
G01*
X66965000Y-109080000D02*
G75*
G02*
X62095000Y-109080000I-2435000J0D01*
G01*
%TO.C,C7*%
X84780000Y-74330000D02*
X90020000Y-74330000D01*
X84780000Y-74667000D02*
X84780000Y-74330000D01*
X84780000Y-77070000D02*
X84780000Y-76733000D01*
X90020000Y-74330000D02*
X90020000Y-74667000D01*
X90020000Y-76733000D02*
X90020000Y-77070000D01*
X90020000Y-77070000D02*
X84780000Y-77070000D01*
%TO.C,C6*%
X85810000Y-69220000D02*
X84270000Y-69220000D01*
X85810000Y-69260000D02*
X84270000Y-69260000D01*
X85810000Y-69300000D02*
X84271000Y-69300000D01*
X85810000Y-69340000D02*
X84273000Y-69340000D01*
X85810000Y-69380000D02*
X84275000Y-69380000D01*
X85810000Y-69420000D02*
X84278000Y-69420000D01*
X85810000Y-69460000D02*
X84281000Y-69460000D01*
X85810000Y-69500000D02*
X84285000Y-69500000D01*
X85810000Y-69540000D02*
X84290000Y-69540000D01*
X85810000Y-69580000D02*
X84295000Y-69580000D01*
X85810000Y-69620000D02*
X84301000Y-69620000D01*
X85810000Y-69660000D02*
X84307000Y-69660000D01*
X85810000Y-69700000D02*
X84314000Y-69700000D01*
X85810000Y-69740000D02*
X84322000Y-69740000D01*
X85810000Y-69780000D02*
X84331000Y-69780000D01*
X85810000Y-69820000D02*
X84340000Y-69820000D01*
X85810000Y-69860000D02*
X84349000Y-69860000D01*
X85810000Y-69900000D02*
X84360000Y-69900000D01*
X85810000Y-69940000D02*
X84371000Y-69940000D01*
X85810000Y-69980000D02*
X84383000Y-69980000D01*
X85810000Y-70020000D02*
X84395000Y-70020000D01*
X85810000Y-70060000D02*
X84408000Y-70060000D01*
X85810000Y-70100000D02*
X84422000Y-70100000D01*
X85810000Y-70140000D02*
X84437000Y-70140000D01*
X85810000Y-70180000D02*
X84452000Y-70180000D01*
X85810000Y-70220000D02*
X84468000Y-70220000D01*
X85810000Y-70260000D02*
X84485000Y-70260000D01*
X85810000Y-70300000D02*
X84503000Y-70300000D01*
X85810000Y-70340000D02*
X84521000Y-70340000D01*
X85810000Y-70380000D02*
X84541000Y-70380000D01*
X85810000Y-70420000D02*
X84561000Y-70420000D01*
X85810000Y-70460000D02*
X84582000Y-70460000D01*
X85810000Y-70500000D02*
X84604000Y-70500000D01*
X85810000Y-70540000D02*
X84627000Y-70540000D01*
X85810000Y-70580000D02*
X84651000Y-70580000D01*
X85810000Y-70620000D02*
X84675000Y-70620000D01*
X85810000Y-70660000D02*
X84701000Y-70660000D01*
X85810000Y-70700000D02*
X84728000Y-70700000D01*
X85810000Y-70740000D02*
X84756000Y-70740000D01*
X85810000Y-70780000D02*
X84785000Y-70780000D01*
X85810000Y-70820000D02*
X84815000Y-70820000D01*
X85810000Y-70860000D02*
X84847000Y-70860000D01*
X85810000Y-70900000D02*
X84880000Y-70900000D01*
X85810000Y-70940000D02*
X84914000Y-70940000D01*
X85810000Y-70980000D02*
X84949000Y-70980000D01*
X85810000Y-71020000D02*
X84986000Y-71020000D01*
X85810000Y-71060000D02*
X85025000Y-71060000D01*
X85810000Y-71100000D02*
X85065000Y-71100000D01*
X85810000Y-71140000D02*
X85107000Y-71140000D01*
X85810000Y-71180000D02*
X85151000Y-71180000D01*
X85810000Y-71220000D02*
X85198000Y-71220000D01*
X87133000Y-71820000D02*
X86567000Y-71820000D01*
X87367000Y-71780000D02*
X86333000Y-71780000D01*
X87527000Y-71740000D02*
X86173000Y-71740000D01*
X87655000Y-71700000D02*
X86045000Y-71700000D01*
X87764000Y-71660000D02*
X85936000Y-71660000D01*
X87861000Y-71620000D02*
X85839000Y-71620000D01*
X87948000Y-71580000D02*
X85752000Y-71580000D01*
X88027000Y-71540000D02*
X85673000Y-71540000D01*
X88101000Y-71500000D02*
X85599000Y-71500000D01*
X88169000Y-71460000D02*
X85531000Y-71460000D01*
X88233000Y-71420000D02*
X85467000Y-71420000D01*
X88293000Y-71380000D02*
X85407000Y-71380000D01*
X88325000Y-66415225D02*
X88325000Y-66915225D01*
X88349000Y-71340000D02*
X85351000Y-71340000D01*
X88403000Y-71300000D02*
X85297000Y-71300000D01*
X88454000Y-71260000D02*
X85246000Y-71260000D01*
X88502000Y-71220000D02*
X87890000Y-71220000D01*
X88549000Y-71180000D02*
X87890000Y-71180000D01*
X88575000Y-66665225D02*
X88075000Y-66665225D01*
X88593000Y-71140000D02*
X87890000Y-71140000D01*
X88635000Y-71100000D02*
X87890000Y-71100000D01*
X88675000Y-71060000D02*
X87890000Y-71060000D01*
X88714000Y-71020000D02*
X87890000Y-71020000D01*
X88751000Y-70980000D02*
X87890000Y-70980000D01*
X88786000Y-70940000D02*
X87890000Y-70940000D01*
X88820000Y-70900000D02*
X87890000Y-70900000D01*
X88853000Y-70860000D02*
X87890000Y-70860000D01*
X88885000Y-70820000D02*
X87890000Y-70820000D01*
X88915000Y-70780000D02*
X87890000Y-70780000D01*
X88944000Y-70740000D02*
X87890000Y-70740000D01*
X88972000Y-70700000D02*
X87890000Y-70700000D01*
X88999000Y-70660000D02*
X87890000Y-70660000D01*
X89025000Y-70620000D02*
X87890000Y-70620000D01*
X89049000Y-70580000D02*
X87890000Y-70580000D01*
X89073000Y-70540000D02*
X87890000Y-70540000D01*
X89096000Y-70500000D02*
X87890000Y-70500000D01*
X89118000Y-70460000D02*
X87890000Y-70460000D01*
X89139000Y-70420000D02*
X87890000Y-70420000D01*
X89159000Y-70380000D02*
X87890000Y-70380000D01*
X89179000Y-70340000D02*
X87890000Y-70340000D01*
X89197000Y-70300000D02*
X87890000Y-70300000D01*
X89215000Y-70260000D02*
X87890000Y-70260000D01*
X89232000Y-70220000D02*
X87890000Y-70220000D01*
X89248000Y-70180000D02*
X87890000Y-70180000D01*
X89263000Y-70140000D02*
X87890000Y-70140000D01*
X89278000Y-70100000D02*
X87890000Y-70100000D01*
X89292000Y-70060000D02*
X87890000Y-70060000D01*
X89305000Y-70020000D02*
X87890000Y-70020000D01*
X89317000Y-69980000D02*
X87890000Y-69980000D01*
X89329000Y-69940000D02*
X87890000Y-69940000D01*
X89340000Y-69900000D02*
X87890000Y-69900000D01*
X89351000Y-69860000D02*
X87890000Y-69860000D01*
X89360000Y-69820000D02*
X87890000Y-69820000D01*
X89369000Y-69780000D02*
X87890000Y-69780000D01*
X89378000Y-69740000D02*
X87890000Y-69740000D01*
X89386000Y-69700000D02*
X87890000Y-69700000D01*
X89393000Y-69660000D02*
X87890000Y-69660000D01*
X89399000Y-69620000D02*
X87890000Y-69620000D01*
X89405000Y-69580000D02*
X87890000Y-69580000D01*
X89410000Y-69540000D02*
X87890000Y-69540000D01*
X89415000Y-69500000D02*
X87890000Y-69500000D01*
X89419000Y-69460000D02*
X87890000Y-69460000D01*
X89422000Y-69420000D02*
X87890000Y-69420000D01*
X89425000Y-69380000D02*
X87890000Y-69380000D01*
X89427000Y-69340000D02*
X87890000Y-69340000D01*
X89429000Y-69300000D02*
X87890000Y-69300000D01*
X89430000Y-69220000D02*
X87890000Y-69220000D01*
X89430000Y-69260000D02*
X87890000Y-69260000D01*
X89470000Y-69220000D02*
G75*
G02*
X84230000Y-69220000I-2620000J0D01*
G01*
X84230000Y-69220000D02*
G75*
G02*
X89470000Y-69220000I2620000J0D01*
G01*
%TO.C,D3*%
X48560000Y-81900000D02*
X48560000Y-82550000D01*
X48560000Y-87440000D02*
X48560000Y-86790000D01*
X49680000Y-83150000D02*
X47440000Y-83150000D01*
X49680000Y-83270000D02*
X47440000Y-83270000D01*
X49680000Y-83390000D02*
X47440000Y-83390000D01*
X47440000Y-82550000D02*
X49680000Y-82550000D01*
X49680000Y-86790000D01*
X47440000Y-86790000D01*
X47440000Y-82550000D01*
%TD*%
M02*
