M48
; DRILL file KiCad 10.0.0 date 2026-08-29T20:16:57
; FORMAT={-:-/ absolute / metric / decimal}
; #@! TF.CreationDate,2026-08-29T20:16:57+01:00
; #@! TF.GenerationSoftware,Kicad,Pcbnew,10.0.0
; #@! TF.FileFunction,Plated,1,2,PTH
FMAT,2
METRIC
; #@! TA.AperFunction,Plated,PTH,ComponentDrill
T1C0.800
; #@! TA.AperFunction,Plated,PTH,ComponentDrill
T2C0.900
; #@! TA.AperFunction,Plated,PTH,ComponentDrill
T3C1.000
; #@! TA.AperFunction,Plated,PTH,ComponentDrill
T4C1.100
; #@! TA.AperFunction,Plated,PTH,ComponentDrill
T5C1.200
; #@! TA.AperFunction,Plated,PTH,ComponentDrill
T6C6.100
%
G90
G05
T1
X42.89Y-80.98
X42.89Y-88.6
X47.29Y-76.47
X48.04Y-101.83
X48.39Y-125.08
X48.39Y-135.24
X48.56Y-80.86
X48.56Y-88.48
X50.58Y-99.29
X50.58Y-104.37
X54.34Y-80.9
X54.34Y-88.52
X57.45Y-76.47
X58.75Y-96.96
X58.8Y-114.85
X60.37Y-81.93
X60.37Y-86.93
X60.66Y-76.38
X63.75Y-96.96
X63.8Y-114.85
X64.53Y-103.44
X64.53Y-108.32
X65.3Y-81.98
X65.3Y-92.14
X69.76Y-81.92
X69.76Y-84.46
X69.76Y-87.0
X69.76Y-89.54
X69.76Y-92.08
X69.76Y-94.62
X69.76Y-97.16
X69.76Y-99.7
X69.76Y-102.24
X69.76Y-104.78
X69.76Y-107.32
X69.76Y-109.86
X69.76Y-112.4
X69.76Y-114.94
X70.82Y-76.38
X77.38Y-81.92
X77.38Y-84.46
X77.38Y-87.0
X77.38Y-89.54
X77.38Y-92.08
X77.38Y-94.62
X77.38Y-97.16
X77.38Y-99.7
X77.38Y-102.24
X77.38Y-104.78
X77.38Y-107.32
X77.38Y-109.86
X77.38Y-112.4
X77.38Y-114.94
X81.57Y-100.1
X81.57Y-105.1
X81.59Y-91.81
X81.59Y-96.81
X84.9Y-75.7
X86.85Y-68.22
X86.85Y-70.22
X89.9Y-75.7
X96.92Y-108.315
X96.92Y-118.475
T2
X89.65Y-109.23
X89.65Y-111.77
T3
X43.28Y-97.1
X43.28Y-99.64
X43.28Y-102.18
X43.28Y-104.72
X43.28Y-107.26
X43.28Y-109.8
X43.28Y-112.34
X43.28Y-114.88
X43.28Y-117.42
X43.28Y-119.96
X43.28Y-122.5
X43.28Y-125.04
X43.28Y-127.58
X43.28Y-130.12
X43.28Y-132.66
X43.28Y-135.2
X89.96Y-97.98
X89.96Y-100.52
X89.96Y-103.06
X92.5Y-97.98
X92.5Y-100.52
X92.5Y-103.06
T4
X85.81Y-61.38
X94.25Y-67.99
X94.25Y-70.53
X94.25Y-73.07
X95.97Y-61.38
T5
X84.89Y-84.73
X84.89Y-89.73
X97.39Y-84.73
X97.39Y-89.73
T6
X46.83Y-66.01
X59.77Y-65.88
T3
G00X70.138Y-64.57
M15
G01X70.138Y-66.57
M16
G05
G00X75.837Y-62.57
M15
G01X73.837Y-62.57
M16
G05
G00X75.837Y-68.57
M15
G01X73.837Y-68.57
M16
G05
M30
