%TF.GenerationSoftware,KiCad,Pcbnew,10.0.0*%
%TF.CreationDate,2026-08-29T20:16:26+01:00*%
%TF.ProjectId,voltmeter,766f6c74-6d65-4746-9572-2e6b69636164,rev?*%
%TF.SameCoordinates,Original*%
%TF.FileFunction,Copper,L2,Bot*%
%TF.FilePolarity,Positive*%
%FSLAX46Y46*%
G04 Gerber Fmt 4.6, Leading zero omitted, Abs format (unit mm)*
G04 Created by KiCad (PCBNEW 10.0.0) date 2026-08-29 20:16:26*
%MOMM*%
%LPD*%
G01*
G04 APERTURE LIST*
G04 Aperture macros list*
%AMRoundRect*
0 Rectangle with rounded corners*
0 $1 Rounding radius*
0 $2 $3 $4 $5 $6 $7 $8 $9 X,Y pos of 4 corners*
0 Add a 4 corners polygon primitive as box body*
4,1,4,$2,$3,$4,$5,$6,$7,$8,$9,$2,$3,0*
0 Add four circle primitives for the rounded corners*
1,1,$1+$1,$2,$3*
1,1,$1+$1,$4,$5*
1,1,$1+$1,$6,$7*
1,1,$1+$1,$8,$9*
0 Add four rect primitives between the rounded corners*
20,1,$1+$1,$2,$3,$4,$5,0*
20,1,$1+$1,$4,$5,$6,$7,0*
20,1,$1+$1,$6,$7,$8,$9,0*
20,1,$1+$1,$8,$9,$2,$3,0*%
G04 Aperture macros list end*
%TA.AperFunction,ComponentPad*%
%ADD10C,10.160000*%
%TD*%
%TA.AperFunction,ComponentPad*%
%ADD11R,2.000000X1.905000*%
%TD*%
%TA.AperFunction,ComponentPad*%
%ADD12O,2.000000X1.905000*%
%TD*%
%TA.AperFunction,ComponentPad*%
%ADD13C,1.600000*%
%TD*%
%TA.AperFunction,ComponentPad*%
%ADD14R,1.700000X1.700000*%
%TD*%
%TA.AperFunction,ComponentPad*%
%ADD15C,1.700000*%
%TD*%
%TA.AperFunction,ComponentPad*%
%ADD16R,3.500000X3.500000*%
%TD*%
%TA.AperFunction,ComponentPad*%
%ADD17RoundRect,0.750000X-1.000000X0.750000X-1.000000X-0.750000X1.000000X-0.750000X1.000000X0.750000X0*%
%TD*%
%TA.AperFunction,ComponentPad*%
%ADD18RoundRect,0.875000X-0.875000X0.875000X-0.875000X-0.875000X0.875000X-0.875000X0.875000X0.875000X0*%
%TD*%
%TA.AperFunction,ComponentPad*%
%ADD19R,1.800000X1.800000*%
%TD*%
%TA.AperFunction,ComponentPad*%
%ADD20C,1.800000*%
%TD*%
%TA.AperFunction,ComponentPad*%
%ADD21C,1.440000*%
%TD*%
%TA.AperFunction,ComponentPad*%
%ADD22RoundRect,0.250000X-0.550000X-0.550000X0.550000X-0.550000X0.550000X0.550000X-0.550000X0.550000X0*%
%TD*%
%TA.AperFunction,ComponentPad*%
%ADD23RoundRect,0.250000X0.550000X-0.550000X0.550000X0.550000X-0.550000X0.550000X-0.550000X-0.550000X0*%
%TD*%
%TA.AperFunction,ComponentPad*%
%ADD24RoundRect,0.249999X0.850001X0.850001X-0.850001X0.850001X-0.850001X-0.850001X0.850001X-0.850001X0*%
%TD*%
%TA.AperFunction,ComponentPad*%
%ADD25C,2.200000*%
%TD*%
%TA.AperFunction,ComponentPad*%
%ADD26O,2.900000X1.700000*%
%TD*%
%TA.AperFunction,ComponentPad*%
%ADD27RoundRect,0.250000X-0.550000X0.550000X-0.550000X-0.550000X0.550000X-0.550000X0.550000X0.550000X0*%
%TD*%
%TA.AperFunction,ComponentPad*%
%ADD28C,1.500000*%
%TD*%
%TA.AperFunction,Conductor*%
%ADD29C,0.200000*%
%TD*%
G04 APERTURE END LIST*
D10*
%TO.P,J3,1,Pin_1_1*%
%TO.N,Net-(J3-Pin_1)*%
X46830000Y-66010000D03*
%TD*%
D11*
%TO.P,U2,1,IN_1*%
%TO.N,Net-(D4-K)*%
X94250000Y-67990000D03*
D12*
%TO.P,U2,2,GND_2*%
%TO.N,GND*%
X94250000Y-70530000D03*
%TO.P,U2,3,OUT_3*%
%TO.N,Net-(SW1-A)*%
X94250000Y-73070000D03*
%TD*%
D13*
%TO.P,C3,1*%
%TO.N,+5V*%
X81570000Y-105100000D03*
%TO.P,C3,2*%
%TO.N,GND*%
X81570000Y-100100000D03*
%TD*%
%TO.P,R1,1*%
%TO.N,Net-(J1-Pin_5)*%
X65300000Y-81980000D03*
%TO.P,R1,2*%
%TO.N,+5V*%
X65300000Y-92140000D03*
%TD*%
%TO.P,R5,1*%
%TO.N,GND*%
X96920000Y-118475000D03*
%TO.P,R5,2*%
%TO.N,Net-(LED1-K)*%
X96920000Y-108315000D03*
%TD*%
D14*
%TO.P,LCD1,1,VSS_1*%
%TO.N,GND*%
X43280000Y-97100000D03*
D15*
%TO.P,LCD1,2,VDD_2*%
%TO.N,+5V*%
X43280000Y-99640000D03*
%TO.P,LCD1,3,VO_3*%
%TO.N,Net-(LCD1-VO)*%
X43280000Y-102180000D03*
%TO.P,LCD1,4,RS_4*%
%TO.N,Net-(LCD1-RS)*%
X43280000Y-104720000D03*
%TO.P,LCD1,5,R/~{W}_5*%
%TO.N,GND*%
X43280000Y-107260000D03*
%TO.P,LCD1,6,E_6*%
%TO.N,Net-(LCD1-E)*%
X43280000Y-109800000D03*
%TO.P,LCD1,7,DB0_7*%
%TO.N,unconnected-(LCD1-DB0-Pad7)*%
X43280000Y-112340000D03*
%TO.P,LCD1,8,DB1_8*%
%TO.N,unconnected-(LCD1-DB1-Pad8)*%
X43280000Y-114880000D03*
%TO.P,LCD1,9,DB2_9*%
%TO.N,unconnected-(LCD1-DB2-Pad9)*%
X43280000Y-117420000D03*
%TO.P,LCD1,10,DB3_10*%
%TO.N,unconnected-(LCD1-DB3-Pad10)*%
X43280000Y-119960000D03*
%TO.P,LCD1,11,DB4_11*%
%TO.N,Net-(LCD1-DB4)*%
X43280000Y-122500000D03*
%TO.P,LCD1,12,DB5_12*%
%TO.N,Net-(LCD1-DB5)*%
X43280000Y-125040000D03*
%TO.P,LCD1,13,DB6_13*%
%TO.N,Net-(LCD1-DB6)*%
X43280000Y-127580000D03*
%TO.P,LCD1,14,DB7_14*%
%TO.N,Net-(LCD1-DB7)*%
X43280000Y-130120000D03*
%TO.P,LCD1,15,A/VEE_15*%
%TO.N,Net-(LCD1-A{slash}VEE)*%
X43280000Y-132660000D03*
%TO.P,LCD1,16,K_16*%
%TO.N,GND*%
X43280000Y-135200000D03*
%TD*%
D16*
%TO.P,J2,1*%
%TO.N,Net-(D4-A)*%
X74837500Y-68570000D03*
D17*
%TO.P,J2,2*%
%TO.N,GND*%
X74837500Y-62570000D03*
D18*
%TO.P,J2,3*%
%TO.N,N/C*%
X70137500Y-65570000D03*
%TD*%
D19*
%TO.P,LED1,1,K_1*%
%TO.N,Net-(LED1-K)*%
X89650000Y-109230000D03*
D20*
%TO.P,LED1,2,A_2*%
%TO.N,+5V*%
X89650000Y-111770000D03*
%TD*%
D13*
%TO.P,R4,1*%
%TO.N,Net-(D1-A)*%
X60660000Y-76380000D03*
%TO.P,R4,2*%
%TO.N,GND*%
X70820000Y-76380000D03*
%TD*%
%TO.P,R2,1*%
%TO.N,Net-(LCD1-A{slash}VEE)*%
X48390000Y-135240000D03*
%TO.P,R2,2*%
%TO.N,+5V*%
X48390000Y-125080000D03*
%TD*%
D21*
%TO.P,RV1,1,1_1*%
%TO.N,+5V*%
X50580000Y-99290000D03*
%TO.P,RV1,2,2_2*%
%TO.N,Net-(LCD1-VO)*%
X48040000Y-101830000D03*
%TO.P,RV1,3,3_3*%
%TO.N,GND*%
X50580000Y-104370000D03*
%TD*%
D13*
%TO.P,C8,1*%
%TO.N,Net-(U1-AREF)*%
X81590000Y-96810000D03*
%TO.P,C8,2*%
%TO.N,GND*%
X81590000Y-91810000D03*
%TD*%
D22*
%TO.P,U1,1,~{RESET}/PC6_1*%
%TO.N,Net-(J1-Pin_5)*%
X69760000Y-81920000D03*
D13*
%TO.P,U1,2,PD0_2*%
%TO.N,unconnected-(U1-PD0-Pad2)*%
X69760000Y-84460000D03*
%TO.P,U1,3,PD1_3*%
%TO.N,unconnected-(U1-PD1-Pad3)*%
X69760000Y-87000000D03*
%TO.P,U1,4,PD2_4*%
%TO.N,Net-(LCD1-RS)*%
X69760000Y-89540000D03*
%TO.P,U1,5,PD3_5*%
%TO.N,Net-(LCD1-E)*%
X69760000Y-92080000D03*
%TO.P,U1,6,PD4_6*%
%TO.N,Net-(LCD1-DB4)*%
X69760000Y-94620000D03*
%TO.P,U1,7,VCC_7*%
%TO.N,+5V*%
X69760000Y-97160000D03*
%TO.P,U1,8,GND_8*%
%TO.N,GND*%
X69760000Y-99700000D03*
%TO.P,U1,9,XTAL1/PB6_9*%
%TO.N,Net-(U1-XTAL1{slash}PB6)*%
X69760000Y-102240000D03*
%TO.P,U1,10,XTAL2/PB7_10*%
%TO.N,Net-(U1-XTAL2{slash}PB7)*%
X69760000Y-104780000D03*
%TO.P,U1,11,PD5_11*%
%TO.N,Net-(LCD1-DB5)*%
X69760000Y-107320000D03*
%TO.P,U1,12,PD6_12*%
%TO.N,Net-(LCD1-DB6)*%
X69760000Y-109860000D03*
%TO.P,U1,13,PD7_13*%
%TO.N,Net-(LCD1-DB7)*%
X69760000Y-112400000D03*
%TO.P,U1,14,PB0_14*%
%TO.N,unconnected-(U1-PB0-Pad14)*%
X69760000Y-114940000D03*
%TO.P,U1,15,PB1_15*%
%TO.N,unconnected-(U1-PB1-Pad15)*%
X77380000Y-114940000D03*
%TO.P,U1,16,PB2_16*%
%TO.N,unconnected-(U1-PB2-Pad16)*%
X77380000Y-112400000D03*
%TO.P,U1,17,PB3_17*%
%TO.N,Net-(J1-Pin_4)*%
X77380000Y-109860000D03*
%TO.P,U1,18,PB4_18*%
%TO.N,Net-(J1-Pin_1)*%
X77380000Y-107320000D03*
%TO.P,U1,19,PB5_19*%
%TO.N,Net-(J1-Pin_3)*%
X77380000Y-104780000D03*
%TO.P,U1,20,AVCC_20*%
%TO.N,+5V*%
X77380000Y-102240000D03*
%TO.P,U1,21,AREF_21*%
%TO.N,Net-(U1-AREF)*%
X77380000Y-99700000D03*
%TO.P,U1,22,GND_22*%
%TO.N,GND*%
X77380000Y-97160000D03*
%TO.P,U1,23,PC0_23*%
%TO.N,Net-(D1-A)*%
X77380000Y-94620000D03*
%TO.P,U1,24,PC1_24*%
%TO.N,unconnected-(U1-PC1-Pad24)*%
X77380000Y-92080000D03*
%TO.P,U1,25,PC2_25*%
%TO.N,unconnected-(U1-PC2-Pad25)*%
X77380000Y-89540000D03*
%TO.P,U1,26,PC3_26*%
%TO.N,unconnected-(U1-PC3-Pad26)*%
X77380000Y-87000000D03*
%TO.P,U1,27,PC4_27*%
%TO.N,unconnected-(U1-PC4-Pad27)*%
X77380000Y-84460000D03*
%TO.P,U1,28,PC5_28*%
%TO.N,unconnected-(U1-PC5-Pad28)*%
X77380000Y-81920000D03*
%TD*%
D23*
%TO.P,D1,1,K_1*%
%TO.N,+5V*%
X42890000Y-88600000D03*
D13*
%TO.P,D1,2,A_2*%
%TO.N,Net-(D1-A)*%
X42890000Y-80980000D03*
%TD*%
D24*
%TO.P,D4,1,K_1*%
%TO.N,Net-(D4-K)*%
X95970000Y-61380000D03*
D25*
%TO.P,D4,2,A_2*%
%TO.N,Net-(D4-A)*%
X85810000Y-61380000D03*
%TD*%
D14*
%TO.P,J1,1,Pin_1_1*%
%TO.N,Net-(J1-Pin_1)*%
X89960000Y-97980000D03*
D15*
%TO.P,J1,2,Pin_2_2*%
%TO.N,+5V*%
X92500000Y-97980000D03*
%TO.P,J1,3,Pin_3_3*%
%TO.N,Net-(J1-Pin_3)*%
X89960000Y-100520000D03*
%TO.P,J1,4,Pin_4_4*%
%TO.N,Net-(J1-Pin_4)*%
X92500000Y-100520000D03*
%TO.P,J1,5,Pin_5_5*%
%TO.N,Net-(J1-Pin_5)*%
X89960000Y-103060000D03*
%TO.P,J1,6,Pin_6_6*%
%TO.N,GND*%
X92500000Y-103060000D03*
%TD*%
D13*
%TO.P,C5,1*%
%TO.N,Net-(D1-A)*%
X60370000Y-81930000D03*
%TO.P,C5,2*%
%TO.N,GND*%
X60370000Y-86930000D03*
%TD*%
D10*
%TO.P,J4,1,Pin_1_1*%
%TO.N,GND*%
X59770000Y-65880000D03*
%TD*%
D26*
%TO.P,SW1,1,A_1*%
%TO.N,Net-(SW1-A)*%
X84890000Y-84730000D03*
X97390000Y-84730000D03*
%TO.P,SW1,2,B_2*%
%TO.N,+5V*%
X84890000Y-89730000D03*
X97390000Y-89730000D03*
%TD*%
D27*
%TO.P,D2,1,K_1*%
%TO.N,Net-(D1-A)*%
X54340000Y-80900000D03*
D13*
%TO.P,D2,2,A_2*%
%TO.N,GND*%
X54340000Y-88520000D03*
%TD*%
%TO.P,C1,1*%
%TO.N,Net-(U1-XTAL1{slash}PB6)*%
X63750000Y-96960000D03*
%TO.P,C1,2*%
%TO.N,GND*%
X58750000Y-96960000D03*
%TD*%
%TO.P,R3,1*%
%TO.N,Net-(F1-Pad2)*%
X47290000Y-76470000D03*
%TO.P,R3,2*%
%TO.N,Net-(D1-A)*%
X57450000Y-76470000D03*
%TD*%
%TO.P,C2,1*%
%TO.N,Net-(U1-XTAL2{slash}PB7)*%
X63800000Y-114850000D03*
%TO.P,C2,2*%
%TO.N,GND*%
X58800000Y-114850000D03*
%TD*%
D28*
%TO.P,Y1,1,1_1*%
%TO.N,Net-(U1-XTAL1{slash}PB6)*%
X64530000Y-103440000D03*
%TO.P,Y1,2,2_2*%
%TO.N,Net-(U1-XTAL2{slash}PB7)*%
X64530000Y-108320000D03*
%TD*%
D13*
%TO.P,C7,1*%
%TO.N,+5V*%
X89900000Y-75700000D03*
%TO.P,C7,2*%
%TO.N,GND*%
X84900000Y-75700000D03*
%TD*%
D27*
%TO.P,C6,1*%
%TO.N,Net-(D4-K)*%
X86850000Y-68220000D03*
D13*
%TO.P,C6,2*%
%TO.N,GND*%
X86850000Y-70220000D03*
%TD*%
D27*
%TO.P,D3,1,K_1*%
%TO.N,Net-(D1-A)*%
X48560000Y-80860000D03*
D13*
%TO.P,D3,2,A_2*%
%TO.N,GND*%
X48560000Y-88480000D03*
%TD*%
%TO.N,+5V*%
D29*
X54864365Y-99290000D02*
X58294365Y-95860000D01*
X69760000Y-97160000D02*
X69380000Y-96780000D01*
X67970000Y-96780000D02*
X66820000Y-95630000D01*
X65300000Y-94980000D02*
X65300000Y-92140000D01*
X77380000Y-102240000D02*
X76600000Y-101460000D01*
X49560000Y-123910000D02*
X49560000Y-103947502D01*
X58294365Y-95860000D02*
X58310000Y-95860000D01*
X65780000Y-96020000D02*
X66645686Y-96020000D01*
X44430000Y-98490000D02*
X44430000Y-90140000D01*
X76600000Y-101460000D02*
X76330000Y-101460000D01*
X44430000Y-90140000D02*
X42890000Y-88600000D01*
X66645686Y-96020000D02*
X67785686Y-97160000D01*
X81570000Y-105100000D02*
X81570000Y-106970000D01*
X67785686Y-97160000D02*
X69760000Y-97160000D01*
X48390000Y-125080000D02*
X49560000Y-123910000D01*
X86370000Y-111770000D02*
X89650000Y-111770000D01*
X65950000Y-95630000D02*
X65300000Y-94980000D01*
X66820000Y-95630000D02*
X65950000Y-95630000D01*
X81570000Y-106970000D02*
X86370000Y-111770000D01*
X43280000Y-99640000D02*
X44430000Y-98490000D01*
X69380000Y-96780000D02*
X67970000Y-96780000D01*
X58320000Y-95850000D02*
X62738680Y-95850000D01*
X63128680Y-95460000D02*
X65220000Y-95460000D01*
X49580000Y-100290000D02*
X50580000Y-99290000D01*
X62738680Y-95850000D02*
X63128680Y-95460000D01*
X58310000Y-95860000D02*
X58320000Y-95850000D01*
X49560000Y-103947502D02*
X49580000Y-103927502D01*
X65220000Y-95460000D02*
X65780000Y-96020000D01*
X69770000Y-97150000D02*
X69760000Y-97160000D01*
X72020000Y-97150000D02*
X69770000Y-97150000D01*
X50580000Y-99290000D02*
X54864365Y-99290000D01*
X49580000Y-103927502D02*
X49580000Y-100290000D01*
X76330000Y-101460000D02*
X72020000Y-97150000D01*
%TO.N,Net-(J1-Pin_5)*%
X76560000Y-101060000D02*
X70860000Y-95360000D01*
X80000000Y-101060000D02*
X76560000Y-101060000D01*
X70860000Y-95360000D02*
X70860000Y-83020000D01*
X89960000Y-103060000D02*
X82000000Y-103060000D01*
X70860000Y-83020000D02*
X69760000Y-81920000D01*
X82000000Y-103060000D02*
X80000000Y-101060000D01*
%TO.N,Net-(LCD1-A{slash}VEE)*%
X45860000Y-135240000D02*
X43280000Y-132660000D01*
X48390000Y-135240000D02*
X45860000Y-135240000D01*
%TO.N,Net-(U1-XTAL1{slash}PB6)*%
X65720000Y-102250000D02*
X64530000Y-103440000D01*
X69030000Y-102240000D02*
X63750000Y-96960000D01*
X69760000Y-102240000D02*
X69030000Y-102240000D01*
X69750000Y-102250000D02*
X65720000Y-102250000D01*
X69760000Y-102240000D02*
X69750000Y-102250000D01*
%TO.N,Net-(U1-XTAL2{slash}PB7)*%
X64530000Y-106160000D02*
X64530000Y-108320000D01*
X64530000Y-114120000D02*
X63800000Y-114850000D01*
X64530000Y-108320000D02*
X64530000Y-114120000D01*
X69760000Y-104780000D02*
X65910000Y-104780000D01*
X65910000Y-104780000D02*
X64530000Y-106160000D01*
%TD*%
%TA.AperFunction,Conductor*%
%TO.N,GND*%
G36*
X91301444Y-101173999D02*
G01*
X91340484Y-101219054D01*
X91344591Y-101227115D01*
X91344951Y-101227820D01*
X91469890Y-101399786D01*
X91620213Y-101550109D01*
X91792179Y-101675048D01*
X91792181Y-101675049D01*
X91792184Y-101675051D01*
X91801493Y-101679794D01*
X91852290Y-101727766D01*
X91869087Y-101795587D01*
X91846552Y-101861722D01*
X91801502Y-101900762D01*
X91792443Y-101905378D01*
X91656372Y-102004239D01*
X91656371Y-102004240D01*
X92268461Y-102616329D01*
X92192993Y-102659901D01*
X92099901Y-102752993D01*
X92056329Y-102828460D01*
X91444240Y-102216371D01*
X91444239Y-102216372D01*
X91345378Y-102352443D01*
X91340762Y-102361502D01*
X91292784Y-102412295D01*
X91224963Y-102429087D01*
X91158829Y-102406546D01*
X91119794Y-102361493D01*
X91115051Y-102352184D01*
X91115049Y-102352181D01*
X91115048Y-102352179D01*
X90990109Y-102180213D01*
X90839786Y-102029890D01*
X90667820Y-101904951D01*
X90659600Y-101900763D01*
X90659054Y-101900485D01*
X90608259Y-101852512D01*
X90591463Y-101784692D01*
X90613999Y-101718556D01*
X90659054Y-101679515D01*
X90667816Y-101675051D01*
X90703419Y-101649184D01*
X90839786Y-101550109D01*
X90839788Y-101550106D01*
X90839792Y-101550104D01*
X90990104Y-101399792D01*
X90990106Y-101399788D01*
X90990109Y-101399786D01*
X91115048Y-101227820D01*
X91115047Y-101227820D01*
X91115051Y-101227816D01*
X91119514Y-101219054D01*
X91167488Y-101168259D01*
X91235308Y-101151463D01*
X91301444Y-101173999D01*
G37*
%TD.AperFunction*%
%TA.AperFunction,Conductor*%
G36*
X65076319Y-96165554D02*
G01*
X65411284Y-96500520D01*
X65411286Y-96500521D01*
X65411290Y-96500524D01*
X65514307Y-96560000D01*
X65548216Y-96579577D01*
X65700943Y-96620501D01*
X65700945Y-96620501D01*
X65866654Y-96620501D01*
X65866670Y-96620500D01*
X66345589Y-96620500D01*
X66412628Y-96640185D01*
X66433270Y-96656819D01*
X67300825Y-97524374D01*
X67300835Y-97524385D01*
X67305165Y-97528715D01*
X67305166Y-97528716D01*
X67416970Y-97640520D01*
X67416972Y-97640521D01*
X67416976Y-97640524D01*
X67457223Y-97663760D01*
X67553902Y-97719577D01*
X67665705Y-97749534D01*
X67706628Y-97760500D01*
X67706629Y-97760500D01*
X68530398Y-97760500D01*
X68597437Y-97780185D01*
X68640883Y-97828205D01*
X68647715Y-97841614D01*
X68768028Y-98007213D01*
X68912786Y-98151971D01*
X69078385Y-98272284D01*
X69078387Y-98272285D01*
X69078390Y-98272287D01*
X69146891Y-98307190D01*
X69171630Y-98319795D01*
X69222426Y-98367770D01*
X69239221Y-98435591D01*
X69216684Y-98501725D01*
X69171630Y-98540765D01*
X69078648Y-98588142D01*
X68952167Y-98680034D01*
X68952167Y-98680035D01*
X69601665Y-99329533D01*
X69514394Y-99379920D01*
X69439920Y-99454394D01*
X69389533Y-99541665D01*
X68740035Y-98892167D01*
X68740034Y-98892167D01*
X68648142Y-99018647D01*
X68555244Y-99200968D01*
X68492009Y-99395582D01*
X68460000Y-99597682D01*
X68460000Y-99802317D01*
X68492009Y-100004417D01*
X68555244Y-100199031D01*
X68648141Y-100381350D01*
X68648147Y-100381359D01*
X68740033Y-100507831D01*
X68740035Y-100507832D01*
X69389533Y-99858334D01*
X69439920Y-99945606D01*
X69514394Y-100020080D01*
X69601665Y-100070465D01*
X68952166Y-100719963D01*
X69078652Y-100811861D01*
X69171628Y-100859234D01*
X69222425Y-100907208D01*
X69239220Y-100975029D01*
X69216683Y-101041164D01*
X69180552Y-101075183D01*
X69176181Y-101077885D01*
X69078390Y-101127713D01*
X68979953Y-101199230D01*
X68976017Y-101201665D01*
X68946610Y-101209747D01*
X68917877Y-101219999D01*
X68913236Y-101218919D01*
X68908645Y-101220182D01*
X68879537Y-101211083D01*
X68849823Y-101204173D01*
X68844504Y-101200132D01*
X68841958Y-101199336D01*
X68839342Y-101196210D01*
X68823118Y-101183882D01*
X67319733Y-99680497D01*
X65044077Y-97404842D01*
X65010592Y-97343519D01*
X65013828Y-97278841D01*
X65015991Y-97272184D01*
X65018477Y-97264534D01*
X65050500Y-97062352D01*
X65050500Y-96857648D01*
X65042257Y-96805606D01*
X65018477Y-96655465D01*
X64987458Y-96560000D01*
X64955220Y-96460781D01*
X64955218Y-96460778D01*
X64955218Y-96460776D01*
X64878791Y-96310781D01*
X64878153Y-96309530D01*
X64865258Y-96240862D01*
X64891534Y-96176121D01*
X64948641Y-96135864D01*
X65018446Y-96132872D01*
X65076319Y-96165554D01*
G37*
%TD.AperFunction*%
%TA.AperFunction,Conductor*%
G36*
X99192539Y-58890185D02*
G01*
X99238294Y-58942989D01*
X99249500Y-58994500D01*
X99249500Y-83784310D01*
X99229815Y-83851349D01*
X99177011Y-83897104D01*
X99107853Y-83907048D01*
X99044297Y-83878023D01*
X99025185Y-83857199D01*
X99020111Y-83850216D01*
X99020105Y-83850209D01*
X98869786Y-83699890D01*
X98697820Y-83574951D01*
X98508414Y-83478444D01*
X98508413Y-83478443D01*
X98508412Y-83478443D01*
X98306243Y-83412754D01*
X98306241Y-83412753D01*
X98306240Y-83412753D01*
X98144957Y-83387208D01*
X98096287Y-83379500D01*
X96683713Y-83379500D01*
X96635042Y-83387208D01*
X96473760Y-83412753D01*
X96473757Y-83412754D01*
X96303624Y-83468034D01*
X96271585Y-83478444D01*
X96082179Y-83574951D01*
X95910213Y-83699890D01*
X95759890Y-83850213D01*
X95634951Y-84022179D01*
X95538444Y-84211585D01*
X95472753Y-84413760D01*
X95439500Y-84623713D01*
X95439500Y-84836286D01*
X95472753Y-85046239D01*
X95538444Y-85248414D01*
X95634951Y-85437820D01*
X95759890Y-85609786D01*
X95910213Y-85760109D01*
X96082179Y-85885048D01*
X96082181Y-85885049D01*
X96082184Y-85885051D01*
X96271588Y-85981557D01*
X96473757Y-86047246D01*
X96683713Y-86080500D01*
X96683714Y-86080500D01*
X98096286Y-86080500D01*
X98096287Y-86080500D01*
X98306243Y-86047246D01*
X98508412Y-85981557D01*
X98697816Y-85885051D01*
X98759156Y-85840485D01*
X98869786Y-85760109D01*
X98869788Y-85760106D01*
X98869792Y-85760104D01*
X99020104Y-85609792D01*
X99025181Y-85602803D01*
X99080511Y-85560138D01*
X99150124Y-85554159D01*
X99211920Y-85586764D01*
X99246277Y-85647603D01*
X99249500Y-85675689D01*
X99249500Y-88784310D01*
X99229815Y-88851349D01*
X99177011Y-88897104D01*
X99107853Y-88907048D01*
X99044297Y-88878023D01*
X99025185Y-88857199D01*
X99020111Y-88850216D01*
X99020105Y-88850209D01*
X98869786Y-88699890D01*
X98697820Y-88574951D01*
X98508414Y-88478444D01*
X98508413Y-88478443D01*
X98508412Y-88478443D01*
X98306243Y-88412754D01*
X98306241Y-88412753D01*
X98306240Y-88412753D01*
X98144957Y-88387208D01*
X98096287Y-88379500D01*
X96683713Y-88379500D01*
X96635042Y-88387208D01*
X96473760Y-88412753D01*
X96271585Y-88478444D01*
X96082179Y-88574951D01*
X95910213Y-88699890D01*
X95759890Y-88850213D01*
X95634951Y-89022179D01*
X95538444Y-89211585D01*
X95472753Y-89413760D01*
X95463951Y-89469334D01*
X95439500Y-89623713D01*
X95439500Y-89836287D01*
X95472754Y-90046243D01*
X95529735Y-90221613D01*
X95538444Y-90248414D01*
X95634951Y-90437820D01*
X95759890Y-90609786D01*
X95910213Y-90760109D01*
X96082179Y-90885048D01*
X96082181Y-90885049D01*
X96082184Y-90885051D01*
X96271588Y-90981557D01*
X96473757Y-91047246D01*
X96683713Y-91080500D01*
X96683714Y-91080500D01*
X98096286Y-91080500D01*
X98096287Y-91080500D01*
X98306243Y-91047246D01*
X98508412Y-90981557D01*
X98697816Y-90885051D01*
X98793806Y-90815311D01*
X98869786Y-90760109D01*
X98869788Y-90760106D01*
X98869792Y-90760104D01*
X99020104Y-90609792D01*
X99025181Y-90602803D01*
X99080511Y-90560138D01*
X99150124Y-90554159D01*
X99211920Y-90586764D01*
X99246277Y-90647603D01*
X99249500Y-90675689D01*
X99249500Y-137745500D01*
X99229815Y-137812539D01*
X99177011Y-137858294D01*
X99125500Y-137869500D01*
X40374500Y-137869500D01*
X40307461Y-137849815D01*
X40261706Y-137797011D01*
X40250500Y-137745500D01*
X40250500Y-87999983D01*
X41589500Y-87999983D01*
X41589500Y-89200001D01*
X41589501Y-89200018D01*
X41600000Y-89302796D01*
X41600001Y-89302799D01*
X41644686Y-89437648D01*
X41655186Y-89469334D01*
X41747288Y-89618656D01*
X41871344Y-89742712D01*
X42020666Y-89834814D01*
X42187203Y-89889999D01*
X42289991Y-89900500D01*
X43289902Y-89900499D01*
X43356941Y-89920183D01*
X43377583Y-89936818D01*
X43793181Y-90352416D01*
X43826666Y-90413739D01*
X43829500Y-90440097D01*
X43829500Y-95626000D01*
X43809815Y-95693039D01*
X43757011Y-95738794D01*
X43705500Y-95750000D01*
X43430000Y-95750000D01*
X43430000Y-96622554D01*
X43345826Y-96600000D01*
X43214174Y-96600000D01*
X43130000Y-96622554D01*
X43130000Y-95750000D01*
X42382155Y-95750000D01*
X42322627Y-95756401D01*
X42322620Y-95756403D01*
X42187913Y-95806645D01*
X42187906Y-95806649D01*
X42072812Y-95892809D01*
X42072809Y-95892812D01*
X41986649Y-96007906D01*
X41986645Y-96007913D01*
X41936403Y-96142620D01*
X41936401Y-96142627D01*
X41930000Y-96202155D01*
X41930000Y-96950000D01*
X42802555Y-96950000D01*
X42780000Y-97034174D01*
X42780000Y-97165826D01*
X42802555Y-97250000D01*
X41930000Y-97250000D01*
X41930000Y-97997844D01*
X41936401Y-98057372D01*
X41936403Y-98057379D01*
X41986645Y-98192086D01*
X41986649Y-98192093D01*
X42072809Y-98307187D01*
X42072812Y-98307190D01*
X42187906Y-98393350D01*
X42187913Y-98393354D01*
X42319470Y-98442422D01*
X42375404Y-98484293D01*
X42399821Y-98549758D01*
X42384969Y-98618031D01*
X42363819Y-98646285D01*
X42249889Y-98760215D01*
X42124951Y-98932179D01*
X42028444Y-99121585D01*
X42028443Y-99121587D01*
X42028443Y-99121588D01*
X42007012Y-99187546D01*
X41962753Y-99323760D01*
X41929500Y-99533713D01*
X41929500Y-99746286D01*
X41957216Y-99921282D01*
X41962754Y-99956243D01*
X42026574Y-100152661D01*
X42028444Y-100158414D01*
X42124951Y-100347820D01*
X42249890Y-100519786D01*
X42400213Y-100670109D01*
X42572182Y-100795050D01*
X42580946Y-100799516D01*
X42631742Y-100847491D01*
X42648536Y-100915312D01*
X42625998Y-100981447D01*
X42580946Y-101020484D01*
X42572182Y-101024949D01*
X42400213Y-101149890D01*
X42249890Y-101300213D01*
X42124951Y-101472179D01*
X42028444Y-101661585D01*
X41962753Y-101863760D01*
X41929500Y-102073713D01*
X41929500Y-102286286D01*
X41953816Y-102439815D01*
X41962754Y-102496243D01*
X42004704Y-102625352D01*
X42028444Y-102698414D01*
X42124951Y-102887820D01*
X42249890Y-103059786D01*
X42400213Y-103210109D01*
X42572182Y-103335050D01*
X42580946Y-103339516D01*
X42631742Y-103387491D01*
X42648536Y-103455312D01*
X42625998Y-103521447D01*
X42580946Y-103560484D01*
X42572182Y-103564949D01*
X42400213Y-103689890D01*
X42249890Y-103840213D01*
X42124951Y-104012179D01*
X42028444Y-104201585D01*
X41962753Y-104403760D01*
X41946002Y-104509523D01*
X41929500Y-104613713D01*
X41929500Y-104826287D01*
X41962754Y-105036243D01*
X42016726Y-105202352D01*
X42028444Y-105238414D01*
X42124951Y-105427820D01*
X42249890Y-105599786D01*
X42400213Y-105750109D01*
X42572179Y-105875048D01*
X42572181Y-105875049D01*
X42572184Y-105875051D01*
X42581493Y-105879794D01*
X42632290Y-105927766D01*
X42649087Y-105995587D01*
X42626552Y-106061722D01*
X42581502Y-106100762D01*
X42572443Y-106105378D01*
X42436372Y-106204239D01*
X42436371Y-106204240D01*
X43048461Y-106816329D01*
X42972993Y-106859901D01*
X42879901Y-106952993D01*
X42836329Y-107028460D01*
X42224240Y-106416371D01*
X42224239Y-106416372D01*
X42125379Y-106552442D01*
X42028904Y-106741782D01*
X41963242Y-106943869D01*
X41963242Y-106943872D01*
X41930000Y-107153753D01*
X41930000Y-107366246D01*
X41963242Y-107576127D01*
X41963242Y-107576130D01*
X42028904Y-107778217D01*
X42125377Y-107967554D01*
X42224240Y-108103626D01*
X42224241Y-108103627D01*
X42836329Y-107491538D01*
X42879901Y-107567007D01*
X42972993Y-107660099D01*
X43048460Y-107703670D01*
X42436371Y-108315758D01*
X42572447Y-108414624D01*
X42581495Y-108419234D01*
X42632292Y-108467208D01*
X42649087Y-108535029D01*
X42626550Y-108601164D01*
X42581499Y-108640202D01*
X42572182Y-108644949D01*
X42400213Y-108769890D01*
X42249890Y-108920213D01*
X42124951Y-109092179D01*
X42028444Y-109281585D01*
X41962753Y-109483760D01*
X41951396Y-109555465D01*
X41929500Y-109693713D01*
X41929500Y-109906287D01*
X41962754Y-110116243D01*
X42002147Y-110237483D01*
X42028444Y-110318414D01*
X42124951Y-110507820D01*
X42249890Y-110679786D01*
X42400213Y-110830109D01*
X42572182Y-110955050D01*
X42580946Y-110959516D01*
X42631742Y-111007491D01*
X42648536Y-111075312D01*
X42625998Y-111141447D01*
X42580946Y-111180484D01*
X42572182Y-111184949D01*
X42400213Y-111309890D01*
X42249890Y-111460213D01*
X42124951Y-111632179D01*
X42028444Y-111821585D01*
X41962753Y-112023760D01*
X41944546Y-112138716D01*
X41929500Y-112233713D01*
X41929500Y-112446287D01*
X41962754Y-112656243D01*
X42021889Y-112838242D01*
X42028444Y-112858414D01*
X42124951Y-113047820D01*
X42249890Y-113219786D01*
X42400213Y-113370109D01*
X42572182Y-113495050D01*
X42580946Y-113499516D01*
X42631742Y-113547491D01*
X42648536Y-113615312D01*
X42625998Y-113681447D01*
X42580946Y-113720484D01*
X42572182Y-113724949D01*
X42400213Y-113849890D01*
X42249890Y-114000213D01*
X42124951Y-114172179D01*
X42028446Y-114361581D01*
X42028445Y-114361584D01*
X42028443Y-114361588D01*
X41968697Y-114545466D01*
X41962753Y-114563760D01*
X41929500Y-114773713D01*
X41929500Y-114986286D01*
X41946814Y-115095606D01*
X41962754Y-115196243D01*
X42012460Y-115349223D01*
X42028444Y-115398414D01*
X42124951Y-115587820D01*
X42249890Y-115759786D01*
X42400213Y-115910109D01*
X42572182Y-116035050D01*
X42580946Y-116039516D01*
X42631742Y-116087491D01*
X42648536Y-116155312D01*
X42625998Y-116221447D01*
X42580946Y-116260484D01*
X42572182Y-116264949D01*
X42400213Y-116389890D01*
X42249890Y-116540213D01*
X42124951Y-116712179D01*
X42028444Y-116901585D01*
X41962753Y-117103760D01*
X41929500Y-117313713D01*
X41929500Y-117526286D01*
X41962753Y-117736239D01*
X42028444Y-117938414D01*
X42124951Y-118127820D01*
X42249890Y-118299786D01*
X42400213Y-118450109D01*
X42572182Y-118575050D01*
X42580946Y-118579516D01*
X42631742Y-118627491D01*
X42648536Y-118695312D01*
X42625998Y-118761447D01*
X42580946Y-118800484D01*
X42572182Y-118804949D01*
X42400213Y-118929890D01*
X42249890Y-119080213D01*
X42124951Y-119252179D01*
X42028444Y-119441585D01*
X41962753Y-119643760D01*
X41929500Y-119853713D01*
X41929500Y-120066286D01*
X41962753Y-120276239D01*
X42028444Y-120478414D01*
X42124951Y-120667820D01*
X42249890Y-120839786D01*
X42400213Y-120990109D01*
X42572182Y-121115050D01*
X42580946Y-121119516D01*
X42631742Y-121167491D01*
X42648536Y-121235312D01*
X42625998Y-121301447D01*
X42580946Y-121340484D01*
X42572182Y-121344949D01*
X42400213Y-121469890D01*
X42249890Y-121620213D01*
X42124951Y-121792179D01*
X42028444Y-121981585D01*
X41962753Y-122183760D01*
X41929500Y-122393713D01*
X41929500Y-122606286D01*
X41962753Y-122816239D01*
X42028444Y-123018414D01*
X42124951Y-123207820D01*
X42249890Y-123379786D01*
X42400213Y-123530109D01*
X42572182Y-123655050D01*
X42580946Y-123659516D01*
X42631742Y-123707491D01*
X42648536Y-123775312D01*
X42625998Y-123841447D01*
X42580946Y-123880484D01*
X42572182Y-123884949D01*
X42400213Y-124009890D01*
X42249890Y-124160213D01*
X42124951Y-124332179D01*
X42028444Y-124521585D01*
X41962753Y-124723760D01*
X41954564Y-124775465D01*
X41929500Y-124933713D01*
X41929500Y-125146287D01*
X41962754Y-125356243D01*
X41971946Y-125384534D01*
X42028444Y-125558414D01*
X42124951Y-125747820D01*
X42249890Y-125919786D01*
X42400213Y-126070109D01*
X42572182Y-126195050D01*
X42580946Y-126199516D01*
X42631742Y-126247491D01*
X42648536Y-126315312D01*
X42625998Y-126381447D01*
X42580946Y-126420484D01*
X42572182Y-126424949D01*
X42400213Y-126549890D01*
X42249890Y-126700213D01*
X42124951Y-126872179D01*
X42028444Y-127061585D01*
X41962753Y-127263760D01*
X41929500Y-127473713D01*
X41929500Y-127686286D01*
X41962753Y-127896239D01*
X42028444Y-128098414D01*
X42124951Y-128287820D01*
X42249890Y-128459786D01*
X42400213Y-128610109D01*
X42572182Y-128735050D01*
X42580946Y-128739516D01*
X42631742Y-128787491D01*
X42648536Y-128855312D01*
X42625998Y-128921447D01*
X42580946Y-128960484D01*
X42572182Y-128964949D01*
X42400213Y-129089890D01*
X42249890Y-129240213D01*
X42124951Y-129412179D01*
X42028444Y-129601585D01*
X41962753Y-129803760D01*
X41929500Y-130013713D01*
X41929500Y-130226286D01*
X41962753Y-130436239D01*
X42028444Y-130638414D01*
X42124951Y-130827820D01*
X42249890Y-130999786D01*
X42400213Y-131150109D01*
X42572182Y-131275050D01*
X42580946Y-131279516D01*
X42631742Y-131327491D01*
X42648536Y-131395312D01*
X42625998Y-131461447D01*
X42580946Y-131500484D01*
X42572182Y-131504949D01*
X42400213Y-131629890D01*
X42249890Y-131780213D01*
X42124951Y-131952179D01*
X42028444Y-132141585D01*
X41962753Y-132343760D01*
X41929500Y-132553713D01*
X41929500Y-132766286D01*
X41962753Y-132976239D01*
X41962753Y-132976241D01*
X41962754Y-132976243D01*
X42017431Y-133144522D01*
X42028444Y-133178414D01*
X42124951Y-133367820D01*
X42249890Y-133539786D01*
X42400213Y-133690109D01*
X42572179Y-133815048D01*
X42572181Y-133815049D01*
X42572184Y-133815051D01*
X42581493Y-133819794D01*
X42632290Y-133867766D01*
X42649087Y-133935587D01*
X42626552Y-134001722D01*
X42581502Y-134040762D01*
X42572443Y-134045378D01*
X42436372Y-134144239D01*
X42436371Y-134144240D01*
X43048461Y-134756329D01*
X42972993Y-134799901D01*
X42879901Y-134892993D01*
X42836329Y-134968460D01*
X42224240Y-134356371D01*
X42224239Y-134356372D01*
X42125379Y-134492442D01*
X42028904Y-134681782D01*
X41963242Y-134883869D01*
X41963242Y-134883872D01*
X41930000Y-135093753D01*
X41930000Y-135306246D01*
X41963242Y-135516127D01*
X41963242Y-135516130D01*
X42028904Y-135718217D01*
X42125377Y-135907554D01*
X42224240Y-136043626D01*
X42224241Y-136043627D01*
X42836329Y-135431538D01*
X42879901Y-135507007D01*
X42972993Y-135600099D01*
X43048460Y-135643670D01*
X42436371Y-136255758D01*
X42572445Y-136354622D01*
X42761782Y-136451095D01*
X42963870Y-136516757D01*
X43173754Y-136550000D01*
X43386246Y-136550000D01*
X43596127Y-136516757D01*
X43596130Y-136516757D01*
X43798217Y-136451095D01*
X43987546Y-136354626D01*
X43987552Y-136354622D01*
X44123626Y-136255758D01*
X44123627Y-136255758D01*
X43511538Y-135643670D01*
X43587007Y-135600099D01*
X43680099Y-135507007D01*
X43723670Y-135431538D01*
X44335758Y-136043627D01*
X44335758Y-136043626D01*
X44434622Y-135907552D01*
X44434626Y-135907546D01*
X44531095Y-135718217D01*
X44596757Y-135516130D01*
X44596757Y-135516127D01*
X44630000Y-135306246D01*
X44630000Y-135158597D01*
X44649685Y-135091558D01*
X44702489Y-135045803D01*
X44771647Y-135035859D01*
X44835203Y-135064884D01*
X44841681Y-135070916D01*
X45375139Y-135604374D01*
X45375149Y-135604385D01*
X45379479Y-135608715D01*
X45379480Y-135608716D01*
X45491284Y-135720520D01*
X45578095Y-135770639D01*
X45578097Y-135770641D01*
X45616151Y-135792611D01*
X45628215Y-135799577D01*
X45780943Y-135840501D01*
X45780946Y-135840501D01*
X45946653Y-135840501D01*
X45946669Y-135840500D01*
X47160398Y-135840500D01*
X47227437Y-135860185D01*
X47270883Y-135908205D01*
X47277715Y-135921614D01*
X47398028Y-136087213D01*
X47542786Y-136231971D01*
X47697749Y-136344556D01*
X47708390Y-136352287D01*
X47824607Y-136411503D01*
X47890776Y-136445218D01*
X47890778Y-136445218D01*
X47890781Y-136445220D01*
X47995137Y-136479127D01*
X48085465Y-136508477D01*
X48137743Y-136516757D01*
X48287648Y-136540500D01*
X48287649Y-136540500D01*
X48492351Y-136540500D01*
X48492352Y-136540500D01*
X48694534Y-136508477D01*
X48889219Y-136445220D01*
X49071610Y-136352287D01*
X49204472Y-136255758D01*
X49237213Y-136231971D01*
X49237215Y-136231968D01*
X49237219Y-136231966D01*
X49381966Y-136087219D01*
X49381968Y-136087215D01*
X49381971Y-136087213D01*
X49434732Y-136014590D01*
X49502287Y-135921610D01*
X49595220Y-135739219D01*
X49658477Y-135544534D01*
X49690500Y-135342352D01*
X49690500Y-135137648D01*
X49658477Y-134935466D01*
X49595220Y-134740781D01*
X49595218Y-134740778D01*
X49595218Y-134740776D01*
X49561503Y-134674607D01*
X49502287Y-134558390D01*
X49494556Y-134547749D01*
X49381971Y-134392786D01*
X49237213Y-134248028D01*
X49071613Y-134127715D01*
X49071612Y-134127714D01*
X49071610Y-134127713D01*
X49014653Y-134098691D01*
X48889223Y-134034781D01*
X48694534Y-133971522D01*
X48519995Y-133943878D01*
X48492352Y-133939500D01*
X48287648Y-133939500D01*
X48263329Y-133943351D01*
X48085465Y-133971522D01*
X47890776Y-134034781D01*
X47708386Y-134127715D01*
X47542786Y-134248028D01*
X47398028Y-134392786D01*
X47277715Y-134558385D01*
X47270883Y-134571795D01*
X47222909Y-134622591D01*
X47160398Y-134639500D01*
X46160097Y-134639500D01*
X46093058Y-134619815D01*
X46072416Y-134603181D01*
X44613757Y-133144522D01*
X44580272Y-133083199D01*
X44583507Y-133018523D01*
X44597246Y-132976243D01*
X44630500Y-132766287D01*
X44630500Y-132553713D01*
X44597246Y-132343757D01*
X44531557Y-132141588D01*
X44435051Y-131952184D01*
X44435049Y-131952181D01*
X44435048Y-131952179D01*
X44310109Y-131780213D01*
X44159786Y-131629890D01*
X43987820Y-131504951D01*
X43987115Y-131504591D01*
X43979054Y-131500485D01*
X43928259Y-131452512D01*
X43911463Y-131384692D01*
X43933999Y-131318556D01*
X43979054Y-131279515D01*
X43987816Y-131275051D01*
X44009789Y-131259086D01*
X44159786Y-131150109D01*
X44159788Y-131150106D01*
X44159792Y-131150104D01*
X44310104Y-130999792D01*
X44310106Y-130999788D01*
X44310109Y-130999786D01*
X44435048Y-130827820D01*
X44435047Y-130827820D01*
X44435051Y-130827816D01*
X44531557Y-130638412D01*
X44597246Y-130436243D01*
X44630500Y-130226287D01*
X44630500Y-130013713D01*
X44597246Y-129803757D01*
X44531557Y-129601588D01*
X44435051Y-129412184D01*
X44435049Y-129412181D01*
X44435048Y-129412179D01*
X44310109Y-129240213D01*
X44159786Y-129089890D01*
X43987820Y-128964951D01*
X43987115Y-128964591D01*
X43979054Y-128960485D01*
X43928259Y-128912512D01*
X43911463Y-128844692D01*
X43933999Y-128778556D01*
X43979054Y-128739515D01*
X43987816Y-128735051D01*
X44009789Y-128719086D01*
X44159786Y-128610109D01*
X44159788Y-128610106D01*
X44159792Y-128610104D01*
X44310104Y-128459792D01*
X44310106Y-128459788D01*
X44310109Y-128459786D01*
X44435048Y-128287820D01*
X44435047Y-128287820D01*
X44435051Y-128287816D01*
X44531557Y-128098412D01*
X44597246Y-127896243D01*
X44630500Y-127686287D01*
X44630500Y-127473713D01*
X44597246Y-127263757D01*
X44531557Y-127061588D01*
X44435051Y-126872184D01*
X44435049Y-126872181D01*
X44435048Y-126872179D01*
X44310109Y-126700213D01*
X44159786Y-126549890D01*
X43987820Y-126424951D01*
X43987115Y-126424591D01*
X43979054Y-126420485D01*
X43928259Y-126372512D01*
X43911463Y-126304692D01*
X43933999Y-126238556D01*
X43979054Y-126199515D01*
X43987816Y-126195051D01*
X44009789Y-126179086D01*
X44159786Y-126070109D01*
X44159788Y-126070106D01*
X44159792Y-126070104D01*
X44310104Y-125919792D01*
X44310106Y-125919788D01*
X44310109Y-125919786D01*
X44435048Y-125747820D01*
X44435047Y-125747820D01*
X44435051Y-125747816D01*
X44531557Y-125558412D01*
X44597246Y-125356243D01*
X44630500Y-125146287D01*
X44630500Y-124933713D01*
X44597246Y-124723757D01*
X44531557Y-124521588D01*
X44435051Y-124332184D01*
X44435049Y-124332181D01*
X44435048Y-124332179D01*
X44310109Y-124160213D01*
X44159786Y-124009890D01*
X43987820Y-123884951D01*
X43987115Y-123884591D01*
X43979054Y-123880485D01*
X43928259Y-123832512D01*
X43911463Y-123764692D01*
X43933999Y-123698556D01*
X43979054Y-123659515D01*
X43987816Y-123655051D01*
X44049959Y-123609902D01*
X44159786Y-123530109D01*
X44159788Y-123530106D01*
X44159792Y-123530104D01*
X44310104Y-123379792D01*
X44310106Y-123379788D01*
X44310109Y-123379786D01*
X44435048Y-123207820D01*
X44435047Y-123207820D01*
X44435051Y-123207816D01*
X44531557Y-123018412D01*
X44597246Y-122816243D01*
X44630500Y-122606287D01*
X44630500Y-122393713D01*
X44597246Y-122183757D01*
X44531557Y-121981588D01*
X44435051Y-121792184D01*
X44435049Y-121792181D01*
X44435048Y-121792179D01*
X44310109Y-121620213D01*
X44159786Y-121469890D01*
X43987820Y-121344951D01*
X43987115Y-121344591D01*
X43979054Y-121340485D01*
X43928259Y-121292512D01*
X43911463Y-121224692D01*
X43933999Y-121158556D01*
X43979054Y-121119515D01*
X43987816Y-121115051D01*
X44009789Y-121099086D01*
X44159786Y-120990109D01*
X44159788Y-120990106D01*
X44159792Y-120990104D01*
X44310104Y-120839792D01*
X44310106Y-120839788D01*
X44310109Y-120839786D01*
X44435048Y-120667820D01*
X44435047Y-120667820D01*
X44435051Y-120667816D01*
X44531557Y-120478412D01*
X44597246Y-120276243D01*
X44630500Y-120066287D01*
X44630500Y-119853713D01*
X44597246Y-119643757D01*
X44531557Y-119441588D01*
X44435051Y-119252184D01*
X44435049Y-119252181D01*
X44435048Y-119252179D01*
X44310109Y-119080213D01*
X44159786Y-118929890D01*
X43987820Y-118804951D01*
X43987115Y-118804591D01*
X43979054Y-118800485D01*
X43928259Y-118752512D01*
X43911463Y-118684692D01*
X43933999Y-118618556D01*
X43979054Y-118579515D01*
X43987816Y-118575051D01*
X44053043Y-118527661D01*
X44159786Y-118450109D01*
X44159788Y-118450106D01*
X44159792Y-118450104D01*
X44310104Y-118299792D01*
X44310106Y-118299788D01*
X44310109Y-118299786D01*
X44435048Y-118127820D01*
X44435047Y-118127820D01*
X44435051Y-118127816D01*
X44531557Y-117938412D01*
X44597246Y-117736243D01*
X44630500Y-117526287D01*
X44630500Y-117313713D01*
X44597246Y-117103757D01*
X44531557Y-116901588D01*
X44435051Y-116712184D01*
X44435049Y-116712181D01*
X44435048Y-116712179D01*
X44310109Y-116540213D01*
X44159786Y-116389890D01*
X43987820Y-116264951D01*
X43987115Y-116264591D01*
X43979054Y-116260485D01*
X43928259Y-116212512D01*
X43911463Y-116144692D01*
X43933999Y-116078556D01*
X43979054Y-116039515D01*
X43987816Y-116035051D01*
X44088557Y-115961859D01*
X44159786Y-115910109D01*
X44159788Y-115910106D01*
X44159792Y-115910104D01*
X44310104Y-115759792D01*
X44310106Y-115759788D01*
X44310109Y-115759786D01*
X44435048Y-115587820D01*
X44435047Y-115587820D01*
X44435051Y-115587816D01*
X44531557Y-115398412D01*
X44597246Y-115196243D01*
X44630500Y-114986287D01*
X44630500Y-114773713D01*
X44597246Y-114563757D01*
X44531557Y-114361588D01*
X44531554Y-114361584D01*
X44531554Y-114361581D01*
X44435048Y-114172179D01*
X44310109Y-114000213D01*
X44159786Y-113849890D01*
X43987820Y-113724951D01*
X43987115Y-113724591D01*
X43979054Y-113720485D01*
X43928259Y-113672512D01*
X43911463Y-113604692D01*
X43933999Y-113538556D01*
X43979054Y-113499515D01*
X43987816Y-113495051D01*
X44009789Y-113479086D01*
X44159786Y-113370109D01*
X44159788Y-113370106D01*
X44159792Y-113370104D01*
X44310104Y-113219792D01*
X44310106Y-113219788D01*
X44310109Y-113219786D01*
X44435048Y-113047820D01*
X44435047Y-113047820D01*
X44435051Y-113047816D01*
X44531557Y-112858412D01*
X44597246Y-112656243D01*
X44630500Y-112446287D01*
X44630500Y-112233713D01*
X44597246Y-112023757D01*
X44531557Y-111821588D01*
X44435051Y-111632184D01*
X44435049Y-111632181D01*
X44435048Y-111632179D01*
X44310109Y-111460213D01*
X44159786Y-111309890D01*
X43987820Y-111184951D01*
X43987115Y-111184591D01*
X43979054Y-111180485D01*
X43928259Y-111132512D01*
X43911463Y-111064692D01*
X43933999Y-110998556D01*
X43979054Y-110959515D01*
X43987816Y-110955051D01*
X44009789Y-110939086D01*
X44159786Y-110830109D01*
X44159788Y-110830106D01*
X44159792Y-110830104D01*
X44310104Y-110679792D01*
X44310106Y-110679788D01*
X44310109Y-110679786D01*
X44435048Y-110507820D01*
X44435047Y-110507820D01*
X44435051Y-110507816D01*
X44531557Y-110318412D01*
X44597246Y-110116243D01*
X44630500Y-109906287D01*
X44630500Y-109693713D01*
X44597246Y-109483757D01*
X44531557Y-109281588D01*
X44435051Y-109092184D01*
X44435049Y-109092181D01*
X44435048Y-109092179D01*
X44310109Y-108920213D01*
X44159786Y-108769890D01*
X43987817Y-108644949D01*
X43978504Y-108640204D01*
X43927707Y-108592230D01*
X43910912Y-108524409D01*
X43933449Y-108458274D01*
X43978507Y-108419232D01*
X43987548Y-108414625D01*
X43987552Y-108414622D01*
X44123626Y-108315758D01*
X44123627Y-108315758D01*
X43511538Y-107703670D01*
X43587007Y-107660099D01*
X43680099Y-107567007D01*
X43723670Y-107491539D01*
X44335758Y-108103627D01*
X44335758Y-108103626D01*
X44434622Y-107967552D01*
X44434626Y-107967546D01*
X44531095Y-107778217D01*
X44596757Y-107576130D01*
X44596757Y-107576127D01*
X44630000Y-107366246D01*
X44630000Y-107153753D01*
X44596757Y-106943872D01*
X44596757Y-106943869D01*
X44531095Y-106741782D01*
X44434622Y-106552445D01*
X44335758Y-106416372D01*
X44335758Y-106416371D01*
X43723670Y-107028460D01*
X43680099Y-106952993D01*
X43587007Y-106859901D01*
X43511539Y-106816329D01*
X44123627Y-106204241D01*
X44123626Y-106204240D01*
X43987551Y-106105375D01*
X43978500Y-106100763D01*
X43927706Y-106052788D01*
X43910912Y-105984966D01*
X43933451Y-105918832D01*
X43978508Y-105879793D01*
X43987816Y-105875051D01*
X44103111Y-105791285D01*
X44159786Y-105750109D01*
X44159788Y-105750106D01*
X44159792Y-105750104D01*
X44310104Y-105599792D01*
X44310106Y-105599788D01*
X44310109Y-105599786D01*
X44435048Y-105427820D01*
X44435047Y-105427820D01*
X44435051Y-105427816D01*
X44531557Y-105238412D01*
X44597246Y-105036243D01*
X44630500Y-104826287D01*
X44630500Y-104613713D01*
X44597246Y-104403757D01*
X44531557Y-104201588D01*
X44435051Y-104012184D01*
X44435049Y-104012181D01*
X44435048Y-104012179D01*
X44310109Y-103840213D01*
X44159786Y-103689890D01*
X43987820Y-103564951D01*
X43987115Y-103564591D01*
X43979054Y-103560485D01*
X43928259Y-103512512D01*
X43911463Y-103444692D01*
X43933999Y-103378556D01*
X43979054Y-103339515D01*
X43987816Y-103335051D01*
X44009789Y-103319086D01*
X44159786Y-103210109D01*
X44159788Y-103210106D01*
X44159792Y-103210104D01*
X44310104Y-103059792D01*
X44310106Y-103059788D01*
X44310109Y-103059786D01*
X44435048Y-102887820D01*
X44435047Y-102887820D01*
X44435051Y-102887816D01*
X44531557Y-102698412D01*
X44597246Y-102496243D01*
X44630500Y-102286287D01*
X44630500Y-102073713D01*
X44597246Y-101863757D01*
X44555067Y-101733945D01*
X46819500Y-101733945D01*
X46819500Y-101926055D01*
X46820991Y-101935466D01*
X46849553Y-102115802D01*
X46908916Y-102298506D01*
X46945587Y-102370476D01*
X46996135Y-102469681D01*
X47109055Y-102625102D01*
X47244898Y-102760945D01*
X47400319Y-102873865D01*
X47557029Y-102953713D01*
X47571493Y-102961083D01*
X47662845Y-102990764D01*
X47754199Y-103020447D01*
X47943945Y-103050500D01*
X47943946Y-103050500D01*
X48136054Y-103050500D01*
X48136055Y-103050500D01*
X48325801Y-103020447D01*
X48508509Y-102961082D01*
X48679681Y-102873865D01*
X48782616Y-102799078D01*
X48848420Y-102775599D01*
X48916474Y-102791424D01*
X48965169Y-102841530D01*
X48979500Y-102899397D01*
X48979500Y-103777475D01*
X48975275Y-103809568D01*
X48959499Y-103868445D01*
X48959499Y-104036548D01*
X48959500Y-104036561D01*
X48959500Y-123609902D01*
X48939815Y-123676941D01*
X48923181Y-123697583D01*
X48834842Y-123785922D01*
X48773519Y-123819407D01*
X48708843Y-123816172D01*
X48694534Y-123811523D01*
X48694528Y-123811522D01*
X48492352Y-123779500D01*
X48287648Y-123779500D01*
X48263329Y-123783351D01*
X48085465Y-123811522D01*
X47890776Y-123874781D01*
X47708386Y-123967715D01*
X47542786Y-124088028D01*
X47398028Y-124232786D01*
X47277715Y-124398386D01*
X47184781Y-124580776D01*
X47121522Y-124775465D01*
X47089500Y-124977648D01*
X47089500Y-125182351D01*
X47121522Y-125384534D01*
X47184781Y-125579223D01*
X47277715Y-125761613D01*
X47398028Y-125927213D01*
X47542786Y-126071971D01*
X47697749Y-126184556D01*
X47708390Y-126192287D01*
X47799198Y-126238556D01*
X47890776Y-126285218D01*
X47890778Y-126285218D01*
X47890781Y-126285220D01*
X47950710Y-126304692D01*
X48085465Y-126348477D01*
X48186557Y-126364488D01*
X48287648Y-126380500D01*
X48287649Y-126380500D01*
X48492351Y-126380500D01*
X48492352Y-126380500D01*
X48694534Y-126348477D01*
X48889219Y-126285220D01*
X49071610Y-126192287D01*
X49164590Y-126124732D01*
X49237213Y-126071971D01*
X49237215Y-126071968D01*
X49237219Y-126071966D01*
X49381966Y-125927219D01*
X49381968Y-125927215D01*
X49381971Y-125927213D01*
X49434732Y-125854590D01*
X49502287Y-125761610D01*
X49595220Y-125579219D01*
X49658477Y-125384534D01*
X49690500Y-125182352D01*
X49690500Y-124977648D01*
X49658477Y-124775466D01*
X49653825Y-124761151D01*
X49651832Y-124691312D01*
X49684075Y-124635158D01*
X49918506Y-124400728D01*
X49918511Y-124400724D01*
X49928714Y-124390520D01*
X49928716Y-124390520D01*
X50040520Y-124278716D01*
X50112889Y-124153368D01*
X50119577Y-124141785D01*
X50160501Y-123989057D01*
X50160501Y-123830943D01*
X50160501Y-123823348D01*
X50160500Y-123823330D01*
X50160500Y-118372682D01*
X95620000Y-118372682D01*
X95620000Y-118577317D01*
X95652009Y-118779417D01*
X95715244Y-118974031D01*
X95808141Y-119156350D01*
X95808147Y-119156359D01*
X95900033Y-119282831D01*
X95900035Y-119282832D01*
X96549533Y-118633334D01*
X96599920Y-118720606D01*
X96674394Y-118795080D01*
X96761665Y-118845465D01*
X96112166Y-119494963D01*
X96238650Y-119586859D01*
X96420968Y-119679755D01*
X96615582Y-119742990D01*
X96817683Y-119775000D01*
X97022317Y-119775000D01*
X97224417Y-119742990D01*
X97419031Y-119679755D01*
X97601349Y-119586859D01*
X97727831Y-119494963D01*
X97727832Y-119494963D01*
X97078334Y-118845466D01*
X97165606Y-118795080D01*
X97240080Y-118720606D01*
X97290465Y-118633334D01*
X97939963Y-119282832D01*
X97939963Y-119282831D01*
X98031859Y-119156349D01*
X98124755Y-118974031D01*
X98187990Y-118779417D01*
X98220000Y-118577317D01*
X98220000Y-118372682D01*
X98187990Y-118170582D01*
X98124755Y-117975968D01*
X98031859Y-117793650D01*
X97939963Y-117667167D01*
X97939963Y-117667166D01*
X97290465Y-118316664D01*
X97240080Y-118229394D01*
X97165606Y-118154920D01*
X97078334Y-118104534D01*
X97727832Y-117455035D01*
X97727831Y-117455033D01*
X97601359Y-117363147D01*
X97601350Y-117363141D01*
X97419031Y-117270244D01*
X97224417Y-117207009D01*
X97022317Y-117175000D01*
X96817683Y-117175000D01*
X96615582Y-117207009D01*
X96420968Y-117270244D01*
X96238647Y-117363142D01*
X96112167Y-117455034D01*
X96112167Y-117455035D01*
X96761665Y-118104533D01*
X96674394Y-118154920D01*
X96599920Y-118229394D01*
X96549533Y-118316665D01*
X95900035Y-117667167D01*
X95900034Y-117667167D01*
X95808142Y-117793647D01*
X95715244Y-117975968D01*
X95652009Y-118170582D01*
X95620000Y-118372682D01*
X50160500Y-118372682D01*
X50160500Y-114747682D01*
X57500000Y-114747682D01*
X57500000Y-114952317D01*
X57532009Y-115154417D01*
X57595244Y-115349031D01*
X57688141Y-115531350D01*
X57688147Y-115531359D01*
X57780033Y-115657831D01*
X57780035Y-115657832D01*
X58429533Y-115008334D01*
X58479920Y-115095606D01*
X58554394Y-115170080D01*
X58641665Y-115220465D01*
X57992166Y-115869963D01*
X58118650Y-115961859D01*
X58300968Y-116054755D01*
X58495582Y-116117990D01*
X58697683Y-116150000D01*
X58902317Y-116150000D01*
X59104417Y-116117990D01*
X59299031Y-116054755D01*
X59481349Y-115961859D01*
X59607831Y-115869963D01*
X59607832Y-115869963D01*
X58958334Y-115220466D01*
X59045606Y-115170080D01*
X59120080Y-115095606D01*
X59170466Y-115008334D01*
X59819963Y-115657832D01*
X59819963Y-115657831D01*
X59911859Y-115531349D01*
X60004755Y-115349031D01*
X60067990Y-115154417D01*
X60100000Y-114952317D01*
X60100000Y-114747682D01*
X60067990Y-114545582D01*
X60004755Y-114350968D01*
X59911859Y-114168650D01*
X59819963Y-114042167D01*
X59819963Y-114042166D01*
X59170465Y-114691664D01*
X59120080Y-114604394D01*
X59045606Y-114529920D01*
X58958334Y-114479534D01*
X59607832Y-113830035D01*
X59607831Y-113830033D01*
X59481359Y-113738147D01*
X59481350Y-113738141D01*
X59299031Y-113645244D01*
X59104417Y-113582009D01*
X58902317Y-113550000D01*
X58697683Y-113550000D01*
X58495582Y-113582009D01*
X58300968Y-113645244D01*
X58118647Y-113738142D01*
X57992167Y-113830034D01*
X57992167Y-113830035D01*
X58641665Y-114479533D01*
X58554394Y-114529920D01*
X58479920Y-114604394D01*
X58429533Y-114691665D01*
X57780035Y-114042167D01*
X57780034Y-114042167D01*
X57688142Y-114168647D01*
X57595244Y-114350968D01*
X57532009Y-114545582D01*
X57500000Y-114747682D01*
X50160500Y-114747682D01*
X50160500Y-105683949D01*
X50180185Y-105616910D01*
X50232989Y-105571155D01*
X50302147Y-105561211D01*
X50303899Y-105561476D01*
X50483986Y-105590000D01*
X50676015Y-105590000D01*
X50865684Y-105559959D01*
X51048321Y-105500616D01*
X51219422Y-105413434D01*
X51330557Y-105332691D01*
X51330558Y-105332689D01*
X50738334Y-104740465D01*
X50825606Y-104690080D01*
X50900080Y-104615606D01*
X50950465Y-104528334D01*
X51542689Y-105120558D01*
X51542691Y-105120557D01*
X51623434Y-105009422D01*
X51710616Y-104838321D01*
X51769959Y-104655684D01*
X51800000Y-104466015D01*
X51800000Y-104273984D01*
X51769959Y-104084315D01*
X51710616Y-103901678D01*
X51623438Y-103730584D01*
X51542689Y-103619441D01*
X51542688Y-103619441D01*
X50950465Y-104211663D01*
X50900080Y-104124394D01*
X50825606Y-104049920D01*
X50738332Y-103999533D01*
X51330557Y-103407309D01*
X51219415Y-103326561D01*
X51048321Y-103239383D01*
X50865684Y-103180040D01*
X50676015Y-103150000D01*
X50483985Y-103150000D01*
X50323898Y-103175355D01*
X50254604Y-103166400D01*
X50201152Y-103121404D01*
X50180513Y-103054652D01*
X50180500Y-103052882D01*
X50180500Y-100607623D01*
X50200185Y-100540584D01*
X50252989Y-100494829D01*
X50322147Y-100484885D01*
X50323752Y-100485127D01*
X50483945Y-100510500D01*
X50483947Y-100510500D01*
X50676054Y-100510500D01*
X50676055Y-100510500D01*
X50865801Y-100480447D01*
X51048509Y-100421082D01*
X51219681Y-100333865D01*
X51375102Y-100220945D01*
X51510945Y-100085102D01*
X51615195Y-99941613D01*
X51670525Y-99898949D01*
X51715513Y-99890500D01*
X54777696Y-99890500D01*
X54777712Y-99890501D01*
X54785308Y-99890501D01*
X54943419Y-99890501D01*
X54943422Y-99890501D01*
X55096150Y-99849577D01*
X55160916Y-99812184D01*
X55233081Y-99770520D01*
X55344885Y-99658716D01*
X55344885Y-99658714D01*
X55355089Y-99648511D01*
X55355092Y-99648506D01*
X57424338Y-97579262D01*
X57485656Y-97545780D01*
X57555348Y-97550764D01*
X57611281Y-97592636D01*
X57622498Y-97610651D01*
X57638135Y-97641340D01*
X57638147Y-97641359D01*
X57730033Y-97767831D01*
X57730035Y-97767832D01*
X58379533Y-97118334D01*
X58429920Y-97205606D01*
X58504394Y-97280080D01*
X58591663Y-97330465D01*
X57942166Y-97979963D01*
X58068650Y-98071859D01*
X58250968Y-98164755D01*
X58445582Y-98227990D01*
X58647683Y-98260000D01*
X58852317Y-98260000D01*
X59054417Y-98227990D01*
X59249031Y-98164755D01*
X59431349Y-98071859D01*
X59557831Y-97979963D01*
X59557832Y-97979963D01*
X58908334Y-97330465D01*
X58995606Y-97280080D01*
X59070080Y-97205606D01*
X59120465Y-97118334D01*
X59769963Y-97767832D01*
X59769963Y-97767831D01*
X59861859Y-97641349D01*
X59954755Y-97459031D01*
X60017990Y-97264417D01*
X60050000Y-97062317D01*
X60050000Y-96857682D01*
X60017990Y-96655582D01*
X60004095Y-96612819D01*
X60002100Y-96542978D01*
X60038180Y-96483145D01*
X60100880Y-96452316D01*
X60122026Y-96450500D01*
X62377449Y-96450500D01*
X62444488Y-96470185D01*
X62490243Y-96522989D01*
X62500187Y-96592147D01*
X62495380Y-96612819D01*
X62481522Y-96655465D01*
X62449500Y-96857648D01*
X62449500Y-97062351D01*
X62481522Y-97264534D01*
X62544781Y-97459223D01*
X62605947Y-97579265D01*
X62637585Y-97641359D01*
X62637715Y-97641613D01*
X62758028Y-97807213D01*
X62902786Y-97951971D01*
X62989843Y-98015220D01*
X63068390Y-98072287D01*
X63184607Y-98131503D01*
X63250776Y-98165218D01*
X63250778Y-98165218D01*
X63250781Y-98165220D01*
X63333466Y-98192086D01*
X63445465Y-98228477D01*
X63546557Y-98244488D01*
X63647648Y-98260500D01*
X63647649Y-98260500D01*
X63852351Y-98260500D01*
X63852352Y-98260500D01*
X64054534Y-98228477D01*
X64068842Y-98223827D01*
X64138682Y-98221831D01*
X64194842Y-98254077D01*
X67378583Y-101437819D01*
X67412068Y-101499142D01*
X67407084Y-101568834D01*
X67365212Y-101624767D01*
X67299748Y-101649184D01*
X67290902Y-101649500D01*
X65640943Y-101649500D01*
X65488212Y-101690423D01*
X65455175Y-101709499D01*
X65455172Y-101709500D01*
X65351290Y-101769475D01*
X65351282Y-101769481D01*
X65239478Y-101881286D01*
X64934532Y-102186231D01*
X64873209Y-102219716D01*
X64827453Y-102221023D01*
X64628422Y-102189500D01*
X64628417Y-102189500D01*
X64431583Y-102189500D01*
X64431578Y-102189500D01*
X64237173Y-102220290D01*
X64049970Y-102281117D01*
X63874594Y-102370476D01*
X63824949Y-102406546D01*
X63715354Y-102486172D01*
X63715352Y-102486174D01*
X63715351Y-102486174D01*
X63576174Y-102625351D01*
X63576174Y-102625352D01*
X63576172Y-102625354D01*
X63551072Y-102659901D01*
X63460476Y-102784594D01*
X63371117Y-102959970D01*
X63310290Y-103147173D01*
X63279500Y-103341577D01*
X63279500Y-103538422D01*
X63310290Y-103732826D01*
X63371117Y-103920029D01*
X63433124Y-104041723D01*
X63460476Y-104095405D01*
X63576172Y-104254646D01*
X63715354Y-104393828D01*
X63874595Y-104509524D01*
X63957455Y-104551743D01*
X64049970Y-104598882D01*
X64049972Y-104598882D01*
X64049975Y-104598884D01*
X64095614Y-104613713D01*
X64237173Y-104659709D01*
X64431578Y-104690500D01*
X64431583Y-104690500D01*
X64628422Y-104690500D01*
X64722666Y-104675572D01*
X64822826Y-104659709D01*
X64822831Y-104659707D01*
X64822833Y-104659707D01*
X64862252Y-104646899D01*
X64932093Y-104644902D01*
X64991927Y-104680982D01*
X65022756Y-104743682D01*
X65014792Y-104813097D01*
X64988253Y-104852510D01*
X64161286Y-105679478D01*
X64049481Y-105791282D01*
X64049479Y-105791285D01*
X64001118Y-105875051D01*
X64001117Y-105875052D01*
X63975840Y-105918832D01*
X63970423Y-105928215D01*
X63929499Y-106080943D01*
X63929499Y-106080945D01*
X63929499Y-106249046D01*
X63929500Y-106249059D01*
X63929500Y-107147403D01*
X63909815Y-107214442D01*
X63878386Y-107247721D01*
X63715352Y-107366173D01*
X63576174Y-107505351D01*
X63576174Y-107505352D01*
X63576172Y-107505354D01*
X63531378Y-107567007D01*
X63460476Y-107664594D01*
X63371117Y-107839970D01*
X63310290Y-108027173D01*
X63279500Y-108221577D01*
X63279500Y-108418422D01*
X63310290Y-108612826D01*
X63371117Y-108800029D01*
X63432352Y-108920208D01*
X63460476Y-108975405D01*
X63576172Y-109134646D01*
X63715354Y-109273828D01*
X63874595Y-109389524D01*
X63878386Y-109392278D01*
X63921051Y-109447608D01*
X63929500Y-109492596D01*
X63929500Y-113425500D01*
X63909815Y-113492539D01*
X63857011Y-113538294D01*
X63805500Y-113549500D01*
X63697648Y-113549500D01*
X63673329Y-113553351D01*
X63495465Y-113581522D01*
X63300776Y-113644781D01*
X63118386Y-113737715D01*
X62952786Y-113858028D01*
X62808028Y-114002786D01*
X62687715Y-114168386D01*
X62594781Y-114350776D01*
X62531522Y-114545465D01*
X62499500Y-114747648D01*
X62499500Y-114952351D01*
X62531522Y-115154534D01*
X62594781Y-115349223D01*
X62619846Y-115398414D01*
X62687585Y-115531359D01*
X62687715Y-115531613D01*
X62808028Y-115697213D01*
X62952786Y-115841971D01*
X63076656Y-115931966D01*
X63118390Y-115962287D01*
X63234607Y-116021503D01*
X63300776Y-116055218D01*
X63300778Y-116055218D01*
X63300781Y-116055220D01*
X63372602Y-116078556D01*
X63495465Y-116118477D01*
X63596557Y-116134488D01*
X63697648Y-116150500D01*
X63697649Y-116150500D01*
X63902351Y-116150500D01*
X63902352Y-116150500D01*
X64104534Y-116118477D01*
X64299219Y-116055220D01*
X64481610Y-115962287D01*
X64574590Y-115894732D01*
X64647213Y-115841971D01*
X64647215Y-115841968D01*
X64647219Y-115841966D01*
X64791966Y-115697219D01*
X64791968Y-115697215D01*
X64791971Y-115697213D01*
X64871451Y-115587816D01*
X64912287Y-115531610D01*
X65005220Y-115349219D01*
X65068477Y-115154534D01*
X65100500Y-114952352D01*
X65100500Y-114747648D01*
X65068477Y-114545466D01*
X65052865Y-114497420D01*
X65050871Y-114427583D01*
X65063406Y-114397112D01*
X65083917Y-114361588D01*
X65089577Y-114351785D01*
X65130501Y-114199057D01*
X65130501Y-114040943D01*
X65130501Y-114033348D01*
X65130500Y-114033330D01*
X65130500Y-109492596D01*
X65150185Y-109425557D01*
X65181614Y-109392278D01*
X65185403Y-109389524D01*
X65185405Y-109389524D01*
X65344646Y-109273828D01*
X65483828Y-109134646D01*
X65599524Y-108975405D01*
X65688884Y-108800025D01*
X65749709Y-108612826D01*
X65753324Y-108590000D01*
X65780500Y-108418422D01*
X65780500Y-108221577D01*
X65749709Y-108027173D01*
X65688882Y-107839970D01*
X65599523Y-107664594D01*
X65576849Y-107633386D01*
X65483828Y-107505354D01*
X65344646Y-107366172D01*
X65285264Y-107323028D01*
X65181614Y-107247721D01*
X65138949Y-107192390D01*
X65130500Y-107147403D01*
X65130500Y-106460097D01*
X65150185Y-106393058D01*
X65166819Y-106372416D01*
X66122417Y-105416819D01*
X66183740Y-105383334D01*
X66210098Y-105380500D01*
X68530398Y-105380500D01*
X68597437Y-105400185D01*
X68640883Y-105448205D01*
X68647715Y-105461614D01*
X68768028Y-105627213D01*
X68912786Y-105771971D01*
X69054662Y-105875048D01*
X69078390Y-105892287D01*
X69148903Y-105928215D01*
X69171080Y-105939515D01*
X69221876Y-105987490D01*
X69238671Y-106055311D01*
X69216134Y-106121446D01*
X69171080Y-106160485D01*
X69078386Y-106207715D01*
X68912786Y-106328028D01*
X68768028Y-106472786D01*
X68647715Y-106638386D01*
X68554781Y-106820776D01*
X68491522Y-107015465D01*
X68459500Y-107217648D01*
X68459500Y-107422351D01*
X68491522Y-107624534D01*
X68554781Y-107819223D01*
X68618691Y-107944653D01*
X68630356Y-107967546D01*
X68647715Y-108001613D01*
X68768028Y-108167213D01*
X68912786Y-108311971D01*
X69059299Y-108418417D01*
X69078390Y-108432287D01*
X69169840Y-108478883D01*
X69171080Y-108479515D01*
X69221876Y-108527490D01*
X69238671Y-108595311D01*
X69216134Y-108661446D01*
X69171080Y-108700485D01*
X69078386Y-108747715D01*
X68912786Y-108868028D01*
X68768028Y-109012786D01*
X68647715Y-109178386D01*
X68554781Y-109360776D01*
X68491522Y-109555465D01*
X68459500Y-109757648D01*
X68459500Y-109962351D01*
X68491522Y-110164534D01*
X68554781Y-110359223D01*
X68618691Y-110484653D01*
X68620166Y-110487547D01*
X68647715Y-110541613D01*
X68768028Y-110707213D01*
X68912786Y-110851971D01*
X69054662Y-110955048D01*
X69078390Y-110972287D01*
X69147482Y-111007491D01*
X69171080Y-111019515D01*
X69221876Y-111067490D01*
X69238671Y-111135311D01*
X69216134Y-111201446D01*
X69171080Y-111240485D01*
X69078386Y-111287715D01*
X68912786Y-111408028D01*
X68768028Y-111552786D01*
X68647715Y-111718386D01*
X68554781Y-111900776D01*
X68491522Y-112095465D01*
X68459500Y-112297646D01*
X68459500Y-112502351D01*
X68491522Y-112704534D01*
X68554781Y-112899223D01*
X68589731Y-112967815D01*
X68640725Y-113067896D01*
X68647715Y-113081613D01*
X68768028Y-113247213D01*
X68912786Y-113391971D01*
X69051209Y-113492539D01*
X69078390Y-113512287D01*
X69147482Y-113547491D01*
X69171080Y-113559515D01*
X69221876Y-113607490D01*
X69238671Y-113675311D01*
X69216134Y-113741446D01*
X69171080Y-113780485D01*
X69078386Y-113827715D01*
X68912786Y-113948028D01*
X68768028Y-114092786D01*
X68647715Y-114258386D01*
X68554781Y-114440776D01*
X68491522Y-114635465D01*
X68459500Y-114837648D01*
X68459500Y-115042351D01*
X68491522Y-115244534D01*
X68554781Y-115439223D01*
X68647715Y-115621613D01*
X68768028Y-115787213D01*
X68912786Y-115931971D01*
X69054662Y-116035048D01*
X69078390Y-116052287D01*
X69147482Y-116087491D01*
X69260776Y-116145218D01*
X69260778Y-116145218D01*
X69260781Y-116145220D01*
X69332254Y-116168443D01*
X69455465Y-116208477D01*
X69537354Y-116221447D01*
X69657648Y-116240500D01*
X69657649Y-116240500D01*
X69862351Y-116240500D01*
X69862352Y-116240500D01*
X70064534Y-116208477D01*
X70259219Y-116145220D01*
X70441610Y-116052287D01*
X70534590Y-115984732D01*
X70607213Y-115931971D01*
X70607215Y-115931968D01*
X70607219Y-115931966D01*
X70751966Y-115787219D01*
X70751968Y-115787215D01*
X70751971Y-115787213D01*
X70845971Y-115657831D01*
X70872287Y-115621610D01*
X70965220Y-115439219D01*
X71028477Y-115244534D01*
X71060500Y-115042352D01*
X71060500Y-114837648D01*
X71046245Y-114747648D01*
X71028477Y-114635465D01*
X70965218Y-114440776D01*
X70924869Y-114361588D01*
X70872287Y-114258390D01*
X70864556Y-114247749D01*
X70751971Y-114092786D01*
X70607213Y-113948028D01*
X70441614Y-113827715D01*
X70435006Y-113824348D01*
X70348917Y-113780483D01*
X70298123Y-113732511D01*
X70281328Y-113664690D01*
X70303865Y-113598555D01*
X70348917Y-113559516D01*
X70441610Y-113512287D01*
X70468791Y-113492539D01*
X70607213Y-113391971D01*
X70607215Y-113391968D01*
X70607219Y-113391966D01*
X70751966Y-113247219D01*
X70751968Y-113247215D01*
X70751971Y-113247213D01*
X70807705Y-113170500D01*
X70872287Y-113081610D01*
X70965220Y-112899219D01*
X71028477Y-112704534D01*
X71060500Y-112502352D01*
X71060500Y-112297648D01*
X71028477Y-112095466D01*
X70965220Y-111900781D01*
X70965218Y-111900778D01*
X70965218Y-111900776D01*
X70924869Y-111821588D01*
X70872287Y-111718390D01*
X70864556Y-111707749D01*
X70751971Y-111552786D01*
X70607213Y-111408028D01*
X70441614Y-111287715D01*
X70435006Y-111284348D01*
X70348917Y-111240483D01*
X70298123Y-111192511D01*
X70281328Y-111124690D01*
X70303865Y-111058555D01*
X70348917Y-111019516D01*
X70441610Y-110972287D01*
X70465338Y-110955048D01*
X70607213Y-110851971D01*
X70607215Y-110851968D01*
X70607219Y-110851966D01*
X70751966Y-110707219D01*
X70751968Y-110707215D01*
X70751971Y-110707213D01*
X70807706Y-110630499D01*
X70872287Y-110541610D01*
X70965220Y-110359219D01*
X71028477Y-110164534D01*
X71060500Y-109962352D01*
X71060500Y-109757648D01*
X71028477Y-109555466D01*
X70965220Y-109360781D01*
X70965218Y-109360778D01*
X70965218Y-109360776D01*
X70924869Y-109281588D01*
X70872287Y-109178390D01*
X70840506Y-109134647D01*
X70751971Y-109012786D01*
X70607213Y-108868028D01*
X70441614Y-108747715D01*
X70435006Y-108744348D01*
X70348917Y-108700483D01*
X70298123Y-108652511D01*
X70281328Y-108584690D01*
X70303865Y-108518555D01*
X70348917Y-108479516D01*
X70441610Y-108432287D01*
X70465924Y-108414622D01*
X70607213Y-108311971D01*
X70607215Y-108311968D01*
X70607219Y-108311966D01*
X70751966Y-108167219D01*
X70751968Y-108167215D01*
X70751971Y-108167213D01*
X70804732Y-108094590D01*
X70872287Y-108001610D01*
X70965220Y-107819219D01*
X71028477Y-107624534D01*
X71060500Y-107422352D01*
X71060500Y-107217648D01*
X71058135Y-107202715D01*
X71028477Y-107015465D01*
X70965218Y-106820776D01*
X70914514Y-106721265D01*
X70872287Y-106638390D01*
X70809843Y-106552442D01*
X70751971Y-106472786D01*
X70607213Y-106328028D01*
X70441614Y-106207715D01*
X70434792Y-106204239D01*
X70348917Y-106160483D01*
X70298123Y-106112511D01*
X70281328Y-106044690D01*
X70303865Y-105978555D01*
X70348917Y-105939516D01*
X70441610Y-105892287D01*
X70465338Y-105875048D01*
X70607213Y-105771971D01*
X70607215Y-105771968D01*
X70607219Y-105771966D01*
X70751966Y-105627219D01*
X70751968Y-105627215D01*
X70751971Y-105627213D01*
X70804732Y-105554590D01*
X70872287Y-105461610D01*
X70965220Y-105279219D01*
X71028477Y-105084534D01*
X71060500Y-104882352D01*
X71060500Y-104677648D01*
X71048325Y-104600781D01*
X71028477Y-104475465D01*
X70977098Y-104317339D01*
X70965220Y-104280781D01*
X70965218Y-104280778D01*
X70965218Y-104280776D01*
X70924869Y-104201588D01*
X70872287Y-104098390D01*
X70837072Y-104049920D01*
X70751971Y-103932786D01*
X70607213Y-103788028D01*
X70441614Y-103667715D01*
X70427454Y-103660500D01*
X70348917Y-103620483D01*
X70298123Y-103572511D01*
X70281328Y-103504690D01*
X70303865Y-103438555D01*
X70348917Y-103399516D01*
X70441610Y-103352287D01*
X70578278Y-103252993D01*
X70607213Y-103231971D01*
X70607215Y-103231968D01*
X70607219Y-103231966D01*
X70751966Y-103087219D01*
X70751968Y-103087215D01*
X70751971Y-103087213D01*
X70804732Y-103014590D01*
X70872287Y-102921610D01*
X70965220Y-102739219D01*
X71028477Y-102544534D01*
X71060500Y-102342352D01*
X71060500Y-102137648D01*
X71050374Y-102073713D01*
X71028477Y-101935465D01*
X70987205Y-101808443D01*
X70965220Y-101740781D01*
X70965218Y-101740778D01*
X70965218Y-101740776D01*
X70924869Y-101661588D01*
X70872287Y-101558390D01*
X70861975Y-101544197D01*
X70751971Y-101392786D01*
X70607213Y-101248028D01*
X70441611Y-101127713D01*
X70348369Y-101080203D01*
X70297574Y-101032229D01*
X70280779Y-100964407D01*
X70303317Y-100898273D01*
X70348371Y-100859234D01*
X70441347Y-100811861D01*
X70567831Y-100719963D01*
X70567832Y-100719963D01*
X69918334Y-100070466D01*
X70005606Y-100020080D01*
X70080080Y-99945606D01*
X70130466Y-99858334D01*
X70779963Y-100507832D01*
X70779963Y-100507831D01*
X70871859Y-100381349D01*
X70964755Y-100199031D01*
X71027990Y-100004417D01*
X71060000Y-99802317D01*
X71060000Y-99597682D01*
X71027990Y-99395582D01*
X70964755Y-99200968D01*
X70871859Y-99018650D01*
X70779963Y-98892167D01*
X70779963Y-98892166D01*
X70130465Y-99541664D01*
X70080080Y-99454394D01*
X70005606Y-99379920D01*
X69918334Y-99329534D01*
X70567832Y-98680035D01*
X70567831Y-98680033D01*
X70441359Y-98588147D01*
X70441350Y-98588141D01*
X70348369Y-98540765D01*
X70297573Y-98492790D01*
X70280778Y-98424969D01*
X70303315Y-98358835D01*
X70348370Y-98319795D01*
X70373109Y-98307190D01*
X70441610Y-98272287D01*
X70540629Y-98200346D01*
X70607213Y-98151971D01*
X70607215Y-98151968D01*
X70607219Y-98151966D01*
X70751966Y-98007219D01*
X70751968Y-98007215D01*
X70751971Y-98007213D01*
X70872286Y-97841611D01*
X70872415Y-97841359D01*
X70884212Y-97818206D01*
X70932186Y-97767410D01*
X70994697Y-97750500D01*
X71719903Y-97750500D01*
X71786942Y-97770185D01*
X71807584Y-97786819D01*
X75845139Y-101824374D01*
X75845149Y-101824385D01*
X75849479Y-101828715D01*
X75849480Y-101828716D01*
X75961284Y-101940520D01*
X76024396Y-101976957D01*
X76072612Y-102027524D01*
X76085836Y-102096131D01*
X76084870Y-102103742D01*
X76079500Y-102137648D01*
X76079500Y-102342352D01*
X76081098Y-102352443D01*
X76111522Y-102544534D01*
X76174781Y-102739223D01*
X76267715Y-102921613D01*
X76388028Y-103087213D01*
X76532786Y-103231971D01*
X76662981Y-103326561D01*
X76698390Y-103352287D01*
X76767482Y-103387491D01*
X76791080Y-103399515D01*
X76841876Y-103447490D01*
X76858671Y-103515311D01*
X76836134Y-103581446D01*
X76791080Y-103620485D01*
X76698386Y-103667715D01*
X76532786Y-103788028D01*
X76388028Y-103932786D01*
X76267715Y-104098386D01*
X76174781Y-104280776D01*
X76111522Y-104475465D01*
X76079500Y-104677648D01*
X76079500Y-104882351D01*
X76111522Y-105084534D01*
X76174781Y-105279223D01*
X76267715Y-105461613D01*
X76388028Y-105627213D01*
X76532786Y-105771971D01*
X76674662Y-105875048D01*
X76698390Y-105892287D01*
X76768903Y-105928215D01*
X76791080Y-105939515D01*
X76841876Y-105987490D01*
X76858671Y-106055311D01*
X76836134Y-106121446D01*
X76791080Y-106160485D01*
X76698386Y-106207715D01*
X76532786Y-106328028D01*
X76388028Y-106472786D01*
X76267715Y-106638386D01*
X76174781Y-106820776D01*
X76111522Y-107015465D01*
X76079500Y-107217648D01*
X76079500Y-107422351D01*
X76111522Y-107624534D01*
X76174781Y-107819223D01*
X76238691Y-107944653D01*
X76250356Y-107967546D01*
X76267715Y-108001613D01*
X76388028Y-108167213D01*
X76532786Y-108311971D01*
X76679299Y-108418417D01*
X76698390Y-108432287D01*
X76789840Y-108478883D01*
X76791080Y-108479515D01*
X76841876Y-108527490D01*
X76858671Y-108595311D01*
X76836134Y-108661446D01*
X76791080Y-108700485D01*
X76698386Y-108747715D01*
X76532786Y-108868028D01*
X76388028Y-109012786D01*
X76267715Y-109178386D01*
X76174781Y-109360776D01*
X76111522Y-109555465D01*
X76079500Y-109757648D01*
X76079500Y-109962351D01*
X76111522Y-110164534D01*
X76174781Y-110359223D01*
X76238691Y-110484653D01*
X76240166Y-110487547D01*
X76267715Y-110541613D01*
X76388028Y-110707213D01*
X76532786Y-110851971D01*
X76674662Y-110955048D01*
X76698390Y-110972287D01*
X76767482Y-111007491D01*
X76791080Y-111019515D01*
X76841876Y-111067490D01*
X76858671Y-111135311D01*
X76836134Y-111201446D01*
X76791080Y-111240485D01*
X76698386Y-111287715D01*
X76532786Y-111408028D01*
X76388028Y-111552786D01*
X76267715Y-111718386D01*
X76174781Y-111900776D01*
X76111522Y-112095465D01*
X76079500Y-112297646D01*
X76079500Y-112502351D01*
X76111522Y-112704534D01*
X76174781Y-112899223D01*
X76209731Y-112967815D01*
X76260725Y-113067896D01*
X76267715Y-113081613D01*
X76388028Y-113247213D01*
X76532786Y-113391971D01*
X76671209Y-113492539D01*
X76698390Y-113512287D01*
X76767482Y-113547491D01*
X76791080Y-113559515D01*
X76841876Y-113607490D01*
X76858671Y-113675311D01*
X76836134Y-113741446D01*
X76791080Y-113780485D01*
X76698386Y-113827715D01*
X76532786Y-113948028D01*
X76388028Y-114092786D01*
X76267715Y-114258386D01*
X76174781Y-114440776D01*
X76111522Y-114635465D01*
X76079500Y-114837648D01*
X76079500Y-115042351D01*
X76111522Y-115244534D01*
X76174781Y-115439223D01*
X76267715Y-115621613D01*
X76388028Y-115787213D01*
X76532786Y-115931971D01*
X76674662Y-116035048D01*
X76698390Y-116052287D01*
X76767482Y-116087491D01*
X76880776Y-116145218D01*
X76880778Y-116145218D01*
X76880781Y-116145220D01*
X76952254Y-116168443D01*
X77075465Y-116208477D01*
X77157354Y-116221447D01*
X77277648Y-116240500D01*
X77277649Y-116240500D01*
X77482351Y-116240500D01*
X77482352Y-116240500D01*
X77684534Y-116208477D01*
X77879219Y-116145220D01*
X78061610Y-116052287D01*
X78154590Y-115984732D01*
X78227213Y-115931971D01*
X78227215Y-115931968D01*
X78227219Y-115931966D01*
X78371966Y-115787219D01*
X78371968Y-115787215D01*
X78371971Y-115787213D01*
X78465971Y-115657831D01*
X78492287Y-115621610D01*
X78585220Y-115439219D01*
X78648477Y-115244534D01*
X78680500Y-115042352D01*
X78680500Y-114837648D01*
X78666245Y-114747648D01*
X78648477Y-114635465D01*
X78585218Y-114440776D01*
X78544869Y-114361588D01*
X78492287Y-114258390D01*
X78484556Y-114247749D01*
X78371971Y-114092786D01*
X78227213Y-113948028D01*
X78061614Y-113827715D01*
X78055006Y-113824348D01*
X77968917Y-113780483D01*
X77918123Y-113732511D01*
X77901328Y-113664690D01*
X77923865Y-113598555D01*
X77968917Y-113559516D01*
X78061610Y-113512287D01*
X78088791Y-113492539D01*
X78227213Y-113391971D01*
X78227215Y-113391968D01*
X78227219Y-113391966D01*
X78371966Y-113247219D01*
X78371968Y-113247215D01*
X78371971Y-113247213D01*
X78427705Y-113170500D01*
X78492287Y-113081610D01*
X78585220Y-112899219D01*
X78648477Y-112704534D01*
X78680500Y-112502352D01*
X78680500Y-112297648D01*
X78648477Y-112095466D01*
X78585220Y-111900781D01*
X78585218Y-111900778D01*
X78585218Y-111900776D01*
X78544869Y-111821588D01*
X78492287Y-111718390D01*
X78484556Y-111707749D01*
X78371971Y-111552786D01*
X78227213Y-111408028D01*
X78061614Y-111287715D01*
X78055006Y-111284348D01*
X77968917Y-111240483D01*
X77918123Y-111192511D01*
X77901328Y-111124690D01*
X77923865Y-111058555D01*
X77968917Y-111019516D01*
X78061610Y-110972287D01*
X78085338Y-110955048D01*
X78227213Y-110851971D01*
X78227215Y-110851968D01*
X78227219Y-110851966D01*
X78371966Y-110707219D01*
X78371968Y-110707215D01*
X78371971Y-110707213D01*
X78427706Y-110630499D01*
X78492287Y-110541610D01*
X78585220Y-110359219D01*
X78648477Y-110164534D01*
X78680500Y-109962352D01*
X78680500Y-109757648D01*
X78648477Y-109555466D01*
X78585220Y-109360781D01*
X78585218Y-109360778D01*
X78585218Y-109360776D01*
X78544869Y-109281588D01*
X78492287Y-109178390D01*
X78460506Y-109134647D01*
X78371971Y-109012786D01*
X78227213Y-108868028D01*
X78061614Y-108747715D01*
X78055006Y-108744348D01*
X77968917Y-108700483D01*
X77918123Y-108652511D01*
X77901328Y-108584690D01*
X77923865Y-108518555D01*
X77968917Y-108479516D01*
X78061610Y-108432287D01*
X78085924Y-108414622D01*
X78227213Y-108311971D01*
X78227215Y-108311968D01*
X78227219Y-108311966D01*
X78371966Y-108167219D01*
X78371968Y-108167215D01*
X78371971Y-108167213D01*
X78424732Y-108094590D01*
X78492287Y-108001610D01*
X78585220Y-107819219D01*
X78648477Y-107624534D01*
X78680500Y-107422352D01*
X78680500Y-107217648D01*
X78678135Y-107202715D01*
X78648477Y-107015465D01*
X78585218Y-106820776D01*
X78534514Y-106721265D01*
X78492287Y-106638390D01*
X78429843Y-106552442D01*
X78371971Y-106472786D01*
X78227213Y-106328028D01*
X78061614Y-106207715D01*
X78054792Y-106204239D01*
X77968917Y-106160483D01*
X77918123Y-106112511D01*
X77901328Y-106044690D01*
X77923865Y-105978555D01*
X77968917Y-105939516D01*
X78061610Y-105892287D01*
X78085338Y-105875048D01*
X78227213Y-105771971D01*
X78227215Y-105771968D01*
X78227219Y-105771966D01*
X78371966Y-105627219D01*
X78371968Y-105627215D01*
X78371971Y-105627213D01*
X78424732Y-105554590D01*
X78492287Y-105461610D01*
X78585220Y-105279219D01*
X78648477Y-105084534D01*
X78680500Y-104882352D01*
X78680500Y-104677648D01*
X78668325Y-104600781D01*
X78648477Y-104475465D01*
X78597098Y-104317339D01*
X78585220Y-104280781D01*
X78585218Y-104280778D01*
X78585218Y-104280776D01*
X78544869Y-104201588D01*
X78492287Y-104098390D01*
X78457072Y-104049920D01*
X78371971Y-103932786D01*
X78227213Y-103788028D01*
X78061614Y-103667715D01*
X78047454Y-103660500D01*
X77968917Y-103620483D01*
X77918123Y-103572511D01*
X77901328Y-103504690D01*
X77923865Y-103438555D01*
X77968917Y-103399516D01*
X78061610Y-103352287D01*
X78198278Y-103252993D01*
X78227213Y-103231971D01*
X78227215Y-103231968D01*
X78227219Y-103231966D01*
X78371966Y-103087219D01*
X78371968Y-103087215D01*
X78371971Y-103087213D01*
X78424732Y-103014590D01*
X78492287Y-102921610D01*
X78585220Y-102739219D01*
X78648477Y-102544534D01*
X78680500Y-102342352D01*
X78680500Y-102137648D01*
X78648477Y-101935466D01*
X78648476Y-101935462D01*
X78648476Y-101935461D01*
X78611876Y-101822818D01*
X78609881Y-101752977D01*
X78645961Y-101693144D01*
X78708662Y-101662316D01*
X78729807Y-101660500D01*
X79699903Y-101660500D01*
X79766942Y-101680185D01*
X79787584Y-101696819D01*
X81515139Y-103424374D01*
X81515149Y-103424385D01*
X81631285Y-103540521D01*
X81679076Y-103568112D01*
X81727292Y-103618679D01*
X81740516Y-103687286D01*
X81714548Y-103752151D01*
X81657635Y-103792680D01*
X81617077Y-103799500D01*
X81467648Y-103799500D01*
X81443329Y-103803351D01*
X81265465Y-103831522D01*
X81070776Y-103894781D01*
X80888386Y-103987715D01*
X80722786Y-104108028D01*
X80578028Y-104252786D01*
X80457715Y-104418386D01*
X80364781Y-104600776D01*
X80301522Y-104795465D01*
X80269500Y-104997648D01*
X80269500Y-105202351D01*
X80301522Y-105404534D01*
X80364781Y-105599223D01*
X80405674Y-105679478D01*
X80452799Y-105771966D01*
X80457715Y-105781613D01*
X80578028Y-105947213D01*
X80578034Y-105947219D01*
X80722781Y-106091966D01*
X80888390Y-106212287D01*
X80901793Y-106219116D01*
X80952589Y-106267088D01*
X80969500Y-106329601D01*
X80969500Y-106883330D01*
X80969499Y-106883348D01*
X80969499Y-106890943D01*
X80969499Y-107049057D01*
X80995443Y-107145881D01*
X81010422Y-107201783D01*
X81010941Y-107202681D01*
X81010950Y-107202717D01*
X81010959Y-107202713D01*
X81089477Y-107338712D01*
X81089481Y-107338717D01*
X81208349Y-107457585D01*
X81208355Y-107457590D01*
X85885139Y-112134374D01*
X85885149Y-112134385D01*
X85889479Y-112138715D01*
X85889480Y-112138716D01*
X86001284Y-112250520D01*
X86082913Y-112297648D01*
X86100160Y-112307606D01*
X86138215Y-112329577D01*
X86290943Y-112370500D01*
X86449057Y-112370500D01*
X88308164Y-112370500D01*
X88375203Y-112390185D01*
X88418648Y-112438204D01*
X88452185Y-112504023D01*
X88581752Y-112682358D01*
X88581756Y-112682363D01*
X88737636Y-112838243D01*
X88737641Y-112838247D01*
X88893192Y-112951260D01*
X88915978Y-112967815D01*
X89044375Y-113033237D01*
X89112393Y-113067895D01*
X89112396Y-113067896D01*
X89154614Y-113081613D01*
X89322049Y-113136015D01*
X89539778Y-113170500D01*
X89539779Y-113170500D01*
X89760221Y-113170500D01*
X89760222Y-113170500D01*
X89977951Y-113136015D01*
X90187606Y-113067895D01*
X90384022Y-112967815D01*
X90562365Y-112838242D01*
X90718242Y-112682365D01*
X90847815Y-112504022D01*
X90947895Y-112307606D01*
X91016015Y-112097951D01*
X91050500Y-111880222D01*
X91050500Y-111659778D01*
X91016015Y-111442049D01*
X90947895Y-111232394D01*
X90947895Y-111232393D01*
X90881351Y-111101796D01*
X90847815Y-111035978D01*
X90827118Y-111007491D01*
X90718247Y-110857641D01*
X90718243Y-110857636D01*
X90668071Y-110807464D01*
X90634586Y-110746141D01*
X90639570Y-110676449D01*
X90681442Y-110620516D01*
X90712420Y-110603601D01*
X90792326Y-110573798D01*
X90792326Y-110573797D01*
X90792331Y-110573796D01*
X90907546Y-110487546D01*
X90993796Y-110372331D01*
X91044091Y-110237483D01*
X91050500Y-110177873D01*
X91050499Y-108282128D01*
X91044091Y-108222517D01*
X91040410Y-108212648D01*
X95619500Y-108212648D01*
X95619500Y-108417352D01*
X95619798Y-108419232D01*
X95651522Y-108619534D01*
X95714781Y-108814223D01*
X95742197Y-108868028D01*
X95796908Y-108975405D01*
X95807715Y-108996613D01*
X95928028Y-109162213D01*
X96072786Y-109306971D01*
X96224918Y-109417499D01*
X96238390Y-109427287D01*
X96349224Y-109483760D01*
X96420776Y-109520218D01*
X96420778Y-109520218D01*
X96420781Y-109520220D01*
X96525137Y-109554127D01*
X96615465Y-109583477D01*
X96716557Y-109599488D01*
X96817648Y-109615500D01*
X96817649Y-109615500D01*
X97022351Y-109615500D01*
X97022352Y-109615500D01*
X97224534Y-109583477D01*
X97419219Y-109520220D01*
X97601610Y-109427287D01*
X97694590Y-109359732D01*
X97767213Y-109306971D01*
X97767215Y-109306968D01*
X97767219Y-109306966D01*
X97911966Y-109162219D01*
X97911968Y-109162215D01*
X97911971Y-109162213D01*
X97964732Y-109089590D01*
X98032287Y-108996610D01*
X98125220Y-108814219D01*
X98188477Y-108619534D01*
X98220500Y-108417352D01*
X98220500Y-108212648D01*
X98213304Y-108167213D01*
X98188477Y-108010465D01*
X98131760Y-107835909D01*
X98125220Y-107815781D01*
X98125218Y-107815778D01*
X98125218Y-107815776D01*
X98079436Y-107725925D01*
X98032287Y-107633390D01*
X97990686Y-107576130D01*
X97911971Y-107467786D01*
X97767213Y-107323028D01*
X97601613Y-107202715D01*
X97601612Y-107202714D01*
X97601610Y-107202713D01*
X97505521Y-107153753D01*
X97419223Y-107109781D01*
X97224534Y-107046522D01*
X97049995Y-107018878D01*
X97022352Y-107014500D01*
X96817648Y-107014500D01*
X96793329Y-107018351D01*
X96615465Y-107046522D01*
X96420776Y-107109781D01*
X96238386Y-107202715D01*
X96072786Y-107323028D01*
X95928028Y-107467786D01*
X95807715Y-107633386D01*
X95714781Y-107815776D01*
X95651522Y-108010465D01*
X95626696Y-108167213D01*
X95619500Y-108212648D01*
X91040410Y-108212648D01*
X90993796Y-108087669D01*
X90993795Y-108087668D01*
X90993793Y-108087664D01*
X90907547Y-107972455D01*
X90907544Y-107972452D01*
X90792335Y-107886206D01*
X90792328Y-107886202D01*
X90657482Y-107835908D01*
X90657483Y-107835908D01*
X90597883Y-107829501D01*
X90597881Y-107829500D01*
X90597873Y-107829500D01*
X90597864Y-107829500D01*
X88702129Y-107829500D01*
X88702123Y-107829501D01*
X88642516Y-107835908D01*
X88507671Y-107886202D01*
X88507664Y-107886206D01*
X88392455Y-107972452D01*
X88392452Y-107972455D01*
X88306206Y-108087664D01*
X88306202Y-108087671D01*
X88255908Y-108222517D01*
X88249501Y-108282116D01*
X88249500Y-108282135D01*
X88249500Y-110177870D01*
X88249501Y-110177876D01*
X88255908Y-110237483D01*
X88306202Y-110372328D01*
X88306206Y-110372335D01*
X88392452Y-110487544D01*
X88392455Y-110487547D01*
X88507664Y-110573793D01*
X88507671Y-110573797D01*
X88587580Y-110603601D01*
X88643514Y-110645472D01*
X88667931Y-110710936D01*
X88653080Y-110779209D01*
X88631929Y-110807463D01*
X88581756Y-110857636D01*
X88581752Y-110857641D01*
X88452185Y-111035976D01*
X88418648Y-111101796D01*
X88370674Y-111152591D01*
X88308164Y-111169500D01*
X86670097Y-111169500D01*
X86603058Y-111149815D01*
X86582416Y-111133181D01*
X82206819Y-106757584D01*
X82173334Y-106696261D01*
X82170500Y-106669903D01*
X82170500Y-106329601D01*
X82190185Y-106262562D01*
X82238206Y-106219116D01*
X82251610Y-106212287D01*
X82417219Y-106091966D01*
X82561966Y-105947219D01*
X82561968Y-105947215D01*
X82561971Y-105947213D01*
X82614732Y-105874590D01*
X82682287Y-105781610D01*
X82775220Y-105599219D01*
X82838477Y-105404534D01*
X82870500Y-105202352D01*
X82870500Y-104997648D01*
X82852239Y-104882352D01*
X82838477Y-104795465D01*
X82794367Y-104659709D01*
X82775220Y-104600781D01*
X82775218Y-104600778D01*
X82775218Y-104600776D01*
X82728722Y-104509524D01*
X82682287Y-104418390D01*
X82660487Y-104388384D01*
X82561971Y-104252786D01*
X82417213Y-104108028D01*
X82251613Y-103987715D01*
X82251612Y-103987714D01*
X82251610Y-103987713D01*
X82118765Y-103920025D01*
X82069622Y-103894985D01*
X82018826Y-103847010D01*
X82002031Y-103779189D01*
X82024569Y-103713054D01*
X82079284Y-103669603D01*
X82125917Y-103660500D01*
X88674281Y-103660500D01*
X88741320Y-103680185D01*
X88784765Y-103728205D01*
X88804947Y-103767814D01*
X88804948Y-103767815D01*
X88929890Y-103939786D01*
X89080213Y-104090109D01*
X89252179Y-104215048D01*
X89252181Y-104215049D01*
X89252184Y-104215051D01*
X89441588Y-104311557D01*
X89643757Y-104377246D01*
X89853713Y-104410500D01*
X89853714Y-104410500D01*
X90066286Y-104410500D01*
X90066287Y-104410500D01*
X90276243Y-104377246D01*
X90478412Y-104311557D01*
X90667816Y-104215051D01*
X90716748Y-104179500D01*
X90839786Y-104090109D01*
X90839788Y-104090106D01*
X90839792Y-104090104D01*
X90990104Y-103939792D01*
X90990106Y-103939788D01*
X90990109Y-103939786D01*
X91062452Y-103840213D01*
X91115051Y-103767816D01*
X91119793Y-103758508D01*
X91167763Y-103707711D01*
X91235583Y-103690911D01*
X91301719Y-103713445D01*
X91340763Y-103758500D01*
X91345375Y-103767551D01*
X91444240Y-103903626D01*
X91444241Y-103903627D01*
X92056329Y-103291538D01*
X92099901Y-103367007D01*
X92192993Y-103460099D01*
X92268460Y-103503670D01*
X91656371Y-104115758D01*
X91792445Y-104214622D01*
X91981782Y-104311095D01*
X92183870Y-104376757D01*
X92393754Y-104410000D01*
X92606246Y-104410000D01*
X92816127Y-104376757D01*
X92816130Y-104376757D01*
X93018217Y-104311095D01*
X93207546Y-104214626D01*
X93207552Y-104214622D01*
X93343626Y-104115758D01*
X93343627Y-104115758D01*
X92731538Y-103503670D01*
X92807007Y-103460099D01*
X92900099Y-103367007D01*
X92943670Y-103291539D01*
X93555758Y-103903627D01*
X93555758Y-103903626D01*
X93654622Y-103767552D01*
X93654626Y-103767546D01*
X93751095Y-103578217D01*
X93816757Y-103376130D01*
X93816757Y-103376127D01*
X93850000Y-103166246D01*
X93850000Y-102953753D01*
X93816757Y-102743872D01*
X93816757Y-102743869D01*
X93751095Y-102541782D01*
X93654622Y-102352445D01*
X93555758Y-102216372D01*
X93555758Y-102216371D01*
X92943670Y-102828460D01*
X92900099Y-102752993D01*
X92807007Y-102659901D01*
X92731539Y-102616329D01*
X93343627Y-102004241D01*
X93343626Y-102004240D01*
X93207551Y-101905375D01*
X93198500Y-101900763D01*
X93147706Y-101852788D01*
X93130912Y-101784966D01*
X93153451Y-101718832D01*
X93198508Y-101679793D01*
X93207816Y-101675051D01*
X93295038Y-101611681D01*
X93379786Y-101550109D01*
X93379788Y-101550106D01*
X93379792Y-101550104D01*
X93530104Y-101399792D01*
X93530106Y-101399788D01*
X93530109Y-101399786D01*
X93655048Y-101227820D01*
X93655047Y-101227820D01*
X93655051Y-101227816D01*
X93751557Y-101038412D01*
X93817246Y-100836243D01*
X93850500Y-100626287D01*
X93850500Y-100413713D01*
X93817246Y-100203757D01*
X93751557Y-100001588D01*
X93655051Y-99812184D01*
X93655049Y-99812181D01*
X93655048Y-99812179D01*
X93530109Y-99640213D01*
X93379786Y-99489890D01*
X93207820Y-99364951D01*
X93207115Y-99364591D01*
X93199054Y-99360485D01*
X93148259Y-99312512D01*
X93131463Y-99244692D01*
X93153999Y-99178556D01*
X93199054Y-99139515D01*
X93207816Y-99135051D01*
X93283541Y-99080034D01*
X93379786Y-99010109D01*
X93379788Y-99010106D01*
X93379792Y-99010104D01*
X93530104Y-98859792D01*
X93530106Y-98859788D01*
X93530109Y-98859786D01*
X93640366Y-98708028D01*
X93655051Y-98687816D01*
X93751557Y-98498412D01*
X93817246Y-98296243D01*
X93850500Y-98086287D01*
X93850500Y-97873713D01*
X93817246Y-97663757D01*
X93751557Y-97461588D01*
X93655051Y-97272184D01*
X93655049Y-97272181D01*
X93655048Y-97272179D01*
X93530109Y-97100213D01*
X93379786Y-96949890D01*
X93207820Y-96824951D01*
X93018414Y-96728444D01*
X93018413Y-96728443D01*
X93018412Y-96728443D01*
X92816243Y-96662754D01*
X92816241Y-96662753D01*
X92816240Y-96662753D01*
X92654957Y-96637208D01*
X92606287Y-96629500D01*
X92393713Y-96629500D01*
X92345042Y-96637208D01*
X92183760Y-96662753D01*
X91981585Y-96728444D01*
X91792179Y-96824951D01*
X91620215Y-96949889D01*
X91506673Y-97063431D01*
X91445350Y-97096915D01*
X91375658Y-97091931D01*
X91319725Y-97050059D01*
X91302810Y-97019082D01*
X91253797Y-96887671D01*
X91253793Y-96887664D01*
X91167547Y-96772455D01*
X91167544Y-96772452D01*
X91052335Y-96686206D01*
X91052328Y-96686202D01*
X90917482Y-96635908D01*
X90917483Y-96635908D01*
X90857883Y-96629501D01*
X90857881Y-96629500D01*
X90857873Y-96629500D01*
X90857864Y-96629500D01*
X89062129Y-96629500D01*
X89062123Y-96629501D01*
X89002516Y-96635908D01*
X88867671Y-96686202D01*
X88867664Y-96686206D01*
X88752455Y-96772452D01*
X88752452Y-96772455D01*
X88666206Y-96887664D01*
X88666202Y-96887671D01*
X88615908Y-97022517D01*
X88609501Y-97082116D01*
X88609500Y-97082135D01*
X88609500Y-98877870D01*
X88609501Y-98877876D01*
X88615908Y-98937483D01*
X88666202Y-99072328D01*
X88666206Y-99072335D01*
X88752452Y-99187544D01*
X88752455Y-99187547D01*
X88867664Y-99273793D01*
X88867671Y-99273797D01*
X88999082Y-99322810D01*
X89055016Y-99364681D01*
X89079433Y-99430145D01*
X89064582Y-99498418D01*
X89043431Y-99526673D01*
X88929889Y-99640215D01*
X88804951Y-99812179D01*
X88708444Y-100001585D01*
X88642753Y-100203760D01*
X88609500Y-100413713D01*
X88609500Y-100626286D01*
X88641391Y-100827641D01*
X88642754Y-100836243D01*
X88707301Y-101034898D01*
X88708444Y-101038414D01*
X88804951Y-101227820D01*
X88929890Y-101399786D01*
X89080213Y-101550109D01*
X89252182Y-101675050D01*
X89260946Y-101679516D01*
X89311742Y-101727491D01*
X89328536Y-101795312D01*
X89305998Y-101861447D01*
X89260946Y-101900484D01*
X89252182Y-101904949D01*
X89080213Y-102029890D01*
X88929890Y-102180213D01*
X88804948Y-102352184D01*
X88804947Y-102352185D01*
X88784765Y-102391795D01*
X88736791Y-102442591D01*
X88674281Y-102459500D01*
X82300097Y-102459500D01*
X82233058Y-102439815D01*
X82212416Y-102423181D01*
X81400916Y-101611681D01*
X81367431Y-101550358D01*
X81372415Y-101480666D01*
X81414287Y-101424733D01*
X81479751Y-101400316D01*
X81488597Y-101400000D01*
X81672317Y-101400000D01*
X81874417Y-101367990D01*
X82069031Y-101304755D01*
X82251349Y-101211859D01*
X82377831Y-101119963D01*
X82377832Y-101119963D01*
X81728334Y-100470466D01*
X81815606Y-100420080D01*
X81890080Y-100345606D01*
X81940466Y-100258334D01*
X82589963Y-100907832D01*
X82589963Y-100907831D01*
X82681859Y-100781349D01*
X82774755Y-100599031D01*
X82837990Y-100404417D01*
X82870000Y-100202317D01*
X82870000Y-99997682D01*
X82837990Y-99795582D01*
X82774755Y-99600968D01*
X82681859Y-99418650D01*
X82589963Y-99292167D01*
X82589963Y-99292166D01*
X81940465Y-99941664D01*
X81890080Y-99854394D01*
X81815606Y-99779920D01*
X81728334Y-99729534D01*
X82377832Y-99080035D01*
X82377831Y-99080033D01*
X82251359Y-98988147D01*
X82251350Y-98988141D01*
X82069031Y-98895244D01*
X81874417Y-98832009D01*
X81672317Y-98800000D01*
X81467683Y-98800000D01*
X81265582Y-98832009D01*
X81070968Y-98895244D01*
X80888647Y-98988142D01*
X80762167Y-99080034D01*
X80762167Y-99080035D01*
X81411665Y-99729533D01*
X81324394Y-99779920D01*
X81249920Y-99854394D01*
X81199533Y-99941665D01*
X80550035Y-99292167D01*
X80550034Y-99292167D01*
X80458142Y-99418647D01*
X80365244Y-99600968D01*
X80302009Y-99795582D01*
X80270000Y-99997682D01*
X80270000Y-100202317D01*
X80291131Y-100335736D01*
X80282176Y-100405030D01*
X80237180Y-100458482D01*
X80170428Y-100479121D01*
X80136569Y-100474909D01*
X80079057Y-100459499D01*
X79920943Y-100459499D01*
X79913347Y-100459499D01*
X79913331Y-100459500D01*
X78654950Y-100459500D01*
X78587911Y-100439815D01*
X78542156Y-100387011D01*
X78532212Y-100317853D01*
X78544465Y-100279205D01*
X78585218Y-100199223D01*
X78585218Y-100199222D01*
X78585220Y-100199219D01*
X78648477Y-100004534D01*
X78680500Y-99802352D01*
X78680500Y-99597648D01*
X78670374Y-99533713D01*
X78648477Y-99395465D01*
X78624427Y-99321447D01*
X78585220Y-99200781D01*
X78585217Y-99200777D01*
X78585217Y-99200774D01*
X78576461Y-99183590D01*
X78576460Y-99183589D01*
X78544869Y-99121588D01*
X78492287Y-99018390D01*
X78492285Y-99018387D01*
X78492284Y-99018385D01*
X78371971Y-98852786D01*
X78227213Y-98708028D01*
X78061611Y-98587713D01*
X77968369Y-98540203D01*
X77917574Y-98492229D01*
X77900779Y-98424407D01*
X77923317Y-98358273D01*
X77968371Y-98319234D01*
X78061347Y-98271861D01*
X78187831Y-98179963D01*
X78187832Y-98179963D01*
X77538334Y-97530466D01*
X77625606Y-97480080D01*
X77700080Y-97405606D01*
X77750466Y-97318334D01*
X78399963Y-97967832D01*
X78399963Y-97967831D01*
X78491859Y-97841349D01*
X78584755Y-97659031D01*
X78647990Y-97464417D01*
X78680000Y-97262317D01*
X78680000Y-97057682D01*
X78647990Y-96855582D01*
X78610790Y-96741095D01*
X78599922Y-96707648D01*
X80289500Y-96707648D01*
X80289500Y-96912352D01*
X80293878Y-96939995D01*
X80321522Y-97114534D01*
X80384781Y-97309223D01*
X80448691Y-97434653D01*
X80471838Y-97480080D01*
X80477715Y-97491613D01*
X80598028Y-97657213D01*
X80742786Y-97801971D01*
X80897749Y-97914556D01*
X80908390Y-97922287D01*
X80997775Y-97967831D01*
X81090776Y-98015218D01*
X81090778Y-98015218D01*
X81090781Y-98015220D01*
X81195137Y-98049127D01*
X81285465Y-98078477D01*
X81386557Y-98094488D01*
X81487648Y-98110500D01*
X81487649Y-98110500D01*
X81692351Y-98110500D01*
X81692352Y-98110500D01*
X81894534Y-98078477D01*
X82089219Y-98015220D01*
X82271610Y-97922287D01*
X82401104Y-97828205D01*
X82437213Y-97801971D01*
X82437215Y-97801968D01*
X82437219Y-97801966D01*
X82581966Y-97657219D01*
X82581968Y-97657215D01*
X82581971Y-97657213D01*
X82659309Y-97550764D01*
X82702287Y-97491610D01*
X82795220Y-97309219D01*
X82858477Y-97114534D01*
X82890500Y-96912352D01*
X82890500Y-96707648D01*
X82883389Y-96662753D01*
X82858477Y-96505465D01*
X82808667Y-96352166D01*
X82795220Y-96310781D01*
X82795218Y-96310778D01*
X82795218Y-96310776D01*
X82739872Y-96202155D01*
X82702287Y-96128390D01*
X82694556Y-96117749D01*
X82581971Y-95962786D01*
X82437213Y-95818028D01*
X82271613Y-95697715D01*
X82271612Y-95697714D01*
X82271610Y-95697713D01*
X82214653Y-95668691D01*
X82089223Y-95604781D01*
X81894534Y-95541522D01*
X81719995Y-95513878D01*
X81692352Y-95509500D01*
X81487648Y-95509500D01*
X81463329Y-95513351D01*
X81285465Y-95541522D01*
X81090776Y-95604781D01*
X80908386Y-95697715D01*
X80742786Y-95818028D01*
X80598028Y-95962786D01*
X80477715Y-96128386D01*
X80384781Y-96310776D01*
X80321522Y-96505465D01*
X80292897Y-96686202D01*
X80289500Y-96707648D01*
X78599922Y-96707648D01*
X78584754Y-96660968D01*
X78491859Y-96478650D01*
X78399963Y-96352167D01*
X78399963Y-96352166D01*
X77750465Y-97001664D01*
X77700080Y-96914394D01*
X77625606Y-96839920D01*
X77538334Y-96789534D01*
X78187832Y-96140035D01*
X78187831Y-96140033D01*
X78061359Y-96048147D01*
X78061350Y-96048141D01*
X77968369Y-96000765D01*
X77917573Y-95952790D01*
X77900778Y-95884969D01*
X77923315Y-95818835D01*
X77968370Y-95779795D01*
X77968920Y-95779515D01*
X78061610Y-95732287D01*
X78207903Y-95626000D01*
X78227213Y-95611971D01*
X78227215Y-95611968D01*
X78227219Y-95611966D01*
X78371966Y-95467219D01*
X78371968Y-95467215D01*
X78371971Y-95467213D01*
X78435711Y-95379481D01*
X78492287Y-95301610D01*
X78585220Y-95119219D01*
X78648477Y-94924534D01*
X78680500Y-94722352D01*
X78680500Y-94517648D01*
X78648477Y-94315466D01*
X78585220Y-94120781D01*
X78585218Y-94120778D01*
X78585218Y-94120776D01*
X78551503Y-94054607D01*
X78492287Y-93938390D01*
X78484556Y-93927749D01*
X78371971Y-93772786D01*
X78227213Y-93628028D01*
X78061614Y-93507715D01*
X78055006Y-93504348D01*
X77968917Y-93460483D01*
X77918123Y-93412511D01*
X77901328Y-93344690D01*
X77923865Y-93278555D01*
X77968917Y-93239516D01*
X78061610Y-93192287D01*
X78082770Y-93176913D01*
X78227213Y-93071971D01*
X78227215Y-93071968D01*
X78227219Y-93071966D01*
X78371966Y-92927219D01*
X78371968Y-92927215D01*
X78371971Y-92927213D01*
X78492286Y-92761611D01*
X78510224Y-92726408D01*
X78585218Y-92579223D01*
X78585218Y-92579222D01*
X78585220Y-92579219D01*
X78648477Y-92384534D01*
X78680500Y-92182352D01*
X78680500Y-91977648D01*
X78648477Y-91775466D01*
X78626453Y-91707682D01*
X80290000Y-91707682D01*
X80290000Y-91912317D01*
X80322009Y-92114417D01*
X80385244Y-92309031D01*
X80478141Y-92491350D01*
X80478147Y-92491359D01*
X80570033Y-92617831D01*
X80570035Y-92617832D01*
X81219533Y-91968334D01*
X81269920Y-92055606D01*
X81344394Y-92130080D01*
X81431665Y-92180465D01*
X80782166Y-92829963D01*
X80908650Y-92921859D01*
X81090968Y-93014755D01*
X81285582Y-93077990D01*
X81487683Y-93110000D01*
X81692317Y-93110000D01*
X81894417Y-93077990D01*
X82089031Y-93014755D01*
X82271349Y-92921859D01*
X82397831Y-92829963D01*
X82397832Y-92829963D01*
X81748334Y-92180466D01*
X81835606Y-92130080D01*
X81910080Y-92055606D01*
X81960466Y-91968334D01*
X82609963Y-92617832D01*
X82609963Y-92617831D01*
X82701859Y-92491349D01*
X82794755Y-92309031D01*
X82857990Y-92114417D01*
X82890000Y-91912317D01*
X82890000Y-91707683D01*
X82881494Y-91653981D01*
X82881494Y-91653980D01*
X82879192Y-91639448D01*
X89989500Y-91639448D01*
X89989500Y-91820551D01*
X90017829Y-91999410D01*
X90073787Y-92171636D01*
X90073788Y-92171639D01*
X90156006Y-92332997D01*
X90262441Y-92479494D01*
X90262445Y-92479499D01*
X90390500Y-92607554D01*
X90390505Y-92607558D01*
X90434089Y-92639223D01*
X90537006Y-92713996D01*
X90630453Y-92761610D01*
X90698360Y-92796211D01*
X90698363Y-92796212D01*
X90776532Y-92821610D01*
X90870591Y-92852171D01*
X90953429Y-92865291D01*
X91049449Y-92880500D01*
X91049454Y-92880500D01*
X91230551Y-92880500D01*
X91317259Y-92866765D01*
X91409409Y-92852171D01*
X91581639Y-92796211D01*
X91742994Y-92713996D01*
X91889501Y-92607553D01*
X92017553Y-92479501D01*
X92123996Y-92332994D01*
X92206211Y-92171639D01*
X92262171Y-91999409D01*
X92283830Y-91862661D01*
X92290500Y-91820551D01*
X92290500Y-91639448D01*
X92266816Y-91489920D01*
X92262171Y-91460591D01*
X92234191Y-91374476D01*
X92206212Y-91288363D01*
X92206211Y-91288360D01*
X92134707Y-91148028D01*
X92123996Y-91127006D01*
X92090208Y-91080500D01*
X92017558Y-90980505D01*
X92017554Y-90980500D01*
X91889499Y-90852445D01*
X91889494Y-90852441D01*
X91742997Y-90746006D01*
X91742996Y-90746005D01*
X91742994Y-90746004D01*
X91651755Y-90699515D01*
X91581639Y-90663788D01*
X91581636Y-90663787D01*
X91409410Y-90607829D01*
X91230551Y-90579500D01*
X91230546Y-90579500D01*
X91049454Y-90579500D01*
X91049449Y-90579500D01*
X90870589Y-90607829D01*
X90698363Y-90663787D01*
X90698360Y-90663788D01*
X90537002Y-90746006D01*
X90390505Y-90852441D01*
X90390500Y-90852445D01*
X90262445Y-90980500D01*
X90262441Y-90980505D01*
X90156006Y-91127002D01*
X90073788Y-91288360D01*
X90073787Y-91288363D01*
X90017829Y-91460589D01*
X89989500Y-91639448D01*
X82879192Y-91639448D01*
X82857990Y-91505582D01*
X82794755Y-91310968D01*
X82701859Y-91128650D01*
X82609963Y-91002167D01*
X82609963Y-91002166D01*
X81960465Y-91651664D01*
X81910080Y-91564394D01*
X81835606Y-91489920D01*
X81748334Y-91439534D01*
X82397832Y-90790035D01*
X82397831Y-90790033D01*
X82271359Y-90698147D01*
X82271350Y-90698141D01*
X82089031Y-90605244D01*
X81894417Y-90542009D01*
X81692317Y-90510000D01*
X81487683Y-90510000D01*
X81285582Y-90542009D01*
X81090968Y-90605244D01*
X80908647Y-90698142D01*
X80782167Y-90790034D01*
X80782167Y-90790035D01*
X81431665Y-91439533D01*
X81344394Y-91489920D01*
X81269920Y-91564394D01*
X81219533Y-91651665D01*
X80570035Y-91002167D01*
X80570034Y-91002167D01*
X80478142Y-91128647D01*
X80385244Y-91310968D01*
X80322009Y-91505582D01*
X80290000Y-91707682D01*
X78626453Y-91707682D01*
X78585220Y-91580781D01*
X78492287Y-91398390D01*
X78428772Y-91310968D01*
X78371971Y-91232786D01*
X78227213Y-91088028D01*
X78061614Y-90967715D01*
X78022487Y-90947779D01*
X78022487Y-90947778D01*
X77968920Y-90920485D01*
X77918123Y-90872511D01*
X77901328Y-90804690D01*
X77923865Y-90738555D01*
X77968917Y-90699516D01*
X78061610Y-90652287D01*
X78129718Y-90602804D01*
X78227213Y-90531971D01*
X78227215Y-90531968D01*
X78227219Y-90531966D01*
X78371966Y-90387219D01*
X78371968Y-90387215D01*
X78371971Y-90387213D01*
X78424732Y-90314590D01*
X78492287Y-90221610D01*
X78585220Y-90039219D01*
X78648477Y-89844534D01*
X78680500Y-89642352D01*
X78680500Y-89623713D01*
X82939500Y-89623713D01*
X82939500Y-89836287D01*
X82972754Y-90046243D01*
X83029735Y-90221613D01*
X83038444Y-90248414D01*
X83134951Y-90437820D01*
X83259890Y-90609786D01*
X83410213Y-90760109D01*
X83582179Y-90885048D01*
X83582181Y-90885049D01*
X83582184Y-90885051D01*
X83771588Y-90981557D01*
X83973757Y-91047246D01*
X84183713Y-91080500D01*
X84183714Y-91080500D01*
X85596286Y-91080500D01*
X85596287Y-91080500D01*
X85806243Y-91047246D01*
X86008412Y-90981557D01*
X86197816Y-90885051D01*
X86293806Y-90815311D01*
X86369786Y-90760109D01*
X86369788Y-90760106D01*
X86369792Y-90760104D01*
X86520104Y-90609792D01*
X86520106Y-90609788D01*
X86520109Y-90609786D01*
X86645048Y-90437820D01*
X86645047Y-90437820D01*
X86645051Y-90437816D01*
X86741557Y-90248412D01*
X86807246Y-90046243D01*
X86840500Y-89836287D01*
X86840500Y-89623713D01*
X86807246Y-89413757D01*
X86741557Y-89211588D01*
X86645051Y-89022184D01*
X86645049Y-89022181D01*
X86645048Y-89022179D01*
X86520109Y-88850213D01*
X86369786Y-88699890D01*
X86197820Y-88574951D01*
X86008414Y-88478444D01*
X86008413Y-88478443D01*
X86008412Y-88478443D01*
X85806243Y-88412754D01*
X85806241Y-88412753D01*
X85806240Y-88412753D01*
X85644957Y-88387208D01*
X85596287Y-88379500D01*
X84183713Y-88379500D01*
X84135042Y-88387208D01*
X83973760Y-88412753D01*
X83771585Y-88478444D01*
X83582179Y-88574951D01*
X83410213Y-88699890D01*
X83259890Y-88850213D01*
X83134951Y-89022179D01*
X83038444Y-89211585D01*
X82972753Y-89413760D01*
X82963951Y-89469334D01*
X82939500Y-89623713D01*
X78680500Y-89623713D01*
X78680500Y-89437648D01*
X78663107Y-89327832D01*
X78648477Y-89235465D01*
X78585218Y-89040776D01*
X78551503Y-88974607D01*
X78492287Y-88858390D01*
X78478984Y-88840080D01*
X78371971Y-88692786D01*
X78227213Y-88548028D01*
X78061614Y-88427715D01*
X78032249Y-88412753D01*
X77968917Y-88380483D01*
X77918123Y-88332511D01*
X77901328Y-88264690D01*
X77923865Y-88198555D01*
X77968917Y-88159516D01*
X78061610Y-88112287D01*
X78187301Y-88020968D01*
X78227213Y-87991971D01*
X78227215Y-87991968D01*
X78227219Y-87991966D01*
X78371966Y-87847219D01*
X78371968Y-87847215D01*
X78371971Y-87847213D01*
X78424732Y-87774590D01*
X78492287Y-87681610D01*
X78585220Y-87499219D01*
X78648477Y-87304534D01*
X78680500Y-87102352D01*
X78680500Y-86897648D01*
X78648477Y-86695466D01*
X78644879Y-86684394D01*
X78585218Y-86500776D01*
X78549648Y-86430968D01*
X78492287Y-86318390D01*
X78484556Y-86307749D01*
X78371971Y-86152786D01*
X78227213Y-86008028D01*
X78061614Y-85887715D01*
X78055006Y-85884348D01*
X77968917Y-85840483D01*
X77918123Y-85792511D01*
X77901328Y-85724690D01*
X77923865Y-85658555D01*
X77968917Y-85619516D01*
X78061610Y-85572287D01*
X78086561Y-85554159D01*
X78227213Y-85451971D01*
X78227215Y-85451968D01*
X78227219Y-85451966D01*
X78371966Y-85307219D01*
X78371968Y-85307215D01*
X78371971Y-85307213D01*
X78432452Y-85223966D01*
X78492287Y-85141610D01*
X78585220Y-84959219D01*
X78648477Y-84764534D01*
X78670781Y-84623713D01*
X82939500Y-84623713D01*
X82939500Y-84836286D01*
X82972753Y-85046239D01*
X83038444Y-85248414D01*
X83134951Y-85437820D01*
X83259890Y-85609786D01*
X83410213Y-85760109D01*
X83582179Y-85885048D01*
X83582181Y-85885049D01*
X83582184Y-85885051D01*
X83771588Y-85981557D01*
X83973757Y-86047246D01*
X84183713Y-86080500D01*
X84183714Y-86080500D01*
X85596286Y-86080500D01*
X85596287Y-86080500D01*
X85806243Y-86047246D01*
X86008412Y-85981557D01*
X86197816Y-85885051D01*
X86259156Y-85840485D01*
X86369786Y-85760109D01*
X86369788Y-85760106D01*
X86369792Y-85760104D01*
X86520104Y-85609792D01*
X86520106Y-85609788D01*
X86520109Y-85609786D01*
X86645048Y-85437820D01*
X86645047Y-85437820D01*
X86645051Y-85437816D01*
X86741557Y-85248412D01*
X86807246Y-85046243D01*
X86840500Y-84836287D01*
X86840500Y-84623713D01*
X86807246Y-84413757D01*
X86741557Y-84211588D01*
X86645051Y-84022184D01*
X86645049Y-84022181D01*
X86645048Y-84022179D01*
X86520109Y-83850213D01*
X86369786Y-83699890D01*
X86197820Y-83574951D01*
X86008414Y-83478444D01*
X86008413Y-83478443D01*
X86008412Y-83478443D01*
X85806243Y-83412754D01*
X85806241Y-83412753D01*
X85806240Y-83412753D01*
X85644957Y-83387208D01*
X85596287Y-83379500D01*
X84183713Y-83379500D01*
X84135042Y-83387208D01*
X83973760Y-83412753D01*
X83973757Y-83412754D01*
X83803624Y-83468034D01*
X83771585Y-83478444D01*
X83582179Y-83574951D01*
X83410213Y-83699890D01*
X83259890Y-83850213D01*
X83134951Y-84022179D01*
X83038444Y-84211585D01*
X82972753Y-84413760D01*
X82939500Y-84623713D01*
X78670781Y-84623713D01*
X78680500Y-84562352D01*
X78680500Y-84357648D01*
X78648477Y-84155466D01*
X78585220Y-83960781D01*
X78585218Y-83960778D01*
X78585218Y-83960776D01*
X78544315Y-83880500D01*
X78492287Y-83778390D01*
X78484556Y-83767749D01*
X78371971Y-83612786D01*
X78227213Y-83468028D01*
X78061614Y-83347715D01*
X78032722Y-83332994D01*
X77968917Y-83300483D01*
X77918123Y-83252511D01*
X77901328Y-83184690D01*
X77923865Y-83118555D01*
X77968917Y-83079516D01*
X78061610Y-83032287D01*
X78144629Y-82971971D01*
X78227213Y-82911971D01*
X78227215Y-82911968D01*
X78227219Y-82911966D01*
X78371966Y-82767219D01*
X78371968Y-82767215D01*
X78371971Y-82767213D01*
X78464796Y-82639448D01*
X89989500Y-82639448D01*
X89989500Y-82820551D01*
X90017829Y-82999410D01*
X90073787Y-83171636D01*
X90073788Y-83171639D01*
X90156006Y-83332997D01*
X90262441Y-83479494D01*
X90262445Y-83479499D01*
X90390500Y-83607554D01*
X90390505Y-83607558D01*
X90517591Y-83699890D01*
X90537006Y-83713996D01*
X90642484Y-83767740D01*
X90698360Y-83796211D01*
X90698363Y-83796212D01*
X90784476Y-83824191D01*
X90870591Y-83852171D01*
X90953429Y-83865291D01*
X91049449Y-83880500D01*
X91049454Y-83880500D01*
X91230551Y-83880500D01*
X91317259Y-83866765D01*
X91409409Y-83852171D01*
X91581639Y-83796211D01*
X91742994Y-83713996D01*
X91889501Y-83607553D01*
X92017553Y-83479501D01*
X92123996Y-83332994D01*
X92206211Y-83171639D01*
X92262171Y-82999409D01*
X92276765Y-82907259D01*
X92290500Y-82820551D01*
X92290500Y-82639448D01*
X92271582Y-82520008D01*
X92262171Y-82460591D01*
X92206211Y-82288361D01*
X92206211Y-82288360D01*
X92161443Y-82200500D01*
X92123996Y-82127006D01*
X92091553Y-82082352D01*
X92017558Y-81980505D01*
X92017554Y-81980500D01*
X91889499Y-81852445D01*
X91889494Y-81852441D01*
X91742997Y-81746006D01*
X91742996Y-81746005D01*
X91742994Y-81746004D01*
X91691300Y-81719664D01*
X91581639Y-81663788D01*
X91581636Y-81663787D01*
X91409410Y-81607829D01*
X91230551Y-81579500D01*
X91230546Y-81579500D01*
X91049454Y-81579500D01*
X91049449Y-81579500D01*
X90870589Y-81607829D01*
X90698363Y-81663787D01*
X90698360Y-81663788D01*
X90537002Y-81746006D01*
X90390505Y-81852441D01*
X90390500Y-81852445D01*
X90262445Y-81980500D01*
X90262441Y-81980505D01*
X90156006Y-82127002D01*
X90073788Y-82288360D01*
X90073787Y-82288363D01*
X90017829Y-82460589D01*
X89989500Y-82639448D01*
X78464796Y-82639448D01*
X78476894Y-82622797D01*
X78492287Y-82601610D01*
X78496768Y-82592814D01*
X78504172Y-82578286D01*
X78585218Y-82419223D01*
X78585218Y-82419222D01*
X78585220Y-82419219D01*
X78648477Y-82224534D01*
X78680500Y-82022352D01*
X78680500Y-81817648D01*
X78656131Y-81663788D01*
X78648477Y-81615465D01*
X78604715Y-81480781D01*
X78585220Y-81420781D01*
X78585218Y-81420778D01*
X78585218Y-81420776D01*
X78533865Y-81319991D01*
X78492287Y-81238390D01*
X78476892Y-81217200D01*
X78371971Y-81072786D01*
X78227213Y-80928028D01*
X78061613Y-80807715D01*
X78061612Y-80807714D01*
X78061610Y-80807713D01*
X78001898Y-80777288D01*
X77879223Y-80714781D01*
X77684534Y-80651522D01*
X77509995Y-80623878D01*
X77482352Y-80619500D01*
X77277648Y-80619500D01*
X77253329Y-80623351D01*
X77075465Y-80651522D01*
X76880776Y-80714781D01*
X76698386Y-80807715D01*
X76532786Y-80928028D01*
X76388028Y-81072786D01*
X76267715Y-81238386D01*
X76174781Y-81420776D01*
X76111522Y-81615465D01*
X76079500Y-81817648D01*
X76079500Y-82022351D01*
X76111522Y-82224534D01*
X76174781Y-82419223D01*
X76267715Y-82601613D01*
X76388028Y-82767213D01*
X76532786Y-82911971D01*
X76615371Y-82971971D01*
X76698390Y-83032287D01*
X76789840Y-83078883D01*
X76791080Y-83079515D01*
X76841876Y-83127490D01*
X76858671Y-83195311D01*
X76836134Y-83261446D01*
X76791080Y-83300485D01*
X76698386Y-83347715D01*
X76532786Y-83468028D01*
X76388028Y-83612786D01*
X76267715Y-83778386D01*
X76174781Y-83960776D01*
X76111522Y-84155465D01*
X76079500Y-84357648D01*
X76079500Y-84562351D01*
X76111522Y-84764534D01*
X76174781Y-84959223D01*
X76267715Y-85141613D01*
X76388028Y-85307213D01*
X76532786Y-85451971D01*
X76673439Y-85554159D01*
X76698390Y-85572287D01*
X76771986Y-85609786D01*
X76791080Y-85619515D01*
X76841876Y-85667490D01*
X76858671Y-85735311D01*
X76836134Y-85801446D01*
X76791080Y-85840485D01*
X76698386Y-85887715D01*
X76532786Y-86008028D01*
X76388028Y-86152786D01*
X76267715Y-86318386D01*
X76174781Y-86500776D01*
X76111522Y-86695465D01*
X76079500Y-86897648D01*
X76079500Y-87102351D01*
X76111522Y-87304534D01*
X76174781Y-87499223D01*
X76267715Y-87681613D01*
X76388028Y-87847213D01*
X76532786Y-87991971D01*
X76653950Y-88080000D01*
X76698390Y-88112287D01*
X76789840Y-88158883D01*
X76791080Y-88159515D01*
X76841876Y-88207490D01*
X76858671Y-88275311D01*
X76836134Y-88341446D01*
X76791080Y-88380485D01*
X76698386Y-88427715D01*
X76532786Y-88548028D01*
X76388028Y-88692786D01*
X76267715Y-88858386D01*
X76174781Y-89040776D01*
X76111522Y-89235465D01*
X76079500Y-89437648D01*
X76079500Y-89642351D01*
X76111522Y-89844534D01*
X76174781Y-90039223D01*
X76238691Y-90164653D01*
X76266412Y-90219057D01*
X76267715Y-90221613D01*
X76388028Y-90387213D01*
X76532786Y-90531971D01*
X76639900Y-90609792D01*
X76698390Y-90652287D01*
X76788383Y-90698141D01*
X76791080Y-90699515D01*
X76841876Y-90747490D01*
X76858671Y-90815311D01*
X76836134Y-90881446D01*
X76791080Y-90920485D01*
X76698386Y-90967715D01*
X76532786Y-91088028D01*
X76388028Y-91232786D01*
X76267715Y-91398386D01*
X76174781Y-91580776D01*
X76111522Y-91775465D01*
X76079500Y-91977648D01*
X76079500Y-92182351D01*
X76111522Y-92384534D01*
X76174781Y-92579223D01*
X76267715Y-92761613D01*
X76388028Y-92927213D01*
X76532786Y-93071971D01*
X76687749Y-93184556D01*
X76698390Y-93192287D01*
X76789840Y-93238883D01*
X76791080Y-93239515D01*
X76841876Y-93287490D01*
X76858671Y-93355311D01*
X76836134Y-93421446D01*
X76791080Y-93460485D01*
X76698386Y-93507715D01*
X76532786Y-93628028D01*
X76388028Y-93772786D01*
X76267715Y-93938386D01*
X76174781Y-94120776D01*
X76111522Y-94315465D01*
X76079500Y-94517648D01*
X76079500Y-94722352D01*
X76107704Y-94900423D01*
X76111523Y-94924534D01*
X76111522Y-94924534D01*
X76174781Y-95119223D01*
X76222656Y-95213181D01*
X76267108Y-95300423D01*
X76267715Y-95301613D01*
X76388028Y-95467213D01*
X76532786Y-95611971D01*
X76698385Y-95732284D01*
X76698387Y-95732285D01*
X76698390Y-95732287D01*
X76791080Y-95779515D01*
X76791630Y-95779795D01*
X76842426Y-95827770D01*
X76859221Y-95895591D01*
X76836684Y-95961725D01*
X76791630Y-96000765D01*
X76698648Y-96048142D01*
X76572167Y-96140034D01*
X76572167Y-96140035D01*
X77221665Y-96789533D01*
X77134394Y-96839920D01*
X77059920Y-96914394D01*
X77009533Y-97001665D01*
X76360035Y-96352167D01*
X76360034Y-96352167D01*
X76268142Y-96478647D01*
X76175244Y-96660968D01*
X76112009Y-96855582D01*
X76080000Y-97057682D01*
X76080000Y-97262317D01*
X76112009Y-97464417D01*
X76175244Y-97659031D01*
X76268141Y-97841350D01*
X76268147Y-97841359D01*
X76360033Y-97967831D01*
X76360035Y-97967832D01*
X77009533Y-97318334D01*
X77059920Y-97405606D01*
X77134394Y-97480080D01*
X77221665Y-97530465D01*
X76572166Y-98179963D01*
X76698652Y-98271861D01*
X76791628Y-98319234D01*
X76842425Y-98367208D01*
X76859220Y-98435029D01*
X76836683Y-98501164D01*
X76791630Y-98540203D01*
X76698388Y-98587713D01*
X76532786Y-98708028D01*
X76388028Y-98852786D01*
X76267715Y-99018386D01*
X76174781Y-99200776D01*
X76111522Y-99395465D01*
X76099438Y-99471766D01*
X76069509Y-99534901D01*
X76010197Y-99571832D01*
X75940335Y-99570834D01*
X75889284Y-99540049D01*
X71496819Y-95147584D01*
X71463334Y-95086261D01*
X71460500Y-95059903D01*
X71460500Y-83109059D01*
X71460501Y-83109046D01*
X71460501Y-82940945D01*
X71460501Y-82940943D01*
X71419577Y-82788215D01*
X71419576Y-82788214D01*
X71419576Y-82788212D01*
X71419574Y-82788209D01*
X71384820Y-82728014D01*
X71384819Y-82728013D01*
X71351183Y-82669754D01*
X71340522Y-82651287D01*
X71340521Y-82651286D01*
X71340520Y-82651284D01*
X71228716Y-82539480D01*
X71228715Y-82539479D01*
X71224385Y-82535149D01*
X71224374Y-82535139D01*
X71096818Y-82407583D01*
X71063333Y-82346260D01*
X71060499Y-82319902D01*
X71060499Y-81319998D01*
X71060498Y-81319981D01*
X71049999Y-81217203D01*
X71049998Y-81217200D01*
X71022024Y-81132781D01*
X70994814Y-81050666D01*
X70902712Y-80901344D01*
X70778656Y-80777288D01*
X70629334Y-80685186D01*
X70462797Y-80630001D01*
X70462795Y-80630000D01*
X70360010Y-80619500D01*
X69159998Y-80619500D01*
X69159981Y-80619501D01*
X69057203Y-80630000D01*
X69057200Y-80630001D01*
X68890668Y-80685185D01*
X68890663Y-80685187D01*
X68741342Y-80777289D01*
X68617289Y-80901342D01*
X68525187Y-81050663D01*
X68525185Y-81050668D01*
X68514686Y-81082352D01*
X68470001Y-81217203D01*
X68470001Y-81217204D01*
X68470000Y-81217204D01*
X68459500Y-81319983D01*
X68459500Y-82520001D01*
X68459501Y-82520018D01*
X68470000Y-82622796D01*
X68470001Y-82622799D01*
X68525185Y-82789331D01*
X68525187Y-82789336D01*
X68560069Y-82845888D01*
X68617288Y-82938656D01*
X68741344Y-83062712D01*
X68890666Y-83154814D01*
X68972570Y-83181954D01*
X69030015Y-83221727D01*
X69056838Y-83286243D01*
X69044523Y-83355018D01*
X69006451Y-83399978D01*
X68912787Y-83468028D01*
X68912782Y-83468032D01*
X68768028Y-83612786D01*
X68647715Y-83778386D01*
X68554781Y-83960776D01*
X68491522Y-84155465D01*
X68459500Y-84357648D01*
X68459500Y-84562351D01*
X68491522Y-84764534D01*
X68554781Y-84959223D01*
X68647715Y-85141613D01*
X68768028Y-85307213D01*
X68912786Y-85451971D01*
X69053439Y-85554159D01*
X69078390Y-85572287D01*
X69151986Y-85609786D01*
X69171080Y-85619515D01*
X69221876Y-85667490D01*
X69238671Y-85735311D01*
X69216134Y-85801446D01*
X69171080Y-85840485D01*
X69078386Y-85887715D01*
X68912786Y-86008028D01*
X68768028Y-86152786D01*
X68647715Y-86318386D01*
X68554781Y-86500776D01*
X68491522Y-86695465D01*
X68459500Y-86897648D01*
X68459500Y-87102351D01*
X68491522Y-87304534D01*
X68554781Y-87499223D01*
X68647715Y-87681613D01*
X68768028Y-87847213D01*
X68912786Y-87991971D01*
X69033950Y-88080000D01*
X69078390Y-88112287D01*
X69169840Y-88158883D01*
X69171080Y-88159515D01*
X69221876Y-88207490D01*
X69238671Y-88275311D01*
X69216134Y-88341446D01*
X69171080Y-88380485D01*
X69078386Y-88427715D01*
X68912786Y-88548028D01*
X68768028Y-88692786D01*
X68647715Y-88858386D01*
X68554781Y-89040776D01*
X68491522Y-89235465D01*
X68459500Y-89437648D01*
X68459500Y-89642351D01*
X68491522Y-89844534D01*
X68554781Y-90039223D01*
X68618691Y-90164653D01*
X68646412Y-90219057D01*
X68647715Y-90221613D01*
X68768028Y-90387213D01*
X68912786Y-90531971D01*
X69019900Y-90609792D01*
X69078390Y-90652287D01*
X69168383Y-90698141D01*
X69171080Y-90699515D01*
X69221876Y-90747490D01*
X69238671Y-90815311D01*
X69216134Y-90881446D01*
X69171080Y-90920485D01*
X69078386Y-90967715D01*
X68912786Y-91088028D01*
X68768028Y-91232786D01*
X68647715Y-91398386D01*
X68554781Y-91580776D01*
X68491522Y-91775465D01*
X68459500Y-91977648D01*
X68459500Y-92182351D01*
X68491522Y-92384534D01*
X68554781Y-92579223D01*
X68647715Y-92761613D01*
X68768028Y-92927213D01*
X68912786Y-93071971D01*
X69067749Y-93184556D01*
X69078390Y-93192287D01*
X69169840Y-93238883D01*
X69171080Y-93239515D01*
X69221876Y-93287490D01*
X69238671Y-93355311D01*
X69216134Y-93421446D01*
X69171080Y-93460485D01*
X69078386Y-93507715D01*
X68912786Y-93628028D01*
X68768028Y-93772786D01*
X68647715Y-93938386D01*
X68554781Y-94120776D01*
X68491522Y-94315465D01*
X68459500Y-94517648D01*
X68459500Y-94722352D01*
X68487704Y-94900423D01*
X68491523Y-94924534D01*
X68491522Y-94924534D01*
X68554781Y-95119223D01*
X68602656Y-95213181D01*
X68647108Y-95300423D01*
X68647715Y-95301613D01*
X68768028Y-95467213D01*
X68912786Y-95611971D01*
X69030805Y-95697715D01*
X69078390Y-95732287D01*
X69169840Y-95778883D01*
X69171080Y-95779515D01*
X69221876Y-95827490D01*
X69238671Y-95895311D01*
X69216134Y-95961446D01*
X69171080Y-96000485D01*
X69078386Y-96047715D01*
X68929594Y-96155818D01*
X68863788Y-96179298D01*
X68856709Y-96179500D01*
X68270098Y-96179500D01*
X68203059Y-96159815D01*
X68182417Y-96143181D01*
X67307590Y-95268355D01*
X67307588Y-95268352D01*
X67188717Y-95149481D01*
X67188709Y-95149475D01*
X67087918Y-95091284D01*
X67087916Y-95091283D01*
X67051790Y-95070425D01*
X67051789Y-95070424D01*
X67012524Y-95059903D01*
X66899057Y-95029499D01*
X66740943Y-95029499D01*
X66733347Y-95029499D01*
X66733331Y-95029500D01*
X66250097Y-95029500D01*
X66183058Y-95009815D01*
X66162416Y-94993181D01*
X65936819Y-94767584D01*
X65903334Y-94706261D01*
X65900500Y-94679903D01*
X65900500Y-93369601D01*
X65920185Y-93302562D01*
X65968206Y-93259116D01*
X65981610Y-93252287D01*
X66147219Y-93131966D01*
X66291966Y-92987219D01*
X66291968Y-92987215D01*
X66291971Y-92987213D01*
X66390083Y-92852171D01*
X66412287Y-92821610D01*
X66505220Y-92639219D01*
X66568477Y-92444534D01*
X66600500Y-92242352D01*
X66600500Y-92037648D01*
X66568477Y-91835466D01*
X66560202Y-91809999D01*
X66509509Y-91653981D01*
X66505220Y-91640781D01*
X66505218Y-91640778D01*
X66505218Y-91640776D01*
X66466299Y-91564394D01*
X66412287Y-91458390D01*
X66368692Y-91398386D01*
X66291971Y-91292786D01*
X66147213Y-91148028D01*
X65981613Y-91027715D01*
X65981612Y-91027714D01*
X65981610Y-91027713D01*
X65891024Y-90981557D01*
X65799223Y-90934781D01*
X65604534Y-90871522D01*
X65429995Y-90843878D01*
X65402352Y-90839500D01*
X65197648Y-90839500D01*
X65173329Y-90843351D01*
X64995465Y-90871522D01*
X64800776Y-90934781D01*
X64618386Y-91027715D01*
X64452786Y-91148028D01*
X64308028Y-91292786D01*
X64187715Y-91458386D01*
X64094781Y-91640776D01*
X64031522Y-91835465D01*
X63999500Y-92037648D01*
X63999500Y-92242351D01*
X64031522Y-92444534D01*
X64094781Y-92639223D01*
X64187715Y-92821613D01*
X64308028Y-92987213D01*
X64308034Y-92987219D01*
X64452781Y-93131966D01*
X64618390Y-93252287D01*
X64631793Y-93259116D01*
X64682589Y-93307088D01*
X64699500Y-93369601D01*
X64699500Y-94735500D01*
X64679815Y-94802539D01*
X64627011Y-94848294D01*
X64575500Y-94859500D01*
X63049622Y-94859500D01*
X62896893Y-94900423D01*
X62855134Y-94924534D01*
X62855133Y-94924534D01*
X62759967Y-94979477D01*
X62759962Y-94979481D01*
X62526263Y-95213181D01*
X62464940Y-95246666D01*
X62438582Y-95249500D01*
X58240943Y-95249500D01*
X58088219Y-95290421D01*
X58080710Y-95293532D01*
X58080478Y-95292974D01*
X58070074Y-95297283D01*
X58070087Y-95297314D01*
X58062577Y-95300424D01*
X57925652Y-95379477D01*
X57925647Y-95379481D01*
X54651949Y-98653181D01*
X54590626Y-98686666D01*
X54564268Y-98689500D01*
X51715513Y-98689500D01*
X51648474Y-98669815D01*
X51615195Y-98638386D01*
X51578694Y-98588147D01*
X51510945Y-98494898D01*
X51375102Y-98359055D01*
X51219681Y-98246135D01*
X51210121Y-98241264D01*
X51048506Y-98158916D01*
X50865802Y-98099553D01*
X50693632Y-98072284D01*
X50676055Y-98069500D01*
X50483945Y-98069500D01*
X50466368Y-98072284D01*
X50294197Y-98099553D01*
X50111493Y-98158916D01*
X49940318Y-98246135D01*
X49880632Y-98289500D01*
X49784898Y-98359055D01*
X49784896Y-98359057D01*
X49784895Y-98359057D01*
X49649057Y-98494895D01*
X49649057Y-98494896D01*
X49649055Y-98494898D01*
X49644095Y-98501725D01*
X49536135Y-98650318D01*
X49448916Y-98821493D01*
X49389553Y-99004197D01*
X49360513Y-99187547D01*
X49359500Y-99193945D01*
X49359500Y-99386055D01*
X49360991Y-99395466D01*
X49387245Y-99561231D01*
X49378290Y-99630525D01*
X49352454Y-99668310D01*
X49211286Y-99809478D01*
X49099481Y-99921282D01*
X49099475Y-99921290D01*
X49060117Y-99989462D01*
X49060117Y-99989464D01*
X49020423Y-100058214D01*
X49013218Y-100085103D01*
X48979499Y-100210943D01*
X48979499Y-100210945D01*
X48979499Y-100379046D01*
X48979500Y-100379059D01*
X48979500Y-100760602D01*
X48959815Y-100827641D01*
X48907011Y-100873396D01*
X48837853Y-100883340D01*
X48782615Y-100860920D01*
X48679684Y-100786137D01*
X48679683Y-100786136D01*
X48679681Y-100786135D01*
X48549812Y-100719963D01*
X48508506Y-100698916D01*
X48325802Y-100639553D01*
X48230928Y-100624526D01*
X48136055Y-100609500D01*
X47943945Y-100609500D01*
X47880696Y-100619517D01*
X47754197Y-100639553D01*
X47571493Y-100698916D01*
X47400318Y-100786135D01*
X47364910Y-100811861D01*
X47244898Y-100899055D01*
X47244896Y-100899057D01*
X47244895Y-100899057D01*
X47109057Y-101034895D01*
X47109057Y-101034896D01*
X47109055Y-101034898D01*
X47100501Y-101046672D01*
X46996135Y-101190318D01*
X46908916Y-101361493D01*
X46849553Y-101544197D01*
X46830961Y-101661585D01*
X46819500Y-101733945D01*
X44555067Y-101733945D01*
X44531557Y-101661588D01*
X44435051Y-101472184D01*
X44435049Y-101472181D01*
X44435048Y-101472179D01*
X44310109Y-101300213D01*
X44159786Y-101149890D01*
X43987820Y-101024951D01*
X43987115Y-101024591D01*
X43979054Y-101020485D01*
X43928259Y-100972512D01*
X43911463Y-100904692D01*
X43933999Y-100838556D01*
X43979054Y-100799515D01*
X43987816Y-100795051D01*
X44035231Y-100760602D01*
X44159786Y-100670109D01*
X44159788Y-100670106D01*
X44159792Y-100670104D01*
X44310104Y-100519792D01*
X44310106Y-100519788D01*
X44310109Y-100519786D01*
X44435048Y-100347820D01*
X44435047Y-100347820D01*
X44435051Y-100347816D01*
X44531557Y-100158412D01*
X44597246Y-99956243D01*
X44630500Y-99746287D01*
X44630500Y-99533713D01*
X44597246Y-99323757D01*
X44583506Y-99281473D01*
X44581512Y-99211635D01*
X44613753Y-99155480D01*
X44910520Y-98858716D01*
X44989577Y-98721784D01*
X45030501Y-98569057D01*
X45030501Y-98410942D01*
X45030501Y-98403347D01*
X45030500Y-98403329D01*
X45030500Y-90229059D01*
X45030501Y-90229046D01*
X45030501Y-90060945D01*
X45030501Y-90060943D01*
X44989577Y-89908215D01*
X44960639Y-89858095D01*
X44910520Y-89771284D01*
X44798716Y-89659480D01*
X44798715Y-89659479D01*
X44794385Y-89655149D01*
X44794374Y-89655139D01*
X44226818Y-89087583D01*
X44193333Y-89026260D01*
X44190499Y-88999902D01*
X44190499Y-88377682D01*
X47260000Y-88377682D01*
X47260000Y-88582317D01*
X47292009Y-88784417D01*
X47355244Y-88979031D01*
X47448141Y-89161350D01*
X47448147Y-89161359D01*
X47540033Y-89287831D01*
X47540035Y-89287832D01*
X48189533Y-88638334D01*
X48239920Y-88725606D01*
X48314394Y-88800080D01*
X48401665Y-88850465D01*
X47752166Y-89499963D01*
X47878650Y-89591859D01*
X48060968Y-89684755D01*
X48255582Y-89747990D01*
X48457683Y-89780000D01*
X48662317Y-89780000D01*
X48864417Y-89747990D01*
X49059031Y-89684755D01*
X49241349Y-89591859D01*
X49367831Y-89499963D01*
X49367832Y-89499963D01*
X48718334Y-88850466D01*
X48805606Y-88800080D01*
X48880080Y-88725606D01*
X48930466Y-88638334D01*
X49579963Y-89287832D01*
X49579963Y-89287831D01*
X49671859Y-89161349D01*
X49764755Y-88979031D01*
X49827990Y-88784417D01*
X49860000Y-88582317D01*
X49860000Y-88417682D01*
X53040000Y-88417682D01*
X53040000Y-88622317D01*
X53072009Y-88824417D01*
X53135244Y-89019031D01*
X53228141Y-89201350D01*
X53228147Y-89201359D01*
X53320033Y-89327831D01*
X53320035Y-89327832D01*
X53969533Y-88678334D01*
X54019920Y-88765606D01*
X54094394Y-88840080D01*
X54181665Y-88890465D01*
X53532166Y-89539963D01*
X53658650Y-89631859D01*
X53840968Y-89724755D01*
X54035582Y-89787990D01*
X54237683Y-89820000D01*
X54442317Y-89820000D01*
X54644417Y-89787990D01*
X54839031Y-89724755D01*
X55021349Y-89631859D01*
X55147831Y-89539963D01*
X55147832Y-89539963D01*
X54498334Y-88890466D01*
X54585606Y-88840080D01*
X54660080Y-88765606D01*
X54710466Y-88678334D01*
X55359963Y-89327832D01*
X55359963Y-89327831D01*
X55451859Y-89201349D01*
X55544755Y-89019031D01*
X55607990Y-88824417D01*
X55640000Y-88622317D01*
X55640000Y-88417682D01*
X55607990Y-88215582D01*
X55544755Y-88020968D01*
X55513180Y-87958999D01*
X55451859Y-87838650D01*
X55359963Y-87712167D01*
X55359963Y-87712166D01*
X54710465Y-88361664D01*
X54660080Y-88274394D01*
X54585606Y-88199920D01*
X54498334Y-88149534D01*
X55147832Y-87500035D01*
X55147831Y-87500033D01*
X55021359Y-87408147D01*
X55021350Y-87408141D01*
X54839031Y-87315244D01*
X54644417Y-87252009D01*
X54442317Y-87220000D01*
X54237683Y-87220000D01*
X54035582Y-87252009D01*
X53840968Y-87315244D01*
X53658647Y-87408142D01*
X53532167Y-87500034D01*
X53532167Y-87500035D01*
X54181665Y-88149533D01*
X54094394Y-88199920D01*
X54019920Y-88274394D01*
X53969533Y-88361665D01*
X53320035Y-87712167D01*
X53320034Y-87712167D01*
X53228142Y-87838647D01*
X53135244Y-88020968D01*
X53072009Y-88215582D01*
X53040000Y-88417682D01*
X49860000Y-88417682D01*
X49860000Y-88377682D01*
X49827990Y-88175582D01*
X49764755Y-87980968D01*
X49671859Y-87798650D01*
X49579963Y-87672166D01*
X48930465Y-88321664D01*
X48880080Y-88234394D01*
X48805606Y-88159920D01*
X48718334Y-88109534D01*
X49367832Y-87460035D01*
X49367831Y-87460033D01*
X49241359Y-87368147D01*
X49241350Y-87368141D01*
X49059031Y-87275244D01*
X48864417Y-87212009D01*
X48662317Y-87180000D01*
X48457683Y-87180000D01*
X48255582Y-87212009D01*
X48060968Y-87275244D01*
X47878647Y-87368142D01*
X47752167Y-87460034D01*
X47752167Y-87460035D01*
X48401665Y-88109533D01*
X48314394Y-88159920D01*
X48239920Y-88234394D01*
X48189533Y-88321665D01*
X47540035Y-87672167D01*
X47540034Y-87672167D01*
X47448142Y-87798647D01*
X47355244Y-87980968D01*
X47292009Y-88175582D01*
X47260000Y-88377682D01*
X44190499Y-88377682D01*
X44190499Y-87999998D01*
X44190498Y-87999981D01*
X44179999Y-87897203D01*
X44179998Y-87897200D01*
X44160595Y-87838647D01*
X44124814Y-87730666D01*
X44032712Y-87581344D01*
X43908656Y-87457288D01*
X43764135Y-87368147D01*
X43759336Y-87365187D01*
X43759331Y-87365185D01*
X43757862Y-87364698D01*
X43592797Y-87310001D01*
X43592795Y-87310000D01*
X43490010Y-87299500D01*
X42289998Y-87299500D01*
X42289981Y-87299501D01*
X42187203Y-87310000D01*
X42187200Y-87310001D01*
X42020668Y-87365185D01*
X42020663Y-87365187D01*
X41871342Y-87457289D01*
X41747289Y-87581342D01*
X41655187Y-87730663D01*
X41655185Y-87730668D01*
X41652811Y-87737832D01*
X41600001Y-87897203D01*
X41600001Y-87897204D01*
X41600000Y-87897204D01*
X41589500Y-87999983D01*
X40250500Y-87999983D01*
X40250500Y-86827682D01*
X59070000Y-86827682D01*
X59070000Y-87032317D01*
X59102009Y-87234417D01*
X59165244Y-87429031D01*
X59258141Y-87611350D01*
X59258147Y-87611359D01*
X59350033Y-87737831D01*
X59350035Y-87737832D01*
X59999533Y-87088334D01*
X60049920Y-87175606D01*
X60124394Y-87250080D01*
X60211665Y-87300465D01*
X59562166Y-87949963D01*
X59688650Y-88041859D01*
X59870968Y-88134755D01*
X60065582Y-88197990D01*
X60267683Y-88230000D01*
X60472317Y-88230000D01*
X60674417Y-88197990D01*
X60869031Y-88134755D01*
X61051349Y-88041859D01*
X61177831Y-87949963D01*
X61177832Y-87949963D01*
X60528334Y-87300466D01*
X60615606Y-87250080D01*
X60690080Y-87175606D01*
X60740466Y-87088334D01*
X61389963Y-87737832D01*
X61389963Y-87737831D01*
X61481859Y-87611349D01*
X61574755Y-87429031D01*
X61637990Y-87234417D01*
X61670000Y-87032317D01*
X61670000Y-86827682D01*
X61637990Y-86625582D01*
X61574755Y-86430968D01*
X61481859Y-86248650D01*
X61389963Y-86122167D01*
X61389963Y-86122166D01*
X60740465Y-86771664D01*
X60690080Y-86684394D01*
X60615606Y-86609920D01*
X60528334Y-86559534D01*
X61177832Y-85910035D01*
X61177831Y-85910033D01*
X61051359Y-85818147D01*
X61051350Y-85818141D01*
X60869031Y-85725244D01*
X60674417Y-85662009D01*
X60472317Y-85630000D01*
X60267683Y-85630000D01*
X60065582Y-85662009D01*
X59870968Y-85725244D01*
X59688647Y-85818142D01*
X59562167Y-85910034D01*
X59562167Y-85910035D01*
X60211665Y-86559533D01*
X60124394Y-86609920D01*
X60049920Y-86684394D01*
X59999533Y-86771665D01*
X59350035Y-86122167D01*
X59350034Y-86122167D01*
X59258142Y-86248647D01*
X59165244Y-86430968D01*
X59102009Y-86625582D01*
X59070000Y-86827682D01*
X40250500Y-86827682D01*
X40250500Y-80877648D01*
X41589500Y-80877648D01*
X41589500Y-81082351D01*
X41621522Y-81284534D01*
X41684781Y-81479223D01*
X41727365Y-81562797D01*
X41754201Y-81615466D01*
X41777715Y-81661613D01*
X41898028Y-81827213D01*
X42042786Y-81971971D01*
X42197749Y-82084556D01*
X42208390Y-82092287D01*
X42291850Y-82134812D01*
X42390776Y-82185218D01*
X42390778Y-82185218D01*
X42390781Y-82185220D01*
X42495137Y-82219127D01*
X42585465Y-82248477D01*
X42686557Y-82264488D01*
X42787648Y-82280500D01*
X42787649Y-82280500D01*
X42992351Y-82280500D01*
X42992352Y-82280500D01*
X43194534Y-82248477D01*
X43389219Y-82185220D01*
X43571610Y-82092287D01*
X43667869Y-82022351D01*
X43737213Y-81971971D01*
X43737215Y-81971968D01*
X43737219Y-81971966D01*
X43881966Y-81827219D01*
X43881968Y-81827215D01*
X43881971Y-81827213D01*
X43940972Y-81746004D01*
X44002287Y-81661610D01*
X44095220Y-81479219D01*
X44158477Y-81284534D01*
X44190500Y-81082352D01*
X44190500Y-80877648D01*
X44179423Y-80807713D01*
X44158477Y-80675465D01*
X44095218Y-80480776D01*
X44009797Y-80313129D01*
X44009796Y-80313127D01*
X44002286Y-80298388D01*
X43974384Y-80259983D01*
X47259500Y-80259983D01*
X47259500Y-81460001D01*
X47259501Y-81460018D01*
X47270000Y-81562796D01*
X47270001Y-81562799D01*
X47307336Y-81675466D01*
X47325186Y-81729334D01*
X47417288Y-81878656D01*
X47541344Y-82002712D01*
X47690666Y-82094814D01*
X47857203Y-82149999D01*
X47959991Y-82160500D01*
X49160008Y-82160499D01*
X49262797Y-82149999D01*
X49429334Y-82094814D01*
X49578656Y-82002712D01*
X49702712Y-81878656D01*
X49794814Y-81729334D01*
X49849999Y-81562797D01*
X49860500Y-81460009D01*
X49860499Y-80299983D01*
X53039500Y-80299983D01*
X53039500Y-81500001D01*
X53039501Y-81500018D01*
X53050000Y-81602796D01*
X53050001Y-81602799D01*
X53074081Y-81675466D01*
X53105186Y-81769334D01*
X53197288Y-81918656D01*
X53321344Y-82042712D01*
X53470666Y-82134814D01*
X53637203Y-82189999D01*
X53739991Y-82200500D01*
X54940008Y-82200499D01*
X55042797Y-82189999D01*
X55209334Y-82134814D01*
X55358656Y-82042712D01*
X55482712Y-81918656D01*
X55538846Y-81827648D01*
X59069500Y-81827648D01*
X59069500Y-82032351D01*
X59101522Y-82234534D01*
X59164781Y-82429223D01*
X59190256Y-82479219D01*
X59252619Y-82601613D01*
X59257715Y-82611613D01*
X59378028Y-82777213D01*
X59522786Y-82921971D01*
X59629374Y-82999410D01*
X59688390Y-83042287D01*
X59799807Y-83099057D01*
X59870776Y-83135218D01*
X59870778Y-83135218D01*
X59870781Y-83135220D01*
X59975137Y-83169127D01*
X60065465Y-83198477D01*
X60138212Y-83209999D01*
X60267648Y-83230500D01*
X60267649Y-83230500D01*
X60472351Y-83230500D01*
X60472352Y-83230500D01*
X60674534Y-83198477D01*
X60869219Y-83135220D01*
X61051610Y-83042287D01*
X61144590Y-82974732D01*
X61217213Y-82921971D01*
X61217215Y-82921968D01*
X61217219Y-82921966D01*
X61361966Y-82777219D01*
X61361968Y-82777215D01*
X61361971Y-82777213D01*
X61453460Y-82651287D01*
X61482287Y-82611610D01*
X61575220Y-82429219D01*
X61638477Y-82234534D01*
X61670500Y-82032352D01*
X61670500Y-81877648D01*
X63999500Y-81877648D01*
X63999500Y-82082351D01*
X64031522Y-82284534D01*
X64094781Y-82479223D01*
X64145257Y-82578286D01*
X64182453Y-82651287D01*
X64187715Y-82661613D01*
X64308028Y-82827213D01*
X64452786Y-82971971D01*
X64535806Y-83032287D01*
X64618390Y-83092287D01*
X64683025Y-83125220D01*
X64800776Y-83185218D01*
X64800778Y-83185218D01*
X64800781Y-83185220D01*
X64877043Y-83209999D01*
X64995465Y-83248477D01*
X65077348Y-83261446D01*
X65197648Y-83280500D01*
X65197649Y-83280500D01*
X65402351Y-83280500D01*
X65402352Y-83280500D01*
X65604534Y-83248477D01*
X65799219Y-83185220D01*
X65981610Y-83092287D01*
X66074590Y-83024732D01*
X66147213Y-82971971D01*
X66147215Y-82971968D01*
X66147219Y-82971966D01*
X66291966Y-82827219D01*
X66291968Y-82827215D01*
X66291971Y-82827213D01*
X66364044Y-82728011D01*
X66412287Y-82661610D01*
X66505220Y-82479219D01*
X66568477Y-82284534D01*
X66600500Y-82082352D01*
X66600500Y-81877648D01*
X66568477Y-81675465D01*
X66511470Y-81500016D01*
X66505220Y-81480781D01*
X66505218Y-81480778D01*
X66505218Y-81480776D01*
X66471503Y-81414607D01*
X66412287Y-81298390D01*
X66402220Y-81284534D01*
X66291971Y-81132786D01*
X66147213Y-80988028D01*
X65981613Y-80867715D01*
X65981612Y-80867714D01*
X65981610Y-80867713D01*
X65883480Y-80817713D01*
X65799223Y-80774781D01*
X65604534Y-80711522D01*
X65429995Y-80683878D01*
X65402352Y-80679500D01*
X65197648Y-80679500D01*
X65173329Y-80683351D01*
X64995465Y-80711522D01*
X64800776Y-80774781D01*
X64618386Y-80867715D01*
X64452786Y-80988028D01*
X64308028Y-81132786D01*
X64187715Y-81298386D01*
X64094781Y-81480776D01*
X64031522Y-81675465D01*
X63999500Y-81877648D01*
X61670500Y-81877648D01*
X61670500Y-81827648D01*
X61638477Y-81625466D01*
X61635227Y-81615465D01*
X61597716Y-81500016D01*
X61575220Y-81430781D01*
X61575218Y-81430778D01*
X61575218Y-81430776D01*
X61518770Y-81319992D01*
X61482287Y-81248390D01*
X61459629Y-81217203D01*
X61361971Y-81082786D01*
X61217213Y-80938028D01*
X61051613Y-80817715D01*
X61051612Y-80817714D01*
X61051610Y-80817713D01*
X60972272Y-80777288D01*
X60869223Y-80724781D01*
X60674534Y-80661522D01*
X60499995Y-80633878D01*
X60472352Y-80629500D01*
X60267648Y-80629500D01*
X60243329Y-80633351D01*
X60065465Y-80661522D01*
X59870776Y-80724781D01*
X59688386Y-80817715D01*
X59522786Y-80938028D01*
X59378028Y-81082786D01*
X59257715Y-81248386D01*
X59164781Y-81430776D01*
X59101522Y-81625465D01*
X59069500Y-81827648D01*
X55538846Y-81827648D01*
X55574814Y-81769334D01*
X55629999Y-81602797D01*
X55640500Y-81500009D01*
X55640499Y-80299992D01*
X55629999Y-80197203D01*
X55574814Y-80030666D01*
X55482712Y-79881344D01*
X55358656Y-79757288D01*
X55209334Y-79665186D01*
X55042797Y-79610001D01*
X55042795Y-79610000D01*
X54940010Y-79599500D01*
X53739998Y-79599500D01*
X53739981Y-79599501D01*
X53637203Y-79610000D01*
X53637200Y-79610001D01*
X53470668Y-79665185D01*
X53470663Y-79665187D01*
X53321342Y-79757289D01*
X53197289Y-79881342D01*
X53105187Y-80030663D01*
X53105186Y-80030666D01*
X53050001Y-80197203D01*
X53050001Y-80197204D01*
X53050000Y-80197204D01*
X53039500Y-80299983D01*
X49860499Y-80299983D01*
X49860499Y-80259992D01*
X49849999Y-80157203D01*
X49794814Y-79990666D01*
X49702712Y-79841344D01*
X49578656Y-79717288D01*
X49429334Y-79625186D01*
X49262797Y-79570001D01*
X49262795Y-79570000D01*
X49160010Y-79559500D01*
X47959998Y-79559500D01*
X47959981Y-79559501D01*
X47857203Y-79570000D01*
X47857200Y-79570001D01*
X47690668Y-79625185D01*
X47690663Y-79625187D01*
X47541342Y-79717289D01*
X47417289Y-79841342D01*
X47325187Y-79990663D01*
X47325185Y-79990668D01*
X47297349Y-80074670D01*
X47270001Y-80157203D01*
X47270001Y-80157204D01*
X47270000Y-80157204D01*
X47259500Y-80259983D01*
X43974384Y-80259983D01*
X43881971Y-80132786D01*
X43737213Y-79988028D01*
X43571613Y-79867715D01*
X43571612Y-79867714D01*
X43571610Y-79867713D01*
X43514653Y-79838691D01*
X43389223Y-79774781D01*
X43194534Y-79711522D01*
X43019995Y-79683878D01*
X42992352Y-79679500D01*
X42787648Y-79679500D01*
X42763329Y-79683351D01*
X42585465Y-79711522D01*
X42390776Y-79774781D01*
X42208386Y-79867715D01*
X42042786Y-79988028D01*
X41898028Y-80132786D01*
X41777715Y-80298386D01*
X41684781Y-80480776D01*
X41621522Y-80675465D01*
X41589500Y-80877648D01*
X40250500Y-80877648D01*
X40250500Y-76367648D01*
X45989500Y-76367648D01*
X45989500Y-76572351D01*
X46021522Y-76774534D01*
X46084781Y-76969223D01*
X46177715Y-77151613D01*
X46298028Y-77317213D01*
X46442786Y-77461971D01*
X46597749Y-77574556D01*
X46608390Y-77582287D01*
X46724607Y-77641503D01*
X46790776Y-77675218D01*
X46790778Y-77675218D01*
X46790781Y-77675220D01*
X46895137Y-77709127D01*
X46985465Y-77738477D01*
X47086557Y-77754488D01*
X47187648Y-77770500D01*
X47187649Y-77770500D01*
X47392351Y-77770500D01*
X47392352Y-77770500D01*
X47594534Y-77738477D01*
X47789219Y-77675220D01*
X47971610Y-77582287D01*
X48064590Y-77514732D01*
X48137213Y-77461971D01*
X48137215Y-77461968D01*
X48137219Y-77461966D01*
X48281966Y-77317219D01*
X48281968Y-77317215D01*
X48281971Y-77317213D01*
X48375971Y-77187831D01*
X48402287Y-77151610D01*
X48495220Y-76969219D01*
X48558477Y-76774534D01*
X48590500Y-76572352D01*
X48590500Y-76367648D01*
X56149500Y-76367648D01*
X56149500Y-76572351D01*
X56181522Y-76774534D01*
X56244781Y-76969223D01*
X56337715Y-77151613D01*
X56458028Y-77317213D01*
X56602786Y-77461971D01*
X56757749Y-77574556D01*
X56768390Y-77582287D01*
X56884607Y-77641503D01*
X56950776Y-77675218D01*
X56950778Y-77675218D01*
X56950781Y-77675220D01*
X57055137Y-77709127D01*
X57145465Y-77738477D01*
X57246557Y-77754488D01*
X57347648Y-77770500D01*
X57347649Y-77770500D01*
X57552351Y-77770500D01*
X57552352Y-77770500D01*
X57754534Y-77738477D01*
X57949219Y-77675220D01*
X58131610Y-77582287D01*
X58224590Y-77514732D01*
X58297213Y-77461971D01*
X58297215Y-77461968D01*
X58297219Y-77461966D01*
X58441966Y-77317219D01*
X58441968Y-77317215D01*
X58441971Y-77317213D01*
X58535971Y-77187831D01*
X58562287Y-77151610D01*
X58655220Y-76969219D01*
X58718477Y-76774534D01*
X58750500Y-76572352D01*
X58750500Y-76367648D01*
X58736245Y-76277648D01*
X59359500Y-76277648D01*
X59359500Y-76482351D01*
X59391522Y-76684534D01*
X59454781Y-76879223D01*
X59500011Y-76967990D01*
X59547585Y-77061359D01*
X59547715Y-77061613D01*
X59668028Y-77227213D01*
X59812786Y-77371971D01*
X59936656Y-77461966D01*
X59978390Y-77492287D01*
X60094607Y-77551503D01*
X60160776Y-77585218D01*
X60160778Y-77585218D01*
X60160781Y-77585220D01*
X60265137Y-77619127D01*
X60355465Y-77648477D01*
X60456557Y-77664488D01*
X60557648Y-77680500D01*
X60557649Y-77680500D01*
X60762351Y-77680500D01*
X60762352Y-77680500D01*
X60964534Y-77648477D01*
X61159219Y-77585220D01*
X61341610Y-77492287D01*
X61434590Y-77424732D01*
X61507213Y-77371971D01*
X61507215Y-77371968D01*
X61507219Y-77371966D01*
X61651966Y-77227219D01*
X61651968Y-77227215D01*
X61651971Y-77227213D01*
X61706899Y-77151610D01*
X61772287Y-77061610D01*
X61865220Y-76879219D01*
X61928477Y-76684534D01*
X61960500Y-76482352D01*
X61960500Y-76277682D01*
X69520000Y-76277682D01*
X69520000Y-76482317D01*
X69552009Y-76684417D01*
X69615244Y-76879031D01*
X69708141Y-77061350D01*
X69708147Y-77061359D01*
X69800033Y-77187831D01*
X69800035Y-77187832D01*
X70449533Y-76538334D01*
X70499920Y-76625606D01*
X70574394Y-76700080D01*
X70661665Y-76750465D01*
X70012166Y-77399963D01*
X70138650Y-77491859D01*
X70320968Y-77584755D01*
X70515582Y-77647990D01*
X70717683Y-77680000D01*
X70922317Y-77680000D01*
X71124417Y-77647990D01*
X71319031Y-77584755D01*
X71501349Y-77491859D01*
X71627831Y-77399963D01*
X71627832Y-77399963D01*
X70978334Y-76750466D01*
X71065606Y-76700080D01*
X71140080Y-76625606D01*
X71190466Y-76538334D01*
X71839963Y-77187832D01*
X71839963Y-77187831D01*
X71931859Y-77061349D01*
X72024755Y-76879031D01*
X72087989Y-76684418D01*
X72092918Y-76653305D01*
X72092918Y-76653304D01*
X72120000Y-76482317D01*
X72120000Y-76277682D01*
X72087990Y-76075582D01*
X72024755Y-75880968D01*
X71931859Y-75698650D01*
X71907921Y-75665702D01*
X71858501Y-75597682D01*
X83600000Y-75597682D01*
X83600000Y-75802317D01*
X83632009Y-76004417D01*
X83695244Y-76199031D01*
X83788141Y-76381350D01*
X83788147Y-76381359D01*
X83880033Y-76507831D01*
X83880035Y-76507832D01*
X84529533Y-75858334D01*
X84579920Y-75945606D01*
X84654394Y-76020080D01*
X84741665Y-76070465D01*
X84092166Y-76719963D01*
X84218650Y-76811859D01*
X84400968Y-76904755D01*
X84595582Y-76967990D01*
X84797683Y-77000000D01*
X85002317Y-77000000D01*
X85204417Y-76967990D01*
X85399031Y-76904755D01*
X85581349Y-76811859D01*
X85707831Y-76719963D01*
X85707832Y-76719963D01*
X85058334Y-76070466D01*
X85145606Y-76020080D01*
X85220080Y-75945606D01*
X85270466Y-75858334D01*
X85919963Y-76507832D01*
X85919963Y-76507831D01*
X86011859Y-76381349D01*
X86104755Y-76199031D01*
X86167990Y-76004417D01*
X86200000Y-75802317D01*
X86200000Y-75597682D01*
X86199995Y-75597648D01*
X88599500Y-75597648D01*
X88599500Y-75802351D01*
X88631522Y-76004534D01*
X88694781Y-76199223D01*
X88734759Y-76277682D01*
X88787585Y-76381359D01*
X88787715Y-76381613D01*
X88908028Y-76547213D01*
X89052786Y-76691971D01*
X89166427Y-76774534D01*
X89218390Y-76812287D01*
X89334607Y-76871503D01*
X89400776Y-76905218D01*
X89400778Y-76905218D01*
X89400781Y-76905220D01*
X89505137Y-76939127D01*
X89595465Y-76968477D01*
X89696557Y-76984488D01*
X89797648Y-77000500D01*
X89797649Y-77000500D01*
X90002351Y-77000500D01*
X90002352Y-77000500D01*
X90204534Y-76968477D01*
X90399219Y-76905220D01*
X90581610Y-76812287D01*
X90674590Y-76744732D01*
X90747213Y-76691971D01*
X90747215Y-76691968D01*
X90747219Y-76691966D01*
X90891966Y-76547219D01*
X90891968Y-76547215D01*
X90891971Y-76547213D01*
X90944732Y-76474590D01*
X91012287Y-76381610D01*
X91105220Y-76199219D01*
X91168477Y-76004534D01*
X91200500Y-75802352D01*
X91200500Y-75597648D01*
X91181554Y-75478028D01*
X91168477Y-75395465D01*
X91137458Y-75300000D01*
X91105220Y-75200781D01*
X91105218Y-75200778D01*
X91105218Y-75200776D01*
X91059740Y-75111522D01*
X91012287Y-75018390D01*
X91004556Y-75007749D01*
X90891971Y-74852786D01*
X90747213Y-74708028D01*
X90581613Y-74587715D01*
X90581612Y-74587714D01*
X90581610Y-74587713D01*
X90524653Y-74558691D01*
X90399223Y-74494781D01*
X90204534Y-74431522D01*
X90029995Y-74403878D01*
X90002352Y-74399500D01*
X89797648Y-74399500D01*
X89773329Y-74403351D01*
X89595465Y-74431522D01*
X89400776Y-74494781D01*
X89218386Y-74587715D01*
X89052786Y-74708028D01*
X88908028Y-74852786D01*
X88787715Y-75018386D01*
X88694781Y-75200776D01*
X88631522Y-75395465D01*
X88599500Y-75597648D01*
X86199995Y-75597648D01*
X86167990Y-75395582D01*
X86104755Y-75200968D01*
X86011859Y-75018650D01*
X85919963Y-74892167D01*
X85919963Y-74892166D01*
X85270465Y-75541664D01*
X85220080Y-75454394D01*
X85145606Y-75379920D01*
X85058334Y-75329534D01*
X85707832Y-74680035D01*
X85707831Y-74680033D01*
X85581359Y-74588147D01*
X85581350Y-74588141D01*
X85399031Y-74495244D01*
X85204417Y-74432009D01*
X85002317Y-74400000D01*
X84797683Y-74400000D01*
X84595582Y-74432009D01*
X84400968Y-74495244D01*
X84218647Y-74588142D01*
X84092167Y-74680034D01*
X84092167Y-74680035D01*
X84741665Y-75329533D01*
X84654394Y-75379920D01*
X84579920Y-75454394D01*
X84529533Y-75541665D01*
X83880035Y-74892167D01*
X83880034Y-74892167D01*
X83788142Y-75018647D01*
X83695244Y-75200968D01*
X83632009Y-75395582D01*
X83600000Y-75597682D01*
X71858501Y-75597682D01*
X71839963Y-75572167D01*
X71839963Y-75572166D01*
X71190465Y-76221664D01*
X71140080Y-76134394D01*
X71065606Y-76059920D01*
X70978334Y-76009534D01*
X71627832Y-75360035D01*
X71627831Y-75360033D01*
X71501359Y-75268147D01*
X71501350Y-75268141D01*
X71319031Y-75175244D01*
X71124417Y-75112009D01*
X70922317Y-75080000D01*
X70717683Y-75080000D01*
X70515582Y-75112009D01*
X70320968Y-75175244D01*
X70138647Y-75268142D01*
X70012167Y-75360034D01*
X70012167Y-75360035D01*
X70661665Y-76009533D01*
X70574394Y-76059920D01*
X70499920Y-76134394D01*
X70449533Y-76221665D01*
X69800035Y-75572167D01*
X69800034Y-75572167D01*
X69708142Y-75698647D01*
X69615244Y-75880968D01*
X69552009Y-76075582D01*
X69520000Y-76277682D01*
X61960500Y-76277682D01*
X61960500Y-76277648D01*
X61952257Y-76225606D01*
X61928477Y-76075465D01*
X61886283Y-75945606D01*
X61865220Y-75880781D01*
X61865218Y-75880778D01*
X61865218Y-75880776D01*
X61825258Y-75802351D01*
X61772287Y-75698390D01*
X61717358Y-75622786D01*
X61651971Y-75532786D01*
X61507213Y-75388028D01*
X61341613Y-75267715D01*
X61341612Y-75267714D01*
X61341610Y-75267713D01*
X61284653Y-75238691D01*
X61159223Y-75174781D01*
X60964534Y-75111522D01*
X60789995Y-75083878D01*
X60762352Y-75079500D01*
X60557648Y-75079500D01*
X60533329Y-75083351D01*
X60355465Y-75111522D01*
X60160776Y-75174781D01*
X59978386Y-75267715D01*
X59812786Y-75388028D01*
X59668028Y-75532786D01*
X59547715Y-75698386D01*
X59454781Y-75880776D01*
X59391522Y-76075465D01*
X59359500Y-76277648D01*
X58736245Y-76277648D01*
X58718477Y-76165465D01*
X58655218Y-75970776D01*
X58609458Y-75880968D01*
X58562287Y-75788390D01*
X58536329Y-75752661D01*
X58441971Y-75622786D01*
X58297213Y-75478028D01*
X58131613Y-75357715D01*
X58131612Y-75357714D01*
X58131610Y-75357713D01*
X58071841Y-75327259D01*
X57949223Y-75264781D01*
X57754534Y-75201522D01*
X57579995Y-75173878D01*
X57552352Y-75169500D01*
X57347648Y-75169500D01*
X57323329Y-75173351D01*
X57145465Y-75201522D01*
X56950776Y-75264781D01*
X56768386Y-75357715D01*
X56602786Y-75478028D01*
X56458028Y-75622786D01*
X56337715Y-75788386D01*
X56244781Y-75970776D01*
X56181522Y-76165465D01*
X56149500Y-76367648D01*
X48590500Y-76367648D01*
X48576245Y-76277648D01*
X48558477Y-76165465D01*
X48495218Y-75970776D01*
X48449458Y-75880968D01*
X48402287Y-75788390D01*
X48376329Y-75752661D01*
X48281971Y-75622786D01*
X48137213Y-75478028D01*
X47971613Y-75357715D01*
X47971612Y-75357714D01*
X47971610Y-75357713D01*
X47911841Y-75327259D01*
X47789223Y-75264781D01*
X47594534Y-75201522D01*
X47419995Y-75173878D01*
X47392352Y-75169500D01*
X47187648Y-75169500D01*
X47163329Y-75173351D01*
X46985465Y-75201522D01*
X46790776Y-75264781D01*
X46608386Y-75357715D01*
X46442786Y-75478028D01*
X46298028Y-75622786D01*
X46177715Y-75788386D01*
X46084781Y-75970776D01*
X46021522Y-76165465D01*
X45989500Y-76367648D01*
X40250500Y-76367648D01*
X40250500Y-65790736D01*
X41249500Y-65790736D01*
X41249500Y-66229263D01*
X41283905Y-66666424D01*
X41283905Y-66666425D01*
X41352503Y-67099539D01*
X41429714Y-67421143D01*
X41454874Y-67525942D01*
X41454878Y-67525953D01*
X41590380Y-67942991D01*
X41704256Y-68217910D01*
X41758197Y-68348133D01*
X41770042Y-68371380D01*
X41957286Y-68738868D01*
X41957289Y-68738873D01*
X42186397Y-69112742D01*
X42186402Y-69112749D01*
X42186404Y-69112752D01*
X42339249Y-69323126D01*
X42444151Y-69467512D01*
X42444161Y-69467526D01*
X42701406Y-69768719D01*
X42728951Y-69800970D01*
X43039030Y-70111049D01*
X43039036Y-70111054D01*
X43372473Y-70395838D01*
X43372480Y-70395843D01*
X43727248Y-70653596D01*
X43727252Y-70653598D01*
X43727257Y-70653602D01*
X44101126Y-70882710D01*
X44101131Y-70882713D01*
X44101136Y-70882715D01*
X44101145Y-70882721D01*
X44491867Y-71081803D01*
X44897003Y-71249617D01*
X44897008Y-71249619D01*
X45003050Y-71284073D01*
X45314058Y-71385126D01*
X45740458Y-71487496D01*
X46173576Y-71556095D01*
X46610742Y-71590500D01*
X46610750Y-71590500D01*
X47049250Y-71590500D01*
X47049258Y-71590500D01*
X47486424Y-71556095D01*
X47919542Y-71487496D01*
X48345942Y-71385126D01*
X48762997Y-71249617D01*
X49168133Y-71081803D01*
X49558855Y-70882721D01*
X49932752Y-70653596D01*
X50287520Y-70395843D01*
X50312634Y-70374394D01*
X50325159Y-70363696D01*
X50620970Y-70111049D01*
X50931049Y-69800970D01*
X51155091Y-69538651D01*
X51215838Y-69467526D01*
X51215838Y-69467525D01*
X51215843Y-69467520D01*
X51473596Y-69112752D01*
X51702721Y-68738855D01*
X51901803Y-68348133D01*
X52069617Y-67942997D01*
X52205126Y-67525942D01*
X52307496Y-67099542D01*
X52376095Y-66666424D01*
X52410500Y-66229258D01*
X52410500Y-65790742D01*
X52400270Y-65660755D01*
X54190000Y-65660755D01*
X54190000Y-66099244D01*
X54224402Y-66536355D01*
X54224404Y-66536374D01*
X54292995Y-66969438D01*
X54395353Y-67395794D01*
X54395360Y-67395817D01*
X54530850Y-67812817D01*
X54698646Y-68217910D01*
X54698652Y-68217923D01*
X54897723Y-68608623D01*
X54897726Y-68608629D01*
X55126810Y-68982458D01*
X55126824Y-68982480D01*
X55384554Y-69337213D01*
X55384556Y-69337215D01*
X55669313Y-69670623D01*
X55669326Y-69670637D01*
X55718278Y-69719589D01*
X57507257Y-67930609D01*
X57719389Y-68142741D01*
X55930410Y-69931721D01*
X55979362Y-69980673D01*
X55979376Y-69980686D01*
X56312784Y-70265443D01*
X56312786Y-70265445D01*
X56667519Y-70523175D01*
X56667541Y-70523189D01*
X57041370Y-70752273D01*
X57041376Y-70752276D01*
X57432076Y-70951347D01*
X57432089Y-70951353D01*
X57837182Y-71119149D01*
X58254182Y-71254639D01*
X58254205Y-71254646D01*
X58680561Y-71357004D01*
X59113625Y-71425595D01*
X59113644Y-71425597D01*
X59550755Y-71459999D01*
X59550769Y-71460000D01*
X59989231Y-71460000D01*
X59989244Y-71459999D01*
X60426355Y-71425597D01*
X60426374Y-71425595D01*
X60859438Y-71357004D01*
X61285794Y-71254646D01*
X61285817Y-71254639D01*
X61702817Y-71119149D01*
X62107910Y-70951353D01*
X62107923Y-70951347D01*
X62498623Y-70752276D01*
X62498629Y-70752273D01*
X62872458Y-70523189D01*
X62872480Y-70523175D01*
X63227213Y-70265445D01*
X63227215Y-70265443D01*
X63560624Y-69980685D01*
X63560636Y-69980674D01*
X63609589Y-69931720D01*
X61820610Y-68142741D01*
X62032741Y-67930610D01*
X63821720Y-69719589D01*
X63821721Y-69719589D01*
X63870674Y-69670636D01*
X63870685Y-69670624D01*
X64155443Y-69337215D01*
X64155445Y-69337213D01*
X64413175Y-68982480D01*
X64413189Y-68982458D01*
X64642273Y-68608629D01*
X64642276Y-68608623D01*
X64841347Y-68217923D01*
X64841353Y-68217910D01*
X65009149Y-67812817D01*
X65144639Y-67395817D01*
X65144646Y-67395794D01*
X65247004Y-66969438D01*
X65315595Y-66536374D01*
X65315597Y-66536355D01*
X65349999Y-66099244D01*
X65350000Y-66099231D01*
X65350000Y-65660768D01*
X65349999Y-65660755D01*
X65315597Y-65223644D01*
X65315595Y-65223625D01*
X65247004Y-64790561D01*
X65208141Y-64628680D01*
X65201588Y-64601386D01*
X67887000Y-64601386D01*
X67887000Y-66538613D01*
X67887001Y-66538652D01*
X67889795Y-66591243D01*
X67889795Y-66591244D01*
X67924779Y-66772128D01*
X67934255Y-66821126D01*
X67971380Y-66919500D01*
X68016925Y-67040189D01*
X68135429Y-67242131D01*
X68135434Y-67242138D01*
X68286356Y-67421141D01*
X68286358Y-67421143D01*
X68465361Y-67572065D01*
X68465368Y-67572070D01*
X68667310Y-67690574D01*
X68886374Y-67773245D01*
X69116259Y-67817705D01*
X69168878Y-67820500D01*
X69168886Y-67820500D01*
X71106114Y-67820500D01*
X71106122Y-67820500D01*
X71158741Y-67817705D01*
X71388626Y-67773245D01*
X71607690Y-67690574D01*
X71809632Y-67572070D01*
X71864357Y-67525930D01*
X71988641Y-67421143D01*
X71988643Y-67421141D01*
X72139565Y-67242138D01*
X72139565Y-67242137D01*
X72139570Y-67242132D01*
X72258074Y-67040190D01*
X72340745Y-66821126D01*
X72341256Y-66818485D01*
X72341781Y-66817467D01*
X72342183Y-66816050D01*
X72342471Y-66816131D01*
X72373312Y-66756403D01*
X72433843Y-66721507D01*
X72503631Y-66724876D01*
X72560519Y-66765440D01*
X72586446Y-66830322D01*
X72587000Y-66842030D01*
X72587000Y-70367870D01*
X72587001Y-70367876D01*
X72593408Y-70427483D01*
X72643702Y-70562328D01*
X72643706Y-70562335D01*
X72729952Y-70677544D01*
X72729955Y-70677547D01*
X72845164Y-70763793D01*
X72845171Y-70763797D01*
X72980017Y-70814091D01*
X72980016Y-70814091D01*
X72986944Y-70814835D01*
X73039627Y-70820500D01*
X76635372Y-70820499D01*
X76694983Y-70814091D01*
X76829831Y-70763796D01*
X76945046Y-70677546D01*
X77031296Y-70562331D01*
X77081591Y-70427483D01*
X77088000Y-70367873D01*
X77087999Y-67619983D01*
X85549500Y-67619983D01*
X85549500Y-68820001D01*
X85549501Y-68820018D01*
X85560000Y-68922796D01*
X85560001Y-68922799D01*
X85615185Y-69089331D01*
X85615187Y-69089336D01*
X85707289Y-69238657D01*
X85776510Y-69307878D01*
X85809995Y-69369201D01*
X85805011Y-69438893D01*
X85789148Y-69468444D01*
X85738139Y-69538651D01*
X85645244Y-69720968D01*
X85582009Y-69915582D01*
X85550000Y-70117682D01*
X85550000Y-70322317D01*
X85582009Y-70524417D01*
X85645244Y-70719031D01*
X85738141Y-70901350D01*
X85738147Y-70901359D01*
X85830033Y-71027831D01*
X85830035Y-71027832D01*
X86479533Y-70378334D01*
X86529920Y-70465606D01*
X86604394Y-70540080D01*
X86691663Y-70590465D01*
X86042166Y-71239963D01*
X86168650Y-71331859D01*
X86350968Y-71424755D01*
X86545582Y-71487990D01*
X86747683Y-71520000D01*
X86952317Y-71520000D01*
X87154417Y-71487990D01*
X87349031Y-71424755D01*
X87531349Y-71331859D01*
X87657831Y-71239963D01*
X87657832Y-71239963D01*
X87008334Y-70590465D01*
X87095606Y-70540080D01*
X87170080Y-70465606D01*
X87220465Y-70378334D01*
X87869963Y-71027832D01*
X87869963Y-71027831D01*
X87961859Y-70901349D01*
X88054755Y-70719031D01*
X88090140Y-70610129D01*
X88138683Y-70393764D01*
X88150000Y-70322317D01*
X88150000Y-70117682D01*
X88117990Y-69915582D01*
X88054755Y-69720968D01*
X87961857Y-69538646D01*
X87910853Y-69468446D01*
X87887372Y-69402640D01*
X87903197Y-69334586D01*
X87923489Y-69307879D01*
X87931324Y-69300044D01*
X87992712Y-69238656D01*
X88084814Y-69089334D01*
X88139999Y-68922797D01*
X88150500Y-68820009D01*
X88150499Y-67619992D01*
X88139999Y-67517203D01*
X88084814Y-67350666D01*
X87992712Y-67201344D01*
X87868656Y-67077288D01*
X87726547Y-66989635D01*
X92749500Y-66989635D01*
X92749500Y-68990370D01*
X92749501Y-68990376D01*
X92755908Y-69049983D01*
X92806202Y-69184828D01*
X92806206Y-69184835D01*
X92892452Y-69300044D01*
X92892455Y-69300047D01*
X93007664Y-69386293D01*
X93007667Y-69386295D01*
X93007668Y-69386295D01*
X93007669Y-69386296D01*
X93036025Y-69396872D01*
X93091958Y-69438742D01*
X93116376Y-69504206D01*
X93101525Y-69572479D01*
X93093010Y-69585939D01*
X92960213Y-69768719D01*
X92856417Y-69972431D01*
X92785765Y-70189874D01*
X92785765Y-70189875D01*
X92755652Y-70380000D01*
X93720791Y-70380000D01*
X93700000Y-70457591D01*
X93700000Y-70602409D01*
X93720791Y-70680000D01*
X92755652Y-70680000D01*
X92785765Y-70870124D01*
X92785765Y-70870125D01*
X92856417Y-71087568D01*
X92960211Y-71291276D01*
X93094597Y-71476242D01*
X93256257Y-71637902D01*
X93256263Y-71637907D01*
X93340863Y-71699372D01*
X93383529Y-71754701D01*
X93389508Y-71824315D01*
X93356903Y-71886110D01*
X93340864Y-71900007D01*
X93255940Y-71961709D01*
X93255931Y-71961716D01*
X93094216Y-72123431D01*
X93094216Y-72123432D01*
X93094214Y-72123434D01*
X93036480Y-72202896D01*
X92959783Y-72308461D01*
X92855950Y-72512244D01*
X92785278Y-72729750D01*
X92785278Y-72729753D01*
X92749500Y-72955646D01*
X92749500Y-73184353D01*
X92785278Y-73410246D01*
X92785278Y-73410249D01*
X92855950Y-73627755D01*
X92855952Y-73627758D01*
X92959783Y-73831538D01*
X93094214Y-74016566D01*
X93255934Y-74178286D01*
X93440962Y-74312717D01*
X93612265Y-74400000D01*
X93644744Y-74416549D01*
X93862251Y-74487221D01*
X93862252Y-74487221D01*
X93862255Y-74487222D01*
X94088146Y-74523000D01*
X94088147Y-74523000D01*
X94411853Y-74523000D01*
X94411854Y-74523000D01*
X94637745Y-74487222D01*
X94637748Y-74487221D01*
X94637749Y-74487221D01*
X94855255Y-74416549D01*
X94855255Y-74416548D01*
X94855258Y-74416548D01*
X95059038Y-74312717D01*
X95244066Y-74178286D01*
X95405786Y-74016566D01*
X95540217Y-73831538D01*
X95644048Y-73627758D01*
X95714722Y-73410245D01*
X95750500Y-73184354D01*
X95750500Y-72955646D01*
X95714722Y-72729755D01*
X95714721Y-72729751D01*
X95714721Y-72729750D01*
X95644049Y-72512244D01*
X95540216Y-72308461D01*
X95405786Y-72123434D01*
X95244066Y-71961714D01*
X95159134Y-71900007D01*
X95116470Y-71844678D01*
X95110491Y-71775064D01*
X95143097Y-71713269D01*
X95159137Y-71699371D01*
X95243739Y-71637905D01*
X95405402Y-71476242D01*
X95539788Y-71291276D01*
X95643582Y-71087568D01*
X95714234Y-70870125D01*
X95714234Y-70870124D01*
X95744348Y-70680000D01*
X94779209Y-70680000D01*
X94800000Y-70602409D01*
X94800000Y-70457591D01*
X94779209Y-70380000D01*
X95744348Y-70380000D01*
X95714234Y-70189875D01*
X95714234Y-70189874D01*
X95643582Y-69972431D01*
X95539788Y-69768723D01*
X95406988Y-69585940D01*
X95383508Y-69520133D01*
X95399333Y-69452079D01*
X95449439Y-69403384D01*
X95463966Y-69396875D01*
X95492331Y-69386296D01*
X95607546Y-69300046D01*
X95693796Y-69184831D01*
X95744091Y-69049983D01*
X95750500Y-68990373D01*
X95750499Y-66989628D01*
X95744091Y-66930017D01*
X95740168Y-66919500D01*
X95693797Y-66795171D01*
X95693793Y-66795164D01*
X95607547Y-66679955D01*
X95607544Y-66679952D01*
X95492335Y-66593706D01*
X95492328Y-66593702D01*
X95357482Y-66543408D01*
X95357483Y-66543408D01*
X95297883Y-66537001D01*
X95297881Y-66537000D01*
X95297873Y-66537000D01*
X95297864Y-66537000D01*
X93202129Y-66537000D01*
X93202123Y-66537001D01*
X93142516Y-66543408D01*
X93007671Y-66593702D01*
X93007664Y-66593706D01*
X92892455Y-66679952D01*
X92892452Y-66679955D01*
X92806206Y-66795164D01*
X92806202Y-66795171D01*
X92755908Y-66930017D01*
X92749977Y-66985186D01*
X92749501Y-66989623D01*
X92749500Y-66989635D01*
X87726547Y-66989635D01*
X87719336Y-66985187D01*
X87719331Y-66985185D01*
X87717862Y-66984698D01*
X87552797Y-66930001D01*
X87552795Y-66930000D01*
X87450010Y-66919500D01*
X86249998Y-66919500D01*
X86249981Y-66919501D01*
X86147203Y-66930000D01*
X86147200Y-66930001D01*
X85980668Y-66985185D01*
X85980663Y-66985187D01*
X85831342Y-67077289D01*
X85707289Y-67201342D01*
X85615187Y-67350663D01*
X85615185Y-67350668D01*
X85591832Y-67421143D01*
X85560001Y-67517203D01*
X85560001Y-67517204D01*
X85560000Y-67517204D01*
X85549500Y-67619983D01*
X77087999Y-67619983D01*
X77087999Y-66772128D01*
X77081591Y-66712517D01*
X77069788Y-66680872D01*
X77031297Y-66577671D01*
X77031293Y-66577664D01*
X76945047Y-66462455D01*
X76945044Y-66462452D01*
X76829835Y-66376206D01*
X76829828Y-66376202D01*
X76694982Y-66325908D01*
X76694983Y-66325908D01*
X76635383Y-66319501D01*
X76635381Y-66319500D01*
X76635373Y-66319500D01*
X76635364Y-66319500D01*
X73039629Y-66319500D01*
X73039623Y-66319501D01*
X72980016Y-66325908D01*
X72845171Y-66376202D01*
X72845164Y-66376206D01*
X72729955Y-66462452D01*
X72729952Y-66462455D01*
X72643706Y-66577664D01*
X72643703Y-66577669D01*
X72626073Y-66624939D01*
X72584201Y-66680872D01*
X72518737Y-66705289D01*
X72450464Y-66690437D01*
X72401059Y-66641032D01*
X72386066Y-66575025D01*
X72387999Y-66538650D01*
X72388000Y-66538613D01*
X72388000Y-64601386D01*
X72387998Y-64601347D01*
X72386333Y-64569998D01*
X72385205Y-64548759D01*
X72340745Y-64318874D01*
X72258074Y-64099810D01*
X72139570Y-63897868D01*
X72139565Y-63897861D01*
X71988643Y-63718858D01*
X71988641Y-63718856D01*
X71809638Y-63567934D01*
X71809631Y-63567929D01*
X71607689Y-63449425D01*
X71517332Y-63415326D01*
X71388626Y-63366755D01*
X71388621Y-63366754D01*
X71158743Y-63322295D01*
X71106152Y-63319501D01*
X71106129Y-63319500D01*
X71106122Y-63319500D01*
X69168878Y-63319500D01*
X69168870Y-63319500D01*
X69168847Y-63319501D01*
X69116256Y-63322295D01*
X69116255Y-63322295D01*
X68886378Y-63366754D01*
X68886376Y-63366754D01*
X68886374Y-63366755D01*
X68812433Y-63394659D01*
X68667310Y-63449425D01*
X68465368Y-63567929D01*
X68465361Y-63567934D01*
X68286358Y-63718856D01*
X68286356Y-63718858D01*
X68135434Y-63897861D01*
X68135429Y-63897868D01*
X68016925Y-64099810D01*
X67962159Y-64244933D01*
X67934255Y-64318874D01*
X67934254Y-64318876D01*
X67934254Y-64318878D01*
X67889795Y-64548755D01*
X67889795Y-64548756D01*
X67887001Y-64601347D01*
X67887000Y-64601386D01*
X65201588Y-64601386D01*
X65144646Y-64364205D01*
X65144639Y-64364182D01*
X65009149Y-63947182D01*
X64841353Y-63542089D01*
X64841347Y-63542076D01*
X64642276Y-63151376D01*
X64642273Y-63151370D01*
X64413189Y-62777541D01*
X64413166Y-62777506D01*
X64387025Y-62741526D01*
X64387023Y-62741524D01*
X64155445Y-62422786D01*
X64155443Y-62422784D01*
X63870686Y-62089376D01*
X63870673Y-62089362D01*
X63821721Y-62040410D01*
X62032741Y-63829389D01*
X61820610Y-63617258D01*
X63609589Y-61828279D01*
X63609589Y-61828278D01*
X63560624Y-61779314D01*
X63560623Y-61779313D01*
X63533096Y-61755803D01*
X72587500Y-61755803D01*
X72587500Y-62420000D01*
X73360055Y-62420000D01*
X73337500Y-62504174D01*
X73337500Y-62635826D01*
X73360055Y-62720000D01*
X72587501Y-62720000D01*
X72587501Y-63384197D01*
X72597900Y-63516332D01*
X72652877Y-63734519D01*
X72745928Y-63939374D01*
X72745931Y-63939380D01*
X72874059Y-64124323D01*
X72874069Y-64124335D01*
X73033164Y-64283430D01*
X73033176Y-64283440D01*
X73218119Y-64411568D01*
X73218125Y-64411571D01*
X73422980Y-64504622D01*
X73641167Y-64559599D01*
X73773310Y-64569999D01*
X74687499Y-64569999D01*
X74687500Y-64569998D01*
X74687500Y-63070000D01*
X74987500Y-63070000D01*
X74987500Y-64569999D01*
X75901682Y-64569999D01*
X75901697Y-64569998D01*
X76033832Y-64559599D01*
X76252019Y-64504622D01*
X76456874Y-64411571D01*
X76456880Y-64411568D01*
X76641823Y-64283440D01*
X76641835Y-64283430D01*
X76800930Y-64124335D01*
X76800940Y-64124323D01*
X76929068Y-63939380D01*
X76929071Y-63939374D01*
X77022122Y-63734519D01*
X77077099Y-63516332D01*
X77087499Y-63384196D01*
X77087500Y-63384184D01*
X77087500Y-62720000D01*
X76314945Y-62720000D01*
X76337500Y-62635826D01*
X76337500Y-62504174D01*
X76314945Y-62420000D01*
X77087499Y-62420000D01*
X77087499Y-61755817D01*
X77087498Y-61755802D01*
X77077099Y-61623667D01*
X77022122Y-61405483D01*
X76974413Y-61300448D01*
X76974412Y-61300446D01*
X76953332Y-61254038D01*
X84209500Y-61254038D01*
X84209500Y-61505962D01*
X84228220Y-61624157D01*
X84248910Y-61754785D01*
X84326760Y-61994383D01*
X84441132Y-62218848D01*
X84589201Y-62422649D01*
X84589205Y-62422654D01*
X84767345Y-62600794D01*
X84767350Y-62600798D01*
X84931419Y-62720000D01*
X84971155Y-62748870D01*
X85114184Y-62821747D01*
X85195616Y-62863239D01*
X85195618Y-62863239D01*
X85195621Y-62863241D01*
X85435215Y-62941090D01*
X85684038Y-62980500D01*
X85684039Y-62980500D01*
X85935961Y-62980500D01*
X85935962Y-62980500D01*
X86184785Y-62941090D01*
X86424379Y-62863241D01*
X86648845Y-62748870D01*
X86852656Y-62600793D01*
X87030793Y-62422656D01*
X87178870Y-62218845D01*
X87293241Y-61994379D01*
X87371090Y-61754785D01*
X87410500Y-61505962D01*
X87410500Y-61254038D01*
X87371090Y-61005215D01*
X87293241Y-60765621D01*
X87293239Y-60765618D01*
X87293239Y-60765616D01*
X87198866Y-60580400D01*
X87178870Y-60541155D01*
X87172584Y-60532503D01*
X87134426Y-60479982D01*
X94369500Y-60479982D01*
X94369500Y-62280017D01*
X94380000Y-62382796D01*
X94435185Y-62549332D01*
X94435187Y-62549337D01*
X94437126Y-62552480D01*
X94527288Y-62698656D01*
X94651344Y-62822712D01*
X94800665Y-62914814D01*
X94967202Y-62969999D01*
X95069990Y-62980500D01*
X95069995Y-62980500D01*
X96870005Y-62980500D01*
X96870010Y-62980500D01*
X96972798Y-62969999D01*
X97139335Y-62914814D01*
X97288656Y-62822712D01*
X97412712Y-62698656D01*
X97504814Y-62549335D01*
X97559999Y-62382798D01*
X97570500Y-62280010D01*
X97570500Y-60479990D01*
X97559999Y-60377202D01*
X97504814Y-60210665D01*
X97412712Y-60061344D01*
X97288656Y-59937288D01*
X97139335Y-59845186D01*
X96972798Y-59790001D01*
X96972796Y-59790000D01*
X96870017Y-59779500D01*
X96870010Y-59779500D01*
X95069990Y-59779500D01*
X95069982Y-59779500D01*
X94967203Y-59790000D01*
X94967202Y-59790001D01*
X94884669Y-59817349D01*
X94800667Y-59845185D01*
X94800662Y-59845187D01*
X94651342Y-59937289D01*
X94527289Y-60061342D01*
X94435187Y-60210662D01*
X94435186Y-60210665D01*
X94380001Y-60377202D01*
X94380001Y-60377203D01*
X94380000Y-60377203D01*
X94369500Y-60479982D01*
X87134426Y-60479982D01*
X87030798Y-60337350D01*
X87030794Y-60337345D01*
X86852654Y-60159205D01*
X86852649Y-60159201D01*
X86648848Y-60011132D01*
X86648847Y-60011131D01*
X86648845Y-60011130D01*
X86578747Y-59975413D01*
X86424383Y-59896760D01*
X86184785Y-59818910D01*
X85935962Y-59779500D01*
X85684038Y-59779500D01*
X85617738Y-59790001D01*
X85435214Y-59818910D01*
X85195616Y-59896760D01*
X84971151Y-60011132D01*
X84767350Y-60159201D01*
X84767345Y-60159205D01*
X84589205Y-60337345D01*
X84589201Y-60337350D01*
X84441132Y-60541151D01*
X84326760Y-60765616D01*
X84248910Y-61005214D01*
X84248910Y-61005215D01*
X84209500Y-61254038D01*
X76953332Y-61254038D01*
X76929071Y-61200625D01*
X76929068Y-61200619D01*
X76800940Y-61015676D01*
X76800930Y-61015664D01*
X76641835Y-60856569D01*
X76641823Y-60856559D01*
X76456880Y-60728431D01*
X76456874Y-60728428D01*
X76252019Y-60635377D01*
X76033832Y-60580400D01*
X75901696Y-60570000D01*
X74987500Y-60570000D01*
X74987500Y-62070000D01*
X74687500Y-62070000D01*
X74687500Y-60570000D01*
X73773317Y-60570000D01*
X73773302Y-60570001D01*
X73641167Y-60580400D01*
X73422980Y-60635377D01*
X73218125Y-60728428D01*
X73218119Y-60728431D01*
X73033176Y-60856559D01*
X73033164Y-60856569D01*
X72874069Y-61015664D01*
X72874059Y-61015676D01*
X72745931Y-61200619D01*
X72745928Y-61200625D01*
X72652877Y-61405480D01*
X72597900Y-61623667D01*
X72587500Y-61755803D01*
X63533096Y-61755803D01*
X63227215Y-61494556D01*
X63227213Y-61494554D01*
X62872480Y-61236824D01*
X62872458Y-61236810D01*
X62498629Y-61007726D01*
X62498623Y-61007723D01*
X62107923Y-60808652D01*
X62107910Y-60808646D01*
X61702817Y-60640850D01*
X61285817Y-60505360D01*
X61285794Y-60505353D01*
X60859438Y-60402995D01*
X60426374Y-60334404D01*
X60426355Y-60334402D01*
X59989244Y-60300000D01*
X59550755Y-60300000D01*
X59113644Y-60334402D01*
X59113625Y-60334404D01*
X58680561Y-60402995D01*
X58254205Y-60505353D01*
X58254182Y-60505360D01*
X57837182Y-60640850D01*
X57432089Y-60808646D01*
X57432076Y-60808652D01*
X57041376Y-61007723D01*
X57041370Y-61007726D01*
X56667541Y-61236810D01*
X56667519Y-61236824D01*
X56312786Y-61494554D01*
X56312784Y-61494556D01*
X55979370Y-61779318D01*
X55930410Y-61828278D01*
X57719390Y-63617258D01*
X57507258Y-63829390D01*
X55718278Y-62040410D01*
X55669318Y-62089370D01*
X55384556Y-62422784D01*
X55384554Y-62422786D01*
X55126824Y-62777519D01*
X55126810Y-62777541D01*
X54897726Y-63151370D01*
X54897723Y-63151376D01*
X54698652Y-63542076D01*
X54698646Y-63542089D01*
X54530850Y-63947182D01*
X54395360Y-64364182D01*
X54395353Y-64364205D01*
X54292995Y-64790561D01*
X54224404Y-65223625D01*
X54224402Y-65223644D01*
X54190000Y-65660755D01*
X52400270Y-65660755D01*
X52376095Y-65353576D01*
X52307496Y-64920458D01*
X52205126Y-64494058D01*
X52081076Y-64112271D01*
X52069619Y-64077008D01*
X51995413Y-63897861D01*
X51901803Y-63671867D01*
X51702721Y-63281145D01*
X51702715Y-63281136D01*
X51702713Y-63281131D01*
X51702710Y-63281126D01*
X51473602Y-62907257D01*
X51473598Y-62907252D01*
X51473596Y-62907248D01*
X51215843Y-62552480D01*
X51215838Y-62552473D01*
X50931054Y-62219036D01*
X50931049Y-62219030D01*
X50620970Y-61908951D01*
X50532853Y-61833692D01*
X50287526Y-61624161D01*
X50287512Y-61624151D01*
X50124838Y-61505962D01*
X49932752Y-61366404D01*
X49932749Y-61366402D01*
X49932742Y-61366397D01*
X49558873Y-61137289D01*
X49558868Y-61137286D01*
X49558858Y-61137281D01*
X49558855Y-61137279D01*
X49168133Y-60938197D01*
X49168119Y-60938191D01*
X48762991Y-60770380D01*
X48466256Y-60673966D01*
X48345942Y-60634874D01*
X48345930Y-60634871D01*
X47919539Y-60532503D01*
X47486425Y-60463905D01*
X47049263Y-60429500D01*
X47049258Y-60429500D01*
X46610742Y-60429500D01*
X46610736Y-60429500D01*
X46173575Y-60463905D01*
X46173574Y-60463905D01*
X45740460Y-60532503D01*
X45314069Y-60634871D01*
X45314063Y-60634872D01*
X45314058Y-60634874D01*
X45314046Y-60634878D01*
X44897008Y-60770380D01*
X44491880Y-60938191D01*
X44491867Y-60938197D01*
X44101131Y-61137286D01*
X44101126Y-61137289D01*
X43727257Y-61366397D01*
X43727246Y-61366405D01*
X43372487Y-61624151D01*
X43372473Y-61624161D01*
X43039036Y-61908945D01*
X43039022Y-61908958D01*
X42728958Y-62219022D01*
X42728945Y-62219036D01*
X42444161Y-62552473D01*
X42444151Y-62552487D01*
X42186405Y-62907246D01*
X42186397Y-62907257D01*
X41957289Y-63281126D01*
X41957286Y-63281131D01*
X41758197Y-63671867D01*
X41758191Y-63671880D01*
X41590380Y-64077008D01*
X41454878Y-64494046D01*
X41454871Y-64494069D01*
X41352503Y-64920460D01*
X41283905Y-65353574D01*
X41283905Y-65353575D01*
X41249500Y-65790736D01*
X40250500Y-65790736D01*
X40250500Y-58994500D01*
X40270185Y-58927461D01*
X40322989Y-58881706D01*
X40374500Y-58870500D01*
X99125500Y-58870500D01*
X99192539Y-58890185D01*
G37*
%TD.AperFunction*%
%TD*%
M02*
